<?xml version="1.0" encoding="UTF-8"?>
<svg id="Calque_1" data-name="Calque 1" xmlns="http://www.w3.org/2000/svg" xmlns:xlink="http://www.w3.org/1999/xlink" viewBox="0 0 1280 800">
  <defs>
    <style>
      .cls-1 {
        fill: url(#Dégradé_sans_nom_144);
        opacity: .7;
      }

      .cls-2, .cls-3, .cls-4, .cls-5 {
        fill: #fff;
      }

      .cls-6 {
        opacity: .48;
      }

      .cls-3 {
        opacity: .7;
      }

      .cls-3, .cls-4, .cls-5 {
        isolation: isolate;
      }

      .cls-4 {
        opacity: .2;
      }

      .cls-5 {
        opacity: .5;
      }
    </style>
    <linearGradient id="Dégradé_sans_nom_144" data-name="Dégradé sans nom 144" x1="46.5896" y1="17.3498" x2="1346.1961" y2="727.1349" gradientUnits="userSpaceOnUse">
      <stop offset="0" stop-color="#1e4f77"/>
      <stop offset=".6448" stop-color="#0084c4"/>
      <stop offset="1" stop-color="#00a6dc"/>
    </linearGradient>
  </defs>
  <rect class="cls-1" x="-37.6516" y="-137.639" width="1317.7216" height="937.639"/>
  <g class="cls-6">
    <path class="cls-2" d="M1268.4143,668.2003c-1.0056.9204-1.0752,2.4814-.155,3.4883.0996.1089,7.1448,7.8613,12.1719,16.0503v-8.8389c-4.198-5.7827-8.2131-10.1992-8.5293-10.5449-.9207-1.0054-2.481-1.0742-3.4875-.1548Z"/>
    <path class="cls-2" d="M1280.4311,695.3053h-1.1953c-12.937-2.166-22.8296-13.436-22.8296-26.979v-12.0806h3.614c8.1062,0,15.3965,3.5469,20.4109,9.166v-6.7993c-5.5674-4.5571-12.6714-7.3027-20.4109-7.3027h-6.0825c-1.3635,0-2.4685,1.105-2.4685,2.4683v14.5483c0,11.2666,5.8027,21.1982,14.572,26.979h-90.6077l-35.7681-114.0576h44.7183v9.4448h-2.4104c-1.3635,0-2.4685,1.105-2.4685,2.4683s1.105,2.4678,2.4685,2.4678h9.7581c1.3635,0,2.4685-1.1045,2.4685-2.4678s-1.105-2.4683-2.4685-2.4683h-2.4104v-9.4448h14.7837c1.0706,0,2.0195-.6904,2.3489-1.709.3293-1.019-.0359-2.1333-.9043-2.7607l-66.4236-47.9502,45.2581.1221v8.9663h-2.4104c-1.3635,0-2.4685,1.105-2.4685,2.4683s1.105,2.4683,2.4685,2.4683h9.7581c1.3635,0,2.4685-1.1045,2.4685-2.4683s-1.105-2.4683-2.4685-2.4683h-2.4104v-8.9526l14.7766.0396h.0071c1.0503,0,1.9861-.6646,2.3313-1.6567.3459-.9941.0234-2.0991-.804-2.7505l-67.4058-53.0928c-.0452-.0576-.0735-.1245-.1245-.1787l-39.7373-42.1899c-.4705-.5005-1.1355-.7427-1.8164-.7759-.6868.0049-1.3403.2959-1.8035.8032l-38.1765,41.8057c-.0378.0205-.073.0493-.1104.0718-.0486.0298-.0959.061-.1421.0942-.0266.019-.0554.0332-.0813.0532l-67.6421,52.8247c-.8293.6475-1.1567,1.75-.8154,2.7451.3411.9951,1.2759,1.6655,2.3281,1.668l15.3379.041v9.4507h-2.4104c-1.3635,0-2.4685,1.105-2.4685,2.4683s1.105,2.4683,2.4685,2.4683h9.7581c1.3633,0,2.4685-1.1045,2.4685-2.4683s-1.1052-2.4683-2.4685-2.4683h-2.4106v-9.4365l43.6221.1177-67.7759,48.1699c-.8755.6221-1.248,1.7397-.9219,2.7622.3269,1.0239,1.2778,1.7183,2.3521,1.7183h17.7866v9.4448h-2.4104c-1.3635,0-2.4685,1.105-2.4685,2.4683s1.105,2.4678,2.4685,2.4678h9.7581c1.3633,0,2.4685-1.1045,2.4685-2.4678s-1.1052-2.4683-2.4685-2.4683h-2.4106v-9.4448h43.9919l-17.2361,53.8345c-.0029.0088-.0054.0176-.0083.0259l-19.272,60.1973h-65.7395v-19.2437h29.4109c1.5117,0,2.918-.7495,3.7622-2.0034.8438-1.2539,1.0081-2.8389.438-4.2402l-9.583-23.5586c-.001-.0024-.0017-.0049-.0027-.0073l-4.8303-11.8745c-.6978-1.7173-2.3467-2.8257-4.2002-2.8257h-77.0298c-1.772,0-3.3916,1.0405-4.126,2.6519l-16.167,35.4419c-.6431,1.4097-.5269,3.0298.3115,4.3335.8384,1.3032,2.2642,2.0825,3.814,2.0825h30.6895v19.2715h-56.7866c8.6304-5.8042,14.3208-15.6582,14.3208-26.8179v-14.5474c0-1.3633-1.105-2.4683-2.4688-2.4683h-6.083c-10.9468,0-20.6323,5.4795-26.4766,13.835-5.8291-8.4629-15.5815-14.0249-26.6123-14.0249h-6.0825c-1.3638,0-2.4688,1.105-2.4688,2.4683v14.5483c0,11.2847,5.8218,21.23,14.6152,27.0068h-18.9351l-35.7769-114.0854h44.7183v9.4448h-2.4106c-1.3633,0-2.4683,1.105-2.4683,2.4683s1.105,2.4678,2.4683,2.4678h9.7583c1.3633,0,2.4683-1.1045,2.4683-2.4678s-1.105-2.4683-2.4683-2.4683h-2.4106v-9.4448h14.7837c1.0708,0,2.0195-.6904,2.3491-1.709.3291-1.019-.0361-2.1333-.9043-2.7607l-66.4238-47.9502,45.2583.1221v8.9663h-2.4106c-1.3633,0-2.4683,1.105-2.4683,2.4683s1.105,2.4683,2.4683,2.4683h9.7583c1.3633,0,2.4683-1.1045,2.4683-2.4683s-1.105-2.4683-2.4683-2.4683h-2.4106v-8.9526l14.7769.0396h.0068c1.0503,0,1.9863-.6646,2.3315-1.6567.3457-.9941.0234-2.0991-.8042-2.7505l-67.4058-53.0928c-.0449-.0576-.0732-.1245-.1245-.1787l-39.7373-42.1899c-.4702-.5005-1.1353-.7427-1.8164-.7759-.6865.0049-1.3403.2959-1.8032.8032l-38.1763,41.8057c-.0381.0205-.0732.0493-.1104.0718-.0483.0298-.0962.061-.1426.0942-.0264.019-.0552.0332-.0811.0532l-67.6421,52.8247c-.8296.6475-1.1567,1.75-.8154,2.7451.3408.9951,1.2754,1.6655,2.3281,1.668l15.3379.041v9.4507h-2.4106c-1.3633,0-2.4683,1.105-2.4683,2.4683s1.105,2.4683,2.4683,2.4683h9.7583c1.3633,0,2.4683-1.1045,2.4683-2.4683s-1.105-2.4683-2.4683-2.4683h-2.4106v-9.4365l43.6221.1177-67.7759,48.1699c-.8755.6221-1.248,1.7397-.9219,2.7622.3267,1.0239,1.2778,1.7183,2.3516,1.7183h17.7871v9.4448h-2.4106c-1.3633,0-2.4683,1.105-2.4683,2.4683s1.105,2.4678,2.4683,2.4678h9.7583c1.3633,0,2.4683-1.1045,2.4683-2.4678s-1.105-2.4683-2.4683-2.4683h-2.4106v-9.4448h43.9922l-17.2363,53.8345c-.0029.0088-.0054.0176-.0083.0259l-19.2808,60.2251h-105.1133c-.001,0-.002.0005-.0024.0005h-16.6348c-.0107-.0693-.0098-.1387-.0273-.208l-6.4097-45.0518c3.1128,3.8457,7.3252,7.5088,12.8198,10.6221,14.4673,8.4248,28.02,6.5928,33.8799,5.311,3.1133-.7324,5.1284-4.0283,4.0288-7.1421-1.6484-5.6772-6.9595-18.3135-21.4272-26.7383-9.5225-5.4941-18.6797-6.5928-25.4561-6.4092,2.3813-5.3115,4.396-11.9048,4.396-19.9624,0-15.0322-6.5537-25.2383-10.96-30.2593,8.0806.9727,16.4385,1.5312,24.9531,1.6318.9424.0117,1.8813.0171,2.8188.0171,27.7725,0,53.4209-4.8984,72.4829-13.8755l4.9902-2.3501c1.2593-.5933,1.7988-2.0942,1.2061-3.354-.5928-1.2588-2.0923-1.7998-3.354-1.2056l-4.9902,2.3496c-38.7021,18.2256-105.7139,17.6851-146.335-1.1802-1.2617-.5864-2.7603-.0381-3.3467,1.2241-.5859,1.2622-.0386,2.7607,1.2246,3.3472,11.6016,5.3887,25.4033,9.4346,40.4478,11.9697-4.2573,4.4985-12.2866,15.229-12.2866,31.6851,0,8.0581,1.832,14.834,4.396,19.9624-6.5933,0-15.2007,1.2812-23.9912,6.4092-14.2837,8.4229-19.4106,21.0596-21.2427,26.7363-.9155,3.1133.916,6.4102,4.2124,7.1426v.001c5.8599,1.4658,19.2295,3.1133,33.8804-5.311,5.311-3.1128,9.5225-6.7759,12.6367-10.438l-6.5928,44.8682c-.0088.0693-.0034.1382-.0068.208h-56.9805l-35.9307-113.9297h45.1465v9.3481h-1.4609c-1.4609,0-2.3359,1.1685-2.3359,2.3369s1.168,2.3359,2.3359,2.3359h7.8872c1.4614,0,2.3369-1.1675,2.3369-2.3359.0015-1.1685-.8755-2.3369-2.3369-2.3369h-1.7529v-9.0552l17.0762-.001c.292,0,.5845,0,1.1685-.292,0,0,.292,0,.292-.292.292,0,.292-.292.5845-.5845v-.2915s.292-.292.292-.585v-.292l.001.0029v-1.1694q0-.292-.2915-.292l-.584-.584-67.7725-48.4922,44.4658.0029v8.7632h-1.4604c-1.4614,0-2.3364,1.1685-2.3364,2.6294s1.168,2.6294,2.3364,2.6294h7.8872c1.4609,0,2.3364-1.168,2.3364-2.6294s-1.168-2.6294-2.3364-2.6294h-1.7534v-8.7632l17.1743-.0029c.2915,0,.5845,0,1.1685-.2915,0,0,.2915,0,.2915-.292.292,0,.292-.292.5845-.584v-.2925c0-.292.292-.292.292-.5845v-2.0444l-.5835-.5835-70.6963-53.7539-39.4375-43.5278s-.2915,0-.2915-.2915l-.2925-.2925h-2.0449c-.2925,0-.2925.2925-.2925.2925,0,0-.2915,0-.2915.2915l-39.7295,43.5278-69.8188,53.751-.5835.5835v2.0444q0,.292.292.585v.292l.5845.5845s.2915,0,.2915.2915c.292,0,.585.2925.8765.2925h17.4385v8.7632h-1.4614c-1.4609,0-2.6289,1.1685-2.6289,2.6294s1.168,2.6294,2.6289,2.6294h7.8877c1.4609,0,2.6294-1.168,2.6294-2.6294s-1.1685-2.6294-2.6294-2.6294l-1.4614.001v-8.7637h43.6167l-67.481,48.2007-.5835.5835s0,.292-.292.292v1.7534q0,.2915.292.5845v.2915l.584.5845s.2925,0,.2925.292c.2915.292.5845.292,1.168.292l17.4302-.3013-.0015,9.0557h-1.4604c-1.4614,0-2.6294,1.1689-2.6294,2.3369s1.168,2.3364,2.6294,2.3364h7.8867c1.4609,0,2.6299-1.168,2.6299-2.3364.0005-1.168-1.46-2.3369-2.9209-2.3369h-1.1689v-9.0552l43.9165.3018-35.9312,113.6357-71.8823-.2085.0493-19.5376,39.5488.2139c2.042.0093,3.9478-.9873,5.0986-2.6685,1.165-1.7017,1.3857-3.8154.5938-5.8262l-15.1104-34.8311c-.9873-2.2666-3.1313-3.6812-5.5952-3.6929l-78.6782-.3721c-2.4736-.0122-4.6333,1.3833-5.6367,3.6406l-14.9385,33.5527c-1.835-.4058-3.8213-.7827-5.9146-1.1211-.6191-.0972-1.2383.0513-1.7427.4248-.2993.2207-.5366.5044-.6973.8271l-.1226-.0005-.1016.7095c-1.6323,11.4277-.5942,21.0479,3.0625,28.6606h-60.6978l-35.7051-113.8569h44.7183v9.4448h-2.4106c-1.3633,0-2.4683,1.105-2.4683,2.4683s1.105,2.4678,2.4683,2.4678h9.7578c1.3638,0,2.4688-1.1045,2.4688-2.4678s-1.105-2.4683-2.4688-2.4683h-2.4102v-9.4448h14.7837c1.0708,0,2.0195-.6904,2.3491-1.709.3291-1.019-.0361-2.1333-.9043-2.7607l-66.4238-47.9502,45.2583.1221v8.9663h-2.4106c-1.3633,0-2.4683,1.105-2.4683,2.4683s1.105,2.4683,2.4683,2.4683h9.7578c1.3638,0,2.4688-1.1045,2.4688-2.4683s-1.105-2.4683-2.4688-2.4683h-2.4102v-8.9526l14.7769.0396h.0068c1.0503,0,1.9858-.6646,2.3311-1.6567.3462-.9941.0239-2.0991-.8037-2.7505l-67.4058-53.0928c-.0454-.0576-.0737-.1245-.1245-.1787l-39.7373-42.1899c-.4707-.5005-1.1357-.7427-1.8164-.7759-.6865.0049-1.3403.2959-1.8037.8032l-13.3931,14.666v7.3218l15.2441-16.6929,33.9932,36.0918h-49.2373v5.0513H5.3496l-31.8364,22.6274-15.3833-11.105v6.0884l11.1328,8.0366-11.1328,7.9126v6.0571l15.3608-10.9165,27.0815,19.5488-42.4424-.1152v5.269H4.9141l-31.106,20.6895-15.6782-10.4277v5.9307l11.2207,7.4624-11.2207,7.4629v5.9292l15.6782-10.4277,31.106,20.689h-46.7842v4.9365H4.0337l-30.2598,17.8354-15.644-9.2373v5.7339l10.7852,6.3682-10.7852,6.3564v5.731l15.6421-9.2192,51.8364,30.6064-52.1792,23.8882-15.2993-7.0059v5.4307l9.3691,4.2905-9.3691,4.2896v5.4292l15.2988-7.0039,66.3086,30.3638H-28.5547c-1.2739,0-2.3062,1.0327-2.3062,2.3062s1.0322,2.3062,2.3062,2.3062H115.5649c5.1582,7.2402,13.1958,11.6938,23.9907,13.2368l4.8721.4224.0601-.0034c13.1001-.7656,22.8667-5.3711,29.0366-13.6899l2.6548.0132,89.3184.311h292.5317c.061,0,.1147-.0137.1733-.0181h259.667c2.0615.4141,4.1924.6348,6.3735.6348.8896,0,4.5186.189,5.5962.189,2.4824,0,4.896-.291,7.2192-.8237h111.2642c.0142.0005.0273.0044.0413.0044h329.0527c.9893.1982,1.9954.3491,3.0144.4551v-5.1431ZM15.5518,478.2184l58.1831,45.8291-58.1831-.1572v-45.6719ZM15.5518,534.6627l57.6943,41.6484H15.5518v-41.6484ZM-22.2588,501.2785l32.8735-23.3633v45.9614l-1.5757-.0044-31.2979-22.5938ZM-21.7349,552.6578l32.3496-21.5156v43.0308l-32.3496-21.5151ZM-21.3687,601.9518l33.0269-19.4668,14.9971,47.8223-48.0239-28.3555ZM-20.6416,662.026l50.0571-22.9165,16.7852,53.5254-66.8423-30.6089ZM234.0322,669.0768c.2041.4546.1597.981-.1172,1.4062-.2773.4263-.7373.6689-1.2612.6665l-30.4258-.144-1.7793-9.4619,30.3779.1494,3.2056,7.3838ZM224.7036,647.5626l4.1074,9.4668-29.2354-.1382-1.7788-9.4561,26.9067.1274ZM217.5957,633.4327c.646.0034,1.082.2935,1.3613.894l3.7222,8.5776-25.7617-.1226-1.7783-9.4609,22.4565.1118ZM166.1025,633.1837l24.3081.1147,1.7788,9.4619-27.9551-.1318,1.8682-9.4448ZM163.3164,647.2721l29.752.1406,1.7783,9.4561-33.3979-.1582,1.8677-9.4385ZM137.5478,633.9371c.2554-.5796.728-.8853,1.3677-.8828l22.4575.1064-1.8682,9.4453-25.7612-.1221,3.8042-8.5469ZM131.6807,647.1217l26.9077.1274-1.8687,9.439-29.2363-.1382,4.1973-9.4282ZM125.4185,661.1891l30.3784.1431-1.8682,9.4443-20.6006-.0977c-3.0146-1.5161-6.5034-2.8364-10.3862-3.9302l2.4766-5.5596ZM144.0845,703.0475c-3.2007-7.1978-8.479-14.8501-14.4585-20.8872-1.0576-1.0625-2.4761-.79-3.2754.0024-.7983.793-1.0801,2.21-.0273,3.272,6.7441,6.8086,12.2554,15.3403,14.9336,23.062-9.3394-1.1128-16.4277-4.6074-21.0796-10.396-5.415-6.7388-7.4644-16.3682-6.0962-28.6328,14.2173,2.6055,23.2842,7.2617,27.7031,14.2256,3.2227,5.0781,3.9941,11.5801,2.3003,19.354ZM140.5308,675.3619l10.0903.0479c-1.8916,1.9302-3.4229,4.0508-4.5742,6.333-1.4165-2.3345-3.2632-4.4702-5.5161-6.3809ZM173.6167,689.5934c-3.6763,10.7251-12.9453,17.4028-26.1729,18.8979.5278-1.7275.9663-3.4194,1.3057-5.0459,1.9429-3.3457,4.3115-7.2236,7.1724-10.7417,2.8911-3.5532,5.9946-6.4189,9.7651-9.02.7007-.4839,1.0659-1.2236,1.0015-2.0298-.0679-.8545-.6123-1.644-1.3857-2.0117-.7305-.3457-1.5518-.2681-2.2505.2153-5.2388,3.6108-9.4658,7.8535-13.4707,13.5591-.1196-1.9307-.4189-3.7822-.895-5.5308,1.1958-4.8647,4.3301-9.1606,9.0762-12.4355,4.6851-3.2227,10.6685-5.3135,16.9233-5.9224.2095,1.2798.3755,2.5454.4912,3.7505.4355,7.6479.3599,9.5562-1.5605,16.3149ZM158.9414,669.3502l1.583-8,35.1963.1665,1.7793,9.4609-17.9321-.085c-.1812-1.3813-.4102-2.7783-.6772-4.1313-.1597-1.187-1.2002-2.0366-2.397-2.0044-6.166.2744-12.3286,1.895-17.5522,4.5933ZM188.3784,695.1046l-12.0142-.0566c.3916-.7881.7588-1.6099,1.0977-2.4585,0,0,1.0107-2.4961,1.4639-4.6455.9229-3.8174,1.2793-7.9795,1.0625-12.3999l8.4448.0137-.0547,19.5469ZM385.8574,477.1159l61.0532,46.4482h-61.0532v-46.4482ZM385.8555,533.4987l60.4707,43.2339h-60.4707v-43.2339ZM382.0571,581.4035l15.7759,49.6626-49.0781-29.7974,33.0103-19.8652h.292ZM344.375,503.4074l28.0449,20.1567h-56.3799l28.335-20.1567ZM344.083,497.2726l-31.8413-22.7856h63.3906l-31.5493,22.7856ZM375.6323,528.8234l-31.8408,20.4487-32.1333-20.4487h63.9741ZM381.1831,531.1603v41.7729l-32.4272-20.7412,32.4272-21.0317ZM339.4097,552.193l-32.1328,20.7417-.0005-41.1899,32.1333,20.4482ZM343.7915,555.1139l33.3013,21.3257h-66.3115l33.0103-21.3257ZM372.126,581.4054l-28.043,16.9434-28.043-16.9434h56.0859ZM396.6641,635.7404l-52.582,23.9546-52.582-23.9546,52.582-31.8413,52.582,31.8413ZM381.1831,523.8566l-32.7188-23.3706,32.7188-23.3701v46.7407ZM344.082,432.4215l33.8872,37.3921-67.7729-.001,33.8857-37.3911ZM306.9829,477.1159l32.7188,23.3701-32.4272,23.3701h-.2915v-46.7402ZM241.8384,523.5641l60.4702-46.4482v46.4482h-60.4702ZM242.1309,576.7326l59.8848-42.9424v42.9424h-59.8848ZM305.8144,581.6984l.584-.001-.001-.292,33.0098,19.8647-49.0757,29.7979,15.4829-49.3696ZM287.7017,639.5377l50.5386,22.7856-67.481,30.6724,16.9424-53.458ZM278.0615,695.0431l66.0205-29.7979,66.0205,29.7979h-132.041ZM350.2173,662.6163l50.5381-22.7866,16.6514,53.168-67.1895-30.3813ZM506.4224,631.3937c5.8599-.1826,13.7349.916,22.1587,5.6772,12.8203,7.5088,17.3984,18.4971,18.8633,23.4414v.1831h-.1836c-5.1279,1.2817-16.8481,2.7471-29.8511-4.5781-6.7759-3.8462-11.1709-8.791-14.1011-13.186,2.0142-2.1973,3.2969-5.311,3.2969-8.6069.1826-1.0991,0-2.0146-.1831-2.9307ZM493.7851,577.735c3.8462,3.8452,10.9883,13.1851,10.9883,28.2026,0,7.1426-1.6484,13.0029-3.8457,17.5811-2.0142-1.2817-4.3955-2.1973-6.9595-2.1973-2.7471,0-5.1279.916-7.3257,2.1973-2.1973-4.5781-3.8457-10.6226-3.8457-17.7642,0-14.834,7.3257-24.3574,10.9883-28.0195ZM471.0762,656.1173c-12.8193,7.5088-24.7236,5.8604-29.8511,4.5786.3662,0,.1831,0,.1831-.1831v-.0005c1.4653-4.9438,6.0435-16.1157,18.8633-23.4409,7.875-4.5786,15.3833-5.6777,21.0605-5.6777-.1831.916-.3657,1.832-.3657,2.9302,0,3.6631,1.4648,6.9595,3.8452,9.1567-2.9297,4.2124-7.3252,8.9741-13.7354,12.6367ZM486.6426,634.1408c0-4.0288,3.2969-7.3257,7.3257-7.3257s7.3252,3.2969,7.3252,7.3257-3.2964,7.3252-7.3252,7.3252-7.3257-3.2964-7.3257-7.3252ZM485.6182,695.3336l6.8848-48.374h1.2817c.7329,0,1.4658,0,2.1978-.1831l6.8848,48.5571h-17.249ZM750.956,478.2184l58.1836,45.8291-58.1836-.1572v-45.6719ZM750.956,534.6627l57.6948,41.6484h-57.6948v-41.6484ZM762.0596,630.3073l-48.0234-28.3555,33.0264-19.4668,14.9971,47.8223ZM735.9766,523.8493l-54.3813-.1475,27.2998-19.4014,27.0815,19.5488ZM677.5732,475.5997h63.1812l-31.8364,22.6274-31.3447-22.6274ZM740.3184,529.0031l-31.106,20.6895-31.1064-20.6895h62.2124ZM746.019,531.1422v43.0308l-32.3491-21.5151,32.3491-21.5156ZM740.3184,576.3112h-62.2124l31.1064-20.689,31.106,20.689ZM739.438,581.2477l-30.2593,17.8354-30.2061-17.8354h60.4653ZM761.0132,635.4225l-52.1797,23.8882-51.8394-23.7378,52.1826-30.7568,51.8364,30.6064ZM746.019,523.8766l-1.5757-.0044-31.2979-22.5938,32.8735-23.3633v45.9614ZM708.7783,434.4567l33.9932,36.0918h-66.9521l32.959-36.0918ZM672.4053,477.9581l32.2617,23.2891-31.5615,22.4321-.7002-.002v-45.7192ZM672.4053,531.1422l32.3496,21.5156-32.3496,21.5156v-43.0312ZM609.4414,523.507l58.0269-45.3154v45.4722l-58.0269-.1567ZM607.5737,576.3112l59.8945-42.5688v42.5688h-59.8945ZM671.3447,582.4772l32.9746,19.4707-48.3281,28.4854,15.3535-47.9561ZM653.168,639.2511l49.7358,22.7749-66.8208,30.5898,17.085-53.3647ZM642.0098,695.3331l66.8232-30.5923,66.8076,30.5923h-133.6309ZM714.7627,662.026l50.0571-22.9165,16.7852,53.5254-66.8423-30.6089ZM827.8569,690.1105c-5.0557-10.2935-14.9746-21.2036-15.479-21.7554-.9204-1.0054-2.481-1.0742-3.4873-.1548-1.0059.9204-1.0752,2.4814-.1553,3.4883.1309.1426,12.2378,13.4604,16.0254,23.6445h-4.894c-13.0132-2.1016-22.9844-13.4102-22.9844-27.0068v-12.0806h3.6143c15.0869,0,27.3604,12.2744,27.3604,27.3613v6.5034ZM835.2134,695.3331h-2.396c-.1084-.6948-.0234-2.2568-.0234-3.2607v-3.5259c5.0449-8.4126,12.4507-16.5562,12.5527-16.668.9199-1.0068.8506-2.5679-.1553-3.4883-1.0068-.9209-2.5674-.8506-3.4873.1548-.3311.3623-4.7202,5.1914-9.1265,11.3765-.3921-3.4321-1.3247-6.7002-2.7095-9.7212,4.7275-8.2129,13.5801-13.7646,23.7173-13.7646h3.6147v12.0796c0,13.2466-9.4658,24.313-21.9868,26.8179ZM966.9509,636.3224l3.4475,8.4766h-23.9805l-1.6865-8.4766h22.2195ZM946.823,671.2907h-36.9146l1.7224-8.4756h33.5061l1.686,8.4756ZM917.0156,636.3224h22.8508l1.686,8.4766h-26.2598l1.7229-8.4766ZM914.3232,649.5695h28.1785l1.686,8.4746h-31.5872l1.7227-8.4746ZM890.2334,636.3224h21.9131l-1.7229,8.4766h-24.0564l3.8662-8.4766ZM905.0391,671.2907h-30.7559l3.8662-8.4756h28.6123l-1.7227,8.4756ZM880.3252,658.0441l3.8657-8.4746h25.2632l-1.7227,8.4746h-27.4062ZM947.3442,695.3331h-37.9695v-19.2715h37.9695v19.2715ZM947.3669,649.5695h24.9719l3.4473,8.4746h-26.7329l-1.6863-8.4746ZM950.0022,662.8151h27.7246l3.4475,8.4756h-29.4861l-1.686-8.4756ZM1138.7732,478.2184l58.1833,45.8291-58.1833-.1572v-45.6719ZM1138.7732,534.6627l57.6946,41.6484h-57.6946v-41.6484ZM1149.8765,630.3073l-48.0234-28.3555,33.0266-19.4668,14.9968,47.8223ZM1123.7937,523.8493l-54.3813-.1475,27.2996-19.4014,27.0818,19.5488ZM1065.3901,475.5997h63.1809l-31.8364,22.6274-31.3445-22.6274ZM1128.1357,529.0031l-31.1062,20.6895-31.1067-20.6895h62.2129ZM1133.8362,531.1422v43.0308l-32.3494-21.5151,32.3494-21.5156ZM1128.1357,576.3112h-62.2129l31.1067-20.689,31.1062,20.689ZM1127.2549,581.2477l-30.2593,17.8354-30.2058-17.8354h60.4651ZM1148.8301,635.4225l-52.1797,23.8882-51.8394-23.7378,52.1826-30.7568,51.8364,30.6064ZM1133.8362,523.8766l-1.5757-.0044-31.2981-22.5938,32.8738-23.3633v45.9614ZM1096.5955,434.4567l33.9929,36.0918h-66.9519l32.959-36.0918ZM1060.2224,477.9581l32.262,23.2891-31.562,22.4321-.7-.002v-45.7192ZM1060.2224,531.1422l32.3494,21.5156-32.3494,21.5156v-43.0312ZM997.2585,523.507l58.0269-45.3154v45.4722l-58.0269-.1567ZM995.3906,576.3112l59.8948-42.5688v42.5688h-59.8948ZM1059.1616,582.4772l32.9746,19.4707-48.3276,28.4854,15.353-47.9561ZM1040.9851,639.2511l49.7356,22.7749-66.8206,30.5898,17.085-53.3647ZM1029.8872,695.3053l66.7627-30.5645,66.7471,30.5645h-133.5098ZM1102.5798,662.026l50.0571-22.9165,16.7852,53.5254-66.8423-30.6089Z"/>
    <path class="cls-2" d="M1280.4311,405.7623l-96.8201,38.7549c-1.2654.5073-1.8806,1.9438-1.3743,3.21.3862.9644,1.3132,1.5513,2.2927,1.5513.3052,0,.616-.0576.9167-.1772l94.9849-38.0205v-5.3184Z"/>
    <path class="cls-2" d="M1280.4311,471.9694l-47.939,17.7456c-1.3181.3481-2.1047,1.6982-1.7573,3.0166.292,1.1079,1.2917,1.8398,2.3855,1.8398.2083,0,.4197-.0264.6311-.0815l46.6797-17.2798v-5.2407Z"/>
    <path class="cls-2" d="M1280.4311,548.5328l-33.6609,3.8198c-1.3545.1533-2.3281,1.3765-2.1746,2.731.1431,1.2603,1.2109,2.1899,2.4497,2.1899.0933,0,.1865-.0054.2812-.0161l33.1045-3.7568v-4.9678Z"/>
    <path class="cls-2" d="M436.3581,499.4217c23.6665,11.2733,54.555,16.1056,85.5184,16.1056,32.0403,0,64.1594-5.1775,88.4048-13.7495.0797-.0281.1575-.0601.2343-.096l4.9902-2.3502c1.2591-.5931,1.7986-2.0947,1.206-3.3538-.5917-1.2591-2.093-1.8003-3.3541-1.2062l-4.8751,2.296c-46.7207,16.4782-123.0185,20.1623-169.9568-2.1966-1.2552-.5988-2.7604-.065-3.359,1.1914-.5986,1.2567-.065,2.7607,1.1912,3.3592Z"/>
    <path class="cls-2" d="M594.7514,527.7573l-4.9902,2.3502c-39.8865,18.7833-85.6956,18.9039-125.6815.333-1.2631-.5865-2.7604-.0381-3.3472,1.2242-.5858,1.2623-.0384,2.7609,1.2247,3.3472,20.5487,9.5439,42.578,14.3126,64.6103,14.3126,22.2971,0,44.5972-4.8881,65.3418-14.6569l4.9902-2.3502c1.2591-.5931,1.7986-2.0947,1.206-3.3538-.5917-1.2589-2.091-1.7996-3.3541-1.2062Z"/>
    <path class="cls-2" d="M809.9206,506.6371c23.3446,8.2572,59.0009,13.2317,94.3451,13.2317,28.9826,0,57.7594-3.3479,79.3359-10.9763.0797-.0281.1575-.0601.2343-.096l4.9902-2.3499c1.2591-.5929,1.7986-2.0944,1.206-3.3538-.5926-1.2584-2.092-1.8001-3.3541-1.2062l-4.8751,2.2958c-46.9461,16.5414-128.5424,12.438-170.2009-2.2972-1.3162-.4642-2.7535.2235-3.2162,1.5355-.4647,1.3123.2225,2.7523,1.5348,3.2165Z"/>
    <path class="cls-2" d="M899.8868,556.4391c22.2971,0,44.5982-4.8881,65.3428-14.6569l4.9902-2.3502c1.2591-.5931,1.7986-2.0947,1.206-3.3538-.5926-1.2589-2.092-1.7998-3.3541-1.2062l-4.9902,2.3502c-39.8865,18.7831-85.6946,18.9044-125.6815.333-1.2631-.5867-2.7604-.0381-3.3472,1.2239-.5858,1.2626-.0384,2.7612,1.2247,3.3474,20.5477,9.5439,42.5771,14.3126,64.6093,14.3126Z"/>
    <path class="cls-2" d="M820.8688,565.8673c-.5858,1.2626-.0384,2.7612,1.2247,3.3474,20.1372,9.3534,46.8811,14.6904,75.3036,15.0278.9421.0113,1.8813.0167,2.8185.0167,27.7727,0,53.4209-4.8987,72.4831-13.8753l4.9902-2.3502c1.2591-.5931,1.7986-2.0947,1.206-3.3538-.5926-1.2586-2.092-1.8001-3.3541-1.2062l-4.9902,2.3502c-38.7032,18.2256-105.7146,17.6851-146.3346-1.1806-1.2631-.5872-2.7604-.0381-3.3472,1.2239Z"/>
    <path class="cls-2" d="M66.3122,499.4641c25.7654,11.0016,56.9571,15.5873,87.3485,15.5873,32.2018,0,63.5038-5.1502,86.4802-13.2735.0797-.0281.1575-.0601.2343-.096l4.9912-2.3502c1.2591-.5929,1.7986-2.0944,1.206-3.3536-.5926-1.2589-2.092-1.8006-3.3541-1.2065l-4.876,2.296c-43.7801,15.4379-118.2055,19.898-170.0513-2.2389-1.2788-.5461-2.7604.0473-3.3068,1.328-.5474,1.28.0473,2.7609,1.328,3.3073Z"/>
    <path class="cls-2" d="M156.427,549.3244c22.2971,0,44.5972-4.8881,65.3418-14.6569l4.9912-2.3502c1.2591-.5929,1.7986-2.0944,1.206-3.3536-.5926-1.2589-2.092-1.7998-3.3541-1.2065l-4.9912,2.3502c-39.8865,18.7833-85.6965,18.9039-125.6815.333-1.2631-.5865-2.7604-.0381-3.3472,1.2242-.5858,1.2623-.0384,2.7609,1.2247,3.3472,20.5487,9.5439,42.578,14.3126,64.6103,14.3126Z"/>
    <path class="cls-2" d="M77.4081,558.7529c-.5858,1.2623-.0384,2.7609,1.2247,3.3472,20.1382,9.3534,46.8811,14.6904,75.3046,15.0278.9421.0113,1.8803.0167,2.8175.0167,27.7727,0,53.4209-4.8987,72.4831-13.8753l4.9902-2.3502c1.2591-.5931,1.7986-2.0947,1.206-3.3538-.5917-1.2589-2.091-1.7998-3.3541-1.2062l-4.9902,2.3502c-38.7022,18.2261-105.7156,17.6847-146.3346-1.1806-1.2621-.5862-2.7604-.0381-3.3472,1.2242Z"/>
  </g>
  <g>
    <polygon class="cls-2" points="675.4337 122.9579 668.5679 122.9579 668.5679 145.3683 685.3468 145.3683 685.3468 139.621 675.4337 139.621 675.4337 122.9579"/>
    <polygon class="cls-2" points="688.2782 145.3683 695.2598 145.3683 695.2598 136.8438 704.2085 136.8438 704.2085 131.5595 695.2598 131.5595 695.2598 128.7051 705.5971 128.7051 705.5971 122.9579 688.2782 122.9579 688.2782 145.3683"/>
    <polygon class="cls-2" points="710.8815 145.5611 723.3789 145.5611 723.3789 144.0568 712.5401 144.0568 712.5401 134.4524 722.8389 134.4524 722.8389 132.9481 712.5401 132.9481 712.5401 124.4236 723.3789 124.4236 723.3789 122.9579 710.8815 122.9579 710.8815 145.5611"/>
    <path class="cls-2" d="M743.745,137.6924c0,1.6586.0771,3.4329.1929,5.2844h-.1929l-13.616-19.9804h-1.5814v22.4875h1.4657v-14.6574c0-1.1957-.0771-2.9701-.1929-5.3615h.0771l13.616,20.0961h1.7357v-22.6033h-1.5814v14.7346h.0771Z"/>
    <polygon class="cls-2" points="751.7294 145.5611 764.2268 145.5611 764.2268 144.0568 753.388 144.0568 753.388 134.4524 763.6482 134.4524 763.6482 132.9481 753.388 132.9481 753.388 124.4236 764.2268 124.4236 764.2268 122.9579 751.7294 122.9579 751.7294 145.5611"/>
    <path class="cls-2" d="M782.0085,133.0638c.8486-1.0029,1.1957-2.3143,1.1957-3.8958,0-2.1215-.7329-3.6258-2.0443-4.7058-1.3886-1.0029-3.5101-1.5815-6.2873-1.5815h-5.4772v22.6804h1.5814v-9.913l5.6315.0771,6.0172,9.7973h1.9286l-6.1715-10.2602c1.5814-.3471,2.7772-1.1957,3.6258-2.1986ZM775.3355,134.3367h-4.4358v-9.913h3.7029c2.3915,0,4.0886.3857,5.1687,1.1957,1.0029.7329,1.5814,2.0443,1.5814,3.7029s-.54,2.8543-1.5814,3.7029c-.9257.9643-2.5072,1.3115-4.4358,1.3115Z"/>
    <path class="cls-2" d="M797.3602,135.3781h6.673v7.6759c-1.4657.54-3.2401.8486-5.2844.8486-3.2401,0-5.6315-.8486-7.213-2.5072-1.6586-1.6586-2.5072-4.1658-2.5072-7.483,0-3.0472.8486-5.4772,2.5843-7.213,1.6586-1.8515,4.0886-2.7,7.0201-2.7,2.0443,0,4.0886.4629,6.0172,1.3886l.6557-1.3886c-1.9286-.8486-4.1658-1.3886-6.5573-1.3886-2.3143,0-4.2429.4629-6.0172,1.3886s-3.0472,2.3143-4.0886,4.0886c-.9257,1.7743-1.3886,3.7029-1.3886,5.9401,0,3.6258.9257,6.403,2.7772,8.3316s4.6287,2.9701,8.1387,2.9701c2.7,0,5.1687-.3857,7.3287-1.3886v-10.0673h-8.2544l.1157,1.5043Z"/>
    <polygon class="cls-2" points="823.1264 122.9579 816.4534 135.1852 809.7804 122.9579 807.929 122.9579 815.5277 136.8438 815.5277 145.3683 817.1863 145.3683 817.1863 136.651 824.785 122.9579 823.1264 122.9579"/>
    <g>
      <path class="cls-2" d="M648.5875,199.0992v1.35c0,6.5187,2.8543,9.8359,8.7944,9.8359,5.4001,0,8.1001-3.8186,8.1001-7.7916,0-5.6315-2.8543-8.1001-7.6373-9.5273l-5.863-2.0443c-7.7916-3.0086-11.1859-7.0587-11.1859-14.696,0-9.7587,6.5958-15.1588,16.6632-15.1588,13.7317,0,15.1588,8.563,15.1588,14.1174v1.1957h-8.563v-1.1186c0-4.8601-2.16-7.7144-7.5216-7.7144-3.6644,0-7.213,2.0443-7.213,7.7144,0,4.5901,2.3143,6.9044,8.023,9.0644l5.7858,2.0829c7.5601,2.7,10.8773,6.8273,10.8773,14.1945,0,11.4173-6.9044,16.1231-17.7046,16.1231-13.2688,0-16.2774-8.8716-16.2774-16.3546v-1.2729h8.563Z"/>
      <path class="cls-2" d="M680.911,162.1472h28.9677v7.213h-20.4047v14.8503h19.2089v7.213h-19.2089v17.0875h21.0218v7.213h-29.5848v-53.5767Z"/>
      <path class="cls-2" d="M730.129,162.1472h10.9545l14.1174,53.5767h-8.9102l-3.3172-13.1145h-15.6989l-3.4329,13.1145h-8.9102l15.1974-53.5767ZM741.5464,195.7435l-6.133-26.4219h-.1543l-6.3644,26.4219h12.6517Z"/>
      <path class="cls-2" d="M760.4467,162.1472h16.9717c10.2602,0,14.7731,6.4415,14.7731,15.6217,0,9.6045-5.6315,15.8146-15.6989,15.8146h-7.5216v22.1404h-8.563v-53.5767h.0386ZM769.0097,187.1033h6.0944c4.5901,0,8.563-2.4686,8.563-9.2187,0-5.7858-2.3143-9.2959-9.1416-9.2959h-5.4772v18.5146h-.0386Z"/>
      <path class="cls-2" d="M805.3061,162.1472h10.9545l14.1174,53.5767h-8.9102l-3.3172-13.1145h-15.6989l-3.4329,13.1145h-8.9487l15.236-53.5767ZM816.7234,195.7435l-6.133-26.4219h-.1543l-6.3644,26.4219h12.6517Z"/>
      <path class="cls-2" d="M838.7867,169.3216h-12.7674v-7.213h33.8278v7.213h-12.5359v46.3637h-8.563v-46.3637h.0386Z"/>
      <path class="cls-2" d="M866.25,162.1472h8.563v21.4461h15.7374v-21.4461h8.563v53.5767h-8.563v-24.9176h-15.7374v24.9176h-8.563v-53.5767Z"/>
    </g>
    <polygon class="cls-2" points="644.4989 131.8295 639.8702 131.8295 639.8702 145.3683 653.4862 145.3683 653.4862 140.9325 644.4989 140.9325 644.4989 131.8295"/>
    <polygon class="cls-2" points="639.8702 129.5151 644.4217 129.5151 644.4217 127.3165 658.0377 127.3165 658.0377 140.9325 655.8005 140.9325 655.8005 145.3683 662.5506 145.3683 662.5506 122.765 639.8702 122.765 639.8702 129.5151"/>
    <path class="cls-2" d="M557.8273,160.1414c7.9459-5.4387,16.0846-10.8002,31.9763-10.8002,1.3114,0,2.5458.0386,3.7415.1157,5.8244-3.8572,12.3817-7.213,23.8376-7.213.6943,0,1.35,0,2.0058.0386-9.2959-17.7432-27.8876-29.8548-49.2952-29.8548-21.7933,0-40.655,12.5359-49.758,30.7806,15.8146,3.3172,19.9418,14.696,37.4921,16.9332Z"/>
    <path class="cls-5" d="M557.8273,160.1414c-17.5503-2.1986-21.6775-13.5774-37.5307-16.9717-3.7415,7.483-5.9015,15.9303-5.9015,24.879,0,.8872.0386,1.7743.0771,2.6615,3.0472.54,6.4801.8872,10.3373.8872,16.586,0,24.7247-5.7858,33.0177-11.4559Z"/>
    <path class="cls-5" d="M593.5451,149.4569c15.6989.8872,23.2204,7.4058,31.8606,13.1145-.6943-7.2516-2.8158-14.1174-6.0558-20.2889-.6557-.0386-1.3114-.0386-2.0058-.0386-11.4173,0-17.936,3.3558-23.799,7.213Z"/>
    <path class="cls-4" d="M589.8036,149.3412c-15.9303,0-24.0304,5.323-31.9763,10.8002-8.293,5.6701-16.4317,11.4945-32.9792,11.4945-3.8572,0-7.2901-.3086-10.3373-.8872.1157,2.8543.4629,5.6315,1.0414,8.3316,3.5101-.5786,7.3673-.8872,11.6874-.8872,17.4732,0,27.4248,5.1687,36.3349,11.0316,11.8802-5.2458,17.126-15.0431,36.6435-15.0431,11.4945,0,18.0518,3.3943,23.9147,7.2901,1.08-4.2815,1.62-8.7944,1.62-13.3845,0-1.8515-.0771-3.6644-.27-5.4772-8.6402-5.7472-16.1617-12.2274-31.8606-13.1145-1.2729-.1157-2.5072-.1543-3.8186-.1543Z"/>
    <path class="cls-5" d="M563.536,189.2248c11.7645,7.753,21.6775,16.7403,44.7437,16.7403.8872,0,1.6972,0,2.5458-.0386,6.3258-6.7887,10.9545-15.1588,13.2302-24.4547-5.863-3.8572-12.4202-7.2901-23.9147-7.2901-19.5175,0-24.7247,9.7973-36.6049,15.0431Z"/>
    <path class="cls-3" d="M563.536,189.2248c-8.9102-5.863-18.8618-11.0316-36.3349-11.0316-4.3201,0-8.1773.3086-11.6874.8872,2.2372,11.0702,7.7144,20.9447,15.4674,28.5819,5.0915-2.8929,11.1088-5.1301,20.4432-5.1301,21.6775,0,25.7662,12.0731,40.8093,16.586,7.0973-3.0858,13.4231-7.5987,18.5918-13.1917-.8486.0386-1.6586.0386-2.5458.0386-23.0661,0-33.0177-8.9873-44.7437-16.7403Z"/>
    <path class="cls-4" d="M530.9811,207.6237c10.0673,9.913,23.8376,16.046,39.1121,16.046,7.8687,0,15.3517-1.6586,22.1404-4.5901-15.0817-4.5129-19.1703-16.586-40.8093-16.586-9.3345.0386-15.3903,2.2372-20.4432,5.1301Z"/>
  </g>
</svg>