<?xml version="1.0" encoding="UTF-8"?>
<svg id="Calque_1" data-name="Calque 1" xmlns="http://www.w3.org/2000/svg" xmlns:xlink="http://www.w3.org/1999/xlink" viewBox="0 0 1280 1024">
  <defs>
    <style>
      .cls-1 {
        fill: url(#Dégradé_sans_nom_144);
        opacity: .7;
      }

      .cls-2, .cls-3, .cls-4, .cls-5 {
        fill: #fff;
      }

      .cls-6 {
        opacity: .48;
      }

      .cls-3 {
        opacity: .7;
      }

      .cls-3, .cls-4, .cls-5 {
        isolation: isolate;
      }

      .cls-4 {
        opacity: .2;
      }

      .cls-5 {
        opacity: .5;
      }
    </style>
    <linearGradient id="Dégradé_sans_nom_144" data-name="Dégradé sans nom 144" x1="-95.0662" y1="151.8871" x2="1353.0949" y2="942.8058" gradientUnits="userSpaceOnUse">
      <stop offset="0" stop-color="#1e4f77"/>
      <stop offset=".6448" stop-color="#0084c4"/>
      <stop offset="1" stop-color="#00a6dc"/>
    </linearGradient>
  </defs>
  <rect class="cls-1" x="-188.9368" y="-20.8181" width="1468.347" height="1044.8181"/>
  <g class="cls-6">
    <path class="cls-2" d="M1316.2262,864.0254h2.731v-5.5002h-2.731c-12.1986,0-22.9911,6.1058-29.5031,15.4159-6.4956-9.43-17.363-15.6277-29.6545-15.6277h-6.7778c-1.5193,0-2.7507,1.2311-2.7507,2.7501v16.2115c0,12.5545,6.4659,23.6215,16.2377,30.063h-100.9647l-39.8565-127.0952h49.8299v10.5243h-2.686c-1.5193,0-2.7507,1.2311-2.7507,2.7501s1.2314,2.7501,2.7507,2.7501h10.8734c1.5193,0,2.7507-1.2305,2.7507-2.7501s-1.2314-2.7501-2.7507-2.7501h-2.686v-10.5243h16.4736c1.193,0,2.2505-.7695,2.6175-1.9044.3669-1.1355-.0401-2.3775-1.0076-3.0762l-74.0164-53.4316,50.4316.1361v9.9914h-2.686c-1.5193,0-2.7507,1.2311-2.7507,2.7501s1.2314,2.7507,2.7507,2.7507h10.8734c1.5193,0,2.7507-1.2311,2.7507-2.7507s-1.2314-2.7501-2.7507-2.7501h-2.686v-9.9762l16.4659.0442h.0076c1.1705,0,2.2132-.7405,2.5977-1.8463.3856-1.1077.0263-2.3387-.8957-3.0647l-75.1107-59.1617c-.0504-.0641-.082-.1385-.1388-.199l-44.2796-47.0125c-.5243-.5578-1.2654-.8276-2.0239-.8645-.7652.0054-1.4936.3297-2.0097.8947l-42.5403,46.5842c-.0423.023-.0812.0551-.1229.0805-.0541.0333-.107.0678-.1585.1047-.0296.0212-.0617.0369-.0905.0593l-75.374,58.8629c-.9242.7217-1.2889,1.9504-.9089,3.0592.3801,1.1089,1.4217,1.856,2.5944,1.8584l17.0912.046v10.531h-2.686c-1.5193,0-2.7507,1.2311-2.7507,2.7501s1.2314,2.7507,2.7507,2.7507h10.8734c1.5193,0,2.7507-1.2311,2.7507-2.7507s-1.2314-2.7501-2.7507-2.7501h-2.686v-10.5152l48.6084.1313-75.5231,53.676c-.9758.6933-1.391,1.9383-1.0274,3.078.3643,1.1409,1.4239,1.9147,2.6207,1.9147h19.82v10.5243h-2.686c-1.5193,0-2.7507,1.2311-2.7507,2.7501s1.2314,2.7501,2.7507,2.7501h10.8734c1.5193,0,2.7507-1.2305,2.7507-2.7501s-1.2314-2.7501-2.7507-2.7501h-2.686v-10.5243h49.0203l-19.2062,59.9881c-.0033.0097-.006.0194-.0094.029l-21.475,67.0781h-73.2538v-21.4437h32.7727c1.6845,0,3.2515-.8348,4.1922-2.2323.9402-1.3974,1.1234-3.1633.4882-4.7247l-10.6784-26.2518c-.0011-.0024-.0019-.0054-.003-.0079l-5.3824-13.2321c-.7775-1.9135-2.615-3.1488-4.6803-3.1488h-85.8352c-1.9743,0-3.7788,1.1597-4.5972,2.9552l-18.0151,39.493c-.7166,1.5711-.587,3.3762.3472,4.8287s2.5228,2.3206,4.25,2.3206h34.1975v21.4745h-63.2776c9.6168-6.4675,15.9575-17.448,15.9575-29.8833v-16.2102c0-1.519-1.2314-2.7501-2.7508-2.7501h-6.7783c-12.1983,0-22.9911,6.1058-29.5031,15.4159-6.4956-9.43-17.3629-15.6277-29.6545-15.6277h-6.7778c-1.5193,0-2.7507,1.2311-2.7507,2.7501v16.2115c0,12.5745,6.4873,23.6566,16.286,30.0939h-21.0996l-39.8665-127.1261h49.8299v10.5243h-2.686c-1.5193,0-2.7507,1.2311-2.7507,2.7501s1.2314,2.7501,2.7507,2.7501h10.8734c1.5193,0,2.7507-1.2305,2.7507-2.7501s-1.2314-2.7501-2.7507-2.7501h-2.686v-10.5243h16.4736c1.193,0,2.2505-.7695,2.6175-1.9044.3669-1.1355-.0401-2.3775-1.0076-3.0762l-74.0164-53.4316,50.4316.1361v9.9914h-2.686c-1.5193,0-2.7507,1.2311-2.7507,2.7501s1.2314,2.7507,2.7507,2.7507h10.8734c1.5193,0,2.7507-1.2311,2.7507-2.7507s-1.2314-2.7501-2.7507-2.7501h-2.686v-9.9762l16.4659.0442h.0076c1.1705,0,2.2132-.7405,2.5977-1.8463.3856-1.1077.0263-2.3387-.8957-3.0647l-75.1107-59.1617c-.0504-.0641-.0817-.1385-.1388-.199l-44.2796-47.0125c-.5243-.5578-1.2654-.8276-2.0239-.8645-.7652.0054-1.4936.3297-2.0097.8947l-42.5401,46.5842c-.0425.023-.0814.0551-.1229.0805-.054.0333-.1072.0678-.1587.1047-.0296.0212-.0615.0369-.0905.0593l-75.374,58.8629c-.9242.7217-1.2889,1.9504-.9089,3.0592.3801,1.1089,1.4217,1.856,2.5944,1.8584l17.0912.046v10.531h-2.686c-1.5193,0-2.7507,1.2311-2.7507,2.7501s1.2314,2.7507,2.7507,2.7507h10.8734c1.5193,0,2.7507-1.2311,2.7507-2.7507s-1.2314-2.7501-2.7507-2.7501h-2.686v-10.5152l48.6084.1313-75.5231,53.676c-.9758.6933-1.391,1.9383-1.0274,3.078.3643,1.1409,1.4239,1.9147,2.6207,1.9147h19.82v10.5243h-2.686c-1.5193,0-2.7507,1.2311-2.7507,2.7501s1.2314,2.7501,2.7507,2.7501h10.8734c1.5193,0,2.7507-1.2305,2.7507-2.7501s-1.2314-2.7501-2.7507-2.7501h-2.686v-10.5243h49.0206l-19.2064,59.9881c-.0033.0097-.006.0194-.0094.029l-21.4846,67.1089h-117.1287c-.0008,0-.0019.0006-.0027.0006h-18.5362c-.012-.0774-.011-.1543-.0302-.2317l-7.1423-50.2018c3.4687,4.2855,8.1625,8.3671,14.2848,11.8365,16.1214,9.3876,31.2229,7.3465,37.7528,5.9182,3.4692-.8161,5.7148-4.4887,4.4895-7.9587-1.8369-6.326-7.7549-20.4068-23.8764-29.7944-10.6112-6.1221-20.8152-7.3465-28.366-7.142,2.6536-5.9188,4.8984-13.2653,4.8984-22.244,0-16.7505-7.303-28.1235-12.2129-33.7181,9.0045,1.0835,18.3179,1.706,27.8059,1.8185,1.0498.0127,2.0963.0188,3.1407.0188,30.9473,0,59.5273-5.4585,80.7684-15.4613l5.5607-2.6188c1.403-.6612,2.0042-2.3339,1.3437-3.7374-.6604-1.4029-2.3311-2.0054-3.7375-1.3436l-5.5606,2.6182c-43.1261,20.3088-117.7975,19.7069-163.0617-1.3152-1.4064-.6533-3.0759-.0423-3.7297,1.3642-.6527,1.4065-.0428,3.0762,1.3646,3.7295,12.9281,6.0047,28.3074,10.5134,45.0717,13.3379-4.7439,5.0132-13.691,16.9701-13.691,35.3073,0,8.9793,2.041,16.5297,4.8981,22.244-7.3466,0-16.9382,1.4277-26.7335,7.142-15.9165,9.3858-21.6294,23.4666-23.6706,29.7926-1.0202,3.4688,1.0205,7.1426,4.6937,7.9587v.0012c6.5299,1.6334,21.4276,3.4688,37.7534-5.9182,5.9178-3.4688,10.611-7.5504,14.081-11.6314l-7.3466,49.9973c-.0098.0774-.0036.1537-.0076.2317h-63.4935l-40.038-126.9524h50.3075v10.4166h-1.6281c-1.6277,0-2.6032,1.3019-2.6032,2.6037s1.3019,2.6031,2.6032,2.6031h8.7888c1.6285,0,2.604-1.3012,2.604-2.6031.0014-1.3019-.9755-2.6037-2.604-2.6037h-1.9532v-10.0906l19.0279-.0012c.3253,0,.6516,0,1.3022-.3249,0,0,.325,0,.325-.3255.3255,0,.3255-.3255.6513-.6515v-.3249s.3255-.3255.3255-.6515v-.3255l.0014.003v-1.3031q0-.3255-.3252-.3255l-.6505-.6503-75.5191-54.0354,49.5486.003v9.7651h-1.6276c-1.6285,0-2.6038,1.3019-2.6038,2.9298s1.3016,2.9304,2.6038,2.9304h8.7888c1.6277,0,2.6035-1.3019,2.6035-2.9304s-1.3016-2.9298-2.6035-2.9298h-1.9538v-9.7651l19.1374-.003c.325,0,.6514,0,1.3019-.3249,0,0,.325,0,.325-.3255.3252,0,.3252-.3255.6513-.6509v-.3255c0-.3255.3255-.3255.3255-.6515v-2.2782l-.6505-.6503-78.7772-59.8979-43.9459-48.5037s-.3247,0-.3247-.3249l-.3256-.3255h-2.2792c-.3256,0-.3256.3255-.3256.3255,0,0-.325,0-.325.3249l-44.2709,48.5037-77.7996,59.8949-.65.6503v2.2782q0,.3255.325.6515v.3255q.325.3249.6514.6515s.3249,0,.3249.3249c.3256,0,.652.3255.977.3255h19.4316v9.7651h-1.6285c-1.6276,0-2.9295,1.3019-2.9295,2.9298s1.3019,2.9304,2.9295,2.9304h8.7892c1.6281,0,2.9301-1.3019,2.9301-2.9304s-1.302-2.9298-2.9301-2.9298l-1.6282.0012v-9.7657h48.6026l-75.1949,53.7105-.6503.6503s0,.3255-.3252.3255v1.9534q0,.3249.3252.6515v.3249l.6512.6515s.3255,0,.3255.3249c.3249.3255.6512.3255,1.3019.3255l19.4222-.3357-.0014,10.0912h-1.6276c-1.6285,0-2.9301,1.3025-2.9301,2.6037s1.3016,2.6037,2.9301,2.6037h8.7886c1.6279,0,2.9301-1.3019,2.9301-2.6037.0009-1.3012-1.6269-2.6037-3.2543-2.6037h-1.3029v-10.0906l48.9364.3364-40.0383,126.6252-80.0987-.2323.0547-21.771,44.0697.2384c2.2752.0103,4.3989-1.1004,5.6814-2.9733,1.2982-1.8965,1.5438-4.2516.6618-6.4923l-16.8376-38.8124c-1.1001-2.5257-3.4897-4.1022-6.2349-4.1149l-87.6718-.415c-2.7562-.0133-5.1629,1.5414-6.2807,4.0568l-16.6466,37.3883c-2.0446-.4525-4.2581-.8723-6.5906-1.2492-.6896-.1083-1.3796.0569-1.9416.4731-.3338.2462-.598.562-.7772.9219l-.1363-.0006-.1134.7907c-1.8185,12.7336-.6621,23.4539,3.4128,31.9365h-67.6363l-39.7862-126.8714h49.8298v10.5243h-2.686c-1.5193,0-2.7507,1.2311-2.7507,2.7501s1.2314,2.7501,2.7507,2.7501h10.8734c1.5193,0,2.7507-1.2305,2.7507-2.7501s-1.2314-2.7501-2.7507-2.7501h-2.686v-10.5243h16.4737c1.193,0,2.2504-.7695,2.6173-1.9044.3669-1.1355-.0399-2.3775-1.0075-3.0762l-74.0166-53.4316,50.4317.1361v9.9914h-2.686c-1.5193,0-2.7507,1.2311-2.7507,2.7501s1.2314,2.7507,2.7507,2.7507h10.8734c1.5193,0,2.7507-1.2311,2.7507-2.7507s-1.2314-2.7501-2.7507-2.7501h-2.686v-9.9762l16.4658.0442h.0079c1.1704,0,2.2131-.7405,2.5977-1.8463.3855-1.1077.0263-2.3387-.8958-3.0647l-75.1108-59.1617c-.0504-.0641-.0823-.1385-.1387-.199l-44.2796-47.0125c-.5243-.5578-1.2654-.8276-2.024-.8645-.7651.0054-1.4935.3297-2.0096.8947l-14.9241,16.3427v8.1584l16.9864-18.601,37.8788,40.2177h-54.8652v5.6285h52.6169l-35.4752,25.2137-17.1417-12.3743v6.7845l12.4054,8.9551-12.4054,8.8172v6.7494l17.1165-12.1643,30.1773,21.7837-47.2938-.1282v5.871h52.132l-34.6617,23.0547-17.4704-11.6199v6.6085l12.5031,8.3156-12.5031,8.3156v6.6073l17.4704-11.6199,34.6617,23.0541h-52.132v5.5008h51.1507l-33.7183,19.8738-17.4324-10.2932v6.3895l12.0176,7.0961-12.0176,7.0834v6.3859l17.4301-10.2733,57.7619,34.1053-58.144,26.6184-17.048-7.8063v6.0513l10.4402,4.7809-10.4402,4.7797v6.0501l17.0473-7.8045,73.8882,33.8343h-76.0981c-1.4195,0-2.57,1.1506-2.57,2.5698s1.1505,2.5698,2.57,2.5698H-18.2067c5.7479,8.0676,14.7045,13.0306,26.7331,14.7499l5.4291.4707.0671-.0036c14.5971-.8536,25.4805-5.9854,32.3558-15.255l2.9582.0145,99.5281.3466h325.97c.0681,0,.1279-.0151.1934-.02h289.3489c2.2971.4616,4.6713.7072,7.102.7072.9911,0,5.0349.2105,6.2358.2105,2.7661,0,5.4559-.3243,8.0446-.9177h123.9826c.0157.0006.0302.0048.0458.0048h366.6658c2.2889.4586,4.6543.7023,7.0762.7023.9911,0,5.0347.2105,6.2359.2105,2.759,0,5.4421-.3224,8.0245-.9129h21.1671v-5.2237h-9.1115c3.5337-2.3847,6.6185-5.3828,9.1115-8.8359v-12.2944c-3.1888,10.6429-12.0302,18.8648-23.0392,21.1303h-2.838c-.1138-.7876-.0219-2.4972-.0219-3.6025v-3.9292c5.6216-9.3743,13.8734-18.4486,13.9872-18.5732,1.0252-1.1216.9478-2.8614-.1727-3.8868-1.1223-1.026-2.861-.948-3.8861.1724-.3692.4035-5.2595,5.7845-10.1697,12.6767-.4366-3.8245-1.476-7.4657-3.0189-10.8322,5.2672-9.1517,15.1319-15.3379,26.4282-15.3379ZM-129.6519,665.4366l64.834,51.0675-64.834-.1754v-50.892ZM-129.6519,728.3327l64.2893,46.4094h-64.2893v-46.4094ZM-171.7847,691.1324l36.6314-26.034v51.2151l-1.7557-.0048-34.8757-25.1762ZM-171.2005,748.3849l36.0472-23.9754v47.9496l-36.0472-23.9742ZM-170.7924,803.3132l36.8018-21.6917,16.7111,53.2889-53.513-31.5972ZM-169.9824,870.2546l55.779-25.5362,18.7037,59.6439-74.4827-34.1077ZM113.8025,878.1111c.2275.5069.178,1.0931-.1305,1.5674-.3093.4749-.8217.7453-1.4055.7423l-33.9038-.1603-1.9827-10.5437,33.8507.167,3.5718,8.2273ZM103.4076,854.1381l4.5771,10.5485-32.5775-.1537-1.9821-10.537,29.9825.1422ZM95.487,838.3931c.7199.0036,1.2057.3267,1.5172.9957l4.1475,9.5582-28.7064-.1361-1.9818-10.5425,25.0235.1246ZM38.1078,838.1154l27.0866.1276,1.9824,10.5437-31.1504-.147,2.0813-10.5243ZM35.0035,853.8145l33.1528.1567,1.9815,10.5364-37.2156-.176,2.0813-10.5171ZM6.2894,838.9551c.2842-.6461.8112-.9867,1.5237-.9836l25.025.1186-2.0819,10.5249-28.7061-.1361,4.2393-9.5237ZM-.2488,853.6463l29.9835.1422-2.0819,10.5183-32.5785-.1543,4.677-10.5062ZM-7.2264,869.3218l33.8504.1597-2.0818,10.5237-22.9551-.1089c-3.3593-1.689-7.2465-3.1603-11.5733-4.3792l2.7598-6.1953ZM13.5731,915.9652c-3.5666-8.0204-9.4484-16.5478-16.1113-23.2749-1.1784-1.1839-2.7592-.8802-3.65.0024-.8896.8838-1.2032,2.4628-.0304,3.646,7.515,7.5873,13.6563,17.0941,16.6408,25.6983-10.4071-1.2401-18.3058-5.1342-23.489-11.5842-6.0344-7.5092-8.3181-18.2393-6.793-31.9057,15.8423,2.9032,25.9457,8.0918,30.8694,15.8515,3.5913,5.6587,4.4509,12.9036,2.5635,21.5665ZM9.613,885.1152l11.2439.0532c-2.1081,2.1506-3.8142,4.5135-5.0969,7.0567-1.5789-2.6013-3.6367-4.9812-6.1471-7.11ZM46.4811,900.9734c-4.0963,11.9508-14.4249,19.3917-29.1645,21.0577.5883-1.925,1.0765-3.81,1.4546-5.6224,2.165-3.7283,4.8047-8.0495,7.9926-11.9695,3.2215-3.9594,6.6796-7.1529,10.8809-10.0512.7811-.539,1.1881-1.3636,1.1164-2.2619-.0759-.9522-.6825-1.8318-1.5447-2.2413-.814-.3854-1.7286-.2988-2.5072.2396-5.8381,4.0235-10.5479,8.7512-15.0106,15.1092-.1337-2.1512-.4669-4.2147-.9973-6.1632,1.3321-5.4204,4.8251-10.2073,10.1133-13.857,5.221-3.591,11.8883-5.9206,18.8578-6.5994.2335,1.4265.4183,2.8366.5478,4.1796.4852,8.5219.4008,10.6483-1.7391,18.18ZM30.1282,878.416l1.7642-8.9145,39.2195.1857,1.9823,10.5425-19.9815-.095c-.2021-1.539-.4575-3.0955-.7547-4.6037-.1783-1.3224-1.3375-2.2692-2.671-2.2335-6.871.3061-13.7383,2.1119-19.5588,5.1185ZM62.93,907.1142l-13.3874-.0629c.4362-.8784.8454-1.7943,1.2234-2.7398,0,0,1.1263-2.781,1.6309-5.1766,1.0284-4.2534,1.4256-8.8916,1.1837-13.8171l9.4103.0151-.0609,21.7812ZM282.9825,664.2079l68.032,51.7577h-68.032v-51.7577ZM282.9805,727.0356l67.3827,48.1758h-67.3827v-48.1758ZM278.7478,780.4165l17.5794,55.339-54.6881-33.2033,36.7834-22.1357h.3253ZM236.758,693.5045l31.2511,22.4612h-62.825l31.5739-22.4612ZM236.4329,686.6685l-35.4812-25.3904h70.637l-35.1558,25.3904ZM271.5887,721.8258l-35.4806,22.7861-35.8061-22.7861h71.2867ZM277.7737,724.4301v46.5479l-36.1337-23.1121,36.1337-23.4358ZM231.2255,747.8671l-35.8059,23.1121-.0008-45.8982,35.8067,22.7861ZM236.108,751.1217l37.1081,23.7631h-73.8918l36.7837-23.7631ZM267.6816,780.4183l-31.2487,18.8805-31.2487-18.8805h62.4974ZM295.0244,840.9641l-58.5928,26.6928-58.5926-26.6928,58.5926-35.4809,58.5928,35.4809ZM277.7737,716.2911l-36.4587-26.0419,36.4587-26.0413v52.0832ZM236.4317,614.4048l37.7608,41.666-75.5197-.0012,37.7589-41.6647ZM195.0921,664.2079l36.4585,26.0413-36.134,26.0413h-.3246v-52.0826ZM122.5008,715.9657l67.3827-51.7577v51.7577h-67.3827ZM122.8272,775.2115l66.7299-47.851v47.851h-66.7299ZM193.7899,780.7449l.6505-.0012-.0008-.3255,36.7831,22.1357-54.6854,33.2039,17.2526-55.013ZM173.6067,845.1957l56.3154,25.3904-75.1946,34.1785,18.8791-59.5688ZM162.8649,907.0459l73.5668-33.2039,73.5672,33.2039h-147.134ZM243.2682,870.9122l56.3153-25.391,18.5544,59.2452-74.8696-33.8542ZM417.3287,836.1209c6.5298-.2039,15.3049,1.0206,24.692,6.326,14.2854,8.3671,19.3872,20.6113,21.0192,26.1211l-.0002.2039h-.2043c-5.7143,1.4283-18.774,3.061-33.2633-5.1015-7.5504-4.2855-12.4479-9.796-15.7128-14.693,2.2444-2.4488,3.6736-5.9182,3.6736-9.5909.2038-1.225,0-2.245-.204-3.2655ZM403.2471,776.3282c4.2857,4.2849,12.2441,14.6924,12.2441,31.4266,0,7.9593-1.8364,14.4892-4.2852,19.5907-2.2444-1.4283-4.8978-2.4482-7.7549-2.4482-3.0612,0-5.7143,1.0206-8.163,2.4482-2.4485-5.1015-4.2854-11.8365-4.2854-19.7946,0-16.5297,8.1633-27.1417,12.2444-31.2227ZM377.9424,863.6703c-14.2848,8.3671-27.5497,6.5304-33.2633,5.1022.4078,0,.204,0,.204-.2039v-.0006c1.6326-5.5093,6.7345-17.9579,21.0193-26.1205,8.7751-5.1022,17.1419-6.3266,23.4683-6.3266-.2043,1.0206-.4078,2.0411-.4078,3.2649,0,4.0816,1.6325,7.7549,4.2851,10.2037-3.2649,4.6938-8.163,9.9998-15.3055,14.0808ZM395.2881,839.1819c0-4.4893,3.6739-8.1632,8.163-8.1632s8.1627,3.6739,8.1627,8.1632-3.6736,8.1626-8.1627,8.1626-8.163-3.6733-8.163-8.1626ZM394.1464,907.3695l7.6721-53.9035h1.428c.8168,0,1.6332,0,2.4488-.2039l7.6721,54.1074h-19.221ZM689.8148,665.4366l64.834,51.0675-64.834-.1754v-50.892ZM689.8148,728.3327l64.2894,46.4094h-64.2894v-46.4094ZM702.1872,834.9104l-53.5131-31.5972,36.802-21.6917,16.7111,53.2889ZM673.1229,716.2833l-60.5975-.1645,30.4202-21.6191,30.1773,21.7837ZM608.0436,662.5183h70.403l-35.4757,25.2137-34.9273-25.2137ZM677.9611,722.026l-34.6618,23.0547-34.6623-23.0547h69.3241ZM684.3133,724.4096v47.9496l-36.0472-23.9742,36.0472-23.9754ZM677.9611,774.742h-69.3241l34.6623-23.0541,34.6618,23.0541ZM676.9799,780.2428l-33.7183,19.8738-33.6585-19.8738h67.3769ZM701.0211,840.6102l-58.144,26.6184-57.765-26.4508,58.1473-34.2729,57.7617,34.1053ZM684.3133,716.3135l-1.7557-.0048-34.8756-25.1762,36.6313-26.034v51.2151ZM642.8156,616.6721l37.8787,40.2177h-74.605l36.7263-40.2177ZM602.285,665.1462l35.9496,25.9512-35.1696,24.9965-.78-.0024v-50.9453ZM602.285,724.4096l36.0472,23.9754-36.0472,23.9748v-47.9502ZM532.124,715.9015l64.6596-50.4952v50.67l-64.6596-.1748ZM530.0424,774.742l66.7411-47.4348v47.4348h-66.7411ZM601.103,781.6124l36.7438,21.6965-53.8521,31.7417,17.1082-53.4383ZM580.8486,844.8763l55.4207,25.3783-74.4585,34.0865,19.0378-59.4648ZM568.415,907.3689l74.4615-34.0889,74.444,34.0889h-148.9055ZM649.4842,870.2546l55.7789-25.5362,18.7038,59.6439-74.4827-34.1077ZM775.5059,901.5493c-5.6338-11.4699-16.6863-23.6275-17.2486-24.2422-1.0257-1.1204-2.7644-1.1972-3.8861-.1724-1.1205,1.0254-1.1979,2.7652-.1727,3.8868.1459.1591,13.6367,14.9991,17.8574,26.3474h-5.4537c-14.5009-2.3418-25.6116-14.9429-25.6116-30.0939v-13.4614h4.0271c16.8115,0,30.4882,13.6773,30.4882,30.4889v7.2467ZM783.7032,907.3689h-2.67c-.1205-.7743-.0258-2.5148-.0258-3.6333v-3.9292c5.6215-9.3743,13.8734-18.4486,13.9872-18.5732,1.0252-1.1216.9478-2.8614-.1728-3.8868-1.1222-1.026-2.861-.948-3.8861.1724-.3689.4035-5.2595,5.7845-10.1697,12.6767-.4366-3.8245-1.476-7.4657-3.0189-10.8322,5.2675-9.1517,15.1319-15.3379,26.4282-15.3379h4.0276v13.4601c0,14.7608-10.5476,27.0921-24.4997,29.8833ZM930.4992,841.6126l3.8417,9.4457h-26.7217l-1.8791-9.4457h24.7592ZM908.0706,880.5781h-41.1343l1.9194-9.4445h37.3359l1.8789,9.4445ZM874.8558,841.6126h25.4629l1.8789,9.4457h-29.2615l1.9197-9.4457ZM871.8558,856.374h31.3996l1.8786,9.4433h-35.1976l1.9194-9.4433ZM845.0123,841.6126h24.4178l-1.9197,9.4457h-26.8062l4.3082-9.4457ZM861.5103,880.5781h-34.2717l4.3082-9.4445h31.8833l-1.9197,9.4445ZM833.9716,865.8173l4.3076-9.4433h28.1508l-1.9195,9.4433h-30.5389ZM908.6514,907.3689h-42.3097v-21.4745h42.3097v21.4745ZM908.6767,856.374h27.8264l3.8414,9.4433h-29.7889l-1.8789-9.4433ZM911.6131,871.1336h30.8939l3.8414,9.4445h-32.8564l-1.8789-9.4445ZM1121.9621,665.4366l64.834,51.0675-64.834-.1754v-50.892ZM1121.9621,728.3327l64.2894,46.4094h-64.2894v-46.4094ZM1134.3346,834.9104l-53.5131-31.5972,36.802-21.6917,16.7111,53.2889ZM1105.2703,716.2833l-60.5975-.1645,30.4202-21.6191,30.1773,21.7837ZM1040.1908,662.5183h70.4029l-35.4754,25.2137-34.9275-25.2137ZM1110.1085,722.026l-34.6617,23.0547-34.6623-23.0547h69.324ZM1116.4607,724.4096v47.9496l-36.0472-23.9742,36.0472-23.9754ZM1110.1085,774.742h-69.324l34.6623-23.0541,34.6617,23.0541ZM1109.1273,780.2428l-33.7183,19.8738-33.6585-19.8738h67.3769ZM1133.1685,840.6102l-58.144,26.6184-57.765-26.4508,58.1473-34.2729,57.7617,34.1053ZM1116.4607,716.3135l-1.7558-.0048-34.8756-25.1762,36.6314-26.034v51.2151ZM1074.963,616.6721l37.8787,40.2177h-74.605l36.7263-40.2177ZM1034.4323,665.1462l35.9496,25.9512-35.1696,24.9965-.78-.0024v-50.9453ZM1034.4323,724.4096l36.0472,23.9754-36.0472,23.9748v-47.9502ZM964.2713,715.9015l64.6596-50.4952v50.67l-64.6596-.1748ZM962.1898,774.742l66.7411-47.4348v47.4348h-66.7411ZM1033.2503,781.6124l36.7438,21.6965-53.852,31.7417,17.1081-53.4383ZM1012.996,844.8763l55.4207,25.3783-74.4585,34.0865,19.0378-59.4648ZM1000.6295,907.338l74.3944-34.0581,74.3765,34.0581h-148.7709ZM1081.6316,870.2546l55.7789-25.5362,18.7038,59.6439-74.4827-34.1077ZM1287.5568,901.5493c-5.6339-11.4699-16.6864-23.6275-17.2486-24.2422-1.0257-1.1204-2.7645-1.1972-3.8861-.1724-1.1206,1.0254-1.198,2.7652-.1728,3.8868.1459.1591,13.6124,14.9725,17.8454,26.3165h-5.6142c-14.4158-2.4138-25.439-14.9719-25.439-30.063v-13.4614h4.0271c16.8114,0,30.4882,13.6773,30.4882,30.4889v7.2467Z"/>
    <path class="cls-2" d="M1318.9572,569.0293l-147.032,58.8538c-1.4102.565-2.0958,2.1657-1.5314,3.5765.4306,1.075,1.4635,1.7289,2.5549,1.7289.3401,0,.6862-.0641,1.0213-.1978l144.9871-58.0353v-5.9261Z"/>
    <path class="cls-2" d="M1318.9572,643.9826l-92.5634,34.2644c-1.4688.3878-2.3453,1.8923-1.9581,3.3617.3253,1.2341,1.4393,2.0502,2.6581,2.0502.232,0,.4679-.0296.7032-.0913l91.1603-33.7447v-5.8402Z"/>
    <path class="cls-2" d="M1318.9572,739.3464l-76.6532,8.6986c-1.5094.1706-2.5944,1.5335-2.4232,3.0429.1596,1.4041,1.3493,2.4404,2.7298,2.4404.1037,0,.2079-.006.3132-.0181l76.0333-8.6278v-5.5359Z"/>
    <path class="cls-2" d="M339.2558,689.0634c26.3718,12.562,60.7911,17.9466,95.2937,17.9466,35.7028,0,71.4933-5.7694,98.5101-15.3212.0889-.0313.1755-.0669.2611-.107l5.5607-2.6188c1.4031-.6609,2.0042-2.3341,1.3438-3.7372-.6593-1.4031-2.3322-2.0061-3.7375-1.3441l-5.4323,2.5585c-52.0612,18.3618-137.0805,22.467-189.3841-2.4477-1.3987-.6672-3.076-.0724-3.7429,1.3276-.667,1.4003-.0724,3.0762,1.3274,3.7432Z"/>
    <path class="cls-2" d="M515.7546,720.6379l-5.5607,2.6188c-44.4458,20.9304-95.4912,21.0648-140.0478.3711-1.4074-.6535-3.076-.0425-3.7298,1.3641-.6527,1.4066-.0428,3.0765,1.3647,3.7298,22.8976,10.6348,47.445,15.9487,71.9958,15.9487,24.8458,0,49.695-5.4469,72.8108-16.3323l5.5607-2.6188c1.4031-.6609,2.0042-2.3341,1.3438-3.7372-.6593-1.4028-2.33-2.0053-3.7375-1.3441Z"/>
    <path class="cls-2" d="M755.5192,697.1035c26.013,9.201,65.7451,14.7442,105.1294,14.7442,32.2955,0,64.3618-3.7306,88.4046-12.2309.0889-.0313.1755-.0669.2611-.107l5.5607-2.6185c1.4031-.6607,2.0042-2.3339,1.3438-3.7372-.6604-1.4022-2.3311-2.0059-3.7375-1.3441l-5.4323,2.5582c-52.3124,18.4323-143.2357,13.8597-189.6561-2.5598-1.4667-.5172-3.0683.249-3.5839,1.711-.5178,1.4623.2479,3.0669,1.7102,3.5842Z"/>
    <path class="cls-2" d="M855.7692,752.5983c24.8458,0,49.6961-5.4469,72.8119-16.3323l5.5607-2.6188c1.4031-.6609,2.0042-2.3341,1.3438-3.7372-.6604-1.4028-2.3311-2.0056-3.7375-1.3441l-5.5607,2.6188c-44.4458,20.9301-95.4901,21.0653-140.0478.3711-1.4074-.6538-3.076-.0425-3.7298,1.3638-.6527,1.4069-.0428,3.0768,1.3647,3.7301,22.8965,10.6348,47.4439,15.9487,71.9947,15.9487Z"/>
    <path class="cls-2" d="M767.7189,763.1042c-.6527,1.4069-.0428,3.0768,1.3647,3.7301,22.439,10.4225,52.24,16.3696,83.9113,16.7456,1.0498.0126,2.0964.0186,3.1407.0186,30.9473,0,59.5273-5.4586,80.7684-15.4613l5.5607-2.6188c1.4031-.6609,2.0042-2.3341,1.3438-3.7372-.6604-1.4025-2.3311-2.0059-3.7375-1.3441l-5.5607,2.6188c-43.1273,20.3089-117.7986,19.7067-163.0617-1.3156-1.4074-.6544-3.076-.0425-3.7298,1.3638Z"/>
    <path class="cls-2" d="M-73.0892,689.1106c28.7105,12.2592,63.4677,17.369,97.3331,17.369,35.8827,0,70.7627-5.7389,96.3655-14.7908.0889-.0313.1755-.0669.2611-.107l5.5618-2.6188c1.4031-.6607,2.0042-2.3339,1.3438-3.7369-.6604-1.4028-2.3311-2.0064-3.7375-1.3444l-5.4334,2.5585c-48.7845,17.2025-131.7173,22.1725-189.4894-2.4948-1.425-.6086-3.076.0527-3.6848,1.4798-.6099,1.4264.0527,3.0765,1.4798,3.6854Z"/>
    <path class="cls-2" d="M27.3264,744.6703c24.8458,0,49.695-5.4469,72.8108-16.3323l5.5618-2.6188c1.4031-.6607,2.0042-2.3339,1.3438-3.7369-.6604-1.4028-2.3311-2.0056-3.7375-1.3444l-5.5618,2.6188c-44.4458,20.9304-95.4923,21.0648-140.0478.3711-1.4074-.6535-3.076-.0425-3.7298,1.3641-.6527,1.4066-.0428,3.0765,1.3647,3.7298,22.8976,10.6348,47.445,15.9487,71.9958,15.9487Z"/>
    <path class="cls-2" d="M-60.725,755.1765c-.6527,1.4066-.0428,3.0765,1.3647,3.7298,22.4401,10.4225,52.24,16.3696,83.9124,16.7456,1.0498.0126,2.0953.0186,3.1396.0186,30.9473,0,59.5273-5.4586,80.7684-15.4613l5.5607-2.6188c1.4031-.6609,2.0042-2.3341,1.3438-3.7372-.6593-1.4028-2.33-2.0056-3.7375-1.3441l-5.5607,2.6188c-43.1262,20.3095-117.7997,19.7061-163.0617-1.3156-1.4063-.6533-3.076-.0425-3.7298,1.3641Z"/>
  </g>
  <g>
    <polygon class="cls-2" points="605.6595 269.5669 598.0088 269.5669 598.0088 294.539 616.7056 294.539 616.7056 288.1348 605.6595 288.1348 605.6595 269.5669"/>
    <polygon class="cls-2" points="619.9722 294.539 627.7518 294.539 627.7518 285.0402 637.7234 285.0402 637.7234 279.1517 627.7518 279.1517 627.7518 275.9711 639.2708 275.9711 639.2708 269.5669 619.9722 269.5669 619.9722 294.539"/>
    <polygon class="cls-2" points="645.1592 294.7539 659.0851 294.7539 659.0851 293.0777 647.0074 293.0777 647.0074 282.3753 658.4834 282.3753 658.4834 280.6991 647.0074 280.6991 647.0074 271.2002 659.0851 271.2002 659.0851 269.5669 645.1592 269.5669 645.1592 294.7539"/>
    <path class="cls-2" d="M681.7792,285.9858c0,1.8482.086,3.8253.2149,5.8884h-.2149l-15.1724-22.2643h-1.7622v25.058h1.6333v-16.3329c0-1.3324-.086-3.3096-.2149-5.9744h.086l15.1724,22.3932h1.9342v-25.187h-1.7622v16.4188h.0859Z"/>
    <polygon class="cls-2" points="690.6763 294.7539 704.6022 294.7539 704.6022 293.0777 692.5245 293.0777 692.5245 282.3753 703.9575 282.3753 703.9575 280.6991 692.5245 280.6991 692.5245 271.2002 704.6022 271.2002 704.6022 269.5669 690.6763 269.5669 690.6763 294.7539"/>
    <path class="cls-2" d="M724.4165,280.828c.9456-1.1175,1.3324-2.5789,1.3324-4.3411,0-2.364-.8167-4.0402-2.278-5.2437-1.5473-1.1175-3.9113-1.7622-7.0059-1.7622h-6.1033v25.2729h1.7622v-11.0462l6.2752.086,6.7051,10.9172h2.1491l-6.8769-11.433c1.7622-.3868,3.0947-1.3324,4.0402-2.4499ZM716.9808,282.2464h-4.9428v-11.0462h4.1262c2.6648,0,4.556.4298,5.7595,1.3324,1.1175.8166,1.7622,2.278,1.7622,4.1262s-.6017,3.1806-1.7622,4.1262c-1.0315,1.0745-2.7938,1.4614-4.9428,1.4614Z"/>
    <path class="cls-2" d="M741.5231,283.4069h7.4357v8.5533c-1.6333.6017-3.6104.9456-5.8884.9456-3.6104,0-6.2752-.9456-8.0375-2.7938-1.8482-1.8482-2.7938-4.642-2.7938-8.3384,0-3.3955.9456-6.1033,2.8797-8.0375,1.8482-2.0631,4.556-3.0087,7.8226-3.0087,2.278,0,4.556.5158,6.7051,1.5473l.7307-1.5473c-2.1491-.9456-4.642-1.5473-7.3068-1.5473-2.5789,0-4.7279.5158-6.7051,1.5473s-3.3955,2.5789-4.556,4.556c-1.0316,1.9771-1.5473,4.1262-1.5473,6.6191,0,4.0402,1.0316,7.1349,3.0947,9.2839s5.1577,3.3096,9.069,3.3096c3.0087,0,5.7595-.4298,8.1664-1.5473v-11.2181h-9.198l.1289,1.6763Z"/>
    <polygon class="cls-2" points="770.2345 269.5669 762.7988 283.192 755.363 269.5669 753.2999 269.5669 761.7672 285.0402 761.7672 294.539 763.6154 294.539 763.6154 284.8253 772.0827 269.5669 770.2345 269.5669"/>
    <g>
      <path class="cls-2" d="M575.7446,354.4118v1.5043c0,7.2638,3.1806,10.9602,9.7997,10.9602,6.0174,0,9.0261-4.2551,9.0261-8.6822,0-6.2753-3.1806-9.0261-8.5103-10.6164l-6.5331-2.278c-8.6822-3.3525-12.4645-7.8656-12.4645-16.3758,0-10.8742,7.3498-16.8916,18.5679-16.8916,15.3013,0,16.8916,9.5418,16.8916,15.7311v1.3324h-9.5418v-1.2465c0-5.4156-2.407-8.5962-8.3813-8.5962-4.0832,0-8.0375,2.278-8.0375,8.5962,0,5.1148,2.5789,7.6936,8.9401,10.1006l6.4472,2.321c8.4243,3.0087,12.1207,7.6077,12.1207,15.8171,0,12.7224-7.6936,17.9661-19.7284,17.9661-14.7855,0-18.1381-9.8857-18.1381-18.224v-1.4184h9.5418Z"/>
      <path class="cls-2" d="M611.7628,313.2358h32.2789v8.0375h-22.7371v16.5478h21.4046v8.0375h-21.4046v19.0407h23.4248v8.0375h-32.9666v-59.7009Z"/>
      <path class="cls-2" d="M666.6068,313.2358h12.2067l15.7311,59.7009h-9.9286l-3.6964-14.6136h-17.4934l-3.8253,14.6136h-9.9286l16.9346-59.7009ZM679.3293,350.6725l-6.834-29.4421h-.1719l-7.0919,29.4421h14.0979Z"/>
      <path class="cls-2" d="M700.3901,313.2358h18.9117c11.433,0,16.4618,7.1779,16.4618,17.4074,0,10.7023-6.2752,17.6223-17.4934,17.6223h-8.3813v24.6712h-9.5418v-59.7009h.043ZM709.9319,341.0447h6.791c5.1148,0,9.5418-2.7508,9.5418-10.2725,0-6.4472-2.5789-10.3585-10.1866-10.3585h-6.1033v20.631h-.043Z"/>
      <path class="cls-2" d="M750.3772,313.2358h12.2067l15.7311,59.7009h-9.9286l-3.6964-14.6136h-17.4934l-3.8253,14.6136h-9.9716l16.9776-59.7009ZM763.0996,350.6725l-6.834-29.4421h-.1719l-7.0919,29.4421h14.0979Z"/>
      <path class="cls-2" d="M787.6849,321.2303h-14.2268v-8.0375h37.6945v8.0375h-13.9689v51.6634h-9.5418v-51.6634h.043Z"/>
      <path class="cls-2" d="M818.2875,313.2358h9.5418v23.8975h17.5363v-23.8976h9.5418v59.7009h-9.5418v-27.7658h-17.5363v27.7659h-9.5418v-59.7009Z"/>
    </g>
    <polygon class="cls-2" points="571.1886 279.4526 566.0308 279.4526 566.0308 294.539 581.2032 294.539 581.2032 289.5962 571.1886 289.5962 571.1886 279.4526"/>
    <polygon class="cls-2" points="566.0308 276.8737 571.1026 276.8737 571.1026 274.4238 586.275 274.4238 586.275 289.5962 583.782 289.5962 583.782 294.539 591.3037 294.539 591.3037 269.352 566.0308 269.352 566.0308 276.8737"/>
    <path class="cls-2" d="M474.6098,311.0008c8.8541-6.0603,17.9232-12.0347,35.6314-12.0347,1.4614,0,2.8368.043,4.1692.1289,6.4902-4.2981,13.797-8.0375,26.5624-8.0375.7737,0,1.5043,0,2.235.043-10.3585-19.7714-31.0754-33.2675-54.93-33.2675-24.2844,0-45.3022,13.9689-55.4458,34.299,17.6223,3.6964,22.2213,16.3758,41.7777,18.8687Z"/>
    <path class="cls-5" d="M474.6098,311.0008c-19.5564-2.4499-24.1554-15.1294-41.8207-18.9117-4.1692,8.3384-6.5761,17.7512-6.5761,27.7229,0,.9886.043,1.9771.086,2.9657,3.3955.6017,7.2208.9886,11.519.9886,18.4819,0,27.551-6.4472,36.7919-12.7654Z"/>
    <path class="cls-5" d="M514.4104,299.095c17.4933.9886,25.8747,8.2524,35.5025,14.6136-.7737-8.0805-3.1376-15.7311-6.7481-22.6081-.7307-.043-1.4614-.043-2.235-.043-12.7224,0-19.9863,3.7394-26.5194,8.0375Z"/>
    <path class="cls-4" d="M510.2412,298.9661c-17.7512,0-26.7773,5.9314-35.6314,12.0347-9.241,6.3182-18.31,12.8084-36.7489,12.8084-4.2981,0-8.1234-.3439-11.519-.9886.1289,3.1806.5158,6.2753,1.1605,9.2839,3.9113-.6447,8.2094-.9886,13.0233-.9886,19.4705,0,30.5596,5.7595,40.4883,12.2926,13.2382-5.8454,19.0837-16.7627,40.8321-16.7627,12.8084,0,20.1152,3.7823,26.6483,8.1234,1.2035-4.7709,1.8052-9.7997,1.8052-14.9145,0-2.0631-.086-4.0832-.3009-6.1033-9.6278-6.4042-18.0091-13.625-35.5025-14.6136-1.4184-.1289-2.7938-.1719-4.2551-.1719Z"/>
    <path class="cls-5" d="M480.971,343.4086c13.1093,8.6392,24.1554,18.6538,49.8582,18.6538.9886,0,1.8912,0,2.8368-.043,7.0489-7.5647,12.2067-16.8916,14.7426-27.2501-6.5331-4.2981-13.8399-8.1234-26.6483-8.1234-21.7485,0-27.551,10.9172-40.7892,16.7627Z"/>
    <path class="cls-3" d="M480.971,343.4086c-9.9287-6.5331-21.0178-12.2926-40.4883-12.2926-4.8139,0-9.112.3439-13.0233.9886,2.4929,12.3356,8.5962,23.3388,17.2355,31.8491,5.6735-3.2236,12.3786-5.7165,22.78-5.7165,24.1554,0,28.7114,13.4531,45.4741,18.4819,7.9085-3.4385,14.9575-8.4673,20.7169-14.6996-.9456.043-1.8482.043-2.8368.043-25.7028,0-36.7919-10.0146-49.8582-18.6538Z"/>
    <path class="cls-4" d="M444.6949,363.9107c11.2181,11.0462,26.5624,17.8802,43.5829,17.8802,8.7682,0,17.1065-1.8482,24.6712-5.1148-16.8057-5.0288-21.3617-18.4819-45.4741-18.4819-10.4015.043-17.1495,2.4929-22.78,5.7165Z"/>
  </g>
</svg>