<?xml version="1.0" encoding="UTF-8"?>
<svg id="Calque_1" data-name="Calque 1" xmlns="http://www.w3.org/2000/svg" xmlns:xlink="http://www.w3.org/1999/xlink" viewBox="0 0 1600 1200">
  <defs>
    <style>
      .cls-1 {
        fill: url(#Dégradé_sans_nom_144);
        opacity: .7;
      }

      .cls-2, .cls-3, .cls-4, .cls-5 {
        fill: #fff;
      }

      .cls-6 {
        opacity: .48;
      }

      .cls-3 {
        opacity: .7;
      }

      .cls-3, .cls-4, .cls-5 {
        isolation: isolate;
      }

      .cls-4 {
        opacity: .2;
      }

      .cls-5 {
        opacity: .5;
      }
    </style>
    <linearGradient id="Dégradé_sans_nom_144" data-name="Dégradé sans nom 144" x1="23.4123" y1="190.9194" x2="1687.8873" y2="1099.9788" gradientUnits="userSpaceOnUse">
      <stop offset="0" stop-color="#1e4f77"/>
      <stop offset=".6448" stop-color="#0084c4"/>
      <stop offset="1" stop-color="#00a6dc"/>
    </linearGradient>
  </defs>
  <path class="cls-1" d="M-31.4097-.8842c.3887,85.4868-.4424,170.9731-1.7642,256.4487-1.3271,85.8223-3.145,171.6362-4.6982,257.4546-1.5493,85.6147-2.8335,171.2368-3.1108,256.8662-.1377,42.6172-.3301,85.1943-1.7437,127.7935-1.3975,42.1304-3.5034,84.2336-5.6846,126.3298-3.0381,58.6409-6.1973,117.2957-7.8789,175.9915h1655.8276V-.8842H-31.4097Z"/>
  <g class="cls-6">
    <path class="cls-2" d="M1584.6094,1031.1972c-1.2879,1.1788-1.3771,3.1781-.1986,4.4676.1276.1395,9.1507,10.0684,15.5892,20.5565v-11.3204c-5.3766-7.4062-10.519-13.0627-10.9239-13.5054-1.1791-1.2876-3.1775-1.3758-4.4667-.1982Z"/>
    <path class="cls-2" d="M1573.8586,1015.8863c10.3821,0,19.7192,4.5425,26.1414,11.7393v-8.708c-7.1304-5.8367-16.229-9.353-26.1414-9.353h-7.7903c-1.7461,0-3.1614,1.415-3.1614,3.1611v18.6328c0,14.4297,7.4319,27.1497,18.6631,34.5535h-116.0461l-45.8101-146.0798h57.2732v12.0967h-3.0872c-1.7463,0-3.1616,1.415-3.1616,3.1611s1.4153,3.1606,3.1616,3.1606h12.4976c1.7466,0,3.1616-1.4146,3.1616-3.1606s-1.415-3.1611-3.1616-3.1611h-3.0869v-12.0967h18.9341c1.3711,0,2.5867-.8843,3.0083-2.1885.4219-1.3052-.0459-2.7324-1.1582-3.5361l-85.072-61.4121,57.9644.1562v11.4839h-3.0872c-1.7463,0-3.1616,1.415-3.1616,3.1611s1.4153,3.1611,3.1616,3.1611h12.4976c1.7466,0,3.1616-1.4146,3.1616-3.1611s-1.415-3.1611-3.1616-3.1611h-3.0869v-11.4663l18.925.0508h.009c1.3452,0,2.5437-.8511,2.9858-2.1221.4431-1.2734.03-2.6885-1.0295-3.5229l-86.3303-67.9985c-.0576-.0737-.094-.1597-.1594-.229l-50.8936-54.0347c-.6025-.6411-1.4543-.9512-2.3264-.9937-.8796.0063-1.7166.3789-2.3098,1.0288l-48.8948,53.5425c-.0483.0264-.0933.0635-.1411.0918-.0623.0381-.123.0781-.1821.1211-.0342.0244-.0708.0425-.104.0679l-86.6328,67.6558c-1.0623.8291-1.4814,2.2412-1.0444,3.5156.4368,1.2744,1.634,2.1328,2.9817,2.1362l19.644.0522v12.1045h-3.0872c-1.7461,0-3.1614,1.415-3.1614,3.1611s1.4153,3.1611,3.1614,3.1611h12.4978c1.7458,0,3.1614-1.4146,3.1614-3.1611s-1.4155-3.1611-3.1614-3.1611h-3.0874v-12.0859l55.8689.1504-86.804,61.6938c-1.1213.7969-1.5984,2.228-1.1809,3.5376.4189,1.3115,1.6367,2.2007,3.0125,2.2007h22.7803v12.0967h-3.0872c-1.7461,0-3.1614,1.415-3.1614,3.1611s1.4153,3.1606,3.1614,3.1606h12.4978c1.7458,0,3.1614-1.4146,3.1614-3.1606s-1.4155-3.1611-3.1614-3.1611h-3.0874v-12.0967h56.3428l-22.0752,68.9487c-.0037.0112-.0068.0227-.0105.0332l-24.6829,77.0979h-84.196v-24.6462h37.6682c1.936,0,3.7371-.96,4.8184-2.5659,1.0808-1.606,1.291-3.636.561-5.4307l-12.2737-30.1729c-.001-.0032-.002-.0063-.0034-.0093l-6.1865-15.2085c-.8936-2.1995-3.0054-3.6189-5.3794-3.6189h-98.6558c-2.2695,0-4.3442,1.3325-5.2847,3.3962l-20.7061,45.3923c-.8232,1.8054-.6743,3.8804.3994,5.55,1.0737,1.6692,2.8994,2.6675,4.8848,2.6675h39.3057v24.6819h-72.73c11.0532-7.4338,18.3413-20.0544,18.3413-34.3472v-18.6316c0-1.7458-1.415-3.1611-3.1616-3.1611h-7.791c-14.02,0-26.4248,7.0178-33.9097,17.7192-7.4658-10.8389-19.9561-17.9624-34.084-17.9624h-7.79c-1.7466,0-3.1621,1.415-3.1621,3.1611v18.6328c0,14.4529,7.4565,27.1904,18.7188,34.5891h-24.251l-45.8218-146.1155h57.2734v12.0967h-3.0874c-1.7461,0-3.1616,1.415-3.1616,3.1611s1.4155,3.1606,3.1616,3.1606h12.4976c1.7461,0,3.1616-1.4146,3.1616-3.1606s-1.4155-3.1611-3.1616-3.1611h-3.0874v-12.0967h18.9346c1.3711,0,2.5864-.8843,3.0083-2.1885.4219-1.3052-.0459-2.7324-1.1577-3.5361l-85.0728-61.4121,57.9648.1562v11.4839h-3.0874c-1.7461,0-3.1616,1.415-3.1616,3.1611s1.4155,3.1611,3.1616,3.1611h12.4976c1.7461,0,3.1616-1.4146,3.1616-3.1611s-1.4155-3.1611-3.1616-3.1611h-3.0874v-11.4663l18.9258.0508h.0088c1.3452,0,2.5439-.8511,2.9858-2.1221.4429-1.2734.0303-2.6885-1.0298-3.5229l-86.3301-67.9985c-.0576-.0737-.0938-.1597-.1597-.229l-50.8936-54.0347c-.6021-.6411-1.4541-.9512-2.3267-.9937-.8789.0063-1.7163.3789-2.3091,1.0288l-48.8945,53.5425c-.0488.0264-.0938.0635-.1411.0918-.062.0381-.1235.0781-.1826.1211-.0342.0244-.0708.0425-.104.0679l-86.6328,67.6558c-1.0625.8291-1.4814,2.2412-1.0444,3.5156.4365,1.2744,1.6338,2.1328,2.9819,2.1362l19.644.0522v12.1045h-3.0874c-1.7461,0-3.1616,1.415-3.1616,3.1611s1.4155,3.1611,3.1616,3.1611h12.4976c1.7461,0,3.1616-1.4146,3.1616-3.1611s-1.4155-3.1611-3.1616-3.1611h-3.0869v-12.0859l55.8687.1504-86.8042,61.6938c-1.1211.7969-1.5981,2.228-1.1807,3.5376.4185,1.3115,1.6367,2.2007,3.0117,2.2007h22.7812v12.0967h-3.0874c-1.7461,0-3.1616,1.415-3.1616,3.1611s1.4155,3.1606,3.1616,3.1606h12.4976c1.7461,0,3.1616-1.4146,3.1616-3.1606s-1.4155-3.1611-3.1616-3.1611h-3.0869v-12.0967h56.3428l-22.0752,68.9487c-.0039.0112-.0068.0227-.0107.0332l-24.6938,77.1335h-134.6245c-.001,0-.0024.0007-.0029.0007h-21.3052c-.0137-.0889-.0122-.1777-.0347-.2666l-8.2095-57.7002c3.9868,4.9255,9.3818,9.6169,16.4189,13.6042,18.5293,10.7903,35.8867,8.4438,43.3921,6.8022,3.9873-.9382,6.5684-5.1594,5.1597-9.1472-2.1113-7.2712-8.9131-23.4551-27.4429-34.2451-12.1958-7.0366-23.9243-8.4438-32.603-8.2087,3.0498-6.8027,5.6304-15.2471,5.6304-25.5669,0-19.2527-8.3936-32.324-14.0371-38.7546,10.3491,1.2456,21.0537,1.9609,31.959,2.0898,1.2065.0151,2.4092.022,3.6099.022,35.5698,0,68.4189-6.2734,92.833-17.771l6.3911-3.0098c1.6128-.7598,2.3037-2.6821,1.5449-4.2959-.7593-1.6123-2.6797-2.3052-4.2959-1.5439l-6.3911,3.0093c-49.5679,23.3423-135.3936,22.6504-187.4189-1.5112-1.6162-.7515-3.5352-.0488-4.2866,1.5674-.75,1.6167-.0493,3.5361,1.5684,4.2871,14.8589,6.9014,32.5356,12.0835,51.8037,15.3301-5.4526,5.7617-15.7358,19.5049-15.7358,40.5808,0,10.3206,2.3462,18.9988,5.6299,25.5669-8.4443,0-19.4683,1.6411-30.7266,8.2087-18.2939,10.7876-24.8604,26.9722-27.2065,34.2427-1.1729,3.9873,1.1729,8.2097,5.395,9.1477v.0012c7.5049,1.8774,24.6279,3.9873,43.3921-6.802,6.8022-3.9868,12.1963-8.6782,16.1846-13.3684l-8.4434,57.4648c-.0117.0889-.0049.177-.0088.2666h-72.978l-46.0186-145.916h57.8218v11.9727h-1.8711c-1.8711,0-2.9917,1.4966-2.9917,2.9932s1.4956,2.9917,2.9917,2.9917h10.1016c1.8716,0,2.9927-1.4951,2.9927-2.9917.002-1.4966-1.1211-2.9932-2.9927-2.9932h-2.2451v-11.5972l21.8701-.0015c.374,0,.7485,0,1.4966-.374,0,0,.374,0,.374-.374.374,0,.374-.374.7485-.7485v-.373s.374-.374.374-.7495v-.374l.001.0039v-1.4976q0-.374-.373-.374l-.748-.748-86.7998-62.1064,56.9497.0039v11.2231h-1.8706c-1.8716,0-2.9922,1.4966-2.9922,3.3677s1.4961,3.3677,2.9922,3.3677h10.1016c1.8711,0,2.9927-1.4961,2.9927-3.3677s-1.4961-3.3677-2.9927-3.3677h-2.2456v-11.2231l21.9961-.0039c.3735,0,.7485,0,1.4966-.3735,0,0,.3735,0,.3735-.374.374,0,.374-.3735.7485-.7476v-.375c0-.374.374-.374.374-.7485v-2.6182l-.7476-.7476-90.5444-68.8452-50.5098-55.7485s-.373,0-.373-.3735l-.375-.3745h-2.6187c-.375,0-.375.3745-.375.3745,0,0-.373,0-.373.3735l-50.8838,55.7485-89.4204,68.8418-.7476.7471v2.6187q0,.374.374.749v.374q.3735.373.7485.7485s.373,0,.373.3735c.374,0,.7495.3745,1.123.3745h22.334v11.2231h-1.8716c-1.8711,0-3.3672,1.4966-3.3672,3.3677s1.4961,3.3677,3.3672,3.3677h10.1021c1.8711,0,3.3677-1.4961,3.3677-3.3677s-1.4966-3.3677-3.3677-3.3677l-1.8716.0015v-11.2241h55.8623l-86.4263,61.7334-.7476.7471s0,.374-.374.374v2.2456q0,.3735.374.7485v.3735l.748.7485s.3745,0,.3745.374c.373.374.7485.374,1.4961.374l22.3232-.3862-.0015,11.5981h-1.8706c-1.8716,0-3.3677,1.4971-3.3677,2.9932s1.4961,2.9922,3.3677,2.9922h10.1011c1.8711,0,3.3682-1.4956,3.3682-2.9922.0005-1.4961-1.8701-2.9932-3.7412-2.9932h-1.4971v-11.5972l56.2461.3862-46.0186,145.5396-92.0635-.2671.063-25.0229,50.6523.2739c2.6152.012,5.0562-1.2644,6.5303-3.4175,1.4917-2.1797,1.7744-4.8867.7603-7.4619l-19.3525-44.6101c-1.2646-2.9031-4.0107-4.7146-7.1665-4.7297l-100.7671-.4766c-3.168-.0156-5.9341,1.7717-7.2192,4.6628l-19.1328,42.9729c-2.3496-.5198-4.894-1.0024-7.5747-1.436-.793-.1243-1.5859.0657-2.2319.5442-.3833.2827-.6875.646-.8931,1.0593l-.1572-.0005-.1299.9087c-2.0908,14.636-.7612,26.957,3.9224,36.707H26.8745l-45.7295-145.8228h57.2729v12.0967h-3.0874c-1.7461,0-3.1611,1.415-3.1611,3.1611s1.415,3.1606,3.1611,3.1606h12.4976c1.7466,0,3.1616-1.4146,3.1616-3.1606s-1.415-3.1611-3.1616-3.1611h-3.0869v-12.0967h18.9341c1.3716,0,2.5864-.8843,3.0088-2.1885.4214-1.3052-.0464-2.7324-1.1582-3.5361l-85.0728-61.4121,57.9648.1562v11.4839h-3.0874c-1.7461,0-3.1611,1.415-3.1611,3.1611s1.415,3.1611,3.1611,3.1611h12.4976c1.7466,0,3.1616-1.4146,3.1616-3.1611s-1.415-3.1611-3.1616-3.1611h-3.0869v-11.4663l18.9253.0508h.0088c1.3452,0,2.5435-.8511,2.9858-2.1221.4434-1.2734.0303-2.6885-1.0298-3.5229l-86.3301-67.9985c-.0581-.0737-.0942-.1597-.1592-.229l-20.0684-21.3066c-.0132,3.0591-.0322,6.1182-.043,9.1772l10.4888,11.1357h-10.5312c-.0078,2.1567-.0146,4.3135-.0229,6.4697h7.9702l-7.9951,5.6821c-.0117,2.5947-.0234,5.1895-.0371,7.7842l14.7754-10.501v58.8652l-2.0181-.0059-13.0786-9.4414c-.0312,2.5752-.0669,5.1499-.1035,7.7246l2.3384,1.6875-2.3608-.0063c-.0317,2.2026-.0664,4.4048-.103,6.6074h8.0244l-8.1216,5.4019c-.0464,2.5625-.0864,5.1255-.1396,7.688l15.5625-10.3501v55.1113l-16.4805-10.9604c-.083,2.4736-.1729,4.9468-.2607,7.4204l9.4399,6.2788h-9.6611c-.0786,2.1074-.165,4.2148-.2466,6.3223h8.7803l-8.9863,5.2969c-.0996,2.5063-.2002,5.0132-.3037,7.5195l19.0552-11.2314,19.2075,61.2485-39.4312-23.2822c-.1099,2.3821-.2231,4.7637-.335,7.1455l38.4253,22.688-40.4551,18.5208c-.1216,2.374-.2446,4.748-.3667,7.1221l45.6978-20.9207,21.4976,68.5527-68.0469-31.1604c-.1177,2.2642-.2349,4.5286-.3525,6.7927l60.1216,27.5308h-61.5439c-.1011,1.9692-.2031,3.938-.3032,5.9072H108.0937c6.6064,9.2729,16.9009,14.9771,30.7266,16.9531l6.2397.541.0771-.0044c16.7778-.9807,29.2866-6.8792,37.1885-17.5334l3.4004.0168,114.3945.3984h374.6611c.0781,0,.147-.0176.2217-.0232h332.5693c2.6406.5303,5.3696.813,8.1631.813,1.1392,0,5.7871.2419,7.1675.2419,3.1792,0,6.2705-.3726,9.2461-1.0549h142.502c.0181.0007.0347.0056.0527.0056h421.4353c1.2668.2539,2.5554.4473,3.8606.5828v-6.5869h-1.5308c-16.5693-2.7742-29.2393-17.2083-29.2393-34.5535v-15.4722h4.6287ZM-19.9981,787.8771l74.5181,58.6958-74.5181-.2012v-58.4946ZM-19.9981,860.1686l73.8921,53.3413H-19.9981v-53.3413ZM259.8213,1032.3197c.2617.5823.2046,1.2563-.1499,1.801-.3555.5459-.9443.8569-1.6152.8538l-38.9683-.1846-2.2788-12.1184,38.9067.1914,4.1055,9.4568ZM247.8735,1004.7652l5.2607,12.1248-37.4434-.177-2.2778-12.1108,34.4604.1631ZM238.77,986.6686c.8276.0044,1.3862.3757,1.7437,1.145l4.7671,10.9858-32.9941-.157-2.2778-12.1172,28.7612.1433ZM172.8203,986.3495l31.1328.147,2.2778,12.1184-35.8032-.1689,2.3926-12.0964ZM169.2519,1004.3932l38.105.1802,2.2773,12.1108-42.7744-.2026,2.3921-12.0884ZM136.2485,987.3146c.3271-.7424.9326-1.1338,1.752-1.1309l28.7622.1365-2.3926,12.0972-32.9937-.1565,4.8721-10.9463ZM128.7344,1004.2008l34.4619.1631-2.3931,12.0889-37.4448-.1768,5.376-12.0752ZM120.7139,1022.2174l38.9072.1833-2.3926,12.0959-26.3843-.1252c-3.8608-1.9417-8.3291-3.6326-13.3022-5.0334l3.1719-7.1206ZM144.6206,1075.8277c-4.0996-9.2185-10.8599-19.0193-18.5181-26.7515-1.3545-1.3606-3.1709-1.0117-4.1948.0034-1.0225,1.0154-1.3833,2.8303-.0352,4.1904,8.6377,8.7202,15.6963,19.6472,19.1265,29.5366-11.9614-1.425-21.04-5.9009-26.998-13.3145-6.9351-8.6309-9.5596-20.9636-7.8076-36.6716,18.209,3.3369,29.8213,9.3005,35.481,18.2195,4.1274,6.5039,5.1157,14.8311,2.9463,24.7876ZM140.0693,1040.3695l12.9229.0613c-2.4224,2.4722-4.3838,5.188-5.8584,8.1108-1.814-2.9897-4.1792-5.7251-7.0645-8.1721ZM182.4438,1058.5963c-4.7085,13.7363-16.5796,22.2888-33.521,24.2036.6763-2.2124,1.2378-4.3794,1.6724-6.4624,2.4883-4.2852,5.522-9.2517,9.186-13.7576,3.7026-4.5508,7.6777-8.2209,12.5068-11.5525.8975-.6196,1.3652-1.5671,1.2827-2.5996-.0869-1.0942-.7842-2.1055-1.7749-2.5764-.9355-.4429-1.9873-.3433-2.8823.2756-6.7095,4.6248-12.1235,10.0586-17.2524,17.366-.1533-2.4727-.5366-4.844-1.1465-7.0835,1.5312-6.2307,5.5459-11.7327,11.624-15.927,6.0005-4.1274,13.6641-6.8052,21.6748-7.585.2686,1.6392.481,3.26.6294,4.8035.5576,9.7952.4604,12.239-1.999,20.8953ZM163.6484,1032.67l2.0273-10.2461,45.0781.2131,2.2788,12.1172-22.9668-.1089c-.2319-1.769-.5254-3.5583-.8672-5.2913-.2046-1.5203-1.5371-2.6084-3.0698-2.5669-7.8975.3513-15.79,2.4268-22.4805,5.8828ZM201.3501,1065.6549l-15.3872-.0725c.5015-1.0093.9717-2.0618,1.4058-3.1487,0,0,1.2944-3.1968,1.875-5.9497,1.1821-4.8892,1.6382-10.2197,1.3608-15.8813l10.8154.0176-.0698,25.0347ZM454.272,786.4649l78.1938,59.4888h-78.1938v-59.4888ZM454.2695,858.6773l77.4478,55.3721h-77.4478v-55.3721ZM449.4048,920.0318l20.2051,63.6055-62.8569-38.1631,42.2778-25.4424h.374ZM401.1431,820.1383l35.9189,25.8154h-72.209l36.29-25.8154ZM400.769,812.2809l-40.7808-29.1826h81.188l-40.4072,29.1826ZM441.1763,852.6896l-40.7803,26.1899-41.1548-26.1899h81.9351ZM448.2851,855.6827v53.501l-41.5312-26.5645,41.5312-26.9365ZM394.7837,882.6202l-41.1538,26.5649-.001-52.7539,41.1548,26.189ZM400.396,886.3614l42.6504,27.313h-84.9282l42.2778-27.313ZM436.6855,920.0343l-35.9165,21.7002-35.916-21.7002h71.8325ZM468.1128,989.6239l-67.3447,30.6799-67.3447-30.6799,67.3447-40.7808,67.3447,40.7808ZM448.2851,846.3287l-41.9043-29.9321,41.9043-29.9316v59.8638ZM400.7681,729.2228l43.4009,47.8901-86.8003-.0015,43.3994-47.8887ZM353.2529,786.4649l41.9048,29.9316-41.5312,29.9312h-.3735v-59.8628ZM269.8193,845.9537l77.4473-59.4888v59.4888h-77.4473ZM270.1938,914.0494l76.6973-54.9985v54.9985h-76.6973ZM351.7568,920.4098l.7476-.0015-.001-.374,42.2773,25.4419-62.854,38.1636,19.8301-63.23ZM328.5586,994.4874l64.7275,29.1829-86.4268,39.2837,21.6992-68.4666ZM316.2119,1065.5763l84.5562-38.1638,84.5562,38.1638h-169.1123ZM408.626,1024.0455l64.7266-29.1841,21.3262,68.095-86.0527-38.9109ZM608.686,984.057c7.5049-.2339,17.5908,1.1731,28.3794,7.2712,16.4199,9.6167,22.2832,23.6899,24.1597,30.0225v.2346h-.2354c-6.5679,1.6416-21.5781,3.5183-38.2319-5.8635-8.6782-4.926-14.3071-11.259-18.0601-16.8879,2.5796-2.8142,4.2227-6.8022,4.2227-11.0234.2339-1.4077,0-2.5803-.2344-3.7534ZM592.501,915.3336c4.9258,4.9248,14.0732,16.8867,14.0732,36.1204,0,9.1479-2.1113,16.6536-4.9258,22.5171-2.5796-1.6416-5.6294-2.8142-8.9131-2.8142-3.5186,0-6.5679,1.1733-9.3823,2.8142-2.8145-5.8635-4.9258-13.605-4.9258-22.7515,0-18.9988,9.3823-31.196,14.0737-35.886ZM563.416,1015.7218c-16.4185,9.6169-31.6646,7.5056-38.2319,5.864.4692,0,.2349,0,.2349-.2344v-.0007c1.8765-6.3318,7.7402-20.6401,24.1592-30.022,10.0859-5.864,19.7021-7.2717,26.9731-7.2717-.2344,1.1731-.4683,2.3464-.4683,3.7527,0,4.6917,1.876,8.9136,4.9248,11.7275-3.7524,5.395-9.3818,11.4937-17.5918,16.1846ZM583.353,987.5753c0-5.1599,4.2222-9.3823,9.3823-9.3823s9.3818,4.2224,9.3818,9.3823-4.2222,9.3818-9.3818,9.3818-9.3823-4.2219-9.3823-9.3818ZM582.041,1065.9483l8.8174-61.9553h1.6416c.939,0,1.8774,0,2.8149-.2346l8.8179,62.1899h-22.0918ZM921.873,787.8771l74.519,58.6958-74.519-.2012v-58.4946ZM921.873,860.1686l73.8931,53.3413h-73.8931v-53.3413ZM936.0937,982.6656l-61.5059-36.3164,42.2988-24.9321,19.207,61.2485ZM902.688,846.319l-69.6489-.1885,34.9644-24.8486,34.6846,25.0371ZM827.8877,784.5235h80.9199l-40.7749,28.98-40.145-28.98ZM908.249,852.92l-39.8394,26.498-39.8394-26.498h79.6787ZM915.5498,855.6598v55.1113l-41.4312-27.5552,41.4312-27.5562ZM908.249,913.5099h-79.6787l39.8394-26.4976,39.8394,26.4976ZM907.1211,919.8321l-38.7544,22.843-38.6865-22.843h77.4409ZM934.7539,989.2169l-66.8291,30.5947-66.3936-30.4021,66.833-39.3918,66.3896,39.1992ZM915.5498,846.3541l-2.0176-.0059-40.085-28.9365,42.1025-29.9229v58.8652ZM867.854,731.8292l43.5366,46.2246h-85.749l42.2124-46.2246ZM821.269,787.544l41.3193,29.8276-40.4224,28.7295-.897-.0024v-58.5547ZM821.269,855.6598l41.4316,27.5562-41.4316,27.5562v-55.1123ZM740.6279,845.8805l74.3179-58.0376v58.2388l-74.3179-.2012ZM738.2358,913.5099l76.71-54.52v54.52h-76.71ZM819.9106,921.4068l42.2324,24.9373-61.8965,36.4827,19.6641-61.4199ZM796.6309,994.1202l63.6992,29.1692-85.5811,39.178,21.8818-68.3472ZM782.3398,1065.9476l85.584-39.1812,85.564,39.1812h-171.1479ZM875.5185,1023.2894l64.1108-29.3503,21.4976,68.5527-85.6084-39.2024ZM1020.3643,1059.2586c-6.4751-13.1833-19.1787-27.1565-19.8247-27.8633-1.1792-1.2876-3.1777-1.3757-4.4663-.1982-1.2886,1.179-1.3774,3.1782-.1992,4.4675.168.1826,15.6738,17.2397,20.5249,30.283h-6.2681c-16.667-2.6917-29.4375-17.175-29.4375-34.5891v-15.4722h4.6289c19.3228,0,35.042,15.7205,35.042,35.043v8.3293ZM1029.7861,1065.9476h-3.0688c-.1387-.8899-.0298-2.8904-.0298-4.1763v-4.5159c6.4609-10.7744,15.9463-21.2041,16.0767-21.3474,1.1782-1.2896,1.0894-3.2888-.1987-4.4675-1.2896-1.1797-3.2881-1.0894-4.4663.1982-.4243.4639-6.0454,6.6489-11.689,14.5703-.502-4.3958-1.6963-8.5813-3.4702-12.4504,6.0552-10.5188,17.3931-17.6292,30.376-17.6292h4.6299v15.4709c0,16.9656-12.1235,31.1389-28.1597,34.3472ZM1198.5093,990.3695l4.4155,10.8562h-30.7134l-2.1597-10.8562h28.4575ZM1172.7305,1035.1551h-47.2783l2.2056-10.8552h42.9131l2.1597,10.8552ZM1134.5547,990.3695h29.2661l2.1592,10.8562h-33.6323l2.207-10.8562ZM1131.1064,1007.3356h36.0894l2.1597,10.854h-40.4556l2.2065-10.854ZM1100.2529,990.3695h28.0654l-2.2065,10.8562h-30.8105l4.9517-10.8562ZM1119.2153,1035.1551h-39.3906l4.9517-10.8552h36.6455l-2.2065,10.8552ZM1087.563,1018.1896l4.9512-10.854h32.356l-2.2065,10.854h-35.1006ZM1173.3979,1065.9476h-48.6294v-24.6819h48.6294v24.6819ZM1173.4268,1007.3356h31.9829l4.4155,10.854h-34.2383l-2.1602-10.854ZM1176.8022,1024.2999h35.5083l4.4153,10.8552h-37.7644l-2.1592-10.8552ZM1418.5713,787.8771l74.5183,58.6958-74.5183-.2012v-58.4946ZM1418.5713,860.1686l73.8923,53.3413h-73.8923v-53.3413ZM1432.7917,982.6656l-61.5061-36.3164,42.2988-24.9321,19.2073,61.2485ZM1399.3862,846.319l-69.6492-.1885,34.9641-24.8486,34.6851,25.0371ZM1324.5854,784.5235h80.9192l-40.7747,28.98-40.1445-28.98ZM1404.9473,852.92l-39.8394,26.498-39.8401-26.498h79.6794ZM1412.248,855.6598v55.1113l-41.4316-27.5552,41.4316-27.5562ZM1404.9473,913.5099h-79.6794l39.8401-26.4976,39.8394,26.4976ZM1403.8191,919.8321l-38.7546,22.843-38.6863-22.843h77.4409ZM1431.4517,989.2169l-66.8293,30.5947-66.3936-30.4021,66.8333-39.3918,66.3896,39.1992ZM1412.248,846.3541l-2.0181-.0059-40.0852-28.9365,42.1033-29.9229v58.8652ZM1364.5518,731.8292l43.5366,46.2246h-85.7488l42.2122-46.2246ZM1317.967,787.544l41.3196,29.8276-40.4231,28.7295-.8965-.0024v-58.5547ZM1317.967,855.6598l41.4314,27.5562-41.4314,27.5562v-55.1123ZM1237.3257,845.8805l74.3184-58.0376v58.2388l-74.3184-.2012ZM1234.9336,913.5099l76.7104-54.52v54.52h-76.7104ZM1316.6084,921.4068l42.2324,24.9373-61.896,36.4827,19.6636-61.4199ZM1293.3286,994.1202l63.6992,29.1692-85.5806,39.178,21.8813-68.3472ZM1279.1152,1065.912l85.5063-39.1455,85.4866,39.1455h-170.9929ZM1372.2163,1023.2894l64.1108-29.3503,21.4976,68.5527-85.6084-39.2024Z"/>
    <path class="cls-2" d="M1600,695.0789l-124.0026,49.6354c-1.6206.6498-2.4086,2.4896-1.7601,4.1112.4947,1.2351,1.6819,1.9868,2.9364,1.9868.3909,0,.7889-.0738,1.1741-.227l121.6522-48.6949v-6.8115Z"/>
    <path class="cls-2" d="M1600,779.8738l-61.398,22.7277c-1.6882.4459-2.6956,2.175-2.2507,3.8635.374,1.419,1.6544,2.3564,3.0552,2.3564.2667,0,.5375-.0338.8083-.1044l59.7852-22.1311v-6.7121Z"/>
    <path class="cls-2" d="M1600,877.9327l-43.1113,4.8923c-1.7348.1964-2.9818,1.7629-2.7851,3.4977.1832,1.6141,1.5509,2.8048,3.1375,2.8048.1194,0,.2389-.0069.3602-.0206l42.3987-4.8116v-6.3625Z"/>
    <path class="cls-2" d="M518.9509,815.0334c30.3109,14.4384,69.8715,20.6273,109.5279,20.6273,41.0358,0,82.1724-6.6311,113.2247-17.6097.1021-.0359.2017-.0769.3001-.1229l6.3913-3.01c1.6126-.7597,2.3036-2.6828,1.5445-4.2954-.7578-1.6126-2.6806-2.3058-4.2957-1.5449l-6.2438,2.9406c-59.8376,21.1045-157.5564,25.8229-217.6726-2.8133-1.6076-.7669-3.5354-.0832-4.302,1.5259-.7666,1.6095-.0832,3.5358,1.5256,4.3024Z"/>
    <path class="cls-2" d="M721.8135,851.3243l-6.3913,3.01c-51.0848,24.0568-109.7549,24.2112-160.967.4265-1.6177-.7512-3.5354-.0489-4.2869,1.5679-.7502,1.6167-.0492,3.5361,1.5685,4.2869,26.3178,12.2234,54.532,18.3309,82.7499,18.3309,28.5571,0,57.118-6.2605,83.6867-18.7719l6.3913-3.01c1.6126-.7597,2.3036-2.6828,1.5445-4.2954-.7578-1.6123-2.6781-2.3048-4.2957-1.5449Z"/>
    <path class="cls-2" d="M997.3922,824.2746c29.8986,10.5754,75.5655,16.9465,120.8327,16.9465,37.1196,0,73.9756-4.2879,101.6097-14.0579.1021-.0359.2017-.0769.3001-.1229l6.3913-3.0097c1.6126-.7593,2.3036-2.6825,1.5445-4.2954-.759-1.6117-2.6793-2.3055-4.2957-1.5449l-6.2438,2.9403c-60.1264,21.1855-164.631,15.9299-217.9853-2.9422-1.6858-.5945-3.5266.2862-4.1192,1.9666-.5951,1.6807.285,3.525,1.9657,4.1195Z"/>
    <path class="cls-2" d="M1112.6166,888.0587c28.5571,0,57.1192-6.2605,83.688-18.7719l6.3913-3.01c1.6126-.7597,2.3036-2.6828,1.5445-4.2954-.759-1.6123-2.6793-2.3052-4.2957-1.5449l-6.3913,3.01c-51.0848,24.0565-109.7536,24.2119-160.967.4265-1.6177-.7515-3.5354-.0489-4.2869,1.5676-.7502,1.617-.0492,3.5364,1.5685,4.2872,26.3166,12.2234,54.5307,18.3309,82.7486,18.3309Z"/>
    <path class="cls-2" d="M1011.4141,900.1339c-.7502,1.617-.0492,3.5364,1.5685,4.2872,25.7908,11.9794,60.0431,18.8148,96.4453,19.2469,1.2066.0145,2.4095.0214,3.6098.0214,35.57,0,68.419-6.274,92.8329-17.7708l6.3913-3.01c1.6126-.7597,2.3036-2.6828,1.5445-4.2954-.759-1.612-2.6793-2.3055-4.2957-1.5449l-6.3913,3.01c-49.5692,23.3425-135.3943,22.6503-187.4184-1.5121-1.6177-.7521-3.5354-.0489-4.2869,1.5676Z"/>
    <path class="cls-2" d="M45.0134,815.0877c32.9991,14.0904,72.948,19.9634,111.8718,19.9634,41.2425,0,81.3327-6.5962,110.7598-17.0001.1021-.0359.2017-.0769.3001-.1229l6.3925-3.01c1.6126-.7593,2.3036-2.6825,1.5445-4.2951-.759-1.6123-2.6793-2.3061-4.2957-1.5452l-6.245,2.9406c-56.0715,19.7721-151.3921,25.4844-217.7937-2.8675-1.6378-.6995-3.5354.0605-4.2352,1.7009-.701,1.6394.0605,3.5361,1.7009,4.2358Z"/>
    <path class="cls-2" d="M160.4282,878.9465c28.5571,0,57.118-6.2605,83.6867-18.7719l6.3925-3.01c1.6126-.7593,2.3036-2.6825,1.5445-4.2951-.759-1.6123-2.6793-2.3052-4.2957-1.5452l-6.3925,3.01c-51.0848,24.0568-109.7561,24.2112-160.967.4265-1.6177-.7512-3.5354-.0489-4.2869,1.5679-.7502,1.6167-.0492,3.5361,1.5685,4.2869,26.3178,12.2234,54.532,18.3309,82.7499,18.3309Z"/>
    <path class="cls-2" d="M59.2245,891.022c-.7502,1.6167-.0492,3.5361,1.5685,4.2869,25.792,11.9794,60.0431,18.8148,96.4465,19.2469,1.2066.0145,2.4082.0214,3.6086.0214,35.57,0,68.419-6.274,92.8329-17.7708l6.3913-3.01c1.6126-.7597,2.3036-2.6828,1.5445-4.2954-.7578-1.6123-2.6781-2.3052-4.2957-1.5449l-6.3913,3.01c-49.568,23.3431-135.3956,22.6497-187.4184-1.5121-1.6164-.7508-3.5354-.0489-4.2869,1.5679Z"/>
  </g>
  <g>
    <polygon class="cls-2" points="825.1477 332.8762 816.3542 332.8762 816.3542 361.5784 837.8438 361.5784 837.8438 354.2176 825.1477 354.2176 825.1477 332.8762"/>
    <polygon class="cls-2" points="841.5983 361.5784 850.54 361.5784 850.54 350.6607 862.0011 350.6607 862.0011 343.8927 850.54 343.8927 850.54 340.237 863.7796 340.237 863.7796 332.8762 841.5983 332.8762 841.5983 361.5784"/>
    <polygon class="cls-2" points="870.5475 361.8254 886.5536 361.8254 886.5536 359.8988 872.6718 359.8988 872.6718 347.5978 885.862 347.5978 885.862 345.6712 872.6718 345.6712 872.6718 334.7535 886.5536 334.7535 886.5536 332.8762 870.5475 332.8762 870.5475 361.8254"/>
    <path class="cls-2" d="M912.6375,351.7475c0,2.1243.0988,4.3967.247,6.768h-.247l-17.4387-25.5899h-2.0254v28.801h1.8772v-18.7725c0-1.5314-.0988-3.8039-.247-6.8668h.0988l17.4387,25.7381h2.2231v-28.9492h-2.0254v18.8713h.0988Z"/>
    <polygon class="cls-2" points="922.8636 361.8254 938.8696 361.8254 938.8696 359.8988 924.9879 359.8988 924.9879 347.5978 938.1286 347.5978 938.1286 345.6712 924.9879 345.6712 924.9879 334.7535 938.8696 334.7535 938.8696 332.8762 922.8636 332.8762 922.8636 361.8254"/>
    <path class="cls-2" d="M961.6436,345.8194c1.0868-1.2844,1.5314-2.9641,1.5314-4.9895,0-2.7171-.9386-4.6437-2.6183-6.027-1.7784-1.2844-4.4955-2.0255-8.0524-2.0255h-7.015v29.048h2.0254v-12.6962l7.2126.0988,7.7066,12.5479h2.4701l-7.9042-13.1408c2.0254-.4446,3.5569-1.5314,4.6437-2.8159ZM953.0972,347.4496h-5.6812v-12.6962h4.7425c3.0629,0,5.2365.494,6.6198,1.5314,1.2844.9386,2.0254,2.6183,2.0254,4.7425s-.6916,3.6557-2.0254,4.7425c-1.1856,1.235-3.2111,1.6796-5.6812,1.6796Z"/>
    <path class="cls-2" d="M981.3054,348.7834h8.5464v9.8309c-1.8772.6916-4.1497,1.0868-6.768,1.0868-4.1497,0-7.2126-1.0868-9.2381-3.2111-2.1243-2.1243-3.2111-5.3353-3.2111-9.5839,0-3.9027,1.0868-7.015,3.3099-9.2381,2.1243-2.3713,5.2365-3.4581,8.9911-3.4581,2.6183,0,5.2365.5928,7.7066,1.7784l.8398-1.7784c-2.4701-1.0868-5.3353-1.7784-8.3982-1.7784-2.9641,0-5.4342.5928-7.7066,1.7784s-3.9027,2.9641-5.2365,5.2365c-1.1856,2.2725-1.7784,4.7425-1.7784,7.6078,0,4.6437,1.1856,8.2006,3.5569,10.6707s5.9282,3.8039,10.4237,3.8039c3.4581,0,6.6198-.494,9.3863-1.7784v-12.8938h-10.5719l.1482,1.9267Z"/>
    <polygon class="cls-2" points="1014.3055 332.8762 1005.7591 348.5364 997.2126 332.8762 994.8414 332.8762 1004.5734 350.6607 1004.5734 361.5784 1006.6977 361.5784 1006.6977 350.4137 1016.4298 332.8762 1014.3055 332.8762"/>
    <g>
      <path class="cls-2" d="M790.7643,430.3945v1.729c0,8.3488,3.6557,12.5973,11.2635,12.5973,6.9162,0,10.3743-4.8907,10.3743-9.9791,0-7.2126-3.6557-10.3743-9.7815-12.2021l-7.509-2.6183c-9.9791-3.8533-14.3264-9.0405-14.3264-18.8219,0-12.4985,8.4476-19.4147,21.3414-19.4147,17.5869,0,19.4147,10.9671,19.4147,18.0809v1.5314h-10.9671v-1.4326c0-6.2246-2.7665-9.8803-9.6333-9.8803-4.6931,0-9.2381,2.6183-9.2381,9.8803,0,5.8788,2.9641,8.8428,10.2755,11.6093l7.4102,2.6677c9.6827,3.4581,13.9312,8.744,13.9312,18.1797,0,14.6228-8.8428,20.6498-22.6752,20.6498-16.9941,0-20.8474-11.3623-20.8474-20.9462v-1.6302h10.9671Z"/>
      <path class="cls-2" d="M832.1627,383.068h37.1004v9.2381h-26.1333v19.0195h24.6019v9.2381h-24.6019v21.8848h26.9237v9.2381h-37.8909v-68.6185Z"/>
      <path class="cls-2" d="M895.1988,383.068h14.03l18.0809,68.6185h-11.4117l-4.2485-16.7965h-20.1064l-4.3967,16.7965h-11.4117l19.4641-68.6185ZM909.8216,426.0966l-7.8548-33.8399h-.1976l-8.1512,33.8399h16.2037Z"/>
      <path class="cls-2" d="M934.0283,383.068h21.7366c13.1408,0,18.9207,8.25,18.9207,20.0076,0,12.3009-7.2126,20.2546-20.1064,20.2546h-9.6333v28.3564h-10.9671v-68.6185h.0494ZM944.9954,415.0307h7.8054c5.8788,0,10.9671-3.1617,10.9671-11.8069,0-7.4102-2.9641-11.9057-11.7081-11.9057h-7.015v23.7127h-.0494Z"/>
      <path class="cls-2" d="M991.4821,383.068h14.03l18.0809,68.6185h-11.4117l-4.2485-16.7965h-20.1064l-4.3967,16.7965h-11.4611l19.5135-68.6185ZM1006.1049,426.0966l-7.8548-33.8399h-.1976l-8.1512,33.8399h16.2037Z"/>
      <path class="cls-2" d="M1034.3625,392.2566h-16.3518v-9.2381h43.325v9.2381h-16.0554v59.3804h-10.9671v-59.3804h.0494Z"/>
      <path class="cls-2" d="M1069.5362,383.068h10.9671v27.4672h20.1558v-27.4672h10.9671v68.6185h-10.9671v-31.9133h-20.1558v31.9133h-10.9671v-68.6185Z"/>
    </g>
    <polygon class="cls-2" points="785.5278 344.2385 779.5996 344.2385 779.5996 361.5784 797.0383 361.5784 797.0383 355.8972 785.5278 355.8972 785.5278 344.2385"/>
    <polygon class="cls-2" points="779.5996 341.2744 785.429 341.2744 785.429 338.4586 802.8677 338.4586 802.8677 355.8972 800.0024 355.8972 800.0024 361.5784 808.6476 361.5784 808.6476 332.6292 779.5996 332.6292 779.5996 341.2744"/>
    <path class="cls-2" d="M674.5229,380.4991c10.1767-6.9656,20.6004-13.8324,40.9537-13.8324,1.6796,0,3.2605.0494,4.7919.1482,7.4596-4.9401,15.8578-9.2381,30.53-9.2381.8892,0,1.729,0,2.5689.0494-11.9057-22.7246-35.7172-38.2367-63.1349-38.2367-27.9118,0-52.069,16.0554-63.7278,39.4223,20.2546,4.2485,25.5405,18.8219,48.0181,21.6872Z"/>
    <path class="cls-5" d="M674.5229,380.4991c-22.4776-2.8159-27.7636-17.3893-48.0675-21.7366-4.7919,9.5839-7.5584,20.4028-7.5584,31.8639,0,1.1362.0494,2.2725.0988,3.4087,3.9027.6916,8.2994,1.1362,13.2396,1.1362,21.2426,0,31.6663-7.4102,42.2876-14.6722Z"/>
    <path class="cls-5" d="M720.2686,366.8149c20.1064,1.1362,29.7396,9.4851,40.8055,16.7965-.8892-9.2875-3.6063-18.0809-7.756-25.9851-.8398-.0494-1.6796-.0494-2.5689-.0494-14.6228,0-22.9716,4.2979-30.4806,9.2381Z"/>
    <path class="cls-4" d="M715.4766,366.6667c-20.4028,0-30.7771,6.8174-40.9537,13.8324-10.6213,7.262-21.045,14.7216-42.2382,14.7216-4.9401,0-9.3369-.3952-13.2396-1.1362.1482,3.6557.5928,7.2126,1.3338,10.6707,4.4955-.741,9.4357-1.1362,14.9686-1.1362,22.3788,0,35.1244,6.6198,46.5361,14.1288,15.2156-6.7186,21.9342-19.2665,46.9313-19.2665,14.7216,0,23.1198,4.3473,30.6288,9.3369,1.3832-5.4836,2.0749-11.2635,2.0749-17.1423,0-2.3713-.0988-4.6931-.3458-7.015-11.0659-7.3608-20.6992-15.6602-40.8055-16.7965-1.6302-.1482-3.2111-.1976-4.8907-.1976Z"/>
    <path class="cls-5" d="M681.8343,417.7477c15.0674,9.9297,27.7636,21.4402,57.3056,21.4402,1.1362,0,2.1737,0,3.2605-.0494,8.1018-8.6946,14.03-19.4147,16.9447-31.3205-7.509-4.9401-15.9072-9.3369-30.6288-9.3369-24.9971,0-31.6663,12.548-46.8819,19.2665Z"/>
    <path class="cls-3" d="M681.8343,417.7477c-11.4117-7.509-24.1573-14.1288-46.5361-14.1288-5.533,0-10.4731.3952-14.9686,1.1362,2.8653,14.1782,9.8803,26.8249,19.8099,36.6064,6.521-3.7051,14.2276-6.5704,26.1827-6.5704,27.7636,0,33.0001,15.4626,52.2666,21.2426,9.0898-3.9521,17.1917-9.7321,23.8115-16.8953-1.0868.0494-2.1243.0494-3.2605.0494-29.542,0-42.2876-11.5105-57.3056-21.4402Z"/>
    <path class="cls-4" d="M640.1396,441.3122c12.8938,12.6962,30.53,20.551,50.093,20.551,10.0779,0,19.6617-2.1243,28.3564-5.8788-19.3159-5.78-24.5525-21.2426-52.2666-21.2426-11.9551.0494-19.7111,2.8653-26.1827,6.5704Z"/>
  </g>
</svg>