<?xml version="1.0" encoding="UTF-8"?>
<svg id="Calque_1" data-name="Calque 1" xmlns="http://www.w3.org/2000/svg" xmlns:xlink="http://www.w3.org/1999/xlink" viewBox="0 0 1920 1200">
  <defs>
    <style>
      .cls-1 {
        fill: url(#Dégradé_sans_nom_144);
        opacity: .7;
      }

      .cls-2, .cls-3, .cls-4, .cls-5 {
        fill: #fff;
      }

      .cls-6 {
        opacity: .48;
      }

      .cls-3 {
        opacity: .7;
      }

      .cls-3, .cls-4, .cls-5 {
        isolation: isolate;
      }

      .cls-4 {
        opacity: .2;
      }

      .cls-5 {
        opacity: .5;
      }
    </style>
    <linearGradient id="Dégradé_sans_nom_144" data-name="Dégradé sans nom 144" x1="93.5961" y1="128.7933" x2="1980.0251" y2="1159.0738" gradientUnits="userSpaceOnUse">
      <stop offset="0" stop-color="#1e4f77"/>
      <stop offset=".6448" stop-color="#0084c4"/>
      <stop offset="1" stop-color="#00a6dc"/>
    </linearGradient>
  </defs>
  <path class="cls-1" d="M-7.8193-16.6602c.4593,86.6098-.5228,173.2192-2.0847,259.8177-1.5683,86.9497-3.7164,173.891-5.5519,260.8367-1.8308,86.7395-3.3483,173.4863-3.676,260.2406-.1627,43.177-.39,86.3135-2.0605,129.4723-1.6514,42.6838-4.14,85.3402-6.7174,127.9894-3.5901,59.4112-7.3232,118.8366-9.3104,178.3034h1956.6738V-16.6602H-7.8193Z"/>
  <g class="cls-6">
    <path class="cls-2" d="M1901.8131,1000.5274c-1.522,1.393-1.6273,3.7555-.2346,5.2793.1508.1648,10.8133,11.8977,18.4216,24.2914v-13.3772c-6.3535-8.7519-12.4302-15.436-12.9087-15.9592-1.3934-1.5216-3.7548-1.6258-5.2782-.2343Z"/>
    <path class="cls-2" d="M1889.109,982.4347c12.2684,0,23.302,5.3678,30.891,13.8722v-10.2902c-8.4259-6.8971-19.1776-11.0524-30.891-11.0524h-9.2057c-2.0633,0-3.7358,1.6721-3.7358,3.7355v22.0182c0,17.0514,8.7822,32.0825,22.054,40.8315h-137.1305l-54.1333-172.621h67.6791v14.2945h-3.6481c-2.0636,0-3.7361,1.6721-3.7361,3.7355s1.6724,3.7349,3.7361,3.7349h14.7682c2.0639,0,3.7361-1.6716,3.7361-3.7349s-1.6721-3.7355-3.7361-3.7355h-3.6478v-14.2945h22.3742c1.6202,0,3.0566-1.0449,3.5549-2.5861.4985-1.5423-.0542-3.2289-1.3686-4.1786l-100.5287-72.57,68.4959.1846v13.5704h-3.6481c-2.0636,0-3.7361,1.6721-3.7361,3.7355s1.6724,3.7355,3.7361,3.7355h14.7682c2.0639,0,3.7361-1.6716,3.7361-3.7355s-1.6721-3.7355-3.7361-3.7355h-3.6478v-13.5496l22.3635.06h.0107c1.5896,0,3.0059-1.0057,3.5283-2.5076.5236-1.5048.0355-3.1769-1.2166-4.163l-102.0156-80.3531c-.0681-.0871-.1111-.1887-.1884-.2706l-60.1404-63.8522c-.712-.7576-1.7186-1.124-2.7491-1.1742-1.0395.0075-2.0284.4477-2.7295,1.2157l-57.7784,63.2706c-.0571.0312-.1102.075-.1668.1085-.0736.045-.1454.0923-.2152.1431-.0404.0288-.0837.0502-.1229.0802l-102.3731,79.9481c-1.2553.9797-1.7506,2.6484-1.2342,4.1544.5161,1.506,1.9309,2.5203,3.5234,2.5244l23.2132.0617v14.3037h-3.6481c-2.0633,0-3.7358,1.6721-3.7358,3.7355s1.6724,3.7355,3.7358,3.7355h14.7685c2.0631,0,3.7358-1.6716,3.7358-3.7355s-1.6727-3.7355-3.7358-3.7355h-3.6484v-14.2818l66.0197.1777-102.5753,72.903c-1.3251.9417-1.8888,2.6328-1.3955,4.1803.4951,1.5498,1.9341,2.6005,3.5598,2.6005h26.9192v14.2945h-3.6481c-2.0633,0-3.7358,1.6721-3.7358,3.7355s1.6724,3.7349,3.7358,3.7349h14.7685c2.0631,0,3.7358-1.6716,3.7358-3.7349s-1.6727-3.7355-3.7358-3.7355h-3.6484v-14.2945h66.5797l-26.086,81.476c-.0043.0133-.0081.0268-.0124.0392l-29.1675,91.1058h-99.4936v-29.1242h44.5121c2.2878,0,4.416-1.1344,5.6938-3.0321,1.2772-1.8977,1.5256-4.2966.663-6.4174l-14.5037-35.6549c-.0012-.0038-.0023-.0075-.004-.011l-7.3105-17.9717c-1.0559-2.5991-3.5514-4.2764-6.3568-4.2764h-116.5805c-2.6819,0-5.1335,1.5746-6.2448,4.0133l-24.4681,53.6396c-.9728,2.1334-.7968,4.5854.472,6.5584,1.2688,1.9725,3.4262,3.1521,5.7723,3.1521h46.4471v29.1663h-85.9442c13.0615-8.7845,21.6737-23.6981,21.6737-40.5877v-22.0168c0-2.0631-1.6721-3.7355-3.7361-3.7355h-9.2066c-16.5673,0-31.2259,8.2929-40.0707,20.9386-8.8223-12.8082-23.5819-21.226-40.2767-21.226h-9.2054c-2.0639,0-3.7366,1.6721-3.7366,3.7355v22.0182c0,17.0788,8.8113,32.1306,22.1197,40.8736h-28.6571l-54.1471-172.6631h67.6794v14.2945h-3.6484c-2.0633,0-3.7361,1.6721-3.7361,3.7355s1.6727,3.7349,3.7361,3.7349h14.7682c2.0633,0,3.7361-1.6716,3.7361-3.7349s-1.6727-3.7355-3.7361-3.7355h-3.6484v-14.2945h22.3748c1.6202,0,3.0564-1.0449,3.5549-2.5861.4985-1.5423-.0542-3.2289-1.3681-4.1786l-100.5296-72.57,68.4964.1846v13.5704h-3.6484c-2.0633,0-3.7361,1.6721-3.7361,3.7355s1.6727,3.7355,3.7361,3.7355h14.7682c2.0633,0,3.7361-1.6716,3.7361-3.7355s-1.6727-3.7355-3.7361-3.7355h-3.6484v-13.5496l22.3644.06h.0104c1.5896,0,3.0062-1.0057,3.5283-2.5076.5233-1.5048.0358-3.1769-1.2169-4.163l-102.0153-80.3531c-.0681-.0871-.1108-.1887-.1887-.2706l-60.1404-63.8522c-.7114-.7576-1.7183-1.124-2.7494-1.1742-1.0386.0075-2.0281.4477-2.7286,1.2157l-57.7781,63.2706c-.0577.0312-.1108.075-.1668.1085-.0733.045-.146.0923-.2158.1431-.0404.0288-.0837.0502-.1229.0802l-102.3731,79.9481c-1.2555.9797-1.7506,2.6484-1.2342,4.1544.5158,1.506,1.9306,2.5203,3.5237,2.5244l23.2132.0617v14.3037h-3.6484c-2.0633,0-3.7361,1.6721-3.7361,3.7355s1.6727,3.7355,3.7361,3.7355h14.7682c2.0633,0,3.7361-1.6716,3.7361-3.7355s-1.6727-3.7355-3.7361-3.7355h-3.6478v-14.2818l66.0194.1777-102.5756,72.903c-1.3248.9417-1.8885,2.6328-1.3952,4.1803.4945,1.5498,1.9341,2.6005,3.5589,2.6005h26.9204v14.2945h-3.6484c-2.0633,0-3.7361,1.6721-3.7361,3.7355s1.6727,3.7349,3.7361,3.7349h14.7682c2.0633,0,3.7361-1.6716,3.7361-3.7349s-1.6727-3.7355-3.7361-3.7355h-3.6478v-14.2945h66.5797l-26.086,81.476c-.0046.0133-.0081.0268-.0127.0392l-29.1805,91.1479h-159.0843c-.0012,0-.0029.0009-.0035.0009h-25.1761c-.0162-.105-.0144-.21-.041-.315l-9.701-68.1837c4.7112,5.8205,11.0864,11.3642,19.4021,16.076,21.8959,12.7508,42.407,9.978,51.276,8.0381,4.7118-1.1087,7.7618-6.0968,6.0971-10.8092-2.4949-8.5923-10.5325-27.7166-32.4289-40.4671-14.4116-8.3151-28.2711-9.978-38.5266-9.7002,3.6039-8.0387,6.6533-18.0173,6.6533-30.2121,0-22.7507-9.9186-38.1969-16.5875-45.7959,12.2294,1.4719,24.8789,2.3172,37.7656,2.4695,1.4258.0179,2.8469.026,4.2657.026,42.0325,0,80.8499-7.4133,109.6998-20.9998l7.5523-3.5566c1.9058-.8978,2.7223-3.1694,1.8256-5.0764-.8972-1.9052-3.1666-2.724-5.0764-1.8245l-7.5523,3.556c-58.5738,27.5833-159.9931,26.7657-221.471-1.7858-1.9099-.888-4.1775-.0577-5.0655,1.8522-.8863,1.9104-.0583,4.1786,1.8533,5.066,17.5586,8.1553,38.447,14.2789,61.2159,18.1154-6.4433,6.8086-18.5949,23.0487-18.5949,47.9539,0,12.1957,2.7725,22.4507,6.6528,30.2121-9.9786,0-23.0054,1.9393-36.3092,9.7002-21.6178,12.7476-29.3772,31.8727-32.1497,40.4642-1.3859,4.7118,1.3859,9.7013,6.3752,10.8097v.0014c8.8684,2.2186,29.1026,4.7118,51.276-8.0379,8.0381-4.7112,14.4122-10.255,19.1251-15.7973l-9.9774,67.9056c-.0138.105-.0058.2092-.0104.315h-86.2374l-54.3796-172.4274h68.3274v14.148h-2.2111c-2.2111,0-3.5353,1.7685-3.5353,3.537s1.7673,3.5353,3.5353,3.5353h11.9369c2.2116,0,3.5364-1.7668,3.5364-3.5353.0023-1.7685-1.3248-3.537-3.5364-3.537h-2.653v-13.7042l25.8437-.0017c.442,0,.8845,0,1.7685-.442,0,0,.442,0,.442-.442.442,0,.442-.442.8845-.8845v-.4408s.442-.442.442-.8857v-.442l.0012.0046v-1.7696q0-.442-.4408-.442l-.884-.884-102.5704-73.3905,67.2969.0046v13.2623h-2.2105c-2.2116,0-3.5358,1.7685-3.5358,3.9795s1.7679,3.9795,3.5358,3.9795h11.9369c2.2111,0,3.5364-1.7679,3.5364-3.9795s-1.7679-3.9795-3.5364-3.9795h-2.6536v-13.2623l25.9925-.0046c.4414,0,.8845,0,1.7685-.4414,0,0,.4414,0,.4414-.442.442,0,.442-.4414.8845-.8834v-.4431c0-.442.442-.442.442-.8845v-3.0939l-.8834-.8834-106.9954-81.3537-59.6868-65.8774s-.4408,0-.4408-.4414l-.4431-.4426h-3.0944c-.4431,0-.4431.4426-.4431.4426,0,0-.4408,0-.4408.4414l-60.1288,65.8774-105.6671,81.3496-.8834.8828v3.0944q0,.442.442.8851v.442q.4414.4408.8845.8845s.4408,0,.4408.4414c.442,0,.8857.4426,1.3271.4426h26.3918v13.2623h-2.2116c-2.2111,0-3.979,1.7685-3.979,3.9795s1.7679,3.9795,3.979,3.9795h11.9375c2.2111,0,3.9795-1.7679,3.9795-3.9795s-1.7685-3.9795-3.9795-3.9795l-2.2116.0017v-13.2634h66.0119l-102.129,72.9497-.8834.8828s0,.442-.442.442v2.6536q0,.4414.442.8845v.4414l.884.8845s.4426,0,.4426.442c.4408.442.8845.442,1.7679.442l26.3791-.4564-.0017,13.7054h-2.2105c-2.2116,0-3.9795,1.7691-3.9795,3.537s1.7679,3.5358,3.9795,3.5358h11.9363c2.2111,0,3.9801-1.7673,3.9801-3.5358.0006-1.7679-2.2099-3.537-4.4209-3.537h-1.7691v-13.7042l66.4654.4564-54.3796,171.9825-108.7904-.3156.0744-29.5694,59.8553.3237c3.0904.0141,5.9748-1.4941,7.7168-4.0384,1.7627-2.5757,2.0968-5.7746.8984-8.8177l-22.8687-52.7153c-1.4944-3.4305-4.7395-5.5712-8.4686-5.5891l-119.0754-.5631c-3.7436-.0185-7.0122,2.0936-8.5309,5.51l-22.609,50.7806c-2.7765-.6142-5.7832-1.1846-8.951-1.6969-.937-.1468-1.8741.0776-2.6375.6431-.4529.3341-.8124.7634-1.0553,1.2518l-.1858-.0006-.1535,1.0738c-2.4707,17.2952-.8995,31.8548,4.635,43.3763H61.0545L7.0164,868.9285h67.6788v14.2945h-3.6484c-2.0633,0-3.7355,1.6721-3.7355,3.7355s1.6721,3.7349,3.7355,3.7349h14.7682c2.0639,0,3.7361-1.6716,3.7361-3.7349s-1.6721-3.7355-3.7361-3.7355h-3.6478v-14.2945h22.3742c1.6208,0,3.0564-1.0449,3.5555-2.5861.4979-1.5423-.0548-3.2289-1.3686-4.1786L6.1988,789.5938l68.4964.1846v13.5704h-3.6484c-2.0633,0-3.7355,1.6721-3.7355,3.7355s1.6721,3.7355,3.7355,3.7355h14.7682c2.0639,0,3.7361-1.6716,3.7361-3.7355s-1.6721-3.7355-3.7361-3.7355h-3.6478v-13.5496l22.3638.06h.0104c1.5896,0,3.0056-1.0057,3.5283-2.5076.5239-1.5048.0358-3.1769-1.2169-4.163L4.8377,702.8354c-.0687-.0871-.1114-.1887-.1881-.2706l-23.7146-25.1778c-.0156,3.6149-.0381,7.2298-.0508,10.8447l12.3945,13.159h-12.4447c-.0092,2.5486-.0173,5.0972-.0271,7.6452h9.4183l-9.4477,6.7145c-.0138,3.0662-.0277,6.1323-.0439,9.1985l17.4599-12.4089v69.5604l-2.3847-.0069-15.4549-11.1568c-.0369,3.0431-.079,6.0856-.1223,9.1281l2.7632,1.9941-2.7898-.0075c-.0375,2.6028-.0785,5.2051-.1217,7.8079h9.4824l-9.5972,6.3833c-.0548,3.0281-.1021,6.0567-.165,9.0848l18.39-12.2306v65.1245l-19.4748-12.9518c-.0981,2.9231-.2043,5.8456-.3081,8.7686l11.1551,7.4196h-11.4165c-.0929,2.4903-.195,4.9806-.2914,7.471h10.3756l-10.619,6.2593c-.1177,2.9617-.2366,5.924-.3589,8.8857L-.2272,870.8014l22.6973,72.3767-46.5954-27.5124c-.1298,2.8149-.2637,5.6292-.3958,8.4438l45.4068,26.8102-47.8053,21.8858c-.1437,2.8054-.2891,5.6107-.4333,8.4161l54.0005-24.7217,25.4034,81.008-80.4103-36.8219c-.1391,2.6755-.2775,5.3514-.4166,8.0269l71.045,32.5328H-30.4566c-.1194,2.327-.24,4.6535-.3583,6.9805h187.8453c7.8068,10.9577,19.9716,17.6982,36.3092,20.0333l7.3734.6393.0912-.0052c19.8262-1.1589,34.6077-8.129,43.9452-20.7191l4.0182.0199,135.1788.4708h442.733c.0923,0,.1737-.0208.262-.0274h392.9936c3.1204.6266,6.3452.9607,9.6462.9607,1.3461,0,6.8386.2859,8.4697.2859,3.7568,0,7.4098-.4402,10.926-1.2466h168.393c.0213.0009.041.0066.0623.0066h498.0056c1.497.3,3.0197.5285,4.562.6886v-7.7837h-1.8089c-19.5798-3.2782-34.5517-20.3348-34.5517-40.8315v-18.2833h5.4696ZM5.6657,712.9986l88.0572,69.3602-88.0572-.2377v-69.1225ZM5.6657,798.4247l87.3175,63.0329H5.6657v-63.0329ZM336.3252,1001.8538c.3093.6881.2418,1.4846-.1771,2.1283-.4201.6451-1.1159,1.0126-1.9087,1.0089l-46.0484-.2181-2.6928-14.3202,45.9757.2262,4.8514,11.175ZM322.2066,969.2931l6.2166,14.3277-44.2464-.2092-2.6917-14.3112,40.7215.1927ZM311.4491,947.9084c.978.0052,1.6381.444,2.0605,1.3531l5.6332,12.9818-38.9888-.1855-2.6917-14.3188,33.9868.1693ZM233.5171,947.5313l36.7893.1737,2.6917,14.3202-42.3083-.1996,2.8273-14.2942ZM229.3004,968.8534l45.0282.2129,2.6911,14.3112-50.5461-.2395,2.8267-14.2847ZM190.3006,948.6718c.3866-.8773,1.1021-1.3398,2.0703-1.3363l33.988.1613-2.8273,14.2951-38.9882-.1849,5.7573-12.9351ZM181.4212,968.626l40.7233.1927-2.8279,14.2853-44.2481-.2089,6.3527-14.2691ZM171.9434,989.9161l45.9763.2167-2.8273,14.2937-31.178-.148c-4.5623-2.2944-9.8424-4.2926-15.7191-5.948l3.7482-8.4143ZM200.1938,1053.2668c-4.8445-10.8934-12.833-22.4749-21.8826-31.6119-1.6006-1.6078-3.747-1.1955-4.957.004-1.2082,1.1999-1.6346,3.3446-.0415,4.9518,10.2071,10.3046,18.5481,23.2169,22.6015,34.9031-14.1347-1.684-24.8628-6.973-31.9033-15.7335-8.1951-10.199-11.2964-24.7725-9.2262-43.3345,21.5174,3.9432,35.2395,10.9903,41.9275,21.5298,4.8774,7.6856,6.0452,17.5257,3.4816,29.2912ZM194.8156,1011.3662l15.2708.0724c-2.8625,2.9213-5.1803,6.1306-6.9228,9.5845-2.1435-3.533-4.9385-6.7653-8.348-9.6569ZM244.8891,1032.9046c-5.564,16.2321-19.5919,26.3385-39.6114,28.6012.7991-2.6144,1.4627-5.1751,1.9762-7.6366,2.9404-5.0637,6.5253-10.9326,10.855-16.2572,4.3754-5.3776,9.0727-9.7146,14.7792-13.6515,1.0605-.7322,1.6133-1.8519,1.5158-3.0719-.1027-1.293-.9267-2.488-2.0974-3.0445-1.1055-.5233-2.3484-.4056-3.406.3257-7.9285,5.465-14.3263,11.8861-20.387,20.5212-.1812-2.9219-.6341-5.7241-1.3548-8.3705,1.8095-7.3628,6.5535-13.8644,13.736-18.8208,7.0907-4.8774,16.1467-8.0416,25.6129-8.9631.3173,1.937.5683,3.8523.7437,5.6762.6589,11.5748.5441,14.4627-2.3622,24.6917ZM222.6787,1002.2678l2.3957-12.1077,53.2683.2519,2.6928,14.3188-27.1396-.1287c-.2741-2.0905-.6208-4.2049-1.0247-6.2526-.2418-1.7965-1.8164-3.0823-3.6276-3.0333-9.3323.4151-18.6589,2.8677-26.5649,6.9517ZM267.2304,1041.2457l-18.1829-.0857c.5926-1.1927,1.1482-2.4364,1.6612-3.7208,0,0,1.5296-3.7776,2.2157-7.0307,1.3969-5.7775,1.9358-12.0765,1.6081-18.7668l12.7805.0208-.0825,29.5832ZM566.1055,711.3299l92.4008,70.2972h-92.4008v-70.2972ZM566.1026,796.6626l91.5192,65.4326h-91.5192v-65.4326ZM560.354,869.1645l23.8761,75.1619-74.2774-45.0969,49.9593-30.065h.442ZM503.3236,751.1214l42.445,30.5058h-85.3286l42.8836-30.5058ZM502.8816,741.8363l-48.1902-34.4848h95.939l-47.7488,34.4848ZM550.6304,789.5868l-48.1896,30.9484-48.6322-30.9484h96.8218ZM559.0309,793.1238v63.2215l-49.077-31.3909,49.077-31.8306ZM495.8088,824.9556l-48.631,31.3915-.0012-62.3387,48.6322,30.9472ZM502.4408,829.3765l50.3995,32.2755h-100.3588l49.9593-32.2755ZM545.3238,869.1674l-42.4421,25.6429-42.4416-25.6429h84.8837ZM582.461,951.4007l-79.5805,36.2541-79.5805-36.2541,79.5805-48.1902,79.5805,48.1902ZM559.0309,782.0703l-49.5179-35.3705,49.5179-35.3699v70.7404ZM502.8805,643.6875l51.2864,56.5913-102.571-.0017,51.2846-56.5895ZM446.7323,711.3299l49.5184,35.3699-49.077,35.3693h-.4414v-70.7392ZM348.1398,781.6272l91.5186-70.2972v70.2972h-91.5186ZM348.5823,862.0951l90.6323-64.9912v64.9912h-90.6323ZM444.9644,869.6111l.8834-.0017-.0012-.442,49.9587,30.0644-74.2739,45.0975,23.433-74.7182ZM417.5513,957.1479l76.4878,34.4851-102.1296,46.4211,25.6417-80.9062ZM402.9614,1041.1528l99.9191-45.0978,99.9191,45.0978h-199.8382ZM512.1661,992.0763l76.4867-34.4865,25.2009,80.4671-101.6876-45.9806ZM748.5749,944.8223c8.8684-.2764,20.7869,1.3862,33.5356,8.5923,19.4032,11.364,26.3318,27.9941,28.5492,35.4772v.2772h-.2781c-7.7612,1.9399-25.4986,4.1575-45.1783-6.9289-10.255-5.821-16.9066-13.3047-21.3414-19.9563,3.0483-3.3255,4.9899-8.0381,4.9899-13.0263.2764-1.6635,0-3.0491-.277-4.4354ZM729.4492,863.6126c5.8207,5.8196,16.6302,19.9549,16.6302,42.683,0,10.81-2.4949,19.6793-5.8207,26.6082-3.0483-1.9399-6.6522-3.3255-10.5325-3.3255-4.1578,0-7.7612,1.3865-11.087,3.3255-3.3258-6.9289-5.8207-16.0769-5.8207-26.8852,0-22.4507,11.087-36.864,16.6308-42.4061ZM695.0798,982.2403c-19.4015,11.3642-37.4177,8.8693-45.1783,6.9294.5545,0,.2775,0,.2775-.277v-.0009c2.2174-7.4822,9.1466-24.3902,28.5486-35.4766,11.9184-6.9294,23.2818-8.5929,31.8739-8.5929-.277,1.3862-.5533,2.7728-.5533,4.4345,0,5.5441,2.2168,10.5331,5.8196,13.8583-4.4342,6.3752-11.0864,13.5819-20.788,19.1251ZM718.6392,948.9799c0-6.0974,4.9893-11.087,11.087-11.087s11.0864,4.9896,11.0864,11.087-4.9893,11.0864-11.0864,11.0864-11.087-4.989-11.087-11.0864ZM717.0888,1041.5925l10.4194-73.2119h1.9399c1.1096,0,2.2186,0,3.3264-.2772l10.42,73.4892h-26.1056ZM1118.6646,712.9986l88.0584,69.3602-88.0584-.2377v-69.1225ZM1118.6646,798.4247l87.3186,63.0329h-87.3186v-63.0329ZM1135.4691,943.1782l-72.6808-42.9147,49.9841-29.462,22.6967,72.3767ZM1095.9939,782.0588l-82.3034-.2227,41.317-29.3634,40.9864,29.5861ZM1007.6032,709.0358h95.6222l-48.1833,34.2453-47.4389-34.2453ZM1102.5653,789.8592l-47.0777,31.3125-47.0777-31.3125h94.1555ZM1111.1925,793.0967v65.1245l-48.9587-32.5617,48.9587-32.5628ZM1102.5653,861.4576h-94.1555l47.0777-31.3119,47.0777,31.3119ZM1101.2324,868.9285l-45.7957,26.9933-45.7155-26.9933h91.5111ZM1133.8858,950.9197l-78.9712,36.1535-78.4566-35.9258,78.9758-46.5489,78.4519,46.3213ZM1111.1925,782.1003l-2.3842-.0069-47.368-34.194,49.7521-35.3595v69.5604ZM1054.8309,646.7675l51.4468,54.6231h-101.3287l49.8819-54.6231ZM999.782,712.6051l48.8266,35.247-47.7667,33.9493-1.0599-.0029v-69.1934ZM999.782,793.0967l48.9593,32.5628-48.9593,32.5628v-65.1256ZM904.4892,781.5406l87.8206-68.5824v68.8201l-87.8206-.2377ZM901.6625,861.4576l90.6473-64.4257v64.4257h-90.6473ZM998.1768,870.7893l49.9056,29.4681-73.1424,43.1112,23.2368-72.5793ZM970.6673,956.7139l75.2727,34.4689-101.1302,46.2962,25.8575-80.7651ZM953.7797,1041.5916l101.1337-46.2999,101.11,46.2999h-202.2437ZM1063.888,991.1829l75.7591-34.683,25.4034,81.008-101.1625-46.325ZM1235.0506,1033.6873c-7.6516-15.5786-22.6633-32.0905-23.4266-32.9257-1.3934-1.5215-3.7551-1.6257-5.2778-.2343-1.5227,1.3932-1.6277,3.7557-.2354,5.2792.1985.2158,18.5216,20.372,24.2541,35.785h-7.4069c-19.6952-3.1807-34.786-20.2956-34.786-40.8736v-18.2833h5.4699c22.8335,0,41.4087,18.5767,41.4087,41.4099v9.8427ZM1246.1844,1041.5916h-3.6264c-.1639-1.0516-.0352-3.4155-.0352-4.9351v-5.3364c7.6348-12.732,18.8436-25.0567,18.9976-25.226,1.3923-1.5238,1.2873-3.8864-.2348-5.2792-1.5238-1.394-3.8855-1.2873-5.2778.2343-.5014.5481-7.1438,7.857-13.8127,17.2176-.5932-5.1944-2.0045-10.1404-4.1007-14.7126,7.1553-12.43,20.5532-20.8322,35.895-20.8322h5.4711v18.2819c0,20.048-14.3263,36.7965-33.276,40.5877ZM1445.5627,952.2817l5.2178,12.8287h-36.2937l-2.5521-12.8287h33.6279ZM1415.1002,1005.2045h-55.8683l2.6063-12.8275h50.7099l2.5521,12.8275ZM1369.9883,952.2817h34.5835l2.5515,12.8287h-39.743l2.608-12.8287ZM1365.9135,972.3304h42.6464l2.5521,12.8261h-47.8059l2.6074-12.8261ZM1329.4542,952.2817h33.1646l-2.6074,12.8287h-36.4085l5.8513-12.8287ZM1351.8619,1005.2045h-46.5475l5.8513-12.8275h43.3036l-2.6074,12.8275ZM1314.4587,985.1564l5.8507-12.8261h38.2347l-2.6074,12.8261h-41.478ZM1415.8889,1041.5916h-57.4648v-29.1663h57.4648v29.1663ZM1415.923,972.3304h37.7939l5.2178,12.8261h-40.459l-2.5526-12.8261ZM1419.9117,992.377h41.9598l5.2175,12.8275h-44.6258l-2.5515-12.8275ZM1705.6076,712.9986l88.0575,69.3602-88.0575-.2377v-69.1225ZM1705.6076,798.4247l87.3178,63.0329h-87.3178v-63.0329ZM1722.4118,943.1782l-72.6811-42.9147,49.9841-29.462,22.697,72.3767ZM1682.9369,782.0588l-82.3037-.2227,41.3167-29.3634,40.987,29.5861ZM1594.5456,709.0358h95.6213l-48.183,34.2453-47.4384-34.2453ZM1689.5083,789.8592l-47.0777,31.3125-47.0786-31.3125h94.1563ZM1698.1355,793.0967v65.1245l-48.9593-32.5617,48.9593-32.5628ZM1689.5083,861.4576h-94.1563l47.0786-31.3119,47.0777,31.3119ZM1688.1751,868.9285l-45.7959,26.9933-45.7152-26.9933h91.5111ZM1720.8282,950.9197l-78.9715,36.1535-78.4566-35.9258,78.9761-46.5489,78.4519,46.3213ZM1698.1355,782.1003l-2.3847-.0069-47.3683-34.194,49.753-35.3595v69.5604ZM1641.7733,646.7675l51.4468,54.6231h-101.3284l49.8817-54.6231ZM1586.7247,712.6051l48.8269,35.247-47.7675,33.9493-1.0594-.0029v-69.1934ZM1586.7247,793.0967l48.959,32.5628-48.959,32.5628v-65.1256ZM1491.4316,781.5406l87.8212-68.5824v68.8201l-87.8212-.2377ZM1488.6049,861.4576l90.6479-64.4257v64.4257h-90.6479ZM1585.1192,870.7893l49.9056,29.4681-73.1418,43.1112,23.2362-72.5793ZM1557.6097,956.7139l75.2727,34.4689-101.1296,46.2962,25.857-80.7651ZM1540.8139,1041.5495l101.0419-46.2578,101.0186,46.2578h-202.0605ZM1650.8304,991.1829l75.7591-34.683,25.4034,81.008-101.1625-46.325Z"/>
    <path class="cls-2" d="M1920,603.34l-146.5325,58.6537c-1.9151.7678-2.8462,2.9419-2.0799,4.8581.5845,1.4595,1.9875,2.3478,3.4699,2.3478.4619,0,.9322-.0872,1.3875-.2683l143.7551-57.5422v-8.0491Z"/>
    <path class="cls-2" d="M1920,703.5412l-72.5533,26.8571c-1.9949.5269-3.1854,2.5702-2.6596,4.5655.4419,1.6768,1.955,2.7845,3.6103,2.7845.3152,0,.6352-.0399.9551-.1234l70.6475-26.1521v-7.9316Z"/>
    <path class="cls-2" d="M1920,819.4164l-50.9441,5.7811c-2.05.232-3.5235,2.0832-3.2911,4.1332.2165,1.9073,1.8327,3.3144,3.7075,3.3144.1411,0,.2823-.0081.4257-.0244l50.1021-5.6858v-7.5185Z"/>
    <path class="cls-2" d="M642.5359,745.089c35.8181,17.0617,82.5664,24.375,129.4279,24.375,48.4915,0,97.1022-7.836,133.7964-20.8092.1207-.0425.2384-.0909.3546-.1453l7.5525-3.5569c1.9056-.8977,2.7221-3.1702,1.8252-5.0758-.8955-1.9056-3.1676-2.7247-5.0762-1.8255l-7.3782,3.4749c-70.7095,24.939-186.1827,30.5147-257.2214-3.3244-1.8997-.9063-4.1778-.0983-5.0837,1.8032-.9059,1.9019-.0983,4.1782,1.8028,5.084Z"/>
    <path class="cls-2" d="M882.2565,787.9735l-7.5525,3.5569c-60.3663,28.4276-129.6961,28.6102-190.213.504-1.9116-.8876-4.1778-.0577-5.0658,1.8527-.8865,1.9105-.0581,4.1785,1.8535,5.0658,31.0995,14.4442,64.4398,21.6615,97.7846,21.6615,33.7456,0,67.4957-7.3979,98.8917-22.1826l7.5525-3.5569c1.9056-.8977,2.7221-3.1702,1.8252-5.0758-.8955-1.9053-3.1646-2.7236-5.0762-1.8255Z"/>
    <path class="cls-2" d="M1207.9048,756.0091c35.3309,12.4969,89.295,20.0255,142.7867,20.0255,43.8638,0,87.4162-5.0669,120.0711-16.6121.1207-.0425.2384-.0909.3546-.1453l7.5525-3.5565c1.9056-.8973,2.7221-3.1698,1.8252-5.0758-.8969-1.9045-3.1661-2.7244-5.0762-1.8255l-7.3782,3.4745c-71.0507,25.0347-194.5427,18.8243-257.5909-3.4768-1.992-.7025-4.1674.3382-4.8676,2.3239-.7033,1.9861.3367,4.1655,2.3228,4.868Z"/>
    <path class="cls-2" d="M1344.0643,831.3821c33.7456,0,67.4972-7.3979,98.8932-22.1826l7.5525-3.5569c1.9056-.8977,2.7221-3.1702,1.8252-5.0758-.8969-1.9053-3.1661-2.724-5.0762-1.8255l-7.5525,3.5569c-60.3663,28.4273-129.6946,28.6109-190.213.504-1.9116-.888-4.1778-.0577-5.0658,1.8524-.8865,1.9108-.0581,4.1789,1.8535,5.0662,31.098,14.4442,64.4383,21.6615,97.7832,21.6615Z"/>
    <path class="cls-2" d="M1224.4744,845.6513c-.8865,1.9108-.0581,4.1789,1.8535,5.0662,30.4767,14.1559,70.9523,22.2332,113.9683,22.7439,1.4259.0171,2.8473.0253,4.2657.0253,42.0326,0,80.85-7.4139,109.6997-20.9996l7.5525-3.5569c1.9056-.8977,2.7221-3.1702,1.8252-5.0758-.8969-1.9049-3.1661-2.7244-5.0762-1.8255l-7.5525,3.5569c-58.5754,27.5836-159.994,26.7656-221.4704-1.7868-1.9116-.8887-4.1778-.0577-5.0658,1.8524Z"/>
    <path class="cls-2" d="M82.489,745.1531c38.9947,16.6504,86.2019,23.5906,132.1977,23.5906,48.7359,0,96.11-7.7946,130.8836-20.0888.1207-.0425.2384-.0909.3546-.1453l7.554-3.5569c1.9056-.8973,2.7221-3.1698,1.8252-5.0755-.8969-1.9053-3.1661-2.7251-5.0762-1.8259l-7.3797,3.4749c-66.259,23.3645-178.8984,30.1146-257.3645-3.3885-1.9354-.8265-4.1778.0715-5.0047,2.0099-.8284,1.9373.0715,4.1785,2.0099,5.0054Z"/>
    <path class="cls-2" d="M218.8734,820.6144c33.7456,0,67.4957-7.3979,98.8917-22.1826l7.554-3.5569c1.9056-.8973,2.7221-3.1698,1.8252-5.0755-.8969-1.9053-3.1661-2.724-5.0762-1.8259l-7.554,3.5569c-60.3663,28.4276-129.6976,28.6102-190.213.504-1.9116-.8876-4.1778-.0577-5.0658,1.8527-.8865,1.9105-.0581,4.1785,1.8535,5.0658,31.0995,14.4442,64.4398,21.6615,97.7846,21.6615Z"/>
    <path class="cls-2" d="M99.2821,834.8839c-.8865,1.9105-.0581,4.1785,1.8535,5.0658,30.4782,14.1559,70.9523,22.2332,113.9698,22.7439,1.4259.0171,2.8458.0253,4.2642.0253,42.0326,0,80.85-7.4139,109.6997-20.9996l7.5525-3.5569c1.9056-.8977,2.7221-3.1702,1.8252-5.0758-.8955-1.9053-3.1646-2.724-5.0762-1.8255l-7.5525,3.5569c-58.5739,27.5843-159.9955,26.7649-221.4704-1.7868-1.9101-.8873-4.1778-.0577-5.0658,1.8527Z"/>
  </g>
  <g>
    <polygon class="cls-2" points="912.5978 175.329 902.2067 175.329 902.2067 209.2461 927.6007 209.2461 927.6007 200.5479 912.5978 200.5479 912.5978 175.329"/>
    <polygon class="cls-2" points="932.0374 209.2461 942.6036 209.2461 942.6036 196.3447 956.1471 196.3447 956.1471 188.3471 942.6036 188.3471 942.6036 184.0272 958.2487 184.0272 958.2487 175.329 932.0374 175.329 932.0374 209.2461"/>
    <polygon class="cls-2" points="966.2463 209.5379 985.1605 209.5379 985.1605 207.2612 968.7566 207.2612 968.7566 192.7253 984.3432 192.7253 984.3432 190.4486 968.7566 190.4486 968.7566 177.5473 985.1605 177.5473 985.1605 175.329 966.2463 175.329 966.2463 209.5379"/>
    <path class="cls-2" d="M1015.9836,197.629c0,2.5102.1168,5.1956.2919,7.9977h-.2919l-20.6071-30.2393h-2.3934v34.0338h2.2183v-22.1833c0-1.8097-.1168-4.495-.2919-8.1144h.1168l20.6071,30.4145h2.627v-34.209h-2.3934v22.3h.1167Z"/>
    <polygon class="cls-2" points="1028.0676 209.5379 1046.9818 209.5379 1046.9818 207.2612 1030.5779 207.2612 1030.5779 192.7253 1046.1062 192.7253 1046.1062 190.4486 1030.5779 190.4486 1030.5779 177.5473 1046.9818 177.5473 1046.9818 175.329 1028.0676 175.329 1028.0676 209.5379"/>
    <path class="cls-2" d="M1073.8936,190.6238c1.2843-1.5178,1.8097-3.5026,1.8097-5.8961,0-3.2107-1.1092-5.4874-3.094-7.122-2.1016-1.5178-5.3123-2.3935-9.5155-2.3935h-8.2896v34.3257h2.3934v-15.0029l8.523.1168,9.1068,14.8278h2.9189l-9.3403-15.5283c2.3934-.5254,4.2032-1.8097,5.4874-3.3275ZM1063.7944,192.5502h-6.7134v-15.0029h5.6042c3.6194,0,6.188.5838,7.8225,1.8097,1.5178,1.1092,2.3934,3.094,2.3934,5.6042s-.8173,4.3199-2.3934,5.6042c-1.401,1.4594-3.7945,1.9848-6.7134,1.9848Z"/>
    <path class="cls-2" d="M1097.1277,194.1264h10.0992v11.617c-2.2183.8173-4.9037,1.2843-7.9977,1.2843-4.9037,0-8.523-1.2843-10.9165-3.7945-2.5102-2.5102-3.7945-6.3047-3.7945-11.3252,0-4.6118,1.2843-8.2895,3.9113-10.9165,2.5102-2.8021,6.188-4.0864,10.6246-4.0864,3.094,0,6.188.7005,9.1068,2.1016l.9924-2.1016c-2.9189-1.2843-6.3047-2.1016-9.9241-2.1016-3.5026,0-6.4215.7005-9.1068,2.1016s-4.6118,3.5026-6.188,6.188c-1.4011,2.6853-2.1016,5.6042-2.1016,8.9901,0,5.4874,1.4011,9.6906,4.2032,12.6094s7.0052,4.495,12.3175,4.495c4.0864,0,7.8225-.5838,11.0916-2.1016v-15.2364h-12.4927l.1751,2.2767Z"/>
    <polygon class="cls-2" points="1136.1236 175.329 1126.0244 193.8345 1115.9251 175.329 1113.123 175.329 1124.6233 196.3447 1124.6233 209.2461 1127.1335 209.2461 1127.1335 196.0528 1138.6338 175.329 1136.1236 175.329"/>
    <g>
      <path class="cls-2" d="M871.9674,290.5653v2.0432c0,9.8657,4.3199,14.8862,13.31,14.8862,8.1728,0,12.2592-5.7793,12.2592-11.7922,0-8.5231-4.3199-12.2592-11.5587-14.4191l-8.8733-3.094c-11.7922-4.5534-16.9293-10.683-16.9293-22.2417,0-14.7694,9.9825-22.9422,25.2189-22.9422,20.7822,0,22.9422,12.9597,22.9422,21.366v1.8097h-12.9597v-1.6929c0-7.3555-3.2691-11.6754-11.3835-11.6754-5.5458,0-10.9165,3.094-10.9165,11.6754,0,6.9469,3.5026,10.4495,12.1424,13.7186l8.7566,3.1524c11.4419,4.0864,16.4623,10.3327,16.4623,21.4828,0,17.2796-10.4495,24.4016-26.7951,24.4016-20.0817,0-24.6351-13.4267-24.6351-24.7519v-1.9264h12.9597Z"/>
      <path class="cls-2" d="M920.8874,234.6401h43.8412v10.9165h-30.8815v22.4752h29.0718v10.9165h-29.0718v25.861h31.8155v10.9165h-44.7752v-81.0858Z"/>
      <path class="cls-2" d="M995.3765,234.6401h16.5791l21.366,81.0857h-13.4851l-5.0204-19.8482h-23.7595l-5.1956,19.8482h-13.4851l23.0005-81.0857ZM1012.6561,285.4865l-9.282-39.9883h-.2335l-9.6322,39.9883h19.1477Z"/>
      <path class="cls-2" d="M1041.2609,234.6401h25.6859c15.5283,0,22.3584,9.749,22.3584,23.6427,0,14.5359-8.523,23.9346-23.7595,23.9346h-11.3835v33.5084h-12.9597v-81.0858h.0584ZM1054.2206,272.41h9.2236c6.9469,0,12.9597-3.7361,12.9597-13.9521,0-8.7566-3.5026-14.0689-13.8354-14.0689h-8.2896v28.021h-.0584Z"/>
      <path class="cls-2" d="M1109.1534,234.6401h16.5791l21.366,81.0857h-13.4851l-5.0204-19.8482h-23.7595l-5.1956,19.8482h-13.5435l23.0589-81.0857ZM1126.433,285.4865l-9.282-39.9883h-.2335l-9.6322,39.9883h19.1477Z"/>
      <path class="cls-2" d="M1159.8247,245.4982h-19.3228v-10.9165h51.1967v10.9165h-18.9725v70.1692h-12.9597v-70.1692h.0584Z"/>
      <path class="cls-2" d="M1201.3892,234.6401h12.9597v32.4576h23.8178v-32.4577h12.9597v81.0857h-12.9597v-37.7116h-23.8178v37.7116h-12.9597v-81.0858Z"/>
    </g>
    <polygon class="cls-2" points="865.7794 188.7557 858.7742 188.7557 858.7742 209.2461 879.3813 209.2461 879.3813 202.5327 865.7794 202.5327 865.7794 188.7557"/>
    <polygon class="cls-2" points="858.7742 185.2531 865.6627 185.2531 865.6627 181.9256 886.2698 181.9256 886.2698 202.5327 882.8839 202.5327 882.8839 209.2461 893.0999 209.2461 893.0999 175.0371 858.7742 175.0371 858.7742 185.2531"/>
    <path class="cls-2" d="M734.6061,231.6045c12.0257-8.2312,24.3432-16.3456,48.3946-16.3456,1.9848,0,3.8529.0584,5.6626.1751,8.8149-5.8377,18.739-10.9165,36.077-10.9165,1.0508,0,2.0432,0,3.0356.0584-14.0689-26.8535-42.2066-45.1839-74.6059-45.1839-32.983,0-61.5294,18.9725-75.3064,46.5849,23.9346,5.0204,30.1809,22.2417,56.7425,25.6275Z"/>
    <path class="cls-5" d="M734.6061,231.6045c-26.5616-3.3275-32.8079-20.5487-56.8009-25.6859-5.6626,11.3252-8.9317,24.1097-8.9317,37.6532,0,1.3427.0584,2.6853.1168,4.028,4.6118.8173,9.8073,1.3427,15.6451,1.3427,25.1021,0,37.4197-8.7566,49.9708-17.338Z"/>
    <path class="cls-5" d="M788.6633,215.434c23.7595,1.3427,35.143,11.2084,48.2195,19.8482-1.0508-10.9749-4.2615-21.366-9.1652-30.7063-.9924-.0584-1.9848-.0584-3.0356-.0584-17.2796,0-27.1453,5.0788-36.0186,10.9165Z"/>
    <path class="cls-4" d="M783.0007,215.2589c-24.1097,0-36.3689,8.056-48.3946,16.3456-12.5511,8.5814-24.8686,17.3964-49.9124,17.3964-5.8377,0-11.0333-.467-15.6451-1.3427.1751,4.3199.7005,8.5231,1.5762,12.6095,5.3123-.8757,11.15-1.3427,17.6883-1.3427,26.4448,0,41.5061,7.8225,54.9912,16.6958,17.9801-7.9393,25.9194-22.7671,55.4582-22.7671,17.3964,0,27.3205,5.1372,36.1938,11.0333,1.6346-6.4799,2.4518-13.31,2.4518-20.2568,0-2.8021-.1168-5.5458-.4086-8.2895-13.0765-8.6982-24.46-18.5055-48.2195-19.8482-1.9264-.1751-3.7945-.2335-5.7793-.2335Z"/>
    <path class="cls-5" d="M743.2459,275.6208c17.805,11.7338,32.8079,25.3356,67.7174,25.3356,1.3427,0,2.5686,0,3.8529-.0584,9.5738-10.2744,16.5791-22.9422,20.0233-37.0111-8.8733-5.8377-18.7974-11.0333-36.1938-11.0333-29.5388,0-37.4197,14.8278-55.3998,22.7671Z"/>
    <path class="cls-3" d="M743.2459,275.6208c-13.4851-8.8733-28.5464-16.6958-54.9912-16.6958-6.5382,0-12.3759.467-17.6883,1.3427,3.3859,16.7542,11.6754,31.6987,23.4092,43.2574,7.7058-4.3783,16.8126-7.7642,30.9398-7.7642,32.8079,0,38.9959,18.272,61.7629,25.1021,10.7414-4.6702,20.3152-11.5003,28.1377-19.965-1.2843.0584-2.5102.0584-3.8529.0584-34.9095,0-49.9708-13.6018-67.7174-25.3356Z"/>
    <path class="cls-4" d="M693.9757,303.4666c15.2364,15.0029,36.077,24.2849,59.1943,24.2849,11.9089,0,23.2341-2.5102,33.5084-6.9469-22.8254-6.8301-29.0134-25.1021-61.7629-25.1021-14.1273.0584-23.2925,3.3859-30.9398,7.7641Z"/>
  </g>
</svg>