<?xml version="1.0" encoding="UTF-8"?>
<svg id="Calque_1" data-name="Calque 1" xmlns="http://www.w3.org/2000/svg" xmlns:xlink="http://www.w3.org/1999/xlink" viewBox="0 0 1920 1080">
  <defs>
    <style>
      .cls-1 {
        fill: url(#Dégradé_sans_nom_144);
        opacity: .7;
      }

      .cls-2, .cls-3, .cls-4, .cls-5 {
        fill: #fff;
      }

      .cls-6 {
        opacity: .48;
      }

      .cls-3 {
        opacity: .7;
      }

      .cls-3, .cls-4, .cls-5 {
        isolation: isolate;
      }

      .cls-4 {
        opacity: .2;
      }

      .cls-5 {
        opacity: .5;
      }
    </style>
    <linearGradient id="Dégradé_sans_nom_144" data-name="Dégradé sans nom 144" x1="115.7111" y1="40.7093" x2="1994.726" y2="1066.9405" gradientUnits="userSpaceOnUse">
      <stop offset="0" stop-color="#1e4f77"/>
      <stop offset=".6448" stop-color="#0084c4"/>
      <stop offset="1" stop-color="#00a6dc"/>
    </linearGradient>
  </defs>
  <path class="cls-1" d="M-.3316-76.6602C.1331,5.6785-.8605,88.0167-2.4407,170.3445c-1.5867,82.6617-3.76,165.3155-5.6169,247.9735-1.8523,82.4619-3.3875,164.9308-3.7191,247.4068-.1646,41.0478-.3946,82.0569-2.0846,123.0873-1.6707,40.5789-4.1885,81.1316-6.7961,121.6776-3.6321,56.4813-7.4091,112.9761-9.4195,169.5103h1979.6011V-76.6602H-.3316Z"/>
  <g class="cls-6">
    <path class="cls-2" d="M1903.3305,878.19c-1.5398,1.4093-1.6463,3.7996-.2374,5.3412.1525.1667,10.94,12.0372,18.6374,24.576v-13.534c-6.4279-8.8544-12.5758-15.6169-13.0599-16.1462-1.4097-1.5394-3.7988-1.6448-5.3401-.237Z"/>
    <path class="cls-2" d="M1890.4776,859.8854c12.4121,0,23.5751,5.4307,31.2529,14.0347v-10.4107c-8.5246-6.9779-19.4024-11.1819-31.2529-11.1819h-9.3136c-2.0875,0-3.7795,1.6917-3.7795,3.7792v22.2762c0,17.2512,8.8851,32.4584,22.3124,41.3099h-138.7373l-54.7676-174.6437h68.4722v14.462h-3.6908c-2.0878,0-3.7798,1.6917-3.7798,3.7792s1.692,3.7787,3.7798,3.7787h14.9413c2.0881,0,3.7798-1.6911,3.7798-3.7787s-1.6917-3.7792-3.7798-3.7792h-3.6905v-14.462h22.6364c1.6392,0,3.0925-1.0572,3.5965-2.6164.5044-1.5604-.0549-3.2667-1.3847-4.2276l-101.7066-73.4204,69.2985.1868v13.7294h-3.6908c-2.0878,0-3.7798,1.6917-3.7798,3.7792s1.692,3.7792,3.7798,3.7792h14.9413c2.0881,0,3.7798-1.6911,3.7798-3.7792s-1.6917-3.7792-3.7798-3.7792h-3.6905v-13.7084l22.6256.0607h.0108c1.6083,0,3.0411-1.0175,3.5697-2.537.5298-1.5224.0359-3.2142-1.2309-4.2118l-103.211-81.2947c-.0689-.0881-.1124-.1909-.1906-.2738l-60.8451-64.6004c-.7204-.7665-1.7387-1.1372-2.7813-1.1879-1.0516.0076-2.0522.453-2.7615,1.23l-58.4555,64.0119c-.0578.0315-.1115.0759-.1687.1097-.0744.0455-.1471.0934-.2177.1448-.0409.0292-.0846.0508-.1243.0811l-103.5726,80.8849c-1.27.9912-1.7711,2.6794-1.2487,4.2031.5222,1.5236,1.9535,2.5499,3.5647,2.5539l23.4852.0625v14.4714h-3.6908c-2.0875,0-3.7795,1.6917-3.7795,3.7792s1.692,3.7792,3.7795,3.7792h14.9416c2.0872,0,3.7795-1.6911,3.7795-3.7792s-1.6923-3.7792-3.7795-3.7792h-3.6911v-14.4492l66.7933.1798-103.7772,73.7572c-1.3406.9527-1.9109,2.6637-1.4118,4.2293.5009,1.568,1.9568,2.631,3.6015,2.631h27.2346v14.462h-3.6908c-2.0875,0-3.7795,1.6917-3.7795,3.7792s1.692,3.7787,3.7795,3.7787h14.9416c2.0872,0,3.7795-1.6911,3.7795-3.7787s-1.6923-3.7792-3.7795-3.7792h-3.6911v-14.462h67.3598l-26.3917,82.4307c-.0044.0134-.0082.0271-.0126.0397l-29.5092,92.1733h-100.6594v-29.4655h45.0337c2.3146,0,4.4678-1.1477,5.7605-3.0676,1.2921-1.92,1.5435-4.347.6707-6.4926l-14.6736-36.0727c-.0012-.0038-.0023-.0076-.0041-.0111l-7.3962-18.1823c-1.0683-2.6295-3.593-4.3265-6.4313-4.3265h-117.9465c-2.7133,0-5.1937,1.5931-6.318,4.0603l-24.7548,54.2682c-.9842,2.1584-.8062,4.6391.4775,6.6353,1.2837,1.9956,3.4664,3.1891,5.8399,3.1891h46.9913v29.5081h-86.9513c13.2145-8.8874,21.9277-23.9758,21.9277-41.0633v-22.2747c0-2.0872-1.6917-3.7792-3.7798-3.7792h-9.3144c-16.7614,0-31.5918,8.3901-40.5402,21.184-8.9257-12.9583-23.8582-21.4747-40.7486-21.4747h-9.3133c-2.0881,0-3.7804,1.6917-3.7804,3.7792v22.2762c0,17.2789,8.9146,32.5071,22.3789,41.3525h-28.9929l-54.7816-174.6863h68.4724v14.462h-3.6911c-2.0875,0-3.7798,1.6917-3.7798,3.7792s1.6923,3.7787,3.7798,3.7787h14.9413c2.0875,0,3.7798-1.6911,3.7798-3.7787s-1.6923-3.7792-3.7798-3.7792h-3.6911v-14.462h22.637c1.6392,0,3.0922-1.0572,3.5965-2.6164.5044-1.5604-.0549-3.2667-1.3841-4.2276l-101.7075-73.4204,69.299.1868v13.7294h-3.6911c-2.0875,0-3.7798,1.6917-3.7798,3.7792s1.6923,3.7792,3.7798,3.7792h14.9413c2.0875,0,3.7798-1.6911,3.7798-3.7792s-1.6923-3.7792-3.7798-3.7792h-3.6911v-13.7084l22.6264.0607h.0105c1.6083,0,3.0414-1.0175,3.5697-2.537.5295-1.5224.0362-3.2142-1.2311-4.2118l-103.2107-81.2947c-.0689-.0881-.1121-.1909-.1909-.2738l-60.8451-64.6004c-.7198-.7665-1.7384-1.1372-2.7816-1.1879-1.0508.0076-2.0519.453-2.7606,1.23l-58.4552,64.0119c-.0584.0315-.1121.0759-.1687.1097-.0741.0455-.1477.0934-.2183.1448-.0409.0292-.0846.0508-.1243.0811l-103.5726,80.8849c-1.2703.9912-1.7711,2.6794-1.2487,4.2031.5219,1.5236,1.9533,2.5499,3.565,2.5539l23.4852.0625v14.4714h-3.6911c-2.0875,0-3.7798,1.6917-3.7798,3.7792s1.6923,3.7792,3.7798,3.7792h14.9413c2.0875,0,3.7798-1.6911,3.7798-3.7792s-1.6923-3.7792-3.7798-3.7792h-3.6905v-14.4492l66.793.1798-103.7775,73.7572c-1.3403.9527-1.9106,2.6637-1.4115,4.2293.5003,1.568,1.9568,2.631,3.6006,2.631h27.2358v14.462h-3.6911c-2.0875,0-3.7798,1.6917-3.7798,3.7792s1.6923,3.7787,3.7798,3.7787h14.9413c2.0875,0,3.7798-1.6911,3.7798-3.7787s-1.6923-3.7792-3.7798-3.7792h-3.6905v-14.462h67.3598l-26.3917,82.4307c-.0047.0134-.0082.0271-.0128.0397l-29.5224,92.2159h-160.9484c-.0012,0-.0029.0009-.0035.0009h-25.4711c-.0163-.1062-.0146-.2125-.0414-.3187l-9.8147-68.9826c4.7664,5.8887,11.2163,11.4974,19.6294,16.2644,22.1524,12.9002,42.9039,10.0949,51.8768,8.1323,4.767-1.1217,7.8527-6.1683,6.1686-10.9358-2.5242-8.693-10.6559-28.0414-32.8089-40.9413-14.5805-8.4125-28.6024-10.0949-38.9781-9.8138,3.6462-8.1329,6.7313-18.2284,6.7313-30.5661,0-23.0173-10.0348-38.6445-16.7819-46.3326,12.3727,1.4892,25.1705,2.3444,38.2081,2.4985,1.4425.0181,2.8803.0263,4.3157.0263,42.525,0,81.7973-7.5001,110.9852-21.2459l7.6408-3.5983c1.9282-.9083,2.7542-3.2066,1.847-5.1359-.9077-1.9276-3.2037-2.7559-5.1359-1.8458l-7.6408,3.5977c-59.2602,27.9065-161.8678,27.0794-224.0661-1.8067-1.9322-.8984-4.2264-.0584-5.1248,1.8739-.8967,1.9328-.059,4.2276,1.875,5.1254,17.7643,8.2508,38.8975,14.4463,61.9332,18.3277-6.5188,6.8883-18.8128,23.3188-18.8128,48.5158,0,12.3386,2.805,22.7137,6.7307,30.5661-10.0955,0-23.275,1.962-36.7347,9.8138-21.8711,12.897-29.7214,32.2462-32.5264,40.9383-1.4022,4.767,1.4022,9.815,6.4499,10.9364v.0015c8.9724,2.2445,29.4436,4.767,51.8768-8.132,8.1323-4.7664,14.5811-10.3751,19.3492-15.9824l-10.0943,68.7013c-.014.1062-.0058.2116-.0105.3187h-87.2478l-55.0168-174.4478h69.128v14.3137h-2.237c-2.237,0-3.5767,1.7892-3.5767,3.5784s1.788,3.5767,3.5767,3.5767h12.0768c2.2375,0,3.5779-1.7875,3.5779-3.5767.0023-1.7892-1.3403-3.5784-3.5779-3.5784h-2.6841v-13.8648l26.1465-.0018c.4472,0,.8949,0,1.7892-.4472,0,0,.4472,0,.4472-.4472.4472,0,.4472-.4472.8949-.8949v-.446s.4472-.4472.4472-.8961v-.4472l.0012.0047v-1.7904q0-.4472-.446-.4472l-.8943-.8943-103.7723-74.2505,68.0854.0047v13.4177h-2.2364c-2.2375,0-3.5773,1.7892-3.5773,4.0262s1.7886,4.0262,3.5773,4.0262h12.0768c2.237,0,3.5779-1.7886,3.5779-4.0262s-1.7886-4.0262-3.5779-4.0262h-2.6847v-13.4177l26.2971-.0047c.4466,0,.8949,0,1.7892-.4466,0,0,.4466,0,.4466-.4472.4472,0,.4472-.4466.8949-.8937v-.4483c0-.4472.4472-.4472.4472-.8949v-3.1301l-.8937-.8937-108.2491-82.3069-60.3862-66.6494s-.446,0-.446-.4466l-.4483-.4477h-3.1307c-.4483,0-.4483.4477-.4483.4477,0,0-.446,0-.446.4466l-60.8334,66.6494-106.9053,82.3028-.8937.8931v3.1307q0,.4472.4472.8955v.4472q.4466.446.8949.8949s.446,0,.446.4466c.4472,0,.8961.4477,1.3426.4477h26.7011v13.4177h-2.2375c-2.237,0-4.0256,1.7892-4.0256,4.0262s1.7886,4.0262,4.0256,4.0262h12.0774c2.237,0,4.0262-1.7886,4.0262-4.0262s-1.7892-4.0262-4.0262-4.0262l-2.2375.0018v-13.4188h66.7854l-103.3257,73.8045-.8937.8931s0,.4472-.4472.4472v2.6847q0,.4466.4472.8949v.4466l.8943.8949s.4477,0,.4477.4472c.446.4472.8949.4472,1.7886.4472l26.6882-.4618-.0018,13.866h-2.2364c-2.2375,0-4.0262,1.7898-4.0262,3.5784s1.7886,3.5773,4.0262,3.5773h12.0762c2.237,0,4.0268-1.788,4.0268-3.5773.0006-1.7886-2.2358-3.5784-4.4728-3.5784h-1.7898v-13.8648l67.2442.4618-55.0168,173.9977-110.0652-.3193.0753-29.9158,60.5567.3275c3.1266.0143,6.0448-1.5116,7.8072-4.0857,1.7834-2.6059,2.1214-5.8422.9089-8.921l-23.1367-53.333c-1.5119-3.4707-4.795-5.6365-8.5678-5.6546l-120.4707-.5697c-3.7874-.0187-7.0944,2.1182-8.6309,5.5746l-22.874,51.3756c-2.809-.6214-5.851-1.1985-9.0558-1.7168-.948-.1486-1.896.0785-2.6684.6506-.4582.338-.8219.7723-1.0677,1.2665l-.188-.0006-.1553,1.0864c-2.4997,17.4978-.9101,32.2281,4.6893,43.8846H41.0028l-54.6712-174.3363H54.8034v14.462h-3.6911c-2.0875,0-3.7792,1.6917-3.7792,3.7792s1.6917,3.7787,3.7792,3.7787h14.9413c2.0881,0,3.7798-1.6911,3.7798-3.7787s-1.6917-3.7792-3.7798-3.7792h-3.6905v-14.462h22.6364c1.6398,0,3.0922-1.0572,3.5971-2.6164.5038-1.5604-.0555-3.2667-1.3847-4.2276l-101.7075-73.4204,69.299.1868v13.7294h-3.6911c-2.0875,0-3.7792,1.6917-3.7792,3.7792s1.6917,3.7792,3.7792,3.7792h14.9413c2.0881,0,3.7798-1.6911,3.7798-3.7792s-1.6917-3.7792-3.7798-3.7792h-3.6905v-13.7084l22.6259.0607h.0105c1.6083,0,3.0408-1.0175,3.5697-2.537.5301-1.5224.0362-3.2142-1.2311-4.2118l-103.2107-81.2947c-.0695-.0881-.1127-.1909-.1903-.2738l-23.9924-25.4729c-.0158,3.6572-.0385,7.3145-.0514,10.9717l12.5397,13.3132h-12.5905c-.0093,2.5785-.0175,5.1569-.0274,7.7348h9.5287l-9.5584,6.7932c-.014,3.1021-.028,6.2042-.0444,9.3063l17.6645-12.5543v70.3755l-2.4127-.007-15.6359-11.2875c-.0374,3.0787-.08,6.1569-.1238,9.235l2.7956,2.0175-2.8225-.0076c-.0379,2.6333-.0794,5.2661-.1232,7.8994h9.5935l-9.7096,6.4581c-.0555,3.0636-.1033,6.1277-.167,9.1913l18.6055-12.3739v65.8876l-19.703-13.1036c-.0992,2.9573-.2067,5.914-.3117,8.8714l11.2858,7.5065h-11.5502c-.094,2.5195-.1973,5.039-.2948,7.5585h10.4971l-10.7435,6.3326c-.1191,2.9964-.2393,5.9934-.3631,8.9899l22.7811-13.4276L1.9663,820.1689l-47.1414-27.8347c-.1313,2.8479-.2668,5.6951-.4005,8.5427L.3633,828.0011l-48.3655,22.1422c-.1454,2.8382-.2925,5.6765-.4384,8.5147l54.6333-25.0114,25.7011,81.9572-81.3525-37.2534c-.1407,2.7069-.2808,5.4141-.4215,8.1209l71.8775,32.914H-51.5806c-.1208,2.3543-.2428,4.708-.3625,7.0623h190.0464c7.8982,11.0861,20.2056,17.9056,36.7347,20.2681l7.4598.6468.0922-.0053c20.0585-1.1725,35.0132-8.2243,44.4602-20.9619l4.0653.0201,136.7628.4763h447.9208c.0934,0,.1757-.021.265-.0277h397.5985c3.157.634,6.4196.972,9.7593.972,1.3619,0,6.9187.2893,8.569.2893,3.8008,0,7.4966-.4454,11.054-1.2612h170.3662c.0216.0009.0414.0067.063.0067h503.841c1.5146.3036,3.0551.5347,4.6155.6967v-7.8749h-1.8301c-19.8092-3.3166-34.9566-20.5731-34.9566-41.3099v-18.4975h5.5337ZM-15.0351,587.2922l89.089,70.1729-89.089-.2405v-69.9324ZM-15.0351,673.7192l88.3406,63.7714H-15.0351v-63.7714ZM319.499,879.5321c.3129.6961.2446,1.502-.1792,2.1532-.425.6526-1.129,1.0245-1.9311,1.0207l-46.588-.2207-2.7244-14.488,46.5144.2288,4.9082,11.3059ZM305.215,846.5897l6.2894,14.4956-44.7649-.2116-2.7232-14.4789,41.1987.195ZM294.3314,824.9545c.9895.0053,1.6573.4492,2.0846,1.3689l5.6992,13.134-39.4457-.1877-2.7232-14.4865,34.3851.1713ZM215.4862,824.573l37.2204.1757,2.7232,14.488-42.804-.202,2.8604-14.4617ZM211.2201,846.1449l45.5559.2154,2.7226,14.4789-51.1383-.2423,2.8598-14.4521ZM171.7633,825.7268c.3911-.8876,1.115-1.3555,2.0945-1.352l34.3862.1632-2.8604,14.4626-39.4451-.1871,5.8247-13.0867ZM162.7799,845.9149l41.2005.195-2.861,14.4527-44.7666-.2113,6.4272-14.4363ZM153.1911,867.4544l46.515.2192-2.8604,14.4611-31.5433-.1497c-4.6158-2.3213-9.9577-4.3429-15.9033-6.0177l3.7921-8.5129ZM181.7724,931.5475c-4.9012-11.0211-12.9834-22.7382-22.139-31.9823-1.6193-1.6266-3.7909-1.2095-5.0151.0041-1.2224,1.2139-1.6538,3.3838-.042,5.0098,10.3267,10.4253,18.7655,23.489,22.8664,35.3121-14.3003-1.7037-25.1541-7.0547-32.2771-15.9179-8.2911-10.3185-11.4288-25.0628-9.3343-43.8422,21.7695,3.9894,35.6524,11.1191,42.4188,21.782,4.9345,7.7757,6.116,17.7311,3.5224,29.6345ZM176.3312,889.1559l15.4497.0733c-2.896,2.9556-5.241,6.2024-7.0039,9.6968-2.1687-3.5743-4.9964-6.8446-8.4458-9.7701ZM226.9915,910.9467c-5.6292,16.4223-19.8215,26.6471-40.0755,28.9363.8085-2.645,1.4798-5.2357,1.9994-7.726,2.9748-5.1231,6.6017-11.0607,10.9822-16.4477,4.4266-5.4406,9.179-9.8284,14.9524-13.8114,1.0729-.7408,1.6322-1.8736,1.5335-3.1079-.1039-1.3082-.9375-2.5172-2.122-3.0802-1.1185-.5295-2.3759-.4104-3.4459.3295-8.0214,5.5291-14.4941,12.0254-20.6259,20.7616-.1833-2.9561-.6415-5.7912-1.3707-8.4686,1.8307-7.449,6.6303-14.0268,13.8969-19.0413,7.1738-4.9345,16.3359-8.1358,25.913-9.0681.3211,1.9597.575,3.8975.7525,5.7427.6667,11.7105.5505,14.6322-2.3899,24.981ZM204.5209,879.9509l2.4238-12.2496,53.8925.2548,2.7244,14.4865-27.4576-.1302c-.2773-2.115-.6281-4.2541-1.0368-6.3259-.2446-1.8175-1.8377-3.1184-3.6701-3.0688-9.4417.42-18.8776,2.9013-26.8762,7.0331ZM249.5946,919.3855l-18.396-.0867c.5995-1.2066,1.1617-2.4649,1.6806-3.7644,0,0,1.5475-3.8219,2.2416-7.1131,1.4133-5.8452,1.9585-12.218,1.6269-18.9867l12.9302.021-.0835,29.9298ZM551.9717,585.6039l93.4835,71.121h-93.4835v-71.121ZM551.9688,671.9364l92.5916,66.1993h-92.5916v-66.1993ZM546.1528,745.2879l24.1559,76.0426-75.1477-45.6253,50.5447-30.4173h.4472ZM488.4542,625.8616l42.9424,30.8633h-86.3284l43.386-30.8633ZM488.007,616.4678l-48.7549-34.8889h97.0631l-48.3083,34.8889ZM536.3153,664.7778l-48.7543,31.311-49.202-31.311h97.9563ZM544.8142,668.3563v63.9623l-49.6521-31.7588,49.6521-32.2036ZM480.8513,700.561l-49.2008,31.7593-.0012-63.0692,49.202,31.3098ZM487.561,705.0338l50.9901,32.6537h-101.5347l50.5447-32.6537ZM530.9465,745.2909l-42.9395,25.9434-42.9389-25.9434h85.8783ZM568.5189,828.4877l-80.513,36.679-80.513-36.679,80.513-48.7549,80.513,48.7549ZM544.8142,657.1732l-50.0981-35.7849,50.0981-35.7843v71.5693ZM488.0059,517.1689l51.8873,57.2544-103.7729-.0018,51.8856-57.2526ZM431.1998,585.6039l50.0987,35.7843-49.6521,35.7838h-.4466v-71.5681ZM331.452,656.7249l92.591-71.121v71.121h-92.591ZM331.8997,738.1357l91.6943-65.7527v65.7527h-91.6943ZM429.4112,745.7398l.8937-.0018-.0012-.4472,50.5441,30.4167-75.1442,45.6259,23.7076-75.5937ZM401.6769,834.3022l77.3841,34.8892-103.3263,46.9651,25.9422-81.8542ZM386.916,919.2915l101.0899-45.6262,101.0899,45.6262h-202.1798ZM497.4003,869.64l77.3829-34.8906,25.4962,81.41-102.8791-46.5194ZM736.5792,821.8323c8.9724-.2796,21.0305,1.4025,33.9286,8.693,19.6306,11.4971,26.6404,28.3222,28.8837,35.8929v.2805h-.2814c-7.8521,1.9626-25.7974,4.2063-45.7076-7.0101-10.3751-5.8892-17.1047-13.4606-21.5914-20.1901,3.084-3.3645,5.0483-8.1323,5.0483-13.1789.2796-1.683,0-3.0849-.2802-4.4873ZM717.2294,739.671c5.8889,5.8878,16.8251,20.1887,16.8251,43.1832,0,10.9367-2.5242,19.9099-5.8889,26.92-3.084-1.9626-6.7301-3.3645-10.6559-3.3645-4.2066,0-7.8521,1.4028-11.2169,3.3645-3.3648-7.0101-5.8889-16.2652-5.8889-27.2002,0-22.7137,11.2169-37.296,16.8256-42.903ZM682.4573,859.6887c-19.6289,11.4974-37.8561,8.9732-45.7076,7.0106.561,0,.2808,0,.2808-.2802v-.0009c2.2434-7.5699,9.2537-24.676,28.8832-35.8923,12.0581-7.0106,23.5546-8.6936,32.2474-8.6936-.2802,1.4025-.5598,2.8052-.5598,4.4865,0,5.609,2.2428,10.6565,5.8878,14.0207-4.4862,6.4499-11.2163,13.7411-21.0316,19.3492ZM706.2927,826.0386c0-6.1689,5.0478-11.2169,11.2169-11.2169s11.2163,5.048,11.2163,11.2169-5.0478,11.2163-11.2163,11.2163-11.2169-5.0475-11.2169-11.2163ZM704.7242,919.7363l10.5415-74.0698h1.9626c1.1226,0,2.2445,0,3.3654-.2805l10.5421,74.3503h-26.4115ZM1111.0055,587.2922l89.0902,70.1729-89.0902-.2405v-69.9324ZM1111.0055,673.7192l88.3418,63.7714h-88.3418v-63.7714ZM1128.0069,820.1689l-73.5325-43.4176,50.5698-29.8073,22.9627,73.2248ZM1088.0691,657.1615l-83.2678-.2253,41.8011-29.7074,41.4666,29.9328ZM998.6427,583.2829h96.7427l-48.7479,34.6466-47.9948-34.6466ZM1094.7175,665.0534l-47.6294,31.6794-47.6294-31.6794h95.2587ZM1103.4458,668.3288v65.8876l-49.5324-32.9432,49.5324-32.9444ZM1094.7175,737.4907h-95.2587l47.6294-31.6788,47.6294,31.6788ZM1093.369,745.0492l-46.3323,27.3096-46.2511-27.3096h92.5834ZM1126.405,828.0011l-79.8966,36.5771-79.3759-36.3468,79.9013-47.0944,79.3712,46.8641ZM1103.4458,657.2036l-2.4121-.007-47.923-34.5946,50.3351-35.7738v70.3755ZM1046.4238,520.285l52.0496,55.2632h-102.516l50.4664-55.2632ZM990.7298,586.894l49.3987,35.66-48.3264,34.3471-1.0724-.0029v-70.0042ZM990.7298,668.3288l49.533,32.9444-49.533,32.9444v-65.8887ZM894.3205,656.6373l88.8497-69.386v69.6265l-88.8497-.2405ZM891.4607,737.4907l91.7095-65.1806v65.1806h-91.7095ZM989.1058,746.9318l50.4904,29.8134-73.9995,43.6163,23.5091-73.4297ZM961.274,833.8632l76.1547,34.8728-102.3152,46.8387,26.1605-81.7115ZM944.1886,919.7355l102.3187-46.8425,102.2948,46.8425h-204.6135ZM1055.587,868.736l76.6468-35.0894,25.7011,81.9572-102.3479-46.8679ZM1228.7553,911.7386c-7.7412-15.7612-22.9288-32.4666-23.7011-33.3115-1.4098-1.5394-3.7991-1.6447-5.3396-.237-1.5405,1.4095-1.6468,3.7997-.2382,5.3411.2008.2183,18.7386,20.6107,24.5383,36.2044h-7.4937c-19.926-3.218-35.1936-20.5334-35.1936-41.3525v-18.4975h5.534c23.101,0,41.894,18.7944,41.894,41.8951v9.958ZM1240.0195,919.7355h-3.6689c-.1658-1.0639-.0356-3.4556-.0356-4.9929v-5.3989c7.7243-12.8812,19.0644-25.3503,19.2202-25.5216,1.4086-1.5417,1.3024-3.9319-.2376-5.3411-1.5417-1.4104-3.931-1.3024-5.3396.237-.5073.5546-7.2275,7.949-13.9746,17.4193-.6001-5.2553-2.028-10.2592-4.1488-14.8849,7.2392-12.5756,20.794-21.0763,36.3156-21.0763h5.5352v18.4961c0,20.283-14.4941,37.2277-33.6659,41.0633ZM1441.734,829.3791l5.2789,12.979h-36.7189l-2.582-12.979h34.022ZM1410.9145,882.9219h-56.5229l2.6368-12.9778h51.3041l2.582,12.9778ZM1365.274,829.3791h34.9887l2.5814,12.979h-40.2086l2.6386-12.979ZM1361.1515,849.6626h43.1461l2.582,12.9763h-48.3661l2.638-12.9763ZM1324.265,829.3791h33.5532l-2.638,12.979h-36.8351l5.9199-12.979ZM1346.9353,882.9219h-47.0929l5.9199-12.9778h43.811l-2.638,12.9778ZM1309.0938,862.639l5.9193-12.9763h38.6827l-2.638,12.9763h-41.964ZM1411.7125,919.7355h-58.1382v-29.5081h58.1382v29.5081ZM1411.747,849.6626h38.2367l5.2789,12.9763h-40.9331l-2.5825-12.9763ZM1415.7825,869.9441h42.4514l5.2786,12.9778h-45.1487l-2.5814-12.9778ZM1704.826,587.2922l89.0893,70.1729-89.0893-.2405v-69.9324ZM1704.826,673.7192l88.3409,63.7714h-88.3409v-63.7714ZM1721.8271,820.1689l-73.5327-43.4176,50.5698-29.8073,22.963,73.2248ZM1681.8896,657.1615l-83.2681-.2253,41.8008-29.7074,41.4672,29.9328ZM1592.4626,583.2829h96.7418l-48.7476,34.6466-47.9942-34.6466ZM1688.538,665.0534l-47.6294,31.6794-47.6302-31.6794h95.2596ZM1697.2663,668.3288v65.8876l-49.533-32.9432,49.533-32.9444ZM1688.538,737.4907h-95.2596l47.6302-31.6788,47.6294,31.6788ZM1687.1892,745.0492l-46.3326,27.3096-46.2508-27.3096h92.5834ZM1720.225,828.0011l-79.8969,36.5771-79.3759-36.3468,79.9015-47.0944,79.3712,46.8641ZM1697.2663,657.2036l-2.4127-.007-47.9233-34.5946,50.336-35.7738v70.3755ZM1640.2437,520.285l52.0496,55.2632h-102.5157l50.4661-55.2632ZM1584.55,586.894l49.399,35.66-48.3273,34.3471-1.0718-.0029v-70.0042ZM1584.55,668.3288l49.5327,32.9444-49.5327,32.9444v-65.8887ZM1488.1404,656.6373l88.8503-69.386v69.6265l-88.8503-.2405ZM1485.2806,737.4907l91.7101-65.1806v65.1806h-91.7101ZM1582.9257,746.9318l50.4904,29.8134-73.9989,43.6163,23.5085-73.4297ZM1555.0939,833.8632l76.1547,34.8728-102.3146,46.8387,26.1599-81.7115ZM1538.1013,919.6928l102.2259-46.7999,102.2023,46.7999h-204.4281ZM1649.407,868.736l76.6468-35.0894,25.7011,81.9572-102.3479-46.8679Z"/>
    <path class="cls-2" d="M1921.7305,476.3486l-148.2495,59.3409c-1.9375.7768-2.8796,2.9764-2.1043,4.915.5914,1.4766,2.0108,2.3753,3.5106,2.3753.4673,0,.9432-.0882,1.4037-.2714l145.4395-58.2165v-8.1434Z"/>
    <path class="cls-2" d="M1921.7305,577.7239l-73.4035,27.1718c-2.0183.5331-3.2227,2.6003-2.6908,4.619.4471,1.6964,1.9779,2.8171,3.6526,2.8171.3189,0,.6426-.0404.9663-.1249l71.4753-26.4586v-8.0245Z"/>
    <path class="cls-2" d="M1921.7305,694.9569l-51.5411,5.8489c-2.074.2348-3.5648,2.1076-3.3297,4.1816.2191,1.9297,1.8542,3.3532,3.751,3.3532.1428,0,.2856-.0082.4306-.0247l50.6891-5.7524v-7.6066Z"/>
    <path class="cls-2" d="M629.2977,619.7586c36.2378,17.2616,83.5339,24.6606,130.9445,24.6606,49.0597,0,98.24-7.9278,135.3642-21.0531.1221-.043.2412-.092.3588-.147l7.641-3.5985c1.928-.9082,2.754-3.2074,1.8466-5.1353-.9059-1.928-3.2047-2.7567-5.1357-1.8469l-7.4646,3.5156c-71.538,25.2312-188.3643,30.8722-260.2354-3.3634-1.9219-.9169-4.2267-.0995-5.1432,1.8243-.9165,1.9242-.0995,4.2271,1.8239,5.1436Z"/>
    <path class="cls-2" d="M871.8272,663.1456l-7.641,3.5985c-61.0737,28.7607-131.2159,28.9454-192.4418.5099-1.934-.898-4.2267-.0584-5.1251,1.8744-.8969,1.9329-.0588,4.2275,1.8752,5.1251,31.4639,14.6135,65.1949,21.9153,98.9304,21.9153,34.141,0,68.2866-7.4846,100.0504-22.4425l7.641-3.5985c1.928-.9082,2.754-3.2074,1.8466-5.1353-.9059-1.9276-3.2017-2.7555-5.1357-1.8469Z"/>
    <path class="cls-2" d="M1201.2913,630.8067c35.7449,12.6433,90.3413,20.2602,144.4598,20.2602,44.3778,0,88.4405-5.1263,121.4781-16.8067.1221-.043.2412-.092.3588-.147l7.641-3.5982c1.928-.9078,2.754-3.207,1.8466-5.1353-.9075-1.9268-3.2032-2.7563-5.1357-1.8469l-7.4646,3.5152c-71.8832,25.328-196.8223,19.0448-260.6093-3.5175-2.0154-.7107-4.2162.3422-4.9247,2.3512-.7115,2.0094.3407,4.2143,2.35,4.925Z"/>
    <path class="cls-2" d="M1339.0463,707.0628c34.141,0,68.2881-7.4846,100.0519-22.4425l7.641-3.5985c1.928-.9082,2.754-3.2074,1.8466-5.1353-.9075-1.9276-3.2032-2.7559-5.1357-1.8469l-7.641,3.5985c-61.0737,28.7604-131.2143,28.9462-192.4418.5099-1.934-.8984-4.2267-.0584-5.1251,1.8741-.8969,1.9332-.0588,4.2279,1.8752,5.1255,31.4624,14.6135,65.1934,21.9153,98.9289,21.9153Z"/>
    <path class="cls-2" d="M1218.0551,721.4992c-.8969,1.9332-.0588,4.2279,1.8752,5.1255,30.8338,14.3218,71.7837,22.4937,115.3038,23.0104,1.4426.0173,2.8806.0256,4.3157.0256,42.5252,0,81.7974-7.5008,110.9851-21.2456l7.641-3.5985c1.928-.9082,2.754-3.2074,1.8466-5.1353-.9075-1.9272-3.2032-2.7563-5.1357-1.8469l-7.641,3.5985c-59.2618,27.9068-161.8688,27.0792-224.0655-1.8077-1.934-.8992-4.2267-.0584-5.1251,1.8741Z"/>
    <path class="cls-2" d="M62.6884,619.8234c39.4516,16.8455,87.2119,23.867,133.7468,23.867,49.3069,0,97.2361-7.8859,132.4172-20.3242.1221-.043.2412-.092.3588-.147l7.6425-3.5985c1.928-.9078,2.754-3.207,1.8466-5.1349-.9075-1.9276-3.2032-2.757-5.1357-1.8473l-7.4661,3.5156c-67.0354,23.6382-180.9946,30.4675-260.3801-3.4282-1.9581-.8362-4.2267.0724-5.0633,2.0335-.8381,1.96.0724,4.2275,2.0335,5.0641Z"/>
    <path class="cls-2" d="M200.671,696.1689c34.141,0,68.2866-7.4846,100.0504-22.4425l7.6425-3.5985c1.928-.9078,2.754-3.207,1.8466-5.1349-.9075-1.9276-3.2032-2.7559-5.1357-1.8473l-7.6425,3.5985c-61.0737,28.7607-131.2174,28.9454-192.4418.5099-1.934-.898-4.2267-.0584-5.1251,1.8744-.8969,1.9329-.0588,4.2275,1.8752,5.1251,31.4639,14.6135,65.1949,21.9153,98.9304,21.9153Z"/>
    <path class="cls-2" d="M79.6783,710.6056c-.8969,1.9329-.0588,4.2275,1.8752,5.1251,30.8353,14.3218,71.7837,22.4937,115.3053,23.0104,1.4426.0173,2.8791.0256,4.3142.0256,42.5252,0,81.7974-7.5008,110.9851-21.2456l7.641-3.5985c1.928-.9082,2.754-3.2074,1.8466-5.1353-.9059-1.9276-3.2017-2.7559-5.1357-1.8469l-7.641,3.5985c-59.2603,27.9076-161.8703,27.0785-224.0655-1.8077-1.9325-.8977-4.2267-.0584-5.1251,1.8744Z"/>
  </g>
  <g>
    <polygon class="cls-2" points="912.0424 157.6647 901.5295 157.6647 901.5295 191.9792 927.2211 191.9792 927.2211 183.1791 912.0424 183.1791 912.0424 157.6647"/>
    <polygon class="cls-2" points="931.7097 191.9792 942.3998 191.9792 942.3998 178.9267 956.102 178.9267 956.102 170.8353 942.3998 170.8353 942.3998 166.4648 958.2282 166.4648 958.2282 157.6647 931.7097 157.6647 931.7097 191.9792"/>
    <polygon class="cls-2" points="966.3195 192.2745 985.4553 192.2745 985.4553 189.9711 968.8592 189.9711 968.8592 175.2649 984.6285 175.2649 984.6285 172.9615 968.8592 172.9615 968.8592 159.909 985.4553 159.909 985.4553 157.6647 966.3195 157.6647 966.3195 192.2745"/>
    <path class="cls-2" d="M1016.6396,180.226c0,2.5396.1181,5.2564.2953,8.0914h-.2953l-20.8486-30.5937h-2.4215v34.4326h2.2443v-22.4432c0-1.8309-.1181-4.5477-.2953-8.2095h.1181l20.8486,30.7708h2.6577v-34.6098h-2.4215v22.5613h.1181Z"/>
    <polygon class="cls-2" points="1028.8652 192.2745 1048.001 192.2745 1048.001 189.9711 1031.4049 189.9711 1031.4049 175.2649 1047.1151 175.2649 1047.1151 172.9615 1031.4049 172.9615 1031.4049 159.909 1048.001 159.909 1048.001 157.6647 1028.8652 157.6647 1028.8652 192.2745"/>
    <path class="cls-2" d="M1075.2282,173.1387c1.2994-1.5356,1.8309-3.5437,1.8309-5.9652,0-3.2484-1.1222-5.5517-3.1302-7.2055-2.1262-1.5356-5.3745-2.4215-9.627-2.4215h-8.3867v34.7279h2.4215v-15.1787l8.6229.1181,9.2135,15.0015h2.9531l-9.4497-15.7103c2.4215-.5316,4.2524-1.8309,5.5517-3.3665ZM1065.0106,175.0877h-6.792v-15.1787h5.6699c3.6618,0,6.2605.5906,7.9142,1.8309,1.5356,1.1222,2.4215,3.1302,2.4215,5.6699s-.8269,4.3705-2.4215,5.6699c-1.4174,1.4765-3.839,2.0081-6.792,2.0081Z"/>
    <path class="cls-2" d="M1098.7345,176.6823h10.2176v11.7532c-2.2443.8269-4.9611,1.2993-8.0914,1.2993-4.9611,0-8.6229-1.2993-11.0444-3.839-2.5396-2.5396-3.839-6.3786-3.839-11.4579,0-4.6658,1.2994-8.3867,3.9571-11.0444,2.5396-2.8349,6.2605-4.1343,10.7491-4.1343,3.1302,0,6.2605.7087,9.2135,2.1262l1.004-2.1262c-2.9531-1.2993-6.3786-2.1262-10.0404-2.1262-3.5437,0-6.4967.7087-9.2135,2.1262s-4.6658,3.5437-6.2605,6.2605c-1.4175,2.7168-2.1262,5.6699-2.1262,9.0954,0,5.5517,1.4175,9.8041,4.2524,12.7572s7.0873,4.5477,12.4619,4.5477c4.1343,0,7.9142-.5906,11.2216-2.1262v-15.4149h-12.6391l.1772,2.3034Z"/>
    <polygon class="cls-2" points="1138.1873 157.6647 1127.9698 176.387 1117.7522 157.6647 1114.9173 157.6647 1126.5523 178.9267 1126.5523 191.9792 1129.0919 191.9792 1129.0919 178.6313 1140.727 157.6647 1138.1873 157.6647"/>
    <g>
      <path class="cls-2" d="M870.9359,274.2513v2.0671c0,9.9813,4.3705,15.0606,13.4659,15.0606,8.2686,0,12.4028-5.847,12.4028-11.9303,0-8.6229-4.3705-12.4028-11.6941-14.5881l-8.9773-3.1302c-11.9303-4.6068-17.1277-10.8082-17.1277-22.5023,0-14.9425,10.0995-23.211,25.5144-23.211,21.0258,0,23.211,13.1116,23.211,21.6164v1.8309h-13.1116v-1.7128c0-7.4417-3.3074-11.8122-11.5169-11.8122-5.6108,0-11.0444,3.1302-11.0444,11.8122,0,7.0283,3.5437,10.5719,12.2847,13.8794l8.8592,3.1893c11.576,4.1343,16.6552,10.4538,16.6552,21.7345,0,17.4821-10.5719,24.6875-27.109,24.6875-20.317,0-24.9238-13.5841-24.9238-25.0419v-1.949h13.1116Z"/>
      <path class="cls-2" d="M920.4291,217.6707h44.3549v11.0444h-31.2433v22.7385h29.4124v11.0444h-29.4124v26.1641h32.1883v11.0444h-45.2999v-82.0359Z"/>
      <path class="cls-2" d="M995.791,217.6707h16.7734l21.6163,82.0359h-13.6431l-5.0792-20.0808h-24.0379l-5.2565,20.0808h-13.6431l23.2701-82.0359ZM1013.2731,269.113l-9.3907-40.4569h-.2363l-9.7451,40.4569h19.3721Z"/>
      <path class="cls-2" d="M1042.2131,217.6707h25.9869c15.7102,0,22.6204,9.8632,22.6204,23.9197,0,14.7062-8.6229,24.2151-24.0379,24.2151h-11.5169v33.9011h-13.1116v-82.0359h.0591ZM1055.3246,255.8833h9.3316c7.0283,0,13.1116-3.7799,13.1116-14.1156,0-8.8592-3.5437-14.2337-13.9975-14.2337h-8.3867v28.3493h-.059Z"/>
      <path class="cls-2" d="M1110.9011,217.6707h16.7734l21.6163,82.0359h-13.6431l-5.0792-20.0808h-24.0379l-5.2565,20.0808h-13.7022l23.3291-82.0359ZM1128.3832,269.113l-9.3907-40.4569h-.2363l-9.7451,40.4569h19.3721Z"/>
      <path class="cls-2" d="M1162.1661,228.6561h-19.5492v-11.0444h51.7966v11.0444h-19.1949v70.9914h-13.1116v-70.9914h.059Z"/>
      <path class="cls-2" d="M1204.2177,217.6707h13.1116v32.838h24.0969v-32.838h13.1116v82.0359h-13.1116v-38.1535h-24.0969v38.1535h-13.1116v-82.0359Z"/>
    </g>
    <polygon class="cls-2" points="864.6754 171.2487 857.588 171.2487 857.588 191.9792 878.4366 191.9792 878.4366 185.1871 864.6754 185.1871 864.6754 171.2487"/>
    <polygon class="cls-2" points="857.588 167.705 864.5573 167.705 864.5573 164.3386 885.4058 164.3386 885.4058 185.1871 881.9803 185.1871 881.9803 191.9792 892.316 191.9792 892.316 157.3694 857.588 157.3694 857.588 167.705"/>
    <path class="cls-2" d="M731.9651,214.5996c12.1666-8.3276,24.6285-16.5371,48.9617-16.5371,2.0081,0,3.898.0591,5.7289.1772,8.9182-5.9061,18.9586-11.0444,36.4998-11.0444,1.0631,0,2.0671,0,3.0712.0591-14.2337-27.1681-42.7012-45.7133-75.4801-45.7133-33.3695,0-62.2504,19.1949-76.1888,47.1308,24.2151,5.0792,30.5346,22.5023,57.4074,25.9278Z"/>
    <path class="cls-5" d="M731.9651,214.5996c-26.8728-3.3665-33.1923-20.7895-57.4665-25.9869-5.7289,11.4579-9.0363,24.3922-9.0363,38.0944,0,1.3584.0591,2.7168.1181,4.0752,4.6658.8269,9.9223,1.3584,15.8284,1.3584,25.3963,0,37.8582-8.8592,50.5563-17.5411Z"/>
    <path class="cls-5" d="M786.6557,198.2396c24.0379,1.3584,35.5548,11.3397,48.7845,20.0808-1.0631-11.1035-4.3115-21.6164-9.2726-31.0661-1.004-.0591-2.0081-.0591-3.0712-.0591-17.4821,0-27.4634,5.1383-36.4407,11.0444Z"/>
    <path class="cls-4" d="M780.9267,198.0625c-24.3922,0-36.7951,8.1504-48.9617,16.5371-12.6981,8.682-25.16,17.6002-50.4972,17.6002-5.9061,0-11.1625-.4725-15.8284-1.3584.1772,4.3705.7087,8.6229,1.5946,12.7572,5.3746-.8859,11.2807-1.3584,17.8955-1.3584,26.7547,0,41.9924,7.9142,55.6356,16.8915,18.1908-8.0323,26.2231-23.0338,56.108-23.0338,17.6002,0,27.6406,5.1974,36.6179,11.1625,1.6537-6.5558,2.4806-13.4659,2.4806-20.4942,0-2.8349-.1181-5.6108-.4134-8.3867-13.2297-8.8001-24.7466-18.7224-48.7845-20.0808-1.949-.1772-3.839-.2362-5.847-.2362Z"/>
    <path class="cls-5" d="M740.7061,259.1316c18.0136,11.8713,33.1923,25.6325,68.5109,25.6325,1.3584,0,2.5987,0,3.898-.0591,9.686-10.3948,16.7734-23.211,20.258-37.4447-8.9773-5.9061-19.0177-11.1625-36.6179-11.1625-29.8849,0-37.8582,15.0015-56.049,23.0338Z"/>
    <path class="cls-3" d="M740.7061,259.1316c-13.6431-8.9773-28.8809-16.8915-55.6356-16.8915-6.6148,0-12.521.4725-17.8955,1.3584,3.4255,16.9505,11.8122,32.0702,23.6835,43.7643,7.7961-4.4296,17.0096-7.8551,31.3024-7.8551,33.1923,0,39.4528,18.4861,62.4866,25.3963,10.8672-4.7249,20.5533-11.635,28.4674-20.1989-1.2993.0591-2.5396.0591-3.898.0591-35.3185,0-50.5563-13.7612-68.5109-25.6325Z"/>
    <path class="cls-4" d="M690.8586,287.3038c15.4149,15.1787,36.4998,24.5694,59.888,24.5694,12.0485,0,23.5063-2.5396,33.9011-7.0283-23.0929-6.9102-29.3534-25.3963-62.4866-25.3963-14.2928.059-23.5654,3.4255-31.3024,7.8551Z"/>
  </g>
</svg>