<?xml version="1.0" encoding="UTF-8"?>
<svg id="Calque_1" data-name="Calque 1" xmlns="http://www.w3.org/2000/svg" xmlns:xlink="http://www.w3.org/1999/xlink" viewBox="0 0 2560 1440">
  <defs>
    <style>
      .cls-1 {
        fill: url(#Dégradé_sans_nom_144);
        opacity: .7;
      }

      .cls-2, .cls-3, .cls-4, .cls-5 {
        fill: #fff;
      }

      .cls-6 {
        opacity: .48;
      }

      .cls-3 {
        opacity: .7;
      }

      .cls-3, .cls-4, .cls-5 {
        isolation: isolate;
      }

      .cls-4 {
        opacity: .2;
      }

      .cls-5 {
        opacity: .5;
      }
    </style>
    <linearGradient id="Dégradé_sans_nom_144" data-name="Dégradé sans nom 144" x1="151.893" y1="104.3868" x2="2606.3296" y2="1444.8868" gradientUnits="userSpaceOnUse">
      <stop offset="0" stop-color="#1e4f77"/>
      <stop offset=".6448" stop-color="#0084c4"/>
      <stop offset="1" stop-color="#00a6dc"/>
    </linearGradient>
  </defs>
  <path class="cls-1" d="M-11.5882-27.133c.6127,104.4401-.6973,208.8797-2.7808,313.3061-2.092,104.85-4.9575,209.6898-7.4058,314.535-2.4422,104.5964-4.4664,209.2018-4.9036,313.8162-.217,52.0659-.5203,104.0828-2.7485,156.1266-2.2028,51.4711-5.5224,102.9091-8.9606,154.3385-4.7889,71.6422-9.7687,143.3013-12.4195,215.0106h2610.0782V-27.133H-11.5882Z"/>
  <g class="cls-6">
    <path class="cls-2" d="M2535.7398,1173.9162c-2.0302,1.8582-2.1707,5.0097-.313,7.0423.2011.2198,14.4242,15.8708,24.5732,32.4031v-17.8443c-8.4751-11.6744-16.5811-20.5907-17.2194-21.2886-1.8587-2.0297-5.0087-2.1687-7.0408-.3125Z"/>
    <path class="cls-2" d="M2518.7934,1149.7818c16.3653,0,31.0834,7.1603,41.2066,18.5046v-13.7264c-11.2396-9.2003-25.5817-14.7432-41.2066-14.7432h-12.2798c-2.7524,0-4.9833,2.2305-4.9833,4.9829v29.3709c0,22.7455,11.7149,42.796,29.4186,54.4666h-182.9233l-72.2103-230.2654h90.2796v19.068h-4.8663c-2.7527,0-4.9837,2.2305-4.9837,4.9829s2.2309,4.9821,4.9837,4.9821h19.6999c2.7531,0,4.9837-2.2298,4.9837-4.9821s-2.2305-4.9829-4.9837-4.9829h-4.8659v-19.068h29.8458c2.1613,0,4.0774-1.3939,4.742-3.4497.665-2.0573-.0723-4.3071-1.8257-5.574l-134.0989-96.8038,91.3691.2463v18.102h-4.8663c-2.7527,0-4.9837,2.2305-4.9837,4.9829s2.2309,4.9829,4.9837,4.9829h19.6999c2.7531,0,4.9837-2.2298,4.9837-4.9829s-2.2305-4.9829-4.9837-4.9829h-4.8659v-18.0743l29.8315.08h.0142c2.1205,0,4.0096-1.3415,4.7066-3.345.6985-2.0073.0473-4.2378-1.6229-5.5532l-136.0823-107.186c-.0908-.1162-.1482-.2517-.2513-.361l-80.2234-85.1748c-.9498-1.0106-2.2925-1.4993-3.6671-1.5663-1.3866.01-2.7058.5973-3.641,1.6217l-77.0727,84.3989c-.0762.0416-.147.1001-.2224.1447-.0981.06-.194.1231-.2871.1909-.0539.0385-.1116.067-.1639.107l-136.5591,106.6457c-1.6744,1.3069-2.3352,3.5328-1.6463,5.5417.6885,2.0089,2.5757,3.3619,4.7,3.3673l30.9649.0824v19.0803h-4.8663c-2.7524,0-4.9833,2.2305-4.9833,4.9829s2.2309,4.9829,4.9833,4.9829h19.7003c2.752,0,4.9833-2.2298,4.9833-4.9829s-2.2313-4.9829-4.9833-4.9829h-4.8667v-19.051l88.066.2371-136.8289,97.2479c-1.7676,1.2561-2.5195,3.512-1.8615,5.5763.6604,2.0674,2.58,3.4689,4.7485,3.4689h35.9085v19.068h-4.8663c-2.7524,0-4.9833,2.2305-4.9833,4.9829s2.2309,4.9821,4.9833,4.9821h19.7003c2.752,0,4.9833-2.2298,4.9833-4.9821s-2.2313-4.9829-4.9833-4.9829h-4.8667v-19.068h88.813l-34.7971,108.6838c-.0058.0177-.0108.0358-.0165.0523l-38.9076,121.5293h-132.7181v-38.8498h59.3763c3.0518,0,5.8907-1.5132,7.5952-4.0447,1.7037-2.5315,2.035-5.7314.8844-8.5603l-19.347-47.5614c-.0015-.005-.0031-.01-.0054-.0146l-9.7518-23.9731c-1.4085-3.467-4.7374-5.7045-8.4795-5.7045h-155.5109c-3.5775,0-6.8478,2.1004-8.3302,5.3535l-32.6389,71.5519c-1.2977,2.8459-1.0629,6.1166.6296,8.7485,1.6925,2.6311,4.5703,4.2047,7.6998,4.2047h61.9574v38.906h-114.6441c17.4232-11.7179,28.9114-31.6118,28.9114-54.1414v-29.3689c0-2.752-2.2305-4.9829-4.9837-4.9829h-12.281c-22.0997,0-41.6534,11.0622-53.4517,27.9308-11.7684-17.0853-31.4567-28.3141-53.7265-28.3141h-12.2794c-2.7531,0-4.9844,2.2305-4.9844,4.9829v29.3709c0,22.7821,11.7537,42.8602,29.5063,54.5228h-38.2268l-72.2288-230.3216h90.28v19.068h-4.8667c-2.7524,0-4.9837,2.2305-4.9837,4.9829s2.2313,4.9821,4.9837,4.9821h19.6999c2.7524,0,4.9837-2.2298,4.9837-4.9821s-2.2313-4.9829-4.9837-4.9829h-4.8667v-19.068h29.8465c2.1613,0,4.077-1.3939,4.742-3.4497.665-2.0573-.0723-4.3071-1.8249-5.574l-134.1-96.8038,91.3699.2463v18.102h-4.8667c-2.7524,0-4.9837,2.2305-4.9837,4.9829s2.2313,4.9829,4.9837,4.9829h19.6999c2.7524,0,4.9837-2.2298,4.9837-4.9829s-2.2313-4.9829-4.9837-4.9829h-4.8667v-18.0743l29.8327.08h.0139c2.1205,0,4.01-1.3415,4.7066-3.345.6981-2.0073.0477-4.2378-1.6232-5.5532l-136.0819-107.186c-.0908-.1162-.1478-.2517-.2517-.361l-80.2234-85.1748c-.949-1.0106-2.2921-1.4993-3.6675-1.5663-1.3854.01-2.7054.5973-3.6398,1.6217l-77.0724,84.3989c-.077.0416-.1478.1001-.2224.1447-.0977.06-.1947.1231-.2879.1909-.0539.0385-.1116.067-.1639.107l-136.5591,106.6457c-1.6748,1.3069-2.3352,3.5328-1.6463,5.5417.6881,2.0089,2.5753,3.3619,4.7004,3.3673l30.9649.0824v19.0803h-4.8667c-2.7524,0-4.9837,2.2305-4.9837,4.9829s2.2313,4.9829,4.9837,4.9829h19.6999c2.7524,0,4.9837-2.2298,4.9837-4.9829s-2.2313-4.9829-4.9837-4.9829h-4.8659v-19.051l88.0657.2371-136.8293,97.2479c-1.7672,1.2561-2.5192,3.512-1.8611,5.5763.6596,2.0674,2.58,3.4689,4.7474,3.4689h35.91v19.068h-4.8667c-2.7524,0-4.9837,2.2305-4.9837,4.9829s2.2313,4.9821,4.9837,4.9821h19.6999c2.7524,0,4.9837-2.2298,4.9837-4.9821s-2.2313-4.9829-4.9837-4.9829h-4.8659v-19.068h88.813l-34.7971,108.6838c-.0062.0177-.0108.0358-.0169.0523l-38.9249,121.5855h-212.2084c-.0015,0-.0038.0012-.0046.0012h-33.5833c-.0216-.1401-.0192-.2802-.0546-.4202l-12.9406-90.9527c6.2844,7.7641,14.7886,15.1592,25.8812,21.4444,29.2077,17.0087,56.5682,13.31,68.3989,10.7224,6.2852-1.4789,10.3537-8.1328,8.1332-14.4187-3.3281-11.4616-14.0497-36.9722-43.2581-53.9805-19.2242-11.0918-37.7119-13.31-51.3921-12.9394,4.8074-10.7231,8.8751-24.0339,8.8751-40.3011,0-30.348-13.2307-50.9522-22.1267-61.0889,16.3133,1.9634,33.1869,3.091,50.3769,3.2942,1.9019.0239,3.7976.0346,5.6902.0346,56.0687,0,107.8487-9.8888,146.3325-28.0124l10.0743-4.7443c2.5422-1.1976,3.6313-4.2278,2.4353-6.7716-1.1968-2.5415-4.224-3.6336-6.7716-2.4337l-10.0743,4.7435c-78.1337,36.7944-213.4206,35.7038-295.4281-2.3821-2.5476-1.1845-5.5725-.077-6.757,2.4707-1.1822,2.5484-.0777,5.574,2.4722,6.7578,23.422,10.8786,51.2859,19.0472,81.6581,24.1648-8.595,9.0822-24.8044,30.7455-24.8044,63.9675,0,16.2683,3.6983,29.9477,8.8744,40.3011-13.3108,0-30.6878,2.5869-48.4342,12.9394-28.8367,17.0045-39.1873,42.5162-42.8856,53.9767-1.8488,6.2852,1.8488,12.941,8.5042,14.4195v.0019c11.8299,2.9594,38.821,6.2852,68.3989-10.722,10.7224-6.2844,19.225-13.6795,25.5117-21.0726l-13.3093,90.5817c-.0185.1401-.0077.279-.0139.4202h-115.0351l-72.539-230.0072h91.1444v18.8725h-2.9494c-2.9494,0-4.7158,2.3591-4.7158,4.7181s2.3575,4.7158,4.7158,4.7158h15.9231c2.9502,0,4.7173-2.3568,4.7173-4.7158.0031-2.3591-1.7672-4.7181-4.7173-4.7181h-3.539v-18.2806l34.4738-.0023c.5896,0,1.1799,0,2.3591-.5896,0,0,.5896,0,.5896-.5896.5896,0,.5896-.5896,1.1799-1.1799v-.588s.5896-.5896.5896-1.1815v-.5896l.0015.0062v-2.3606q0-.5896-.588-.5896l-1.1791-1.1791-136.8224-97.8983,89.7697.0062v17.691h-2.9486c-2.9502,0-4.7166,2.3591-4.7166,5.3085s2.3583,5.3085,4.7166,5.3085h15.9231c2.9494,0,4.7173-2.3583,4.7173-5.3085s-2.3583-5.3085-4.7173-5.3085h-3.5397v-17.691l34.6724-.0062c.5888,0,1.1799,0,2.3591-.5888,0,0,.5888,0,.5888-.5896.5896,0,.5896-.5888,1.1799-1.1784v-.5911c0-.5896.5896-.5896.5896-1.1799v-4.127l-1.1784-1.1784-142.725-108.5206-79.6185-87.8763s-.588,0-.588-.5888l-.5911-.5903h-4.1278c-.5911,0-.5911.5903-.5911.5903,0,0-.588,0-.588.5888l-80.208,87.8763-140.9532,108.5152-1.1784,1.1776v4.1278q0,.5896.5896,1.1807v.5896q.5888.588,1.1799,1.1799s.588,0,.588.5888c.5896,0,1.1815.5903,1.7703.5903h35.205v17.691h-2.9502c-2.9494,0-5.3077,2.3591-5.3077,5.3085s2.3583,5.3085,5.3077,5.3085h15.9238c2.9494,0,5.3085-2.3583,5.3085-5.3085s-2.3591-5.3085-5.3085-5.3085l-2.9502.0023v-17.6926h88.0557l-136.2336,97.3102-1.1784,1.1776s0,.5896-.5896.5896v3.5397q0,.5888.5896,1.1799v.5888l1.1791,1.1799s.5903,0,.5903.5896c.588.5896,1.1799.5896,2.3583.5896l35.1881-.6088-.0023,18.2821h-2.9486c-2.9502,0-5.3085,2.3598-5.3085,4.7181s2.3583,4.7166,5.3085,4.7166h15.9223c2.9494,0,5.3092-2.3575,5.3092-4.7166.0008-2.3583-2.9479-4.7181-5.8973-4.7181h-2.3598v-18.2806l88.6606.6088-72.539,229.4137-145.1195-.421.0993-39.4436,79.8432.4318c4.1224.0189,7.97-1.9931,10.2937-5.387,2.3514-3.4358,2.797-7.7029,1.1984-11.7622l-30.5054-70.3188c-1.9935-4.5761-6.3221-7.4316-11.2965-7.4555l-158.839-.7512c-4.9937-.0246-9.3539,2.7928-11.3797,7.35l-30.159,67.7381c-3.7037-.8193-7.7145-1.5801-11.94-2.2636-1.25-.1959-2.4999.1035-3.5182.8578-.6042.4456-1.0837,1.0183-1.4077,1.6698l-.2478-.0008-.2047,1.4324c-3.2958,23.0707-1.1999,42.4923,6.1828,57.8612h-122.5395L8.2018,998.3717h90.2792v19.068h-4.8667c-2.7524,0-4.9829,2.2305-4.9829,4.9829s2.2305,4.9821,4.9829,4.9821h19.6999c2.7531,0,4.9837-2.2298,4.9837-4.9821s-2.2305-4.9829-4.9837-4.9829h-4.8659v-19.068h29.8458c2.162,0,4.077-1.3939,4.7427-3.4497.6642-2.0573-.0731-4.3071-1.8257-5.574L7.1111,892.5442l91.3699.2463v18.102h-4.8667c-2.7524,0-4.9829,2.2305-4.9829,4.9829s2.2305,4.9829,4.9829,4.9829h19.6999c2.7531,0,4.9837-2.2298,4.9837-4.9829s-2.2305-4.9829-4.9837-4.9829h-4.8659v-18.0743l29.8319.08h.0139c2.1205,0,4.0092-1.3415,4.7066-3.345.6989-2.0073.0477-4.2378-1.6232-5.5532L5.2955,776.8141c-.0916-.1162-.1485-.2517-.2509-.361l-31.6337-33.5856c-.0208,4.822-.0508,9.6441-.0677,14.4661l16.5334,17.5533h-16.6004c-.0123,3.3997-.0231,6.7993-.0362,10.1982h12.5634l-12.6027,8.9567c-.0185,4.0901-.0369,8.1801-.0585,12.2702l23.2904-16.5527v92.7892l-3.1811-.0092-20.6158-14.8825c-.0493,4.0593-.1054,8.1178-.1632,12.1763l3.686,2.66-3.7214-.01c-.05,3.472-.1047,6.9433-.1624,10.4153h12.6489l-12.802,8.5149c-.0731,4.0393-.1362,8.0793-.2201,12.1186l24.5311-16.3148v86.8719l-25.9781-17.2769c-.1308,3.8992-.2725,7.7976-.411,11.6968l14.8802,9.8973h-15.2288c-.1239,3.3219-.2602,6.6439-.3887,9.9658h13.8403l-14.1651,8.3495c-.157,3.9508-.3156,7.9023-.4787,11.853l30.0366-17.7041,30.2768,96.546-62.1553-36.6997c-.1732,3.7549-.3517,7.509-.528,11.2635l60.5697,35.763-63.7693,29.1942c-.1916,3.7422-.3856,7.4843-.578,11.2265l72.0333-32.9772,33.8866,108.0596-107.2622-49.1181c-.1855,3.569-.3702,7.1384-.5557,10.7074l94.7695,43.3967H-41.7849c-.1593,3.1041-.3202,6.2074-.478,9.3116h250.5737c10.4137,14.6169,26.6408,23.6083,48.4342,26.7232l9.8357.8528.1216-.0069c26.4469-1.5459,46.1644-10.8436,58.6201-27.6379l5.36.0266,180.3199.6281h590.5777c.1231,0,.2317-.0277.3494-.0366h524.2285c4.1624.8359,8.4641,1.2815,12.8675,1.2815,1.7957,0,9.1222.3814,11.2981.3814,5.0114,0,9.8842-.5873,14.5746-1.6629h224.6256c.0285.0012.0546.0089.0831.0089h664.3077c1.9969.4002,4.0281.705,6.0855.9186v-10.3829h-2.4129c-26.1182-4.3729-46.0898-27.1253-46.0898-54.4666v-24.3888h7.2962ZM6.4,790.3712l117.4627,92.5221-117.4627-.3171v-92.205ZM6.4,904.3241l116.476,84.0818H6.4v-84.0818ZM447.4787,1175.6857c.4125.9178.3225,1.9804-.2363,2.839-.5603.8605-1.4886,1.3508-2.5461,1.3458l-61.4256-.2909-3.5921-19.1022,61.3286.3017,6.4714,14.9067ZM428.6455,1132.2516l8.2925,19.1122-59.0219-.279-3.5905-19.0903,54.3199.2571ZM414.2956,1103.7259c1.3046.0069,2.1851.5923,2.7485,1.8049l7.5144,17.317-52.0086-.2475-3.5905-19.1003,45.3363.2259ZM310.3392,1103.2229l49.0746.2317,3.5905,19.1022-56.4366-.2663,3.7714-19.0676ZM304.7144,1131.6651l60.0648.284,3.5898,19.0903-67.4252-.3194,3.7706-19.0549ZM252.6912,1104.7442c.5157-1.1703,1.4701-1.7872,2.7616-1.7826l45.3378.2151-3.7714,19.0687-52.0078-.2467,7.6798-17.2546ZM240.8466,1131.3619l54.3223.2571-3.7722,19.0557-59.0242-.2786,8.4741-19.0341ZM228.2039,1159.7614l61.3294.289-3.7714,19.0668-41.5895-.1974c-6.0858-3.0606-13.1291-5.726-20.9683-7.9342l4.9998-11.2242ZM265.888,1244.2673c-6.4622-14.5311-17.1184-29.9801-29.19-42.1683-2.1351-2.1447-4.9983-1.5948-6.6123.0054-1.6117,1.6005-2.1805,4.4614-.0554,6.6054,13.6156,13.7457,24.742,30.9699,30.149,46.5585-18.8548-2.2463-33.1654-9.3015-42.557-20.9875-10.9317-13.6048-15.0687-33.0449-12.3071-57.8054,28.7028,5.26,47.0072,14.6604,55.9286,28.7193,6.5061,10.2521,8.0639,23.3782,4.6442,39.0726ZM258.7139,1188.3745l20.3703.0966c-3.8184,3.8969-6.9102,8.1778-9.2346,12.7851-2.8593-4.7127-6.5877-9.0245-11.1357-12.8817ZM325.5088,1217.1054c-7.422,21.6525-26.1344,35.1338-52.8391,38.1521,1.066-3.4874,1.9511-6.9032,2.6361-10.1867,3.9223-6.7547,8.7043-14.5835,14.4799-21.686,5.8365-7.1734,12.1024-12.9587,19.7145-18.2102,1.4147-.9767,2.152-2.4703,2.0219-4.0978-.137-1.7248-1.2361-3.3188-2.7978-4.0612-1.4747-.6981-3.1326-.5411-4.5434.4345-10.5761,7.29-19.1103,15.8553-27.195,27.3739-.2417-3.8976-.8459-7.6356-1.8072-11.1657,2.4137-9.8215,8.742-18.4942,18.3229-25.1057,9.4586-6.5061,21.5386-10.727,34.166-11.9562.4233,2.5838.7581,5.1387.9921,7.5717.879,15.4401.7258,19.2923-3.1511,32.9372ZM295.8816,1176.2379l3.1957-16.1509,71.0566.336,3.5921,19.1003-36.2025-.1716c-.3656-2.7885-.8282-5.609-1.3669-8.3406-.3225-2.3964-2.4229-4.1116-4.839-4.0462-12.4488.5538-24.8898,3.8253-35.4359,9.2731ZM355.3106,1228.2319l-24.2548-.1143c.7905-1.5909,1.5317-3.25,2.2159-4.9633,0,0,2.0404-5.0391,2.9556-9.3785,1.8634-7.7068,2.5823-16.1093,2.1451-25.0337l17.0483.0277-.1101,39.4621ZM753.9909,788.1453l123.2568,93.772h-123.2568v-93.772ZM753.9871,901.9736l122.0808,87.2829h-122.0808v-87.2829ZM746.3188,998.6865l31.8492,100.2612-99.0813-60.1564,66.6425-40.1048h.5896ZM670.2439,841.2245l56.619,40.6928h-113.8229l57.2039-40.6928ZM669.6544,828.8389l-64.2826-46.0005h127.9765l-63.6938,46.0005ZM733.3482,892.535l-64.2819,41.2832-64.8722-41.2832h129.1541ZM744.5539,897.2531v84.3335l-65.4656-41.8735,65.4656-42.46ZM660.2197,939.7147l-64.8707,41.8743-.0015-83.1559,64.8722,41.2816ZM669.0663,945.6119l67.2297,43.0534h-133.8722l66.6425-43.0534ZM726.2695,998.6904l-56.6151,34.206-56.6144-34.206h113.2295ZM775.8082,1108.3843l-106.1554,48.3607-106.1554-48.3607,106.1554-64.2826,106.1554,64.2826ZM744.5539,882.5084l-66.0537-47.182,66.0537-47.1812v94.3632ZM669.6528,697.9145l68.4127,75.4891-136.8231-.0023,68.4104-75.4868ZM594.7548,788.1453l66.0544,47.1812-65.4656,47.1804h-.5888v-94.3616ZM463.2386,881.9173l122.08-93.772v93.772h-122.08ZM463.8289,989.2564l120.8978-86.6941v86.6941h-120.8978ZM592.3965,999.2823l1.1784-.0023-.0015-.5896,66.6417,40.104-99.0767,60.1572,31.2581-99.6693ZM555.8292,1116.0507l102.0299,46.0009-136.2343,61.9228,34.2044-107.9237ZM536.3671,1228.108l133.2857-60.1576,133.2857,60.1576h-266.5714ZM682.0392,1162.6431l102.0284-46.0028,33.6164,107.338-135.6448-61.3352ZM997.3936,1099.6093c11.8299-.3687,27.7284,1.8491,44.7344,11.4616,25.8827,15.1588,35.125,37.3424,38.0828,47.3244v.3698h-.371c-10.3529,2.5877-34.0136,5.5459-60.2649-9.2427-13.6795-7.7649-22.5523-17.7476-28.468-26.6204,4.0662-4.436,6.6562-10.7224,6.6562-17.3762.3687-2.219,0-4.0674-.3694-5.9165ZM971.8811,991.2807c7.7645,7.763,22.1836,26.6185,22.1836,56.9365,0,14.4199-3.3281,26.251-7.7645,35.4936-4.0662-2.5877-8.8736-4.436-14.0497-4.436-5.5463,0-10.3529,1.8495-14.7893,4.436-4.4364-9.2427-7.7645-21.4455-7.7645-35.8631,0-29.9477,14.7893-49.1743,22.1844-56.567ZM926.0345,1149.5224c-25.8804,15.1592-49.9128,11.8311-60.2649,9.2434.7397,0,.3702,0,.3702-.3694v-.0012c2.9579-9.9808,12.2009-32.535,38.0821-47.3236,15.8984-9.2434,31.0565-11.4624,42.5177-11.4624-.3694,1.8491-.7381,3.6987-.7381,5.9154,0,7.3954,2.9571,14.0505,7.763,18.4861-5.915,8.5042-14.7886,18.1174-27.7299,25.5117ZM957.4612,1105.1552c0-8.1336,6.6554-14.7893,14.7893-14.7893s14.7886,6.6558,14.7886,14.7893-6.6554,14.7886-14.7886,14.7886-14.7893-6.655-14.7893-14.7886ZM955.3931,1228.6945l13.8988-97.6601h2.5877c1.4801,0,2.9594,0,4.4372-.3698l13.8996,98.0299h-34.8233ZM1491.0697,790.3712l117.4642,92.5221-117.4642-.3171v-92.205ZM1491.0697,904.3241l116.4775,84.0818h-116.4775v-84.0818ZM1513.4858,1097.4161l-96.9516-57.2455,66.6756-39.3005,30.276,96.546ZM1460.8283,882.493l-109.7875-.2971,55.1143-39.1689,54.6732,39.466ZM1342.9207,785.085h127.5539l-64.2734,45.6811-63.2805-45.6811ZM1469.5942,892.8983l-62.7987,41.7688-62.7987-41.7688h125.5974ZM1481.1024,897.2169v86.8719l-65.3079-43.4352,65.3079-43.4367ZM1469.5942,988.406h-125.5974l62.7987-41.7681,62.7987,41.7681ZM1467.8162,998.3717l-61.0885,36.0074-60.9815-36.0074h122.07ZM1511.3738,1107.7428l-105.3426,48.2264-104.656-47.9228,105.3488-62.0933,104.6499,61.7897ZM1481.1024,882.5484l-3.1803-.0092-63.1859-45.6126,66.3662-47.1673v92.7892ZM1405.9196,702.023l68.6267,72.8638h-135.166l66.5393-72.8638ZM1332.4878,789.8463l65.1316,47.0173-63.7177,45.2862-1.4139-.0038v-92.2996ZM1332.4878,897.2169l65.3086,43.4367-65.3086,43.4367v-86.8734ZM1205.3733,881.8019l117.1471-91.4846v91.8017l-117.1471-.3171ZM1201.6027,988.406l120.9178-85.9398v85.9398h-120.9178ZM1330.3465,1000.8539l66.5709,39.3086-97.5673,57.5076,30.9964-96.8161ZM1293.6506,1115.4719l100.409,45.9793-134.9013,61.7562,34.4923-107.7355ZM1271.1237,1228.6933l134.9059-61.7612,134.8743,61.7612h-269.7802ZM1418.0012,1161.4512l101.0578-46.2649,33.8866,108.0596-134.9444-61.7947ZM1646.3212,1218.1495c-10.2067-20.7809-30.2314-42.8067-31.2497-43.9208-1.8588-2.0296-5.0091-2.1686-7.0402-.3125-2.0312,1.8584-2.1713,5.0098-.314,7.0422.2648.2879,24.7066,27.175,32.3534,47.735h-9.8803c-26.2722-4.2428-46.4023-27.073-46.4023-54.5228v-24.3888h7.2965c30.4584,0,55.2366,24.7801,55.2366,55.2382v13.1295ZM1661.1729,1228.6933h-4.8374c-.2186-1.4027-.047-4.5561-.047-6.583v-7.1184c10.1844-16.9837,25.1361-33.424,25.3416-33.6499,1.8572-2.0327,1.7171-5.1842-.3133-7.0422-2.0327-1.8595-5.183-1.7171-7.0402.3125-.6688.7312-9.5294,10.4807-18.4253,22.9672-.7912-6.929-2.6739-13.5267-5.4701-19.6256,9.5448-16.5808,27.4167-27.7888,47.8816-27.7888h7.2981v24.3868c0,26.7428-19.1103,49.0842-44.388,54.1414ZM1927.1309,1109.5596l6.9602,17.1126h-48.4134l-3.4043-17.1126h44.8575ZM1886.4958,1180.1552h-74.5247l3.4766-17.1111h67.6438l3.4043,17.1111ZM1826.3194,1109.5596h46.1321l3.4035,17.1126h-53.0146l3.4789-17.1126ZM1820.8839,1136.3032h56.8876l3.4043,17.1091h-63.77l3.4782-17.1091ZM1772.2496,1109.5596h44.2395l-3.4782,17.1126h-48.5666l7.8053-17.1126ZM1802.14,1180.1552h-62.0914l7.8053-17.1111h57.7642l-3.4782,17.1111ZM1752.2464,1153.4124l7.8045-17.1091h51.0026l-3.4782,17.1091h-55.329ZM1887.5479,1228.6933h-76.6544v-38.906h76.6544v38.906ZM1887.5933,1136.3032h50.4146l6.9602,17.1091h-53.9697l-3.4051-17.1091ZM1892.9141,1163.0441h55.9717l6.9598,17.1111h-59.528l-3.4035-17.1111ZM2274.0142,790.3712l117.4631,92.5221-117.4631-.3171v-92.205ZM2274.0142,904.3241l116.4764,84.0818h-116.4764v-84.0818ZM2296.4299,1097.4161l-96.952-57.2455,66.6756-39.3005,30.2764,96.546ZM2243.7729,882.493l-109.7879-.2971,55.1139-39.1689,54.674,39.466ZM2125.8645,785.085h127.5528l-64.273,45.6811-63.2798-45.6811ZM2252.5387,892.8983l-62.7987,41.7688-62.7999-41.7688h125.5986ZM2264.0469,897.2169v86.8719l-65.3086-43.4352,65.3086-43.4367ZM2252.5387,988.406h-125.5986l62.7999-41.7681,62.7987,41.7681ZM2250.7604,998.3717l-61.0889,36.0074-60.9811-36.0074h122.07ZM2294.3175,1107.7428l-105.343,48.2264-104.656-47.9228,105.3491-62.0933,104.6499,61.7897ZM2264.0469,882.5484l-3.1811-.0092-63.1862-45.6126,66.3673-47.1673v92.7892ZM2188.8633,702.023l68.6267,72.8638h-135.1656l66.5389-72.8638ZM2115.4319,789.8463l65.132,47.0173-63.7189,45.2862-1.4131-.0038v-92.2996ZM2115.4319,897.2169l65.3082,43.4367-65.3082,43.4367v-86.8734ZM1988.3171,881.8019l117.1479-91.4846v91.8017l-117.1479-.3171ZM1984.5465,988.406l120.9185-85.9398v85.9398h-120.9185ZM2113.2903,1000.8539l66.5709,39.3086-97.5665,57.5076,30.9957-96.8161ZM2076.5944,1115.4719l100.409,45.9793-134.9005,61.7562,34.4915-107.7355ZM2054.1899,1228.6371l134.7835-61.705,134.7523,61.705h-269.5358ZM2200.945,1161.4512l101.0578-46.2649,33.8866,108.0596-134.9444-61.7947Z"/>
    <path class="cls-2" d="M2560,644.0936l-195.4651,78.2402c-2.5546,1.0242-3.7967,3.9243-2.7744,6.4804.7797,1.9469,2.6512,3.1318,4.6287,3.1318.6161,0,1.2435-.1163,1.8508-.3578l191.7601-76.7577v-10.737Z"/>
    <path class="cls-2" d="M2560,777.7556l-96.7815,35.8257c-2.6611.7029-4.2491,3.4285-3.5478,6.0901.5895,2.2367,2.6078,3.7144,4.816,3.7144.4204,0,.8473-.0532,1.2741-.1646l94.2392-34.8853v-10.5802Z"/>
    <path class="cls-2" d="M2560,932.3257l-67.9562,7.7116c-2.7345.3095-4.7001,2.7789-4.3901,5.5134.2888,2.5443,2.4447,4.4212,4.9456,4.4212.1883,0,.3766-.0108.5678-.0325l66.833-7.5845v-10.0292Z"/>
    <path class="cls-2" d="M855.9442,833.1777c47.7791,22.7592,110.1383,32.5147,172.6486,32.5147,64.6846,0,129.5282-10.4527,178.4759-27.7582.161-.0566.318-.1212.473-.1938l10.0745-4.7446c2.542-1.1975,3.6311-4.2289,2.4347-6.7709-1.1945-2.542-4.2254-3.6346-6.7714-2.4352l-9.842,4.6353c-94.3219,33.267-248.3558,40.7046-343.117-4.4346-2.534-1.2089-5.5729-.1312-6.7813,2.4054-1.2084,2.537-.1312,5.5734,2.4049,6.7818Z"/>
    <path class="cls-2" d="M1175.7162,890.3829l-10.0745,4.7446c-80.5248,37.9207-173.0064,38.1641-253.732.6723-2.5499-1.184-5.5729-.077-6.7574,2.4714-1.1826,2.5484-.0775,5.5739,2.4724,6.7574,41.4847,19.2676,85.9586,28.895,130.4385,28.895,45.0145,0,90.0349-9.8683,131.9152-29.5901l10.0745-4.7446c2.542-1.1975,3.6311-4.2289,2.4347-6.7709-1.1945-2.5415-4.2214-3.6331-6.7714-2.4352Z"/>
    <path class="cls-2" d="M1610.1104,847.7445c47.1292,16.67,119.1138,26.7128,190.4684,26.7128,58.5115,0,116.6076-6.7589,160.1672-22.1594.161-.0566.318-.1212.473-.1938l10.0745-4.7441c2.542-1.197,3.6311-4.2284,2.4347-6.7709-1.1965-2.5405-4.2234-3.6341-6.7714-2.4352l-9.842,4.6348c-94.7771,33.3947-259.5076,25.1104-343.6099-4.6378-2.6573-.9371-5.559.4512-6.4931,3.1-.9381,2.6493.4492,5.5565,3.0985,6.4936Z"/>
    <path class="cls-2" d="M1791.7385,948.2873c45.0145,0,90.0369-9.8683,131.9172-29.5901l10.0745-4.7446c2.542-1.1975,3.6311-4.2289,2.4347-6.7709-1.1965-2.5415-4.2234-3.6336-6.7714-2.4352l-10.0745,4.7446c-80.5248,37.9202-173.0044,38.1651-253.732.6723-2.5499-1.1845-5.5729-.077-6.7574,2.4709-1.1826,2.5489-.0775,5.5744,2.4724,6.7579,41.4827,19.2676,85.9566,28.895,130.4365,28.895Z"/>
    <path class="cls-2" d="M1632.2132,967.3214c-1.1826,2.5489-.0775,5.5744,2.4724,6.7579,40.654,18.8831,94.6459,29.6577,152.0265,30.3389,1.902.0229,3.7981.0338,5.6902.0338,56.0689,0,107.8488-9.8897,146.3324-28.0121l10.0745-4.7446c2.542-1.1975,3.6311-4.2289,2.4347-6.7709-1.1965-2.541-4.2234-3.6341-6.7714-2.4352l-10.0745,4.7446c-78.1359,36.7948-213.4218,35.7036-295.4274-2.3835-2.5499-1.1855-5.5729-.077-6.7574,2.4709Z"/>
    <path class="cls-2" d="M108.8773,833.2632c52.0164,22.2106,114.9878,31.4683,176.3434,31.4683,65.0106,0,128.2046-10.3975,174.5904-26.7972.161-.0566.318-.1212.473-.1938l10.0765-4.7446c2.542-1.197,3.6311-4.2284,2.4347-6.7704-1.1965-2.5415-4.2234-3.6351-6.7714-2.4357l-9.844,4.6353c-88.3853,31.1667-238.639,40.171-343.3078-4.52-2.5817-1.1026-5.5729.0954-6.676,2.6811-1.105,2.5842.0954,5.5739,2.6811,6.6769Z"/>
    <path class="cls-2" d="M290.8055,933.9237c45.0145,0,90.0349-9.8683,131.9152-29.5901l10.0765-4.7446c2.542-1.197,3.6311-4.2284,2.4347-6.7704-1.1965-2.5415-4.2234-3.6336-6.7714-2.4357l-10.0765,4.7446c-80.5248,37.9207-173.0084,38.1641-253.732.6723-2.5499-1.184-5.5729-.077-6.7574,2.4714-1.1826,2.5484-.0775,5.5739,2.4724,6.7574,41.4847,19.2676,85.9586,28.895,130.4385,28.895Z"/>
    <path class="cls-2" d="M131.2783,952.9583c-1.1826,2.5484-.0775,5.5739,2.4724,6.7574,40.6559,18.8831,94.6459,29.6577,152.0285,30.3389,1.902.0229,3.7961.0338,5.6882.0338,56.0689,0,107.8488-9.8897,146.3324-28.0121l10.0745-4.7446c2.542-1.1975,3.6311-4.2289,2.4347-6.7709-1.1945-2.5415-4.2214-3.6336-6.7714-2.4352l-10.0745,4.7446c-78.1339,36.7958-213.4238,35.7026-295.4274-2.3835-2.548-1.1835-5.5729-.077-6.7574,2.4714Z"/>
  </g>
  <g>
    <polygon class="cls-2" points="1216.7685 229.909 1202.9074 229.909 1202.9074 275.1522 1236.7814 275.1522 1236.7814 263.5494 1216.7685 263.5494 1216.7685 229.909"/>
    <polygon class="cls-2" points="1242.6997 275.1522 1256.7944 275.1522 1256.7944 257.9427 1274.8605 257.9427 1274.8605 247.2743 1256.7944 247.2743 1256.7944 241.5119 1277.6639 241.5119 1277.6639 229.909 1242.6997 229.909 1242.6997 275.1522"/>
    <polygon class="cls-2" points="1288.3322 275.5416 1313.5625 275.5416 1313.5625 272.5046 1291.6807 272.5046 1291.6807 253.1147 1312.4723 253.1147 1312.4723 250.0777 1291.6807 250.0777 1291.6807 232.8681 1313.5625 232.8681 1313.5625 229.909 1288.3322 229.909 1288.3322 275.5416"/>
    <path class="cls-2" d="M1354.6786,259.6559c0,3.3485.1558,6.9305.3894,10.6684h-.3894l-27.4886-40.3373h-3.1927v45.399h2.9591v-29.5911c0-2.414-.1558-5.9961-.3894-10.8241h.1558l27.4886,40.5709h3.5042v-45.6326h-3.1927v29.7468h.1557Z"/>
    <polygon class="cls-2" points="1370.7979 275.5416 1396.0282 275.5416 1396.0282 272.5046 1374.1464 272.5046 1374.1464 253.1147 1394.8601 253.1147 1394.8601 250.0777 1374.1464 250.0777 1374.1464 232.8681 1396.0282 232.8681 1396.0282 229.909 1370.7979 229.909 1370.7979 275.5416"/>
    <path class="cls-2" d="M1431.9269,250.3113c1.7132-2.0247,2.414-4.6723,2.414-7.865,0-4.2829-1.4796-7.3199-4.1272-9.5003-2.8033-2.0247-7.0863-3.1927-12.693-3.1927h-11.0577v45.7883h3.1927v-20.0129l11.3692.1557,12.1479,19.7793h3.8936l-12.4593-20.7138c3.1927-.7008,5.6067-2.414,7.3199-4.4387ZM1418.4551,252.8811h-8.9552v-20.0129h7.4756c4.828,0,8.2543.7787,10.4348,2.414,2.0246,1.4796,3.1927,4.1272,3.1927,7.4756s-1.0902,5.7625-3.1927,7.4756c-1.8689,1.9468-5.0616,2.6476-8.9552,2.6476Z"/>
    <path class="cls-2" d="M1462.9197,254.9836h13.4717v15.4964c-2.9591,1.0902-6.5412,1.7132-10.6684,1.7132-6.5412,0-11.3692-1.7132-14.5619-5.0616-3.3485-3.3485-5.0616-8.4101-5.0616-15.107,0-6.1518,1.7132-11.0577,5.2174-14.5619,3.3485-3.7378,8.2543-5.451,14.1726-5.451,4.1272,0,8.2543.9345,12.1479,2.8034l1.3238-2.8034c-3.8936-1.7132-8.4101-2.8034-13.2381-2.8034-4.6723,0-8.5658.9345-12.1479,2.8034s-6.1519,4.6723-8.2543,8.2544c-1.8689,3.5821-2.8033,7.4756-2.8033,11.9922,0,7.3199,1.8689,12.9266,5.6067,16.8202s9.3446,5.9961,16.4308,5.9961c5.451,0,10.4348-.7787,14.7955-2.8034v-20.3244h-16.6645l.2336,3.037Z"/>
    <polygon class="cls-2" points="1514.9377 229.909 1501.466 254.5942 1487.9942 229.909 1484.2564 229.909 1499.597 257.9427 1499.597 275.1522 1502.9455 275.1522 1502.9455 257.5533 1518.2861 229.909 1514.9377 229.909"/>
    <g>
      <path class="cls-2" d="M1162.5701,383.627v2.7255c0,13.1602,5.7625,19.8572,17.7546,19.8572,10.902,0,16.353-7.7093,16.353-15.73,0-11.3692-5.7625-16.353-15.4185-19.2342l-11.8364-4.1272c-15.73-6.074-22.5827-14.2504-22.5827-29.669,0-19.7014,13.316-30.6034,33.6404-30.6034,27.7222,0,30.6034,17.2874,30.6034,28.5009v2.414h-17.2874v-2.2583c0-9.8118-4.3608-15.5743-15.1849-15.5743-7.3978,0-14.5619,4.1272-14.5619,15.5743,0,9.2667,4.6723,13.939,16.1972,18.2998l11.6807,4.205c15.2628,5.451,21.9597,13.7832,21.9597,28.6566,0,23.0499-13.939,32.5502-35.7429,32.5502-26.7877,0-32.8617-17.9104-32.8617-33.0174v-2.5698h17.2875Z"/>
      <path class="cls-2" d="M1227.8262,309.0263h58.4813v14.5619h-41.1939v29.9804h38.7799v14.5619h-38.7799v34.497h42.4399v14.5619h-59.7273v-108.1632Z"/>
      <path class="cls-2" d="M1327.19,309.0263h22.1155l28.5009,108.1632h-17.9882l-6.6969-26.4762h-31.6936l-6.9306,26.4762h-17.9882l30.6813-108.1632ZM1350.2399,376.8522l-12.3816-53.3418h-.3115l-12.8488,53.3418h25.5418Z"/>
      <path class="cls-2" d="M1388.3968,309.0263h34.2634c20.7137,0,29.8247,13.0045,29.8247,31.5379,0,19.3899-11.3692,31.9272-31.6936,31.9272h-15.1849v44.6981h-17.2874v-108.1632h.0779ZM1405.6843,359.409h12.3037c9.2667,0,17.2874-4.9838,17.2874-18.6112,0-11.6807-4.6723-18.767-18.4555-18.767h-11.0577v37.3782h-.0779Z"/>
      <path class="cls-2" d="M1478.9611,309.0263h22.1155l28.5009,108.1632h-17.9882l-6.6969-26.4762h-31.6936l-6.9306,26.4762h-18.0661l30.7592-108.1632ZM1502.011,376.8522l-12.3816-53.3418h-.3115l-12.8488,53.3418h25.5418Z"/>
      <path class="cls-2" d="M1546.5534,323.5103h-25.7754v-14.5619h68.2931v14.5619h-25.3082v93.6013h-17.2874v-93.6013h.0779Z"/>
      <path class="cls-2" d="M1601.9978,309.0263h17.2874v43.2964h31.7715v-43.2964h17.2874v108.1632h-17.2874v-50.3048h-31.7715v50.3049h-17.2874v-108.1632Z"/>
    </g>
    <polygon class="cls-2" points="1154.3157 247.8194 1144.9712 247.8194 1144.9712 275.1522 1172.4597 275.1522 1172.4597 266.1971 1154.3157 266.1971 1154.3157 247.8194"/>
    <polygon class="cls-2" points="1144.9712 243.1471 1154.16 243.1471 1154.16 238.7085 1181.6486 238.7085 1181.6486 266.1971 1177.132 266.1971 1177.132 275.1522 1190.7595 275.1522 1190.7595 229.5197 1144.9712 229.5197 1144.9712 243.1471"/>
    <path class="cls-2" d="M979.339,304.977c16.0415-10.9799,32.4723-21.804,64.5553-21.804,2.6476,0,5.1395.0779,7.5535.2336,11.7586-7.7871,24.9967-14.5619,48.1244-14.5619,1.4017,0,2.7255,0,4.0493.0779-18.767-35.8208-56.3009-60.2724-99.5195-60.2724-43.9973,0-82.0763,25.3082-100.454,62.1413,31.9272,6.6969,40.2595,29.669,75.6909,34.1855Z"/>
    <path class="cls-5" d="M979.339,304.977c-35.4314-4.4387-43.7637-27.4107-75.7688-34.2634-7.5535,15.107-11.9143,32.1608-11.9143,50.227,0,1.791.0779,3.5821.1557,5.3731,6.1518,1.0902,13.0824,1.791,20.8695,1.791,33.4847,0,49.9155-11.6807,66.6578-23.1278Z"/>
    <path class="cls-5" d="M1051.4478,283.4066c31.6936,1.791,46.8785,14.9513,64.3217,26.4762-1.4017-14.6398-5.6846-28.5009-12.2258-40.9603-1.3238-.0779-2.6476-.0779-4.0493-.0779-23.0499,0-36.2101,6.7748-48.0466,14.5619Z"/>
    <path class="cls-4" d="M1043.8943,283.173c-32.1608,0-48.5138,10.7462-64.5553,21.804-16.7423,11.4471-33.1732,23.2056-66.58,23.2056-7.7871,0-14.7177-.623-20.8695-1.791.2336,5.7625.9345,11.3692,2.1025,16.8202,7.0863-1.1681,14.8734-1.791,23.595-1.791,35.2757,0,55.3665,10.4347,73.3548,22.2712,23.9844-10.5905,34.5749-30.3698,73.9777-30.3698,23.2056,0,36.4438,6.8527,48.2802,14.7177,2.1804-8.6437,3.2706-17.7547,3.2706-27.0213,0-3.7378-.1558-7.3978-.5451-11.0577-17.4432-11.6028-32.6281-24.6852-64.3217-26.4762-2.5697-.2336-5.0616-.3115-7.7092-.3115Z"/>
    <path class="cls-5" d="M990.8639,363.6919c23.7507,15.6521,43.7637,33.7961,90.3307,33.7961,1.791,0,3.4263,0,5.1395-.0779,12.7709-13.7054,22.1155-30.6034,26.7099-49.3704-11.8364-7.7871-25.0746-14.7177-48.2802-14.7177-39.4029,0-49.9155,19.7793-73.8999,30.3698Z"/>
    <path class="cls-3" d="M990.8639,363.6919c-17.9883-11.8364-38.0791-22.2712-73.3548-22.2712-8.7216,0-16.5087.623-23.595,1.791,4.5165,22.3491,15.5743,42.2841,31.2264,57.7026,10.279-5.8403,22.4269-10.3569,41.2718-10.3569,43.7637,0,52.018,24.3737,82.3878,33.4846,14.3283-6.2297,27.0992-15.3407,37.534-26.632-1.7132.0779-3.3485.0779-5.1395.0779-46.567,0-66.6578-18.144-90.3307-33.7961Z"/>
    <path class="cls-4" d="M925.1405,400.8365c20.3244,20.0129,48.1245,32.3945,78.9615,32.3945,15.8857,0,30.9928-3.3485,44.6981-9.2667-30.4477-9.111-38.702-33.4847-82.3878-33.4847-18.8449.0779-31.0706,4.5165-41.2718,10.3569Z"/>
  </g>
</svg>