<?xml version="1.0" encoding="UTF-8"?>
<svg id="Calque_1" data-name="Calque 1" xmlns="http://www.w3.org/2000/svg" xmlns:xlink="http://www.w3.org/1999/xlink" viewBox="0 0 2560 1600">
  <defs>
    <style>
      .cls-1 {
        fill: url(#Dégradé_sans_nom_120);
        opacity: .31;
      }

      .cls-2 {
        fill: url(#Dégradé_sans_nom_144);
        opacity: .7;
      }

      .cls-3, .cls-4, .cls-5, .cls-6 {
        fill: #fff;
      }

      .cls-7 {
        opacity: .48;
      }

      .cls-4 {
        opacity: .7;
      }

      .cls-4, .cls-5, .cls-6 {
        isolation: isolate;
      }

      .cls-5 {
        opacity: .2;
      }

      .cls-6 {
        opacity: .5;
      }
    </style>
    <radialGradient id="Dégradé_sans_nom_120" data-name="Dégradé sans nom 120" cx="-1340" cy="774.1462" fx="-1340" fy="774.1462" r="1131.7308" gradientUnits="userSpaceOnUse">
      <stop offset="0" stop-color="#0084c4"/>
      <stop offset=".1621" stop-color="#057ab5" stop-opacity=".8174"/>
      <stop offset=".5713" stop-color="#126394" stop-opacity=".3806"/>
      <stop offset=".8601" stop-color="#1a547f" stop-opacity=".1061"/>
      <stop offset="1" stop-color="#1e4f77" stop-opacity="0"/>
    </radialGradient>
    <linearGradient id="Dégradé_sans_nom_144" data-name="Dégradé sans nom 144" x1="115.115" y1="166.0471" x2="2640.3516" y2="1545.2148" gradientUnits="userSpaceOnUse">
      <stop offset="0" stop-color="#1e4f77"/>
      <stop offset=".6448" stop-color="#0084c4"/>
      <stop offset="1" stop-color="#00a6dc"/>
    </linearGradient>
  </defs>
  <rect class="cls-1" x="-2690.3115" y="-85.0907" width="2700.6231" height="1718.4737"/>
  <g>
    <path class="cls-2" d="M-20.643-28.6617c.6148,115.9388-.6998,231.877-2.7906,347.8006-2.0993,116.3938-4.9749,232.7763-7.4319,349.1647-2.4508,116.1123-4.4822,232.2346-4.9209,348.3668-.2178,57.7982-.5221,115.5422-2.7582,173.3159-2.2106,57.138-5.5419,114.2392-8.9921,171.3309-4.8058,79.5298-9.8031,159.0786-12.4632,238.6829h2619.2685V-28.6617H-20.643Z"/>
    <g class="cls-7">
      <path class="cls-3" d="M2535.6544,1332.9793c-2.0373,1.8647-2.1783,5.0273-.3141,7.0671.2018.2206,14.475,15.9267,24.6597,32.5172v-17.9072c-8.505-11.7155-16.6395-20.6632-17.28-21.3636-1.8652-2.0368-5.0263-2.1763-7.0656-.3136Z"/>
      <path class="cls-3" d="M2518.6483,1308.7599c16.4229,0,31.1928,7.1855,41.3517,18.5697v-13.7747c-11.2792-9.2327-25.6718-14.7951-41.3517-14.7951h-12.323c-2.7621,0-5.0008,2.2384-5.0008,5.0004v29.4743c0,22.8256,11.7561,42.9466,29.5222,54.6584h-183.5674l-72.4646-231.0762h90.5975v19.1351h-4.8834c-2.7624,0-5.0012,2.2384-5.0012,5.0004s2.2388,4.9997,5.0012,4.9997h19.7692c2.7628,0,5.0012-2.2376,5.0012-4.9997s-2.2384-5.0004-5.0012-5.0004h-4.883v-19.1351h29.9509c2.1689,0,4.0917-1.3988,4.7587-3.4618.6673-2.0646-.0726-4.3223-1.8321-5.5936l-134.5711-97.1447,91.6908.2472v18.1658h-4.8834c-2.7624,0-5.0012,2.2384-5.0012,5.0004s2.2388,5.0004,5.0012,5.0004h19.7692c2.7628,0,5.0012-2.2376,5.0012-5.0004s-2.2384-5.0004-5.0012-5.0004h-4.883v-18.138l29.9366.0803h.0143c2.1279,0,4.0237-1.3463,4.7231-3.3568.7009-2.0144.0475-4.2528-1.6286-5.5728l-136.5615-107.5634c-.0911-.1166-.1487-.2526-.2522-.3622l-80.5059-85.4747c-.9531-1.0141-2.3006-1.5046-3.68-1.5718-1.3915.01-2.7153.5994-3.6538,1.6274l-77.3441,84.6961c-.0765.0417-.1475.1004-.2232.1452-.0985.0602-.1946.1236-.2881.1916-.0541.0386-.112.0672-.1645.1074l-137.04,107.0212c-1.6803,1.3115-2.3434,3.5453-1.6521,5.5612.6909,2.0159,2.5848,3.3738,4.7166,3.3792l31.0739.0826v19.1475h-4.8834c-2.7621,0-5.0008,2.2384-5.0008,5.0004s2.2388,5.0004,5.0008,5.0004h19.7696c2.7617,0,5.0008-2.2376,5.0008-5.0004s-2.2391-5.0004-5.0008-5.0004h-4.8838v-19.1181l88.3761.2379-137.3107,97.5903c-1.7738,1.2605-2.5284,3.5244-1.868,5.5959.6627,2.0746,2.589,3.4811,4.7652,3.4811h36.0349v19.1351h-4.8834c-2.7621,0-5.0008,2.2384-5.0008,5.0004s2.2388,4.9997,5.0008,4.9997h19.7696c2.7617,0,5.0008-2.2376,5.0008-4.9997s-2.2391-5.0004-5.0008-5.0004h-4.8838v-19.1351h89.1257l-34.9196,109.0664c-.0058.0178-.0108.0359-.0166.0525l-39.0445,121.9572h-133.1854v-38.9866h59.5854c3.0625,0,5.9115-1.5185,7.6219-4.0589,1.7097-2.5404,2.0422-5.7516.8875-8.5905l-19.4151-47.7289c-.0015-.005-.0031-.01-.0054-.0147l-9.7861-24.0575c-1.4135-3.4792-4.754-5.7245-8.5094-5.7245h-156.0585c-3.5901,0-6.8719,2.1078-8.3595,5.3723l-32.7538,71.8038c-1.3022,2.8559-1.0667,6.1382.6318,8.7793,1.6985,2.6404,4.5864,4.2196,7.727,4.2196h62.1756v39.043h-115.0478c17.4845-11.7592,29.0132-31.7231,29.0132-54.332v-29.4724c0-2.7617-2.2384-5.0004-5.0012-5.0004h-12.3242c-22.1775,0-41.8,11.1011-53.64,28.0292-11.8098-17.1454-31.5675-28.4138-53.9157-28.4138h-12.3227c-2.7628,0-5.002,2.2384-5.002,5.0004v29.4743c0,22.8623,11.7951,43.0111,29.6102,54.7147h-38.3614l-72.4831-231.1326h90.5979v19.1351h-4.8838c-2.7621,0-5.0012,2.2384-5.0012,5.0004s2.2391,4.9997,5.0012,4.9997h19.7692c2.7621,0,5.0012-2.2376,5.0012-4.9997s-2.2391-5.0004-5.0012-5.0004h-4.8838v-19.1351h29.9516c2.1689,0,4.0913-1.3988,4.7587-3.4618.6673-2.0646-.0726-4.3223-1.8313-5.5936l-134.5722-97.1447,91.6916.2472v18.1658h-4.8838c-2.7621,0-5.0012,2.2384-5.0012,5.0004s2.2391,5.0004,5.0012,5.0004h19.7692c2.7621,0,5.0012-2.2376,5.0012-5.0004s-2.2391-5.0004-5.0012-5.0004h-4.8838v-18.138l29.9377.0803h.0139c2.1279,0,4.0241-1.3463,4.7231-3.3568.7006-2.0144.0479-4.2528-1.629-5.5728l-136.5611-107.5634c-.0911-.1166-.1483-.2526-.2526-.3622l-80.5059-85.4747c-.9524-1.0141-2.3002-1.5046-3.6804-1.5718-1.3903.01-2.7149.5994-3.6526,1.6274l-77.3437,84.6961c-.0772.0417-.1483.1004-.2232.1452-.0981.0602-.1954.1236-.2889.1916-.0541.0386-.112.0672-.1645.1074l-137.04,107.0212c-1.6807,1.3115-2.3434,3.5453-1.6521,5.5612.6905,2.0159,2.5844,3.3738,4.717,3.3792l31.0739.0826v19.1475h-4.8838c-2.7621,0-5.0012,2.2384-5.0012,5.0004s2.2391,5.0004,5.0012,5.0004h19.7692c2.7621,0,5.0012-2.2376,5.0012-5.0004s-2.2391-5.0004-5.0012-5.0004h-4.883v-19.1181l88.3757.2379-137.3111,97.5903c-1.7734,1.2605-2.528,3.5244-1.8676,5.5959.6619,2.0746,2.589,3.4811,4.7641,3.4811h36.0365v19.1351h-4.8838c-2.7621,0-5.0012,2.2384-5.0012,5.0004s2.2391,4.9997,5.0012,4.9997h19.7692c2.7621,0,5.0012-2.2376,5.0012-4.9997s-2.2391-5.0004-5.0012-5.0004h-4.883v-19.1351h89.1257l-34.9196,109.0664c-.0062.0178-.0108.0359-.017.0525l-39.0619,122.0136h-212.9556c-.0015,0-.0039.0012-.0046.0012h-33.7016c-.0216-.1406-.0193-.2811-.0548-.4217l-12.9861-91.273c6.3065,7.7915,14.8406,15.2125,25.9723,21.5199,29.3105,17.0686,56.7674,13.3569,68.6397,10.7601,6.3073-1.4841,10.3901-8.1614,8.1618-14.4695-3.3398-11.502-14.0992-37.1024-43.4105-54.1706-19.2919-11.1309-37.8446-13.3569-51.5731-12.985,4.8243-10.7609,8.9064-24.1186,8.9064-40.443,0-30.4548-13.2773-51.1316-22.2046-61.304,16.3707,1.9704,33.3038,3.1019,50.5543,3.3058,1.9086.0239,3.811.0348,5.7103.0348,56.2661,0,108.2284-9.9236,146.8478-28.111l10.1098-4.761c2.5512-1.2018,3.6441-4.2427,2.4438-6.7955-1.2011-2.5504-4.2389-3.6464-6.7955-2.4423l-10.1098,4.7602c-78.4089,36.924-214.1721,35.8295-296.4684-2.3905-2.5566-1.1887-5.5921-.0772-6.7808,2.4794-1.1864,2.5574-.078,5.5936,2.4809,6.7816,23.5045,10.9169,51.4665,19.1143,81.9456,24.2499-8.6252,9.1142-24.8917,30.8538-24.8917,64.1927,0,16.3256,3.7113,30.0532,8.9056,40.443-13.3577,0-30.7958,2.596-48.6048,12.985-28.9383,17.0643-39.3253,42.6659-43.0366,54.1667-1.8553,6.3073,1.8553,12.9865,8.5341,14.4703v.0019c11.8716,2.9698,38.9577,6.3073,68.6397-10.7597,10.7601-6.3065,19.2927-13.7276,25.6015-21.1468l-13.3561,90.9007c-.0185.1406-.0077.28-.0139.4217h-115.4402l-72.7944-230.817h91.4653v18.9389h-2.9598c-2.9598,0-4.7324,2.3674-4.7324,4.7347s2.3658,4.7324,4.7324,4.7324h15.9791c2.9606,0,4.734-2.365,4.734-4.7324.0031-2.3674-1.7734-4.7347-4.734-4.7347h-3.5514v-18.345l34.5952-.0023c.5916,0,1.1841,0,2.3674-.5916,0,0,.5916,0,.5916-.5916.5916,0,.5916-.5916,1.1841-1.1841v-.5901s.5916-.5916.5916-1.1856v-.5916l.0015.0062v-2.3689q0-.5916-.5901-.5916l-1.1833-1.1833-137.3041-98.243,90.0858.0062v17.7533h-2.959c-2.9606,0-4.7332,2.3674-4.7332,5.3272s2.3666,5.3272,4.7332,5.3272h15.9791c2.9598,0,4.734-2.3666,4.734-5.3272s-2.3666-5.3272-4.734-5.3272h-3.5522v-17.7533l34.7945-.0062c.5909,0,1.1841,0,2.3674-.5909,0,0,.5909,0,.5909-.5916.5916,0,.5916-.5909,1.1841-1.1825v-.5932c0-.5916.5916-.5916.5916-1.1841v-4.1415l-1.1825-1.1825-143.2276-108.9027-79.8988-88.1857s-.5901,0-.5901-.5909l-.5932-.5924h-4.1423c-.5932,0-.5932.5924-.5932.5924,0,0-.5901,0-.5901.5909l-80.4904,88.1857-141.4495,108.8973-1.1825,1.1818v4.1423q0,.5916.5916,1.1848v.5916q.5909.5901,1.1841,1.1841s.5901,0,.5901.5909c.5916,0,1.1856.5924,1.7765.5924h35.329v17.7533h-2.9606c-2.9598,0-5.3264,2.3674-5.3264,5.3272s2.3666,5.3272,5.3264,5.3272h15.9799c2.9598,0,5.3272-2.3666,5.3272-5.3272s-2.3674-5.3272-5.3272-5.3272l-2.9606.0023v-17.7549h88.3657l-136.7133,97.6529-1.1825,1.1818s0,.5916-.5916.5916v3.5522q0,.5909.5916,1.1841v.5909l1.1833,1.1841s.5924,0,.5924.5916c.5901.5916,1.1841.5916,2.3666.5916l35.312-.611-.0023,18.3465h-2.959c-2.9606,0-5.3272,2.3681-5.3272,4.7347s2.3666,4.7332,5.3272,4.7332h15.9784c2.9598,0,5.3279-2.3658,5.3279-4.7332.0008-2.3666-2.9582-4.7347-5.918-4.7347h-2.3681v-18.345l88.9728.611-72.7944,230.2215-145.6305-.4225.0996-39.5825,80.1243.4333c4.1369.0189,7.9981-2.0001,10.3299-5.4059,2.3596-3.4479,2.8069-7.73,1.2026-11.8036l-30.6128-70.5664c-2.0005-4.5922-6.3444-7.4578-11.3363-7.4817l-159.3983-.7538c-5.0112-.0247-9.3868,2.8026-11.4197,7.3759l-30.2652,67.9766c-3.7167-.8222-7.7416-1.5857-11.982-2.2716-1.2544-.1966-2.5087.1039-3.5306.8608-.6063.4472-1.0875,1.0219-1.4127,1.6757l-.2487-.0008-.2055,1.4374c-3.3074,23.1519-1.2042,42.6419,6.2046,58.065h-122.971L-.7834,1156.8167h90.5971v19.1351h-4.8838c-2.7621,0-5.0004,2.2384-5.0004,5.0004s2.2384,4.9997,5.0004,4.9997h19.7692c2.7628,0,5.0012-2.2376,5.0012-4.9997s-2.2384-5.0004-5.0012-5.0004h-4.883v-19.1351h29.9509c2.1696,0,4.0913-1.3988,4.7594-3.4618.6666-2.0646-.0734-4.3223-1.8321-5.5936L-1.8779,1050.6166l91.6916.2472v18.1658h-4.8838c-2.7621,0-5.0004,2.2384-5.0004,5.0004s2.2384,5.0004,5.0004,5.0004h19.7692c2.7628,0,5.0012-2.2376,5.0012-5.0004s-2.2384-5.0004-5.0012-5.0004h-4.883v-18.138l29.9369.0803h.0139c2.1279,0,4.0234-1.3463,4.7231-3.3568.7013-2.0144.0479-4.2528-1.629-5.5728L-3.6999,934.4789c-.0919-.1166-.1491-.2526-.2518-.3622l-31.7451-33.7039c-.0209,4.839-.051,9.678-.068,14.517l16.5916,17.6151h-16.6588c-.0124,3.4116-.0232,6.8233-.0363,10.2341h12.6077l-12.6471,8.9883c-.0185,4.1045-.0371,8.2089-.0587,12.3134l23.3724-16.611v93.1159l-3.1923-.0093-20.6884-14.9349c-.0494,4.0736-.1058,8.1464-.1637,12.2192l3.699,2.6694-3.7345-.01c-.0502,3.4842-.105,6.9677-.163,10.4519h12.6934l-12.8471,8.5449c-.0734,4.0535-.1367,8.1077-.2209,12.1612l24.6175-16.3723v87.1778l-26.0696-17.3378c-.1313,3.9129-.2734,7.8251-.4125,11.738l14.9326,9.9321h-15.2824c-.1244,3.3336-.2611,6.6672-.3901,10.0009h13.8891l-14.215,8.3789c-.1576,3.9647-.3167,7.9301-.4804,11.8948l30.1424-17.7664,30.3834,96.8859-62.3741-36.829c-.1738,3.7681-.353,7.5354-.5299,11.3031l60.783,35.889-63.9938,29.297c-.1923,3.7553-.387,7.5107-.5801,11.266l72.2869-33.0933,34.0059,108.44-107.6399-49.291c-.1861,3.5816-.3715,7.1635-.5577,10.7451l95.1032,43.5495H-50.9461c-.1599,3.115-.3213,6.2293-.4797,9.3443h251.456c10.4504,14.6684,26.7346,23.6914,48.6048,26.8173l9.8703.8558.122-.007c26.54-1.5513,46.327-10.8818,58.8265-27.7353l5.3789.0266,180.9548.6303h592.6572c.1236,0,.2325-.0278.3507-.0367h526.0743c4.1771.8388,8.4939,1.286,12.9128,1.286,1.802,0,9.1543.3827,11.3379.3827,5.029,0,9.919-.5893,14.6259-1.6687h225.4165c.0286.0012.0548.0089.0834.0089h666.6468c2.004.4016,4.0423.7075,6.1069.9218v-10.4195h-2.4214c-26.2102-4.3883-46.2521-27.2208-46.2521-54.6584v-24.4746h7.3218ZM-2.5916,948.0838l117.8763,92.8479-117.8763-.3182v-92.5296ZM-2.5916,1062.438l116.8861,84.3779H-2.5916v-84.3779ZM440.0402,1334.755c.414.9211.3236,1.9874-.2371,2.8489-.5623.8635-1.4938,1.3555-2.5551,1.3505l-61.6419-.292-3.6047-19.1695,61.5446.3028,6.4942,14.9592ZM421.1407,1291.168l8.3217,19.1795-59.2297-.28-3.6032-19.1575,54.5112.258ZM406.7403,1262.5418c1.3092.007,2.1928.5944,2.7582,1.8112l7.5408,17.3779-52.1917-.2483-3.6032-19.1676,45.4959.2267ZM302.4179,1262.0371l49.2474.2325,3.6032,19.1695-56.6353-.2672,3.7847-19.1347ZM296.7733,1290.5795l60.2763.285,3.6024,19.1575-67.6626-.3205,3.7839-19.122ZM244.5669,1263.5637c.5175-1.1744,1.4753-1.7935,2.7713-1.7888l45.4975.2159-3.7847,19.1359-52.191-.2476,7.7069-17.3154ZM232.6806,1290.2751l54.5135.258-3.7855,19.1228-59.232-.2796,8.504-19.1011ZM219.9934,1318.7747l61.5453.29-3.7847,19.134-41.7359-.1981c-6.1073-3.0714-13.1754-5.7462-21.0421-7.9622l5.0174-11.2637ZM257.8102,1403.5781c-6.485-14.5823-17.1787-30.0856-29.2928-42.3168-2.1426-2.1523-5.0159-1.6004-6.6356.0054-1.6174,1.6062-2.1882,4.4771-.0556,6.6286,13.6635,13.7941,24.8292,31.0789,30.2552,46.7225-18.9212-2.2542-33.2822-9.3343-42.7068-21.0614-10.9702-13.6527-15.1218-33.1613-12.3505-58.009,28.8039,5.2785,47.1728,14.712,56.1255,28.8205,6.529,10.2882,8.0923,23.4605,4.6606,39.2102ZM250.6108,1347.4885l20.442.0969c-3.8318,3.9106-6.9345,8.2066-9.2671,12.8301-2.8694-4.7293-6.6109-9.0562-11.1749-12.9271ZM317.6409,1376.3206c-7.4481,21.7288-26.2264,35.2575-53.0251,38.2865,1.0698-3.4997,1.958-6.9275,2.6454-10.2225,3.9361-6.7785,8.7349-14.6348,14.5309-21.7624,5.857-7.1986,12.145-13.0043,19.7839-18.2743,1.4196-.9802,2.1596-2.479,2.0291-4.1122-.1375-1.7309-1.2405-3.3305-2.8076-4.0755-1.4799-.7006-3.1436-.543-4.5594.436-10.6134,7.3157-19.1776,15.9112-27.2907,27.4703-.2425-3.9114-.8489-7.6625-1.8136-11.205,2.4222-9.856,8.7728-18.5593,18.3874-25.1941,9.4919-6.529,21.6145-10.7648,34.2863-11.9983.4248,2.5929.7608,5.1568.9956,7.5984.8821,15.4945.7284,19.3603-3.1622,33.0531ZM287.9094,1335.3092l3.207-16.2078,71.3068.3371,3.6047,19.1676-36.33-.1722c-.3669-2.7984-.8311-5.6288-1.3718-8.37-.3236-2.4048-2.4315-4.1261-4.856-4.0604-12.4926.5557-24.9775,3.8388-35.5607,9.3057ZM347.5477,1387.4862l-24.3402-.1147c.7932-1.5965,1.5371-3.2614,2.2237-4.9807,0,0,2.0476-5.0568,2.966-9.4115,1.8699-7.7339,2.5914-16.1661,2.1526-25.1219l17.1084.0278-.1105,39.6011ZM747.6318,945.85l123.6908,94.1022h-123.6908v-94.1022ZM747.6279,1060.0791l122.5106,87.5902h-122.5106v-87.5902ZM739.9326,1157.1326l31.9614,100.6142-99.4301-60.3682,66.8771-40.246h.5916ZM663.5899,999.1161l56.8183,40.8361h-114.2237l57.4053-40.8361ZM662.9982,986.6869l-64.509-46.1625h128.4271l-63.9181,46.1625ZM726.9164,1050.6073l-64.5082,41.4285-65.1006-41.4285h129.6089ZM738.1615,1055.342v84.6304l-65.6961-42.0209,65.6961-42.6095ZM653.5303,1097.9531l-65.0991,42.0217-.0015-83.4487,65.1006,41.427ZM662.4081,1103.8711l67.4665,43.205h-134.3436l66.8771-43.205ZM719.8127,1157.1365l-56.8145,34.3264-56.8137-34.3264h113.6282ZM769.5259,1267.2167l-106.5292,48.531-106.5292-48.531,106.5292-64.509,106.5292,64.509ZM738.1615,1040.5454l-66.2863-47.3481,66.2863-47.3473v94.6954ZM662.9967,855.3015l68.6536,75.7549-137.3049-.0023,68.6513-75.7526ZM587.8349,945.85l66.287,47.3473-65.6961,47.3465h-.5909v-94.6939ZM455.8556,1039.9522l122.5098-94.1022v94.1022h-122.5098ZM456.4481,1147.6693l121.3235-86.9994v86.9994h-121.3235ZM585.4684,1157.7304l1.1825-.0023-.0015-.5916,66.8764,40.2452-99.4255,60.369,31.3682-100.0203ZM548.7722,1274.91l102.3892,46.1629-136.714,62.1409,34.3249-108.3037ZM529.2417,1387.3619l133.755-60.3694,133.755,60.3694h-267.5101ZM675.4267,1321.6665l102.3876-46.1648,33.7348,107.7159-136.1224-61.5511ZM991.8914,1258.4107c11.8716-.37,27.826,1.8557,44.8919,11.502,25.9738,15.2122,35.2487,37.4739,38.2169,47.491v.3711h-.3723c-10.3894,2.5968-34.1333,5.5654-60.4771-9.2752-13.7276-7.7922-22.6317-17.8101-28.5683-26.7142,4.0805-4.4517,6.6796-10.7601,6.6796-17.4374.37-2.2268,0-4.0817-.3707-5.9373ZM966.2891,1149.7007c7.7918,7.7903,22.2617,26.7122,22.2617,57.1369,0,14.4707-3.3398,26.3434-7.7918,35.6186-4.0805-2.5968-8.9048-4.4517-14.0992-4.4517-5.5658,0-10.3894,1.856-14.8414,4.4517-4.452-9.2752-7.7918-21.521-7.7918-35.9894,0-30.0532,14.8414-49.3474,22.2625-56.7662ZM920.2811,1308.4996c-25.9715,15.2125-50.0885,11.8727-60.4771,9.276.7423,0,.3715,0,.3715-.3707v-.0012c2.9683-10.0159,12.2439-32.6496,38.2162-47.4902,15.9544-9.276,31.1658-11.5028,42.6674-11.5028-.3707,1.8557-.7407,3.7117-.7407,5.9362,0,7.4215,2.9675,14.0999,7.7903,18.5512-5.9358,8.5341-14.8406,18.1812-27.8276,25.6015ZM951.8185,1263.9761c0-8.1622,6.6788-14.8414,14.8414-14.8414s14.8406,6.6792,14.8406,14.8414-6.6788,14.8406-14.8406,14.8406-14.8414-6.6784-14.8414-14.8406ZM949.7431,1387.9504l13.9478-98.0039h2.5968c1.4853,0,2.9698,0,4.4528-.3711l13.9485,98.3751h-34.9459ZM1487.3059,948.0838l117.8778,92.8479-117.8778-.3182v-92.5296ZM1487.3059,1062.438l116.8876,84.3779h-116.8876v-84.3779ZM1509.8009,1256.2098l-97.293-57.4471,66.9103-39.4389,30.3826,96.8859ZM1456.958,1040.53l-110.1741-.2981,55.3083-39.3068,54.8657,39.6049ZM1338.6353,942.779h128.0031l-64.4997,45.8419-63.5033-45.8419ZM1465.7547,1050.9719l-63.0198,41.9159-63.0198-41.9159h126.0397ZM1477.3034,1055.3057v87.1778l-65.5378-43.5881,65.5378-43.5897ZM1465.7547,1146.8158h-126.0397l63.0198-41.9151,63.0198,41.9151ZM1463.9705,1156.8167l-61.3036,36.1342-61.1962-36.1342h122.4998ZM1507.6814,1266.5729l-105.7135,48.3962-105.0245-48.0915,105.7197-62.3119,105.0184,62.0072ZM1477.3034,1040.5856l-3.1915-.0093-63.4083-45.7732,66.5998-47.3334v93.1159ZM1401.8559,859.4245l68.8683,73.1203h-135.642l66.7736-73.1203ZM1328.1656,947.557l65.3609,47.1828-63.9421,45.4457-1.4189-.0039v-92.6246ZM1328.1656,1055.3057l65.5386,43.5897-65.5386,43.5897v-87.1793ZM1200.6035,1039.8364l117.5596-91.8067v92.1249l-117.5596-.3182ZM1196.8196,1146.8158l121.3435-86.2424v86.2424h-121.3435ZM1326.0168,1159.3077l66.8053,39.447-97.9109,57.7101,31.1056-97.157ZM1289.1917,1274.3292l100.7625,46.1412-135.3763,61.9736,34.6138-108.1149ZM1266.5855,1387.9493l135.3809-61.9786,135.3492,61.9786h-270.7301ZM1413.9801,1320.4704l101.4136-46.4278,34.0059,108.44-135.4195-62.0122ZM1643.104,1377.3683c-10.2426-20.8541-30.3378-42.9575-31.3597-44.0755-1.8653-2.0368-5.0267-2.1762-7.065-.3136-2.0383,1.8649-2.1789,5.0275-.3151,7.067.2657.2889,24.7936,27.2707,32.4673,47.9031h-9.9151c-26.3647-4.2578-46.5657-27.1683-46.5657-54.7147v-24.4746h7.3222c30.5657,0,55.4311,24.8674,55.4311,55.4327v13.1758ZM1658.008,1387.9493h-4.8545c-.2194-1.4077-.0471-4.5721-.0471-6.6062v-7.1434c10.2202-17.0435,25.2246-33.5417,25.4308-33.7684,1.8638-2.0399,1.7232-5.2024-.3144-7.067-2.0399-1.8661-5.2013-1.7232-7.065.3136-.6712.7338-9.5629,10.5176-18.4902,23.048-.794-6.9534-2.6833-13.5743-5.4894-19.6947,9.5784-16.6391,27.5132-27.8866,48.0502-27.8866h7.3238v24.4727c0,26.837-19.1776,49.257-44.5443,54.332ZM1924.9025,1268.3961l6.9847,17.1729h-48.5839l-3.4163-17.1729h45.0155ZM1884.1243,1339.2402h-74.7871l3.4889-17.1713h67.882l3.4163,17.1713ZM1823.736,1268.3961h46.2946l3.4155,17.1729h-53.2012l3.4912-17.1729ZM1818.2814,1295.2339h57.0879l3.4163,17.1694h-63.9946l3.4904-17.1694ZM1769.4758,1268.3961h44.3953l-3.4904,17.1729h-48.7376l7.8328-17.1729ZM1799.4715,1339.2402h-62.31l7.8328-17.1713h57.9676l-3.4904,17.1713ZM1749.4022,1312.4033l7.832-17.1694h51.1822l-3.4904,17.1694h-55.5238ZM1885.1802,1387.9493h-76.9243v-39.043h76.9243v39.043ZM1885.2257,1295.2339h50.5921l6.9847,17.1694h-54.1598l-3.417-17.1694ZM1890.5652,1322.0689h56.1688l6.9843,17.1713h-59.7376l-3.4155-17.1713ZM2273.0072,948.0838l117.8767,92.8479-117.8767-.3182v-92.5296ZM2273.0072,1062.438l116.8865,84.3779h-116.8865v-84.3779ZM2295.5019,1256.2098l-97.2933-57.4471,66.9103-39.4389,30.383,96.8859ZM2242.6594,1040.53l-110.1744-.2981,55.3079-39.3068,54.8665,39.6049ZM2124.3359,942.779h128.0019l-64.4993,45.8419-63.5026-45.8419ZM2251.4561,1050.9719l-63.0198,41.9159-63.021-41.9159h126.0408ZM2263.0048,1055.3057v87.1778l-65.5386-43.5881,65.5386-43.5897ZM2251.4561,1146.8158h-126.0408l63.021-41.9151,63.0198,41.9151ZM2249.6715,1156.8167l-61.304,36.1342-61.1958-36.1342h122.4998ZM2293.382,1266.5729l-105.7139,48.3962-105.0245-48.0915,105.7201-62.3119,105.0184,62.0072ZM2263.0048,1040.5856l-3.1923-.0093-63.4087-45.7732,66.601-47.3334v93.1159ZM2187.5565,859.4245l68.8683,73.1203h-135.6416l66.7732-73.1203ZM2113.8666,947.557l65.3613,47.1828-63.9432,45.4457-1.4181-.0039v-92.6246ZM2113.8666,1055.3057l65.5382,43.5897-65.5382,43.5897v-87.1793ZM1986.3041,1039.8364l117.5604-91.8067v92.1249l-117.5604-.3182ZM1982.5202,1146.8158l121.3443-86.2424v86.2424h-121.3443ZM2111.7174,1159.3077l66.8053,39.447-97.9101,57.7101,31.1048-97.157ZM2074.8923,1274.3292l100.7625,46.1412-135.3755,61.9736,34.613-108.1149ZM2052.4089,1387.8929l135.2581-61.9223,135.2268,61.9223h-270.4849ZM2199.6807,1320.4704l101.4136-46.4278,34.0059,108.44-135.4195-62.0122Z"/>
      <path class="cls-3" d="M2560,801.2911l-196.1533,78.5157c-2.5636,1.0278-3.81,3.9382-2.7842,6.5032.7825,1.9537,2.6606,3.1428,4.645,3.1428.6183,0,1.2479-.1167,1.8573-.3591l192.4353-77.0279v-10.7748Z"/>
      <path class="cls-3" d="M2560,935.4237l-97.1223,35.9518c-2.6704.7053-4.2641,3.4406-3.5603,6.1115.5916,2.2446,2.617,3.7274,4.8329,3.7274.4219,0,.8502-.0534,1.2786-.1652l94.5711-35.0081v-10.6175Z"/>
      <path class="cls-3" d="M2560,1090.5381l-68.1955,7.7388c-2.7441.3106-4.7167,2.7887-4.4056,5.5328.2898,2.5532,2.4533,4.4367,4.963,4.4367.1889,0,.3779-.0109.5698-.0326l67.0683-7.6112v-10.0645Z"/>
      <path class="cls-3" d="M849.944,991.041c47.9473,22.8393,110.5261,32.6292,173.2566,32.6292,64.9124,0,129.9843-10.4895,179.1044-27.8559.1616-.0568.3191-.1217.4747-.1945l10.11-4.7613c2.5509-1.2017,3.6439-4.2438,2.4432-6.7947-1.1987-2.5509-4.2403-3.6474-6.7952-2.4437l-9.8767,4.6516c-94.6541,33.3841-249.2303,40.848-344.3252-4.4502-2.543-1.2131-5.5925-.1316-6.8052,2.4138-1.2126,2.546-.1316,5.593,2.4133,6.8057Z"/>
      <path class="cls-3" d="M1170.842,1048.4477l-10.11,4.7613c-80.8084,38.0542-173.6156,38.2985-254.6254.6746-2.5589-1.1882-5.5925-.0773-6.7812,2.4801-1.1867,2.5574-.0778,5.5935,2.4811,6.7812,41.6308,19.3355,86.2613,28.9968,130.8978,28.9968,45.173,0,90.352-9.9031,132.3797-29.6943l10.11-4.7613c2.5509-1.2017,3.6439-4.2438,2.4432-6.7947-1.1987-2.5504-4.2363-3.6459-6.7952-2.4437Z"/>
      <path class="cls-3" d="M1606.7657,1005.6591c47.2951,16.7287,119.5332,26.8068,191.1391,26.8068,58.7175,0,117.0182-6.7827,160.7312-22.2375.1616-.0568.3191-.1217.4747-.1945l10.11-4.7608c2.5509-1.2012,3.6439-4.2433,2.4432-6.7947-1.2007-2.5494-4.2383-3.6469-6.7952-2.4437l-9.8767,4.6511c-95.1108,33.5123-260.4213,25.1988-344.8198-4.6541-2.6666-.9404-5.5786.4527-6.516,3.1109-.9414,2.6586.4508,5.5761,3.1094,6.5165Z"/>
      <path class="cls-3" d="M1789.0333,1106.5559c45.173,0,90.354-9.9031,132.3817-29.6943l10.11-4.7613c2.5509-1.2017,3.6439-4.2438,2.4432-6.7947-1.2007-2.5504-4.2383-3.6464-6.7952-2.4437l-10.11,4.7613c-80.8084,38.0537-173.6136,38.2995-254.6254.6746-2.5589-1.1887-5.5925-.0773-6.7812,2.4796-1.1867,2.5579-.0778,5.594,2.4811,6.7817,41.6288,19.3355,86.2593,28.9968,130.8958,28.9968Z"/>
      <path class="cls-3" d="M1628.9463,1125.657c-1.1867,2.5579-.0778,5.594,2.4811,6.7817,40.7971,18.9496,94.9792,29.7621,152.5618,30.4457,1.9087.0229,3.8115.0339,5.7102.0339,56.2663,0,108.2285-9.9245,146.8476-28.1107l10.11-4.7613c2.5509-1.2017,3.6439-4.2438,2.4432-6.7947-1.2007-2.5499-4.2383-3.6469-6.7952-2.4437l-10.11,4.7613c-78.411,36.9243-214.1733,35.8294-296.4676-2.3919-2.5589-1.1897-5.5925-.0773-6.7812,2.4796Z"/>
      <path class="cls-3" d="M100.2467,991.1268c52.1995,22.2888,115.3927,31.5791,176.9643,31.5791,65.2395,0,128.656-10.4341,175.2052-26.8916.1616-.0568.3191-.1217.4747-.1945l10.112-4.7613c2.5509-1.2012,3.6439-4.2433,2.4432-6.7942-1.2007-2.5504-4.2383-3.6479-6.7952-2.4442l-9.8787,4.6516c-88.6966,31.2764-239.4793,40.3124-344.5166-4.5359-2.5908-1.1064-5.5925.0957-6.6995,2.6906-1.1089,2.5933.0957,5.5935,2.6906,6.7005Z"/>
      <path class="cls-3" d="M282.8154,1092.1418c45.173,0,90.352-9.9031,132.3797-29.6943l10.112-4.7613c2.5509-1.2012,3.6439-4.2433,2.4432-6.7942-1.2007-2.5504-4.2383-3.6464-6.7952-2.4442l-10.112,4.7613c-80.8084,38.0542-173.6176,38.2985-254.6254.6746-2.5589-1.1882-5.5925-.0773-6.7812,2.4801-1.1867,2.5574-.0778,5.5935,2.4811,6.7812,41.6308,19.3355,86.2613,28.9968,130.8978,28.9968Z"/>
      <path class="cls-3" d="M122.7264,1111.2434c-1.1867,2.5574-.0778,5.5935,2.4811,6.7812,40.7991,18.9496,94.9792,29.7621,152.5638,30.4457,1.9087.0229,3.8095.0339,5.7082.0339,56.2663,0,108.2285-9.9245,146.8476-28.1107l10.11-4.7613c2.5509-1.2017,3.6439-4.2438,2.4432-6.7947-1.1987-2.5504-4.2363-3.6464-6.7952-2.4437l-10.11,4.7613c-78.409,36.9253-214.1753,35.8284-296.4676-2.3919-2.5569-1.1877-5.5925-.0773-6.7812,2.4801Z"/>
    </g>
    <g>
      <polygon class="cls-3" points="1211.4579 228.3413 1197.5481 228.3413 1197.5481 273.7438 1231.5413 273.7438 1231.5413 262.1002 1211.4579 262.1002 1211.4579 228.3413"/>
      <polygon class="cls-3" points="1237.4804 273.7438 1251.6247 273.7438 1251.6247 256.4737 1269.7545 256.4737 1269.7545 245.7678 1251.6247 245.7678 1251.6247 239.985 1272.5677 239.985 1272.5677 228.3413 1237.4804 228.3413 1237.4804 273.7438"/>
      <polygon class="cls-3" points="1283.2737 274.1346 1308.5928 274.1346 1308.5928 271.0869 1286.6339 271.0869 1286.6339 251.6287 1307.4988 251.6287 1307.4988 248.581 1286.6339 248.581 1286.6339 231.3108 1308.5928 231.3108 1308.5928 228.3413 1283.2737 228.3413 1283.2737 274.1346"/>
      <path class="cls-3" d="M1349.8536,258.1929c0,3.3603.1563,6.9549.3907,10.7059h-.3907l-27.5853-40.4794h-3.2039v45.5588h2.9695v-29.6953c0-2.4225-.1563-6.0172-.3907-10.8622h.1563l27.5853,40.7138h3.5165v-45.7933h-3.2039v29.8516h.1563Z"/>
      <polygon class="cls-3" points="1366.0297 274.1346 1391.3489 274.1346 1391.3489 271.0869 1369.39 271.0869 1369.39 251.6287 1390.1767 251.6287 1390.1767 248.581 1369.39 248.581 1369.39 231.3108 1391.3489 231.3108 1391.3489 228.3413 1366.0297 228.3413 1366.0297 274.1346"/>
      <path class="cls-3" d="M1427.3739,248.8154c1.7192-2.0318,2.4225-4.6887,2.4225-7.8927,0-4.298-1.4848-7.3457-4.1417-9.5337-2.8132-2.0318-7.1112-3.204-12.7377-3.204h-11.0967v45.9495h3.2039v-20.0834l11.4092.1563,12.1907,19.849h3.9073l-12.5032-20.7867c3.2039-.7033,5.6265-2.4225,7.3456-4.4543ZM1413.8547,251.3942h-8.9867v-20.0834h7.5019c4.845,0,8.2834.7815,10.4715,2.4225,2.0318,1.4848,3.2039,4.1417,3.2039,7.502s-1.0941,5.7828-3.2039,7.502c-1.8755,1.9536-5.0795,2.6569-8.9867,2.6569Z"/>
      <path class="cls-3" d="M1458.4758,253.5042h13.5192v15.551c-2.9695,1.094-6.5642,1.7192-10.7059,1.7192-6.5642,0-11.4092-1.7192-14.6132-5.0795-3.3602-3.3603-5.0795-8.4397-5.0795-15.1602,0-6.1735,1.7192-11.0967,5.2358-14.6132,3.3602-3.751,8.2834-5.4702,14.2225-5.4702,4.1417,0,8.2834.9377,12.1907,2.8132l1.3285-2.8132c-3.9073-1.7192-8.4397-2.8132-13.2847-2.8132-4.6887,0-8.596.9377-12.1907,2.8132s-6.1735,4.6887-8.2834,8.2834c-1.8755,3.5947-2.8132,7.502-2.8132,12.0344,0,7.3457,1.8755,12.9721,5.6265,16.8794s9.3775,6.0172,16.4887,6.0172c5.4702,0,10.4715-.7815,14.8476-2.8132v-20.396h-16.7232l.2344,3.0477Z"/>
      <polygon class="cls-3" points="1510.677 228.3413 1497.1579 253.1134 1483.6387 228.3413 1479.8877 228.3413 1495.2823 256.4737 1495.2823 273.7438 1498.6426 273.7438 1498.6426 256.083 1514.0373 228.3413 1510.677 228.3413"/>
      <g>
        <path class="cls-3" d="M1157.0687,382.6005v2.7351c0,13.2066,5.7828,19.9271,17.8172,19.9271,10.9404,0,16.4106-7.7364,16.4106-15.7854,0-11.4092-5.7828-16.4106-15.4728-19.3019l-11.8781-4.1417c-15.7854-6.0953-22.6622-14.3006-22.6622-29.7734,0-19.7708,13.3629-30.7112,33.7589-30.7112,27.8198,0,30.7112,17.3483,30.7112,28.6012v2.4225h-17.3483v-2.2662c0-9.8463-4.3762-15.6291-15.2384-15.6291-7.4238,0-14.6132,4.1417-14.6132,15.6291,0,9.2993,4.6887,13.988,16.2543,18.3642l11.7218,4.2199c15.3165,5.4702,22.037,13.8317,22.037,28.7575,0,23.1311-13.988,32.6648-35.8688,32.6648-26.882,0-32.9774-17.9735-32.9774-33.1337v-2.5788h17.3483Z"/>
        <path class="cls-3" d="M1222.5546,307.7371h58.6873v14.6132h-41.339v30.086h38.9164v14.6132h-38.9164v34.6185h42.5893v14.6132h-59.9376v-108.5441Z"/>
        <path class="cls-3" d="M1322.2682,307.7371h22.1933l28.6012,108.5441h-18.0516l-6.7205-26.5695h-31.8052l-6.955,26.5695h-18.0516l30.7893-108.5441ZM1345.3993,375.8018l-12.4252-53.5297h-.3126l-12.894,53.5297h25.6318Z"/>
        <path class="cls-3" d="M1383.6906,307.7371h34.384c20.7867,0,29.9297,13.0503,29.9297,31.6489,0,19.4582-11.4092,32.0396-31.8052,32.0396h-15.2384v44.8555h-17.3483v-108.5441h.0782ZM1401.0389,358.2972h12.347c9.2993,0,17.3483-5.0013,17.3483-18.6768,0-11.7218-4.6887-18.8331-18.5205-18.8331h-11.0967v37.5098h-.0781Z"/>
        <path class="cls-3" d="M1474.5738,307.7371h22.1933l28.6012,108.5441h-18.0516l-6.7205-26.5695h-31.8052l-6.955,26.5695h-18.1298l30.8675-108.5441ZM1497.7048,375.8018l-12.4252-53.5297h-.3126l-12.894,53.5297h25.6318Z"/>
        <path class="cls-3" d="M1542.4041,322.2722h-25.8661v-14.6132h68.5336v14.6132h-25.3973v93.9309h-17.3483v-93.9309h.0781Z"/>
        <path class="cls-3" d="M1598.0437,307.7371h17.3483v43.4489h31.8833v-43.4489h17.3483v108.5441h-17.3483v-50.482h-31.8833v50.482h-17.3483v-108.5441Z"/>
      </g>
      <polygon class="cls-3" points="1148.7853 246.3148 1139.4078 246.3148 1139.4078 273.7438 1166.9932 273.7438 1166.9932 264.7571 1148.7853 264.7571 1148.7853 246.3148"/>
      <polygon class="cls-3" points="1139.4078 241.626 1148.629 241.626 1148.629 237.1718 1176.2144 237.1718 1176.2144 264.7571 1171.6819 264.7571 1171.6819 273.7438 1185.3574 273.7438 1185.3574 227.9506 1139.4078 227.9506 1139.4078 241.626"/>
      <path class="cls-3" d="M973.1924,303.6736c16.098-11.0185,32.5867-21.8807,64.7826-21.8807,2.6569,0,5.1576.0781,7.5801.2344,11.8-7.8145,25.0847-14.6132,48.2939-14.6132,1.4066,0,2.7351,0,4.0636.0781-18.8331-35.9469-56.4992-60.4846-99.8699-60.4846-44.1522,0-82.3653,25.3973-100.8077,62.3601,32.0397,6.7205,40.4012,29.7734,75.9574,34.3059Z"/>
      <path class="cls-6" d="M973.1924,303.6736c-35.5562-4.4543-43.9178-27.5072-76.0356-34.384-7.5801,15.1602-11.9563,32.2741-11.9563,50.4038,0,1.7973.0781,3.5947.1563,5.392,6.1735,1.094,13.1284,1.7973,20.943,1.7973,33.6026,0,50.0913-11.7218,66.8925-23.2092Z"/>
      <path class="cls-6" d="M1045.5551,282.0273c31.8052,1.7973,47.0436,15.0039,64.5482,26.5695-1.4066-14.6914-5.7046-28.6012-12.2689-41.1045-1.3285-.0781-2.6569-.0781-4.0636-.0781-23.131,0-36.3376,6.7987-48.2157,14.6132Z"/>
      <path class="cls-5" d="M1037.975,281.7928c-32.2741,0-48.6846,10.7841-64.7826,21.8807-16.8013,11.4874-33.29,23.2874-66.8144,23.2874-7.8145,0-14.7695-.6252-20.943-1.7973.2344,5.7828.9377,11.4092,2.1099,16.8794,7.1112-1.1722,14.9258-1.7973,23.6781-1.7973,35.3999,0,55.5614,10.4715,73.613,22.3496,24.0688-10.6278,34.6966-30.4767,74.2382-30.4767,23.2874,0,36.5721,6.8768,48.4502,14.7695,2.1881-8.6742,3.2821-17.8172,3.2821-27.1165,0-3.751-.1563-7.4238-.547-11.0967-17.5046-11.6437-32.743-24.7721-64.5482-26.5695-2.5788-.2344-5.0794-.3126-7.7364-.3126Z"/>
      <path class="cls-6" d="M984.7579,362.5953c23.8344,15.7072,43.9178,33.9151,90.6488,33.9151,1.7973,0,3.4384,0,5.1576-.0782,12.8159-13.7536,22.1933-30.7112,26.8039-49.5442-11.8781-7.8145-25.1628-14.7695-48.4502-14.7695-39.5416,0-50.0913,19.849-74.1601,30.4767Z"/>
      <path class="cls-4" d="M984.7579,362.5953c-18.0516-11.8781-38.2131-22.3496-73.613-22.3496-8.7523,0-16.5668.6252-23.6781,1.7973,4.5324,22.4278,15.6291,42.433,31.3363,57.9058,10.3152-5.8609,22.5059-10.3934,41.4171-10.3934,43.9178,0,52.2012,24.4595,82.6779,33.6025,14.3788-6.2516,27.1946-15.3947,37.6661-26.7258-1.7192.0782-3.3603.0782-5.1576.0782-46.731,0-66.8925-18.2079-90.6488-33.9151Z"/>
      <path class="cls-5" d="M918.8031,399.8707c20.396,20.0834,48.2939,32.5085,79.2395,32.5085,15.9417,0,31.1019-3.3602,44.8555-9.2993-30.5549-9.143-38.8383-33.6026-82.6779-33.6026-18.9112.0781-31.18,4.5324-41.4171,10.3933Z"/>
    </g>
  </g>
</svg>