<?xml version="1.0" encoding="UTF-8"?>
<svg id="Calque_1" data-name="Calque 1" xmlns="http://www.w3.org/2000/svg" xmlns:xlink="http://www.w3.org/1999/xlink" viewBox="0 0 3200 2000">
  <defs>
    <style>
      .cls-1 {
        fill: url(#Dégradé_sans_nom_144);
        opacity: .7;
      }

      .cls-2, .cls-3, .cls-4, .cls-5 {
        fill: #fff;
      }

      .cls-6 {
        opacity: .48;
      }

      .cls-3 {
        opacity: .7;
      }

      .cls-3, .cls-4, .cls-5 {
        isolation: isolate;
      }

      .cls-4 {
        opacity: .2;
      }

      .cls-5 {
        opacity: .5;
      }
    </style>
    <linearGradient id="Dégradé_sans_nom_144" data-name="Dégradé sans nom 144" x1="189.1059" y1="229.6831" x2="3328.4913" y2="1944.2705" gradientUnits="userSpaceOnUse">
      <stop offset="0" stop-color="#1e4f77"/>
      <stop offset=".6448" stop-color="#0084c4"/>
      <stop offset="1" stop-color="#00a6dc"/>
    </linearGradient>
  </defs>
  <path class="cls-1" d="M20.331-12.3797c.7643,144.1357-.87,288.2705-3.4693,432.3872-2.6099,144.7012-6.1849,289.3885-9.2394,434.0831-3.0468,144.3514-5.5722,288.7151-6.1177,433.0911-.2708,71.855-.6491,143.6425-3.429,215.4671-2.7482,71.0342-6.8897,142.0227-11.1791,212.9993-5.9746,98.8719-12.1873,197.7672-15.4944,296.7316h3256.2863V-12.3797H20.331Z"/>
  <g class="cls-6">
    <path class="cls-2" d="M3198.3312,1680.4184c-2.5328,2.3182-2.7081,6.25-.3905,8.7859.2509.2743,17.9954,19.8002,30.657,40.4255v-22.2623c-10.5734-14.5648-20.6863-25.6886-21.4826-26.5593-2.3188-2.5322-6.2487-2.7056-8.784-.3899Z"/>
    <path class="cls-2" d="M3177.1892,1650.3088c20.417,0,38.7791,8.9331,51.4086,23.086v-17.1248c-14.0223-11.4782-31.9153-18.3933-51.4086-18.3933h-15.3201c-3.4338,0-6.217,2.7828-6.217,6.2166v36.6426c0,28.3769,14.6153,53.3915,36.7021,67.9515h-228.2118l-90.0883-287.2749h112.6312v23.7889h-6.0711c-3.4343,0-6.2175,2.7828-6.2175,6.2166s2.7832,6.2156,6.2175,6.2156h24.5772c3.4348,0,6.2175-2.7818,6.2175-6.2156s-2.7828-6.2166-6.2175-6.2166h-6.0706v-23.7889h37.235c2.6963,0,5.0868-1.739,5.916-4.3038.8296-2.5667-.0903-5.3735-2.2777-6.954l-167.2993-120.7707,113.9904.3073v22.5838h-6.0711c-3.4343,0-6.2175,2.7828-6.2175,6.2166s2.7832,6.2166,6.2175,6.2166h24.5772c3.4348,0,6.2175-2.7818,6.2175-6.2166s-2.7828-6.2166-6.2175-6.2166h-6.0706v-22.5492l37.2173.0999h.0178c2.6454,0,5.0023-1.6737,5.8718-4.1732.8714-2.5043.0591-5.2871-2.0247-6.9281l-169.7739-133.7233c-.1133-.145-.1848-.314-.3135-.4504l-100.0853-106.2625c-1.1849-1.2608-2.8601-1.8705-4.575-1.9541-1.7299.0125-3.3757.7451-4.5424,2.0232l-96.1546,105.2946c-.0951.0519-.1834.1248-.2775.1805-.1224.0749-.242.1536-.3582.2381-.0672.048-.1392.0835-.2045.1335l-170.3687,133.0492c-2.089,1.6305-2.9134,4.4075-2.0539,6.9137.8589,2.5062,3.2134,4.1943,5.8637,4.201l38.6312.1027v23.8042h-6.0711c-3.4338,0-6.217,2.7828-6.217,6.2166s2.7832,6.2166,6.217,6.2166h24.5777c3.4333,0,6.217-2.7818,6.217-6.2166s-2.7837-6.2166-6.217-6.2166h-6.0716v-23.7677l109.8696.2958-170.7053,121.3247c-2.2052,1.5671-3.1433,4.3816-2.3223,6.9569.8239,2.5792,3.2187,4.3278,5.9242,4.3278h44.7988v23.7889h-6.0711c-3.4338,0-6.217,2.7828-6.217,6.2166s2.7832,6.2156,6.217,6.2156h24.5777c3.4333,0,6.217-2.7818,6.217-6.2156s-2.7837-6.2166-6.217-6.2166h-6.0716v-23.7889h110.8015l-43.4122,135.5919c-.0072.0221-.0134.0447-.0206.0653l-48.5404,151.6177h-165.5767v-48.4683h74.0768c3.8073,0,7.3492-1.8878,9.4756-5.046,2.1255-3.1582,2.5389-7.1504,1.1033-10.6797l-24.1369-59.3368c-.0019-.0062-.0038-.0125-.0067-.0182l-12.1662-29.9084c-1.7572-4.3254-5.9102-7.1168-10.5789-7.1168h-194.0126c-4.4632,0-8.5432,2.6205-10.3926,6.6789l-40.7197,89.2668c-1.619,3.5505-1.3261,7.631.7855,10.9145,2.1116,3.2826,5.7019,5.2458,9.6062,5.2458h77.297v48.5384h-143.028c21.7368-14.6191,36.0693-39.4383,36.0693-67.5458v-36.6402c0-3.4333-2.7828-6.2166-6.2175-6.2166h-15.3215c-27.5712,0-51.966,13.801-66.6854,34.846-14.682-21.3153-39.2448-35.3242-67.0282-35.3242h-15.3196c-3.4348,0-6.2185,2.7828-6.2185,6.2166v36.6426c0,28.4225,14.6637,53.4716,36.8116,68.0216h-47.691l-90.1113-287.345h112.6317v23.7889h-6.0716c-3.4338,0-6.2175,2.7828-6.2175,6.2166s2.7837,6.2156,6.2175,6.2156h24.5772c3.4338,0,6.2175-2.7818,6.2175-6.2156s-2.7837-6.2166-6.2175-6.2166h-6.0716v-23.7889h37.236c2.6963,0,5.0864-1.739,5.916-4.3038.8296-2.5667-.0903-5.3735-2.2767-6.954l-167.3008-120.7707,113.9914.3073v22.5838h-6.0716c-3.4338,0-6.2175,2.7828-6.2175,6.2166s2.7837,6.2166,6.2175,6.2166h24.5772c3.4338,0,6.2175-2.7818,6.2175-6.2166s-2.7837-6.2166-6.2175-6.2166h-6.0716v-22.5492l37.2187.0999h.0173c2.6454,0,5.0028-1.6737,5.8718-4.1732.8709-2.5043.0595-5.2871-2.0251-6.9281l-169.7734-133.7233c-.1133-.145-.1844-.314-.314-.4504l-100.0853-106.2625c-1.184-1.2608-2.8596-1.8705-4.5755-1.9541-1.7284.0125-3.3752.7451-4.541,2.0232l-96.1541,105.2946c-.096.0519-.1844.1248-.2775.1805-.1219.0749-.2429.1536-.3591.2381-.0672.048-.1392.0835-.2045.1335l-170.3687,133.0492c-2.0895,1.6305-2.9134,4.4075-2.0539,6.9137.8585,2.5062,3.2129,4.1943,5.8642,4.201l38.6312.1027v23.8042h-6.0716c-3.4338,0-6.2175,2.7828-6.2175,6.2166s2.7837,6.2166,6.2175,6.2166h24.5772c3.4338,0,6.2175-2.7818,6.2175-6.2166s-2.7837-6.2166-6.2175-6.2166h-6.0706v-23.7677l109.8691.2958-170.7058,121.3247c-2.2047,1.5671-3.1428,4.3816-2.3218,6.9569.8229,2.5792,3.2187,4.3278,5.9227,4.3278h44.8007v23.7889h-6.0716c-3.4338,0-6.2175,2.7828-6.2175,6.2166s2.7837,6.2156,6.2175,6.2156h24.5772c3.4338,0,6.2175-2.7818,6.2175-6.2156s-2.7837-6.2166-6.2175-6.2166h-6.0706v-23.7889h110.8015l-43.4122,135.5919c-.0077.0221-.0134.0447-.0211.0653l-48.562,151.6878h-264.7473c-.0019,0-.0048.0014-.0058.0014h-41.8979c-.0269-.1748-.024-.3495-.0682-.5243l-16.1444-113.471c7.8403,9.6864,18.45,18.9123,32.2889,26.7536,36.439,21.2198,70.5734,16.6053,85.3332,13.377,7.8413-1.8451,12.9171-10.1463,10.1468-17.9886-4.1521-14.2993-17.5281-46.1258-53.9681-67.3451-23.9838-13.8379-47.0486-16.6053-64.1158-16.143,5.9976-13.378,11.0725-29.9843,11.0725-50.2789,0-37.8616-16.5064-63.5671-27.6048-76.2134,20.3522,2.4496,41.4034,3.8563,62.8493,4.1098,2.3727.0298,4.7378.0432,7.099.0432,69.9502,0,134.55-12.3371,182.5618-34.9477l12.5685-5.9189c3.1717-1.4941,4.5304-5.2746,3.0382-8.4481-1.4932-3.1707-5.2698-4.5333-8.4481-3.0363l-12.5685,5.9179c-97.4782,45.904-266.2597,44.5434-368.5708-2.9719-3.1784-1.4778-6.9521-.096-8.4299,3.0824-1.4749,3.1793-.097,6.954,3.0843,8.4309,29.2209,13.572,63.9833,23.7629,101.8752,30.1475-10.7229,11.3308-30.9455,38.3575-30.9455,79.8046,0,20.296,4.6139,37.3623,11.0715,50.2789-16.6063,0-38.2855,3.2273-60.4257,16.143-35.9762,21.2145-48.8894,53.0424-53.5033,67.3403-2.3065,7.8413,2.3065,16.1449,10.6096,17.9895v.0024c14.7588,3.6921,48.4323,7.8413,85.3332-13.3766,13.377-7.8403,23.9847-17.0663,31.8279-26.2898l-16.6044,113.0081c-.023.1748-.0096.3481-.0173.5243h-143.5158l-90.4983-286.9528h113.7101v23.545h-3.6796c-3.6796,0-5.8834,2.9431-5.8834,5.8862s2.9412,5.8834,5.8834,5.8834h19.8653c3.6806,0,5.8853-2.9402,5.8853-5.8834.0038-2.9431-2.2047-5.8862-5.8853-5.8862h-4.4152v-22.8065l43.0089-.0029c.7355,0,1.472,0,2.9431-.7355,0,0,.7355,0,.7355-.7355.7355,0,.7355-.7355,1.472-1.472v-.7336s.7355-.7355.7355-1.474v-.7355l.0019.0077v-2.945q0-.7355-.7336-.7355l-1.4711-1.4711-170.6971-122.1361,111.9951.0077v22.071h-3.6787c-3.6806,0-5.8843,2.9431-5.8843,6.6227s2.9422,6.6227,5.8843,6.6227h19.8653c3.6796,0,5.8853-2.9422,5.8853-6.6227s-2.9422-6.6227-5.8853-6.6227h-4.4161v-22.071l43.2567-.0077c.7346,0,1.472,0,2.9431-.7346,0,0,.7346,0,.7346-.7355.7355,0,.7355-.7346,1.472-1.4701v-.7375c0-.7355.7355-.7355.7355-1.472v-5.1488l-1.4701-1.4701-178.0612-135.3883-99.3305-109.6329s-.7336,0-.7336-.7346l-.7375-.7365h-5.1497c-.7375,0-.7375.7365-.7375.7365,0,0-.7336,0-.7336.7346l-100.0661,109.6329-175.8507,135.3816-1.4701,1.4692v5.1497q0,.7355.7355,1.473v.7355q.7346.7336,1.472,1.472s.7336,0,.7336.7346c.7355,0,1.474.7365,2.2085.7365h43.9211v22.071h-3.6806c-3.6796,0-6.6218,2.9431-6.6218,6.6227s2.9422,6.6227,6.6218,6.6227h19.8663c3.6796,0,6.6227-2.9422,6.6227-6.6227s-2.9431-6.6227-6.6227-6.6227l-3.6806.0029v-22.0729h109.8566l-169.9625,121.4025-1.4701,1.4692s0,.7355-.7355.7355v4.4161q0,.7346.7355,1.472v.7346l1.4711,1.472s.7365,0,.7365.7355c.7336.7355,1.472.7355,2.9422.7355l43.9-.7595-.0029,22.8085h-3.6787c-3.6806,0-6.6227,2.9441-6.6227,5.8862s2.9422,5.8843,6.6227,5.8843h19.8644c3.6796,0,6.6237-2.9412,6.6237-5.8843.001-2.9422-3.6777-5.8862-7.3573-5.8862h-2.9441v-22.8065l110.6114.7595-90.4983,286.2124-181.0485-.5252.1239-49.2092,99.6109.5387c5.143.0235,9.9432-2.4865,12.8422-6.7207,2.9335-4.2865,3.4895-9.61,1.4951-14.6743l-38.058-87.7285c-2.487-5.7091-7.8874-9.2715-14.0934-9.3013l-198.1646-.9372c-6.23-.0307-11.6697,3.4842-14.1971,9.1698l-37.6258,84.5088c-4.6207-1.0222-9.6244-1.9714-14.8961-2.8241-1.5594-.2444-3.1188.1292-4.3892,1.0702-.7538.556-1.352,1.2704-1.7563,2.0832l-.3092-.001-.2554,1.787c-4.1117,28.7826-1.497,53.0126,7.7136,72.1866h-152.878l-89.9298-286.7694h112.6308v23.7889h-6.0716c-3.4338,0-6.2166,2.7828-6.2166,6.2166s2.7828,6.2156,6.2166,6.2156h24.5772c3.4348,0,6.2175-2.7818,6.2175-6.2156s-2.7828-6.2166-6.2175-6.2166h-6.0706v-23.7889h37.235c2.6973,0,5.0864-1.739,5.917-4.3038.8287-2.5667-.0912-5.3735-2.2777-6.954l-167.3008-120.7707,113.9914.3073v22.5838h-6.0716c-3.4338,0-6.2166,2.7828-6.2166,6.2166s2.7828,6.2166,6.2166,6.2166h24.5772c3.4348,0,6.2175-2.7818,6.2175-6.2166s-2.7828-6.2166-6.2175-6.2166h-6.0706v-22.5492l37.2177.0999h.0173c2.6454,0,5.0019-1.6737,5.8718-4.1732.8719-2.5043.0595-5.2871-2.0251-6.9281l-169.7734-133.7233c-.1143-.145-.1853-.314-.313-.4504l-39.4657-41.9008c-.0259,6.0159-.0634,12.0317-.0845,18.0476l20.6268,21.8991H1.4479c-.0154,4.2414-.0288,8.4827-.0451,12.7231h15.6739l-15.7229,11.1743c-.023,5.1027-.0461,10.2054-.073,15.3081l29.0567-20.6508v115.7621l-3.9687-.0115-25.7199-18.5671c-.0615,5.0643-.1316,10.1276-.2036,15.1909l4.5986,3.3186-4.6427-.0125c-.0624,4.3316-.1306,8.6623-.2026,12.9939h15.7805L.0076,1340.4486c-.0912,5.0393-.17,10.0796-.2746,15.1189l30.6046-20.3541v108.3798l-32.4098-21.5544c-.1632,4.8646-.3399,9.7281-.5128,14.5927l18.5642,12.3477H-3.02c-.1546,4.1444-.3246,8.2887-.4849,12.4331H13.762l-17.6722,10.4166c-.1959,4.9289-.3937,9.8587-.5973,14.7876l37.4732-22.0873,37.7728,120.449-77.5438-45.7859c-.2161,4.6845-.4388,9.3681-.6587,14.0521l75.5657,44.6173-79.5574,36.4222c-.2391,4.6687-.4811,9.3373-.7211,14.006l89.8674-41.1417,42.2763,134.8131-133.8183-61.2788c-.2314,4.4526-.4619,8.9057-.6933,13.3583l118.2328,54.1409H-17.3419c-.1988,3.8726-.3995,7.7443-.5963,11.6169h312.6112c12.992,18.2358,33.2366,29.4533,60.4257,33.3394l12.2708,1.0639.1517-.0086c32.9946-1.9286,57.5939-13.5283,73.1334-34.4806l6.6871.0331,224.9638.7836h736.794c.1536,0,.289-.0346.4359-.0456h654.0179c5.193,1.0428,10.5597,1.5988,16.0532,1.5988,2.2402,0,11.3807.4758,14.0953.4758,6.2521,0,12.3313-.7327,18.183-2.0746h280.2388c.0355.0014.0682.011.1037.011h828.7783c2.4913.4993,5.0254.8796,7.5921,1.146v-12.9536h-3.0103c-32.5846-5.4556-57.5008-33.8411-57.5008-67.9515v-30.427h9.1025ZM42.7726,1201.9146l146.5443,115.4289-146.5443-.3956v-115.0333ZM42.7726,1344.0802l145.3133,104.8989H42.7726v-104.8989ZM593.0544,1682.6259c.5147,1.1451.4023,2.4707-.2948,3.5418-.6991,1.0735-1.8571,1.6852-3.1765,1.679l-76.6335-.363-4.4814-23.8316,76.5125.3764,8.0737,18.5973ZM569.5585,1628.4384l10.3456,23.8441-73.6347-.3481-4.4795-23.8167,67.7686.3207ZM551.6558,1592.8502c1.6276.0086,2.7261.7389,3.429,2.2518l9.3748,21.6043-64.885-.3087-4.4795-23.8292,56.5607.2818ZM421.9617,1592.2227l61.2246.289,4.4795,23.8316-70.4092-.3322,4.7052-23.7884ZM414.9443,1627.7067l74.9358.3543,4.4785,23.8167-84.1185-.3985,4.7042-23.7725ZM350.0411,1594.1206c.6434-1.46,1.834-2.2297,3.4453-2.2239l56.5626.2684-4.7052,23.7898-64.884-.3078,9.5812-21.5265ZM335.264,1627.3284l67.7715.3207-4.7061,23.7735-73.6375-.3476,10.5722-23.7466ZM319.4912,1662.7592l76.5134.3606-4.7052,23.7874-51.8863-.2463c-7.5926-3.8184-16.3797-7.1437-26.1597-9.8986l6.2377-14.0031ZM366.5053,1768.1872c-8.0621-18.1288-21.3566-37.4026-36.4169-52.6084-2.6637-2.6757-6.2358-1.9896-8.2494.0067-2.0107,1.9968-2.7203,5.566-.0691,8.2407,16.9866,17.1488,30.8677,38.6375,37.6134,58.0856-23.5229-2.8024-41.3765-11.6044-53.0933-26.1837-13.6382-16.9731-18.7995-41.2262-15.3542-72.117,35.8091,6.5622,58.6454,18.2901,69.7755,35.8297,8.1169,12.7903,10.0604,29.1662,5.7941,48.7463ZM357.5549,1698.4564l25.4136.1205c-4.7637,4.8617-8.621,10.2025-11.5209,15.9505-3.5673-5.8795-8.2187-11.2588-13.8927-16.071ZM440.887,1734.3005c-9.2595,27.0133-32.6048,43.8323-65.9211,47.5979,1.3299-4.3508,2.4342-8.6123,3.2888-12.7087,4.8934-8.427,10.8593-18.1941,18.0649-27.0551,7.2815-8.9494,15.0987-16.167,24.5955-22.7187,1.7649-1.2185,2.6848-3.0819,2.5225-5.1123-.1709-2.1519-1.5421-4.1405-3.4905-5.0667-1.8398-.8709-3.9082-.675-5.6683.5421-13.1946,9.0949-23.8417,19.7808-33.928,34.1512-.3015-4.8626-1.0553-9.526-2.2546-13.9301,3.0113-12.2531,10.9063-23.073,22.8594-31.3214,11.8003-8.1169,26.8712-13.3828,42.6248-14.9163.5281,3.2235.9458,6.411,1.2377,9.4463,1.0966,19.2628.9055,24.0688-3.9312,41.0918ZM403.9247,1683.3149l3.9869-20.1496,88.6489.4191,4.4814,23.8292-45.1656-.2141c-.4561-3.4789-1.0332-6.9977-1.7054-10.4056-.4023-2.9897-3.0228-5.1296-6.037-5.048-15.5308.6909-31.0521,4.7724-44.2092,11.5689ZM478.0673,1748.1817l-30.2599-.1426c.9862-1.9848,1.9109-4.0546,2.7645-6.1921,0,0,2.5456-6.2867,3.6873-11.7005,2.3247-9.6148,3.2216-20.0977,2.6762-31.2316l21.2692.0346-.1373,49.2322ZM975.4536,1199.1376l153.773,116.9883h-153.773v-116.9883ZM975.4488,1341.1477l152.3057,108.8926h-152.3057v-108.8926ZM965.882,1461.805l39.7345,125.084-123.612-75.05,83.1419-50.034h.7355ZM870.9724,1265.3583l70.6368,50.7676h-142.0034l71.3666-50.7676ZM870.2368,1249.9062l-80.1979-57.3894h159.6611l-79.4633,57.3894ZM949.7001,1329.3723l-80.1969,51.5041-80.9334-51.5041h161.1303ZM963.6802,1335.2586v105.2129l-81.6737-52.2406,81.6737-52.9723ZM858.4663,1388.2328l-80.9315,52.2416-.0019-103.7438,80.9334,51.5022ZM869.5032,1395.5901l83.8746,53.7127h-167.0165l83.1419-53.7127ZM940.8688,1461.8098l-70.632,42.6748-70.631-42.6748h141.263ZM1002.6724,1598.662l-132.4375,60.334-132.4375-60.334,132.4375-80.1979,132.4375,80.1979ZM963.6802,1316.8633l-82.4074-58.8634,82.4074-58.8624v117.7258ZM870.2349,1086.5673l85.3505,94.1789-170.6981-.0029,85.3476-94.176ZM776.7935,1199.1376l82.4083,58.8624-81.6737,58.8614h-.7346v-117.7238ZM612.7162,1316.1259l152.3048-116.9883v116.9883h-152.3048ZM613.4527,1450.0402l150.8299-108.158v108.158h-150.8299ZM773.8513,1462.5483l1.4701-.0029-.0019-.7355,83.141,50.033-123.6062,75.051,38.9971-124.3456ZM728.2306,1608.2265l127.2907,57.3899-169.9635,77.2538,42.6728-134.6437ZM703.9501,1748.0271l166.2848-75.0515,166.2848,75.0515h-332.5697ZM885.688,1666.3543l127.2887-57.3923,41.9392,133.9129-169.228-76.5206ZM1279.1183,1587.7144c14.7588-.46,34.5934,2.307,55.8098,14.2993,32.2908,18.9118,43.8213,46.5877,47.5115,59.041v.4614h-.4628c-12.9161,3.2283-42.4347,6.919-75.1854-11.531-17.0663-9.6873-28.1358-22.1416-35.5162-33.2112,5.0729-5.5343,8.3041-13.377,8.3041-21.6783.46-2.7684,0-5.0744-.4609-7.3813ZM1247.2894,1452.5657c9.6868,9.6849,27.6759,33.2088,27.6759,71.0329,0,17.99-4.1521,32.7503-9.6868,44.2812-5.0729-3.2283-11.0705-5.5343-17.5281-5.5343-6.9195,0-12.9161,2.3074-18.4509,5.5343-5.5348-11.531-9.6868-26.755-9.6868-44.7421,0-37.3623,18.4509-61.3489,27.6769-70.572ZM1190.092,1649.9852c-32.2879,18.9123-62.2703,14.7603-75.1854,11.5319.9228,0,.4619,0,.4619-.4609v-.0014c3.6902-12.4518,15.2216-40.5901,47.5105-59.04,19.8346-11.5319,38.7455-14.3003,53.0443-14.3003-.4609,2.307-.9209,4.6144-.9209,7.3799,0,9.2264,3.6892,17.5291,9.6849,23.0629-7.3794,10.6096-18.45,22.603-34.5953,31.8279ZM1229.2994,1594.6334c0-10.1473,8.3032-18.4509,18.4509-18.4509s18.45,8.3036,18.45,18.4509-8.3032,18.45-18.45,18.45-18.4509-8.3027-18.4509-18.45ZM1226.7192,1748.7588l17.3399-121.8389h3.2283c1.8465,0,3.6921,0,5.5358-.4614l17.3409,122.3003h-43.4449ZM1895.0197,1201.9146l146.5463,115.4289-146.5463-.3956v-115.0333ZM1895.0197,1344.0802l145.3152,104.8989h-145.3152v-104.8989ZM1922.9856,1584.9782l-120.955-71.4184,83.1832-49.0306,37.7718,120.449ZM1857.2911,1316.8441l-136.9689-.3707,68.7595-48.8664,68.2093,49.237ZM1710.1918,1195.3197h159.134l-80.1863,56.9909-78.9476-56.9909ZM1868.2272,1329.8255l-78.3465,52.11-78.3465-52.11h156.6931ZM1882.5846,1335.2134v108.3798l-81.4769-54.1889,81.4769-54.1909ZM1868.2272,1448.9792h-156.6931l78.3465-52.1091,78.3465,52.1091ZM1866.0091,1461.4123l-76.2129,44.9222-76.0794-44.9222h152.2923ZM1920.3507,1597.8617l-131.4235,60.1664-130.567-59.7876,131.4312-77.4665,130.5593,77.0877ZM1882.5846,1316.9133l-3.9677-.0115-78.8295-56.9054,82.7972-58.8451v115.7621ZM1788.7879,1091.693l85.6174,90.9035h-168.6307l83.0133-90.9035ZM1697.1758,1201.2597l81.257,58.6579-79.493,56.4983-1.764-.0048v-115.1514ZM1697.1758,1335.2134l81.4779,54.1909-81.4779,54.1909v-108.3817ZM1538.5901,1315.9818l146.1506-114.1345v114.5301l-146.1506-.3956ZM1533.8859,1448.9792l150.8548-107.217v107.217h-150.8548ZM1694.5044,1464.5091l83.0526,49.0406-121.7232,71.7454,38.6706-120.786ZM1648.7233,1607.5044l125.2684,57.363-168.3004,77.0459,43.032-134.4089ZM1620.6191,1748.7573l168.3061-77.0521,168.2668,77.0521h-336.5729ZM1803.8607,1664.8674l126.0779-57.7192,42.2763,134.8131-168.3541-77.0939ZM2088.7087,1735.6031c-12.7337-25.9259-37.7161-53.4049-38.9865-54.7948-2.319-2.5321-6.2492-2.7055-8.7833-.3899-2.5341,2.3185-2.7088,6.2502-.3918,8.7857.3303.3591,30.8235,33.903,40.3635,59.5533h-12.3265c-32.7767-5.2933-57.8906-33.7758-57.8906-68.0216v-30.427h9.103c37.9994,0,68.9122,30.9152,68.9122,68.9141v16.3802ZM2107.2374,1748.7573h-6.0351c-.2727-1.75-.0586-5.6841-.0586-8.2129v-8.8807c12.7058-21.1885,31.3594-41.6992,31.6157-41.981,2.317-2.536,2.1423-6.4677-.3908-8.7857-2.536-2.3199-6.4662-2.1423-8.7833.3899-.8344.9122-11.8887,13.0755-22.9871,28.6534-.9871-8.6445-3.3359-16.8756-6.8244-24.4846,11.9079-20.6859,34.2045-34.6688,59.7362-34.6688h9.1049v30.4246c0,33.3638-23.8417,61.2366-55.3777,67.5458ZM2439.0417,1600.1283l8.6834,21.3494h-60.3997l-4.2471-21.3494h55.9635ZM2388.3461,1688.202h-92.9757l4.3374-21.3475h84.3912l4.2471,21.3475ZM2313.2711,1600.1283h57.5536l4.2462,21.3494h-66.14l4.3403-21.3494ZM2306.49,1633.4931h70.9719l4.2471,21.3451h-79.5583l4.3393-21.3451ZM2245.8146,1600.1283h55.1924l-4.3393,21.3494h-60.5908l9.7377-21.3494ZM2283.1054,1688.202h-77.4641l9.7377-21.3475h72.0656l-4.3393,21.3475ZM2220.8591,1654.8382l9.7368-21.3451h63.63l-4.3393,21.3451h-69.0274ZM2389.6588,1748.7573h-95.6327v-48.5384h95.6327v48.5384ZM2389.7154,1633.4931h62.8963l8.6834,21.3451h-67.3317l-4.2481-21.3451ZM2396.3535,1666.8546h69.8292l8.6829,21.3475h-74.266l-4.2462-21.3475ZM2871.8071,1201.9146l146.5448,115.4289-146.5448-.3956v-115.0333ZM2871.8071,1344.0802l145.3138,104.8989h-145.3138v-104.8989ZM2899.7725,1584.9782l-120.9555-71.4184,83.1832-49.0306,37.7723,120.449ZM2834.0786,1316.8441l-136.9693-.3707,68.7591-48.8664,68.2103,49.237ZM2686.9782,1195.3197h159.1325l-80.1859,56.9909-78.9467-56.9909ZM2845.0147,1329.8255l-78.3465,52.11-78.348-52.11h156.6945ZM2859.3721,1335.2134v108.3798l-81.4779-54.1889,81.4779-54.1909ZM2845.0147,1448.9792h-156.6945l78.348-52.1091,78.3465,52.1091ZM2842.796,1461.4123l-76.2134,44.9222-76.0789-44.9222h152.2923ZM2897.1372,1597.8617l-131.424,60.1664-130.567-59.7876,131.4317-77.4665,130.5593,77.0877ZM2859.3721,1316.9133l-3.9687-.0115-78.83-56.9054,82.7987-58.8451v115.7621ZM2765.5744,1091.693l85.6174,90.9035h-168.6302l83.0128-90.9035ZM2673.9627,1201.2597l81.2575,58.6579-79.4945,56.4983-1.763-.0048v-115.1514ZM2673.9627,1335.2134l81.4774,54.1909-81.4774,54.1909v-108.3817ZM2515.3766,1315.9818l146.1516-114.1345v114.5301l-146.1516-.3956ZM2510.6724,1448.9792l150.8558-107.217v107.217h-150.8558ZM2671.2909,1464.5091l83.0526,49.0406-121.7223,71.7454,38.6696-120.786ZM2625.5098,1607.5044l125.2684,57.363-168.2994,77.0459,43.031-134.4089ZM2597.5583,1748.6872l168.1535-76.982,168.1146,76.982h-336.268ZM2780.6472,1664.8674l126.0779-57.7192,42.2763,134.8131-168.3541-77.0939Z"/>
    <path class="cls-2" d="M3228.5978,1019.4213l-243.8587,97.6111c-3.1871,1.2778-4.7367,4.8959-3.4613,8.0849.9728,2.4289,3.3076,3.9072,5.7746,3.9072.7686,0,1.5514-.1451,2.309-.4464l239.2364-95.7615v-13.3952Z"/>
    <path class="cls-2" d="M3228.5978,1186.1756l-120.7429,44.6955c-3.3199.8769-5.3012,4.2773-4.4261,7.5979.7354,2.7905,3.2535,4.634,6.0083,4.634.5245,0,1.057-.0664,1.5895-.2054l117.5712-43.5222v-13.1997Z"/>
    <path class="cls-2" d="M3228.5978,1379.0144l-84.781,9.6209c-3.4115.3862-5.8638,3.4669-5.477,6.8784.3603,3.1742,3.05,5.5158,6.17,5.5158.2349,0,.4698-.0135.7084-.0406l83.3796-9.4623v-12.5122Z"/>
    <path class="cls-2" d="M1102.6487,1255.3193c59.6083,28.3939,137.4066,40.5648,215.3933,40.5648,80.6993,0,161.5971-13.0406,222.6633-34.6306.2008-.0707.3967-.1513.5901-.2418l12.5688-5.9193c3.1713-1.4939,4.5301-5.2759,3.0374-8.4472-1.4902-3.1713-5.2715-4.5345-8.4478-3.0381l-12.2787,5.7829c-117.6744,41.5033-309.8442,50.7824-428.0666-5.5325-3.1614-1.5082-6.9527-.1637-8.4602,3.0009-1.5076,3.1651-.1637,6.9533,3.0003,8.4608Z"/>
    <path class="cls-2" d="M1501.5905,1326.6874l-12.5688,5.9193c-100.4613,47.3091-215.8396,47.6129-316.5514.8387-3.1813-1.4772-6.9527-.0961-8.4305,3.0833-1.4753,3.1794-.0967,6.9539,3.0846,8.4305,51.7556,24.038,107.2404,36.0489,162.7327,36.0489,56.1593,0,112.326-12.3116,164.575-36.9161l12.5688-5.9193c3.1713-1.4939,4.5301-5.2759,3.0374-8.4472-1.4902-3.1707-5.2666-4.5326-8.4478-3.0381Z"/>
    <path class="cls-2" d="M2043.5327,1273.4925c58.7975,20.7972,148.6042,33.3264,237.6249,33.3264,72.9979,0,145.4775-8.4323,199.8218-27.6457.2008-.0707.3967-.1513.5901-.2418l12.5688-5.9187c3.1713-1.4933,4.5301-5.2752,3.0374-8.4472-1.4927-3.1695-5.269-4.5339-8.4478-3.0381l-12.2787,5.7823c-118.2422,41.6626-323.757,31.3272-428.6815-5.786-3.3152-1.1691-6.9353.5629-8.1007,3.8675-1.1703,3.3052.5604,6.9322,3.8656,8.1013Z"/>
    <path class="cls-2" d="M2270.1286,1398.9278c56.1593,0,112.3285-12.3116,164.5775-36.9161l12.5688-5.9193c3.1713-1.4939,4.5301-5.2759,3.0374-8.4472-1.4927-3.1707-5.269-4.5332-8.4478-3.0381l-12.5688,5.9193c-100.4613,47.3085-215.8372,47.6141-316.5514.8387-3.1813-1.4778-6.9527-.0961-8.4305,3.0827-1.4753,3.18-.0967,6.9545,3.0846,8.4311,51.7531,24.038,107.2379,36.0489,162.7302,36.0489Z"/>
    <path class="cls-2" d="M2071.1078,1422.6744c-1.4753,3.18-.0967,6.9545,3.0846,8.4311,50.7191,23.5582,118.0785,37.0004,189.6655,37.8503,2.3729.0285,4.7384.0422,7.0989.0422,69.9505,0,134.5502-12.3382,182.5616-34.9474l12.5688-5.9193c3.1713-1.4939,4.5301-5.2759,3.0374-8.4472-1.4927-3.1701-5.269-4.5339-8.4478-3.0381l-12.5688,5.9193c-97.4809,45.9045-266.2612,44.5432-368.5698-2.9736-3.1813-1.479-6.9527-.0961-8.4305,3.0827Z"/>
    <path class="cls-2" d="M170.6215,1255.4259c64.8947,27.7096,143.4567,39.2593,220.0028,39.2593,81.106,0,159.9457-12.9718,217.8158-33.4317.2008-.0707.3967-.1513.5901-.2418l12.5713-5.9193c3.1713-1.4933,4.5301-5.2752,3.0374-8.4466-1.4927-3.1707-5.269-4.5351-8.4478-3.0387l-12.2812,5.7829c-110.2679,38.883-297.7217,50.1166-428.3046-5.6391-3.2209-1.3755-6.9527.119-8.3288,3.3449-1.3786,3.224.119,6.9539,3.3449,8.33Z"/>
    <path class="cls-2" d="M397.5919,1381.0081c56.1593,0,112.326-12.3116,164.575-36.9161l12.5713-5.9193c3.1713-1.4933,4.5301-5.2752,3.0374-8.4466-1.4927-3.1707-5.269-4.5332-8.4478-3.0387l-12.5713,5.9193c-100.4613,47.3091-215.8421,47.6129-316.5514.8387-3.1813-1.4772-6.9527-.0961-8.4305,3.0833-1.4753,3.1794-.0967,6.9539,3.0846,8.4305,51.7556,24.038,107.2404,36.0489,162.7327,36.0489Z"/>
    <path class="cls-2" d="M198.5685,1404.7554c-1.4753,3.1794-.0967,6.9539,3.0846,8.4305,50.7216,23.5582,118.0785,37.0004,189.668,37.8503,2.3729.0285,4.7359.0422,7.0965.0422,69.9505,0,134.5502-12.3382,182.5616-34.9474l12.5688-5.9193c3.1713-1.4939,4.5301-5.2759,3.0374-8.4472-1.4902-3.1707-5.2666-4.5332-8.4478-3.0381l-12.5688,5.9193c-97.4784,45.9057-266.2637,44.542-368.5698-2.9736-3.1788-1.4766-6.9527-.0961-8.4305,3.0833Z"/>
  </g>
  <g>
    <polygon class="cls-2" points="1549.7113 447.2191 1532.4185 447.2191 1532.4185 503.6637 1574.6791 503.6637 1574.6791 489.1882 1549.7113 489.1882 1549.7113 447.2191"/>
    <polygon class="cls-2" points="1582.0626 503.6637 1599.6469 503.6637 1599.6469 482.1933 1622.1858 482.1933 1622.1858 468.8837 1599.6469 468.8837 1599.6469 461.6945 1625.6833 461.6945 1625.6833 447.2191 1582.0626 447.2191 1582.0626 503.6637"/>
    <polygon class="cls-2" points="1638.9929 504.1494 1670.4698 504.1494 1670.4698 500.3605 1643.1704 500.3605 1643.1704 476.17 1669.1097 476.17 1669.1097 472.3811 1643.1704 472.3811 1643.1704 450.9108 1670.4698 450.9108 1670.4698 447.2191 1638.9929 447.2191 1638.9929 504.1494"/>
    <path class="cls-2" d="M1721.7654,484.3307c0,4.1775.1943,8.6464.4858,13.3097h-.4858l-34.2942-50.3241h-3.9832v56.6389h3.6917v-36.9173c0-3.0117-.1943-7.4806-.4858-13.504h.1943l34.2942,50.6156h4.3718v-56.9304h-3.9832v37.1116h.1943Z"/>
    <polygon class="cls-2" points="1741.8756 504.1494 1773.3525 504.1494 1773.3525 500.3605 1746.0532 500.3605 1746.0532 476.17 1771.8952 476.17 1771.8952 472.3811 1746.0532 472.3811 1746.0532 450.9108 1773.3525 450.9108 1773.3525 447.2191 1741.8756 447.2191 1741.8756 504.1494"/>
    <path class="cls-2" d="M1818.139,472.6726c2.1373-2.5259,3.0117-5.829,3.0117-9.8122,0-5.3433-1.8459-9.1322-5.149-11.8524-3.4974-2.5259-8.8407-3.9832-15.8356-3.9832h-13.7954v57.1247h3.9832v-24.9678l14.184.1943,15.1555,24.6763h4.8575l-15.544-25.8421c3.9832-.8744,6.9949-3.0117,9.1321-5.5376ZM1801.3319,475.8785h-11.1723v-24.9678h9.3265c6.0234,0,10.298.9715,13.0182,3.0117,2.5259,1.8459,3.9832,5.149,3.9832,9.3265s-1.3601,7.1892-3.9832,9.3265c-2.3316,2.4288-6.3148,3.3031-11.1723,3.3031Z"/>
    <path class="cls-2" d="M1856.8051,478.5016h16.8071v19.333c-3.6917,1.3601-8.1607,2.1373-13.3097,2.1373-8.1607,0-14.184-2.1373-18.1672-6.3148-4.1775-4.1775-6.3148-10.4923-6.3148-18.8473,0-7.6749,2.1373-13.7954,6.5091-18.1672,4.1775-4.6632,10.298-6.8006,17.6815-6.8006,5.149,0,10.298,1.1658,15.1555,3.4974l1.6516-3.4974c-4.8575-2.1373-10.4923-3.4974-16.5156-3.4974-5.829,0-10.6866,1.1658-15.1555,3.4974s-7.6749,5.829-10.298,10.298c-2.3316,4.4689-3.4974,9.3265-3.4974,14.9612,0,9.1322,2.3316,16.127,6.9949,20.9846s11.6581,7.4806,20.4988,7.4806c6.8006,0,13.0182-.9715,18.4587-3.4974v-25.3564h-20.7903l.2914,3.7889Z"/>
    <polygon class="cls-2" points="1921.7018 447.2191 1904.8947 478.0159 1888.0876 447.2191 1883.4244 447.2191 1902.5631 482.1933 1902.5631 503.6637 1906.7406 503.6637 1906.7406 481.7076 1925.8793 447.2191 1921.7018 447.2191"/>
    <g>
      <path class="cls-2" d="M1482.0944,638.9948v3.4003c0,16.4185,7.1892,24.7735,22.1504,24.7735,13.6011,0,20.4017-9.6179,20.4017-19.6245,0-14.184-7.1892-20.4017-19.2358-23.9962l-14.7669-5.149c-19.6245-7.5778-28.1737-17.7786-28.1737-37.0144,0-24.5792,16.6128-38.1803,41.9692-38.1803,34.5857,0,38.1803,21.5675,38.1803,35.5572v3.0117h-21.5675v-2.8174c0-12.241-5.4405-19.4302-18.9444-19.4302-9.2293,0-18.1672,5.149-18.1672,19.4302,0,11.5609,5.829,17.39,20.2074,22.8304l14.5726,5.2461c19.0416,6.8006,27.3965,17.1957,27.3965,35.7515,0,28.7566-17.39,40.609-44.5922,40.609-33.4199,0-40.9977-22.3447-40.9977-41.1919v-3.206h21.5675Z"/>
      <path class="cls-2" d="M1563.5068,545.9243h72.9603v18.1672h-51.3928v37.4031h48.3811v18.1672h-48.3811v43.0378h52.9472v18.1672h-74.5147v-134.9425Z"/>
      <path class="cls-2" d="M1687.4712,545.9243h27.5909l35.5572,134.9425h-22.4418l-8.3549-33.0313h-39.5404l-8.6464,33.0313h-22.4418l38.2774-134.9425ZM1716.2278,630.5426l-15.447-66.5483h-.3886l-16.0299,66.5483h31.8655Z"/>
      <path class="cls-2" d="M1763.8317,545.9243h42.7464c25.8421,0,37.2087,16.2242,37.2087,39.3461,0,24.1905-14.184,39.8318-39.5404,39.8318h-18.9444v55.7646h-21.5675v-134.9425h.0972ZM1785.3992,608.7808h15.3498c11.561,0,21.5675-6.2176,21.5675-23.219,0-14.5726-5.829-23.4134-23.0248-23.4134h-13.7954v46.6324h-.0971Z"/>
      <path class="cls-2" d="M1876.8181,545.9243h27.5909l35.5572,134.9425h-22.4418l-8.3549-33.0313h-39.5404l-8.6464,33.0313h-22.539l38.3746-134.9425ZM1905.5747,630.5426l-15.447-66.5483h-.3886l-16.0299,66.5483h31.8655Z"/>
      <path class="cls-2" d="M1961.145,563.9943h-32.1569v-18.1672h85.2013v18.1672h-31.574v116.7753h-21.5675v-116.7753h.0971Z"/>
      <path class="cls-2" d="M2030.3164,545.9243h21.5675v54.0158h39.6375v-54.0159h21.5675v134.9425h-21.5675v-62.7594h-39.6375v62.7594h-21.5675v-134.9425Z"/>
    </g>
    <polygon class="cls-2" points="1471.7964 469.5637 1460.1383 469.5637 1460.1383 503.6637 1494.4325 503.6637 1494.4325 492.4913 1471.7964 492.4913 1471.7964 469.5637"/>
    <polygon class="cls-2" points="1460.1383 463.7347 1471.6021 463.7347 1471.6021 458.1971 1505.8963 458.1971 1505.8963 492.4913 1500.2616 492.4913 1500.2616 503.6637 1517.263 503.6637 1517.263 446.7333 1460.1383 446.7333 1460.1383 463.7347"/>
    <path class="cls-2" d="M1253.4985,540.8724c20.0131-13.6983,40.5119-27.2022,80.538-27.2022,3.3031,0,6.412.0971,9.4236.2915,14.6698-9.7151,31.1854-18.1672,60.0392-18.1672,1.7487,0,3.4003,0,5.0519.0971-23.4134-44.6894-70.24-75.1947-124.1587-75.1947-54.8902,0-102.397,31.574-125.3245,77.5263,39.8318,8.355,50.227,37.0144,94.4306,42.6492Z"/>
    <path class="cls-5" d="M1253.4985,540.8724c-44.2036-5.5376-54.5988-34.1971-94.5277-42.7464-9.4236,18.8473-14.8641,40.1233-14.8641,62.6623,0,2.2345.0972,4.4689.1943,6.7034,7.6749,1.3601,16.3213,2.2345,26.0364,2.2345,41.7749,0,62.2737-14.5726,83.1611-28.8538Z"/>
    <path class="cls-5" d="M1343.4602,513.9617c39.5404,2.2345,58.4848,18.653,80.2466,33.0313-1.7487-18.2644-7.092-35.5572-15.2527-51.1013-1.6516-.0971-3.3031-.0971-5.0519-.0971-28.7566,0-45.1751,8.4521-59.942,18.1672Z"/>
    <path class="cls-4" d="M1334.0365,513.6702c-40.1233,0-60.525,13.4068-80.538,27.2022-20.8874,14.2812-41.3862,28.9509-83.0639,28.9509-9.7151,0-18.3615-.7772-26.0364-2.2345.2915,7.1892,1.1658,14.184,2.6231,20.9846,8.8407-1.4573,18.5558-2.2345,29.4367-2.2345,44.0093,0,69.0742,13.0182,91.5161,27.7851,29.9225-13.2125,43.135-37.8888,92.2933-37.8888,28.9509,0,45.4666,8.5493,60.2335,18.3615,2.7202-10.7837,4.0803-22.1504,4.0803-33.7113,0-4.6632-.1943-9.2293-.6801-13.7954-21.7618-14.4755-40.7062-30.7968-80.2466-33.0313-3.206-.2915-6.3148-.3886-9.6179-.3886Z"/>
    <path class="cls-5" d="M1267.8768,614.1241c29.631,19.5273,54.5988,42.1634,112.6949,42.1634,2.2345,0,4.2746,0,6.412-.0972,15.9327-17.0985,27.5908-38.1803,33.3227-61.5936-14.7669-9.7151-31.2826-18.3615-60.2335-18.3615-49.1583,0-62.2737,24.6763-92.1961,37.8888Z"/>
    <path class="cls-3" d="M1267.8768,614.1241c-22.4418-14.7669-47.5067-27.7851-91.5161-27.7851-10.8809,0-20.596.7772-29.4367,2.2345,5.6347,27.8823,19.4302,52.7529,38.9575,71.9887,12.8239-7.2863,27.9794-12.9211,51.4899-12.9211,54.5988,0,64.8967,30.4082,102.7856,41.7748,17.8757-7.7721,33.8085-19.1387,46.8267-33.2256-2.1373.0972-4.1775.0972-6.412.0972-58.0962,0-83.1611-22.6361-112.6949-42.1634Z"/>
    <path class="cls-4" d="M1185.8816,660.4651c25.3564,24.9678,60.0392,40.4147,98.5109,40.4147,19.8188,0,38.666-4.1775,55.7646-11.5609-37.986-11.3667-48.2839-41.7748-102.7856-41.7748-23.5105.0971-38.7632,5.6347-51.4899,12.921Z"/>
  </g>
</svg>