<?xml version="1.0" encoding="UTF-8"?>
<svg id="Calque_1" data-name="Calque 1" xmlns="http://www.w3.org/2000/svg" xmlns:xlink="http://www.w3.org/1999/xlink" viewBox="0 0 3840 2160">
  <defs>
    <style>
      .cls-1 {
        fill: url(#Dégradé_sans_nom_144);
      }

      .cls-1, .cls-2 {
        opacity: .7;
      }

      .cls-2 {
        fill: url(#Dégradé_sans_nom_144-2);
      }

      .cls-3, .cls-4, .cls-5, .cls-6 {
        fill: #fff;
      }

      .cls-7 {
        opacity: .48;
      }

      .cls-4 {
        opacity: .7;
      }

      .cls-4, .cls-5, .cls-6 {
        isolation: isolate;
      }

      .cls-5 {
        opacity: .2;
      }

      .cls-6 {
        opacity: .5;
      }
    </style>
    <linearGradient id="Dégradé_sans_nom_144" data-name="Dégradé sans nom 144" x1="167.848" y1="-.1592" x2="3971.9569" y2="2077.4695" gradientUnits="userSpaceOnUse">
      <stop offset="0" stop-color="#1e4f77"/>
      <stop offset=".6448" stop-color="#0084c4"/>
      <stop offset="1" stop-color="#00a6dc"/>
    </linearGradient>
    <linearGradient id="Dégradé_sans_nom_144-2" data-name="Dégradé sans nom 144" x1="320.3476" y1="2310.3847" x2="4062.3471" y2="4354.0922" xlink:href="#Dégradé_sans_nom_144"/>
  </defs>
  <g>
    <path class="cls-1" d="M-36.6629-293.4757c.9262,174.6545-1.0542,349.308-4.2039,523.9395-3.1625,175.3398-7.4944,350.6627-11.1957,525.9945-3.692,174.9159-6.7521,349.8467-7.413,524.7924-.3281,87.0694-.7866,174.0569-4.155,261.0894-3.3301,86.0748-8.3485,172.0942-13.5461,258.0991-7.2396,119.8067-14.7678,239.6418-18.7751,359.5607h3945.7621V-293.4757H-36.6629Z"/>
    <g class="cls-7">
      <path class="cls-3" d="M3814.2372,1757.7502c-3.0691,2.8091-3.2815,7.5733-.4731,10.6462.304.3323,21.8057,23.9926,37.1483,48.9851v-26.976c-12.8122-17.6487-25.0663-31.1278-26.0312-32.1829-2.8098-3.0684-7.5718-3.2785-10.6439-.4724Z"/>
      <path class="cls-3" d="M3788.6186,1721.2652c24.74,0,46.99,10.8245,62.2937,27.9741v-20.7508c-16.9914-13.9085-38.673-22.2878-62.2937-22.2878h-18.5639c-4.1609,0-7.5334,3.372-7.5334,7.5328v44.4011c0,34.3853,17.7098,64.6964,44.4733,82.3393h-276.5327l-109.1633-348.1016h136.4794v28.8258h-7.3566c-4.1614,0-7.534,3.372-7.534,7.5328s3.3726,7.5317,7.534,7.5317h29.7811c4.162,0,7.534-3.3708,7.534-7.5317s-3.372-7.5328-7.534-7.5328h-7.356v-28.8258h45.1191c3.2673,0,6.1639-2.1072,7.1686-5.215,1.0053-3.1102-.1094-6.5112-2.7599-8.4264l-202.7228-146.3423,138.1264.3723v27.3656h-7.3566c-4.1614,0-7.534,3.372-7.534,7.5328s3.3726,7.5328,7.534,7.5328h29.7811c4.162,0,7.534-3.3708,7.534-7.5328s-3.372-7.5328-7.534-7.5328h-7.356v-27.3237l45.0975.121h.0215c3.2056,0,6.0615-2.0281,7.1151-5.0568,1.0559-3.0345.0716-6.4065-2.4533-8.395l-205.7212-162.0374c-.1373-.1757-.224-.3805-.3799-.5457l-121.277-128.7622c-1.4358-1.5277-3.4656-2.2666-5.5437-2.3678-2.0961.0151-4.0905.9029-5.5042,2.4516l-116.514,127.5893c-.1152.0628-.2222.1513-.3363.2187-.1484.0908-.2932.1862-.434.2886-.0814.0582-.1687.1012-.2478.1617l-206.4421,161.2206c-2.5313,1.9757-3.5302,5.3407-2.4888,8.3776,1.0408,3.0369,3.8938,5.0824,7.1052,5.0905l46.8109.1245v28.8445h-7.3566c-4.1609,0-7.5334,3.372-7.5334,7.5328s3.3726,7.5328,7.5334,7.5328h29.7817c4.1603,0,7.5334-3.3708,7.5334-7.5328s-3.3731-7.5328-7.5334-7.5328h-7.3571v-28.8002l133.133.3584-206.8499,147.0136c-2.6721,1.8989-3.8089,5.3093-2.8141,8.4299.9983,3.1253,3.9002,5.2441,7.1785,5.2441h54.2844v28.8258h-7.3566c-4.1609,0-7.5334,3.372-7.5334,7.5328s3.3726,7.5317,7.5334,7.5317h29.7817c4.1603,0,7.5334-3.3708,7.5334-7.5317s-3.3731-7.5328-7.5334-7.5328h-7.3571v-28.8258h134.2623l-52.6042,164.3017c-.0087.0268-.0163.0541-.025.0791l-58.8181,183.7208h-200.6354v-58.7309h89.7616c4.6135,0,8.9052-2.2875,11.4819-6.1145,2.5755-3.8269,3.0764-8.6644,1.3369-12.941l-29.2476-71.9005c-.0023-.0076-.0047-.0151-.0081-.0221l-14.7422-36.2412c-2.1293-5.2412-7.1617-8.6237-12.8189-8.6237h-235.0922c-5.4082,0-10.3521,3.1753-12.5931,8.0931l-49.3416,108.1679c-1.9617,4.3022-1.6069,9.2467.9518,13.2255,2.5587,3.9776,6.9092,6.3565,11.6402,6.3565h93.6636v58.8158h-173.3122c26.3393-17.7145,43.7065-47.7888,43.7065-81.8477v-44.3982c0-4.1603-3.372-7.5328-7.534-7.5328h-18.5656c-33.4091,0-62.9691,16.7232-80.8052,42.2241-17.7907-25.8285-47.5544-42.8036-81.2206-42.8036h-18.5633c-4.162,0-7.5352,3.372-7.5352,7.5328v44.4011c0,34.4406,17.7686,64.7936,44.6059,82.4243h-57.789l-109.1912-348.1866h136.48v28.8258h-7.3571c-4.1609,0-7.534,3.372-7.534,7.5328s3.3731,7.5317,7.534,7.5317h29.7811c4.1609,0,7.534-3.3708,7.534-7.5317s-3.3731-7.5328-7.534-7.5328h-7.3571v-28.8258h45.1202c3.2673,0,6.1633-2.1072,7.1686-5.215,1.0053-3.1102-.1094-6.5112-2.7588-8.4264l-202.7245-146.3423,138.1276.3723v27.3656h-7.3571c-4.1609,0-7.534,3.372-7.534,7.5328s3.3731,7.5328,7.534,7.5328h29.7811c4.1609,0,7.534-3.3708,7.534-7.5328s-3.3731-7.5328-7.534-7.5328h-7.3571v-27.3237l45.0993.121h.0209c3.2056,0,6.0621-2.0281,7.1151-5.0568,1.0553-3.0345.0721-6.4065-2.4539-8.395l-205.7207-162.0374c-.1373-.1757-.2234-.3805-.3805-.5457l-121.277-128.7622c-1.4347-1.5277-3.4651-2.2666-5.5443-2.3678-2.0944.0151-4.0899.9029-5.5024,2.4516l-116.5134,127.5893c-.1164.0628-.2234.1513-.3363.2187-.1478.0908-.2944.1862-.4352.2886-.0814.0582-.1687.1012-.2478.1617l-206.4421,161.2206c-2.5319,1.9757-3.5302,5.3407-2.4888,8.3776,1.0402,3.0369,3.8932,5.0824,7.1058,5.0905l46.8109.1245v28.8445h-7.3571c-4.1609,0-7.534,3.372-7.534,7.5328s3.3731,7.5328,7.534,7.5328h29.7811c4.1609,0,7.534-3.3708,7.534-7.5328s-3.3731-7.5328-7.534-7.5328h-7.356v-28.8002l133.1325.3584-206.8505,147.0136c-2.6715,1.8989-3.8083,5.3093-2.8135,8.4299.9972,3.1253,3.9002,5.2441,7.1768,5.2441h54.2867v28.8258h-7.3571c-4.1609,0-7.534,3.372-7.534,7.5328s3.3731,7.5317,7.534,7.5317h29.7811c4.1609,0,7.534-3.3708,7.534-7.5317s-3.3731-7.5328-7.534-7.5328h-7.356v-28.8258h134.2623l-52.6042,164.3017c-.0093.0268-.0163.0541-.0256.0791l-58.8443,183.8057h-320.8041c-.0023,0-.0058.0017-.007.0017h-50.7693c-.0326-.2118-.0291-.4235-.0826-.6353l-19.5628-137.4969c9.5004,11.7373,22.3565,22.9167,39.1256,32.4183,44.1545,25.7128,85.5164,20.1213,103.4014,16.2094,9.5016-2.2358,15.6521-12.2947,12.2953-21.7974-5.0312-17.327-21.2395-55.8924-65.3951-81.6046-29.062-16.7679-57.0106-20.1213-77.6915-19.5611,7.2675-16.2106,13.4169-36.3331,13.4169-60.9247,0-45.8783-20.0015-77.0266-33.4498-92.3505,24.6615,2.9682,50.17,4.6728,76.1568,4.98,2.8751.0361,5.741.0524,8.6021.0524,84.7613,0,163.0392-14.9493,221.2168-42.3475l15.2297-7.1721c3.8432-1.8105,5.4896-6.3914,3.6815-10.2369-1.8093-3.842-6.3856-5.4931-10.2369-3.6792l-15.2297,7.171c-118.118,55.6236-322.6367,53.9749-446.6108-3.6012-3.8514-1.7907-8.4241-.1164-10.2148,3.735-1.7872,3.8525-.1175,8.4264,3.7373,10.216,35.4081,16.4456,77.531,28.7944,123.4459,36.5309-12.9934,13.7299-37.4978,46.4793-37.4978,96.7022,0,24.5934,5.5909,45.2732,13.4158,60.9247-20.1225,0-46.392,3.9107-73.22,19.5611-43.5936,25.7064-59.2411,64.2735-64.832,81.5987-2.7949,9.5016,2.7949,19.5634,12.8561,21.7986v.0029c17.8838,4.4739,58.6872,9.5016,103.4014-16.2089,16.2094-9.5004,29.0632-20.6798,38.5671-31.8563l-20.1201,136.9361c-.0279.2118-.0116.4218-.0209.6353h-173.9033l-109.6601-347.7112h137.7867v28.5303h-4.4587c-4.4587,0-7.1291,3.5663-7.1291,7.1326s3.564,7.1291,7.1291,7.1291h24.0716c4.4599,0,7.1314-3.5628,7.1314-7.1291.0047-3.5663-2.6715-7.1326-7.1314-7.1326h-5.35v-27.6355l52.1155-.0035c.8913,0,1.7837,0,3.5663-.8913,0,0,.8913,0,.8913-.8913.8913,0,.8913-.8913,1.7837-1.7837v-.889s.8913-.8913.8913-1.7861v-.8913l.0023.0093v-3.5686q0-.8913-.889-.8913l-1.7826-1.7826-206.84-147.9968,135.7086.0093v26.7442h-4.4576c-4.4599,0-7.1302,3.5663-7.1302,8.025s3.5651,8.025,7.1302,8.025h24.0716c4.4587,0,7.1314-3.5651,7.1314-8.025s-3.5651-8.025-7.1314-8.025h-5.3512v-26.7442l52.4157-.0093c.8901,0,1.7837,0,3.5663-.8901,0,0,.8901,0,.8901-.8913.8913,0,.8913-.8901,1.7837-1.7814v-.8936c0-.8913.8913-.8913.8913-1.7837v-6.239l-1.7814-1.7814-215.7633-164.055-120.3625-132.8462s-.889,0-.889-.8901l-.8936-.8924h-6.2401c-.8936,0-.8936.8924-.8936.8924,0,0-.889,0-.889.8901l-121.2538,132.8462-213.0848,164.0469-1.7814,1.7802v6.2401q0,.8913.8913,1.7849v.8913q.8901.889,1.7837,1.7837s.889,0,.889.8901c.8913,0,1.7861.8924,2.6762.8924h53.2209v26.7442h-4.4599c-4.4587,0-8.0239,3.5663-8.0239,8.025s3.5651,8.025,8.0239,8.025h24.0727c4.4587,0,8.025-3.5651,8.025-8.025s-3.5663-8.025-8.025-8.025l-4.4599.0035v-26.7466h133.1173l-205.9499,147.1079-1.7814,1.7802s0,.8913-.8913.8913v5.3512q0,.8901.8913,1.7837v.8901l1.7826,1.7837s.8924,0,.8924.8913c.889.8913,1.7837.8913,3.5651.8913l53.1953-.9204-.0035,27.6379h-4.4576c-4.4599,0-8.025,3.5675-8.025,7.1326s3.5651,7.1302,8.025,7.1302h24.0704c4.4587,0,8.0262-3.564,8.0262-7.1302.0012-3.5651-4.4564-7.1326-8.9151-7.1326h-3.5675v-27.6355l134.0319.9204-109.6601,346.8141-219.3831-.6365.1501-59.6286,120.7022.6528c6.232.0285,12.0486-3.013,15.5613-8.1437,3.5547-5.1941,4.2283-11.6448,1.8117-17.7814l-46.1162-106.3039c-3.0136-6.9179-9.5574-11.2347-17.0775-11.2707l-240.1234-1.1356c-7.5491-.0372-14.1406,4.2219-17.2031,11.1113l-45.5926,102.4025c-5.599-1.2386-11.6623-2.3888-18.0502-3.422-1.8896-.2961-3.7792.1565-5.3186,1.2968-.9134.6737-1.6383,1.5394-2.1281,2.5243l-.3747-.0012-.3095,2.1654c-4.9823,34.8769-1.814,64.2374,9.3468,87.4712H102.2257L-6.7456,1492.3725h136.4788v28.8258h-7.3571c-4.1609,0-7.5328,3.372-7.5328,7.5328s3.372,7.5317,7.5328,7.5317h29.7811c4.162,0,7.534-3.3708,7.534-7.5317s-3.372-7.5328-7.534-7.5328h-7.356v-28.8258h45.1191c3.2684,0,6.1633-2.1072,7.1698-5.215,1.0041-3.1102-.1105-6.5112-2.7599-8.4264L-8.3944,1332.3887l138.1276.3723v27.3656h-7.3571c-4.1609,0-7.5328,3.372-7.5328,7.5328s3.372,7.5328,7.5328,7.5328h29.7811c4.162,0,7.534-3.3708,7.534-7.5328s-3.372-7.5328-7.534-7.5328h-7.356v-27.3237l45.0981.121h.0209c3.2056,0,6.0609-2.0281,7.1151-5.0568,1.0565-3.0345.0721-6.4065-2.4539-8.395L-11.1392,1157.4347c-.1385-.1757-.2246-.3805-.3793-.5457l-47.822-50.7728c-.0314,7.2897-.0768,14.5793-.1024,21.869l24.9943,26.536h-25.0955c-.0186,5.1394-.0349,10.2788-.0547,15.4171h18.9927l-19.052,13.5403c-.0279,6.1831-.0559,12.3662-.0884,18.5493l35.2091-25.0234v140.2732l-4.809-.014-31.1657-22.4984c-.0745,6.1366-.1594,12.272-.2467,18.4074l5.5723,4.0212-5.6258-.0151c-.0756,5.2488-.1582,10.4964-.2455,15.7452h19.1218l-19.3534,12.8724c-.1105,6.1063-.2059,12.2138-.3328,18.3201l37.0847-24.6638v131.3278l-39.2722-26.1183c-.1978,5.8946-.4119,11.7879-.6213,17.6825l22.495,14.9621h-23.022c-.1873,5.0219-.3933,10.0438-.5876,15.0657h20.923l-21.414,12.6222c-.2374,5.9725-.4771,11.9462-.7237,17.9187l45.4076-26.764,45.7706,145.9525-93.9626-55.4805c-.2618,5.6764-.5317,11.3516-.7982,17.0274l91.5657,54.0644-96.4026,44.1341c-.2897,5.6572-.5829,11.3144-.8738,16.9716l108.8957-49.853,51.2277,163.3581-162.1526-74.2538c-.2804,5.3954-.5597,10.7914-.8401,16.1868l143.267,65.6046H-82.3125c-.2409,4.6926-.484,9.384-.7226,14.0767h378.8025c15.7429,22.097,40.274,35.6896,73.22,40.3985l14.869,1.2892.1838-.0105c39.9808-2.337,69.7887-16.3927,88.6185-41.7814l8.103.0401,272.597.9495h892.8005c.1862,0,.3502-.0419.5283-.0553h792.4976c6.2925,1.2636,12.7956,1.9373,19.4523,1.9373,2.7146,0,13.7904.5765,17.0798.5765,7.5759,0,14.9423-.8878,22.033-2.5139h339.5757c.0431.0017.0826.0134.1257.0134h1004.2612c3.0188.605,6.0894,1.0658,9.1996,1.3887v-15.6963h-3.6477c-39.484-6.6107-69.6758-41.0065-69.6758-82.3393v-36.8695h11.0299ZM-9.4695,1177.9295l177.5732,139.8694-177.5732-.4794v-139.39ZM-9.4695,1350.1969l176.0815,127.1099H-9.4695v-127.1099ZM657.3273,1760.4252c.6237,1.3875.4875,2.9938-.3572,4.2918-.8471,1.3009-2.2503,2.042-3.849,2.0345l-92.8596-.4398-5.4303-28.8776,92.713.4561,9.7831,22.5351ZM628.8563,1694.7642l12.5361,28.8927-89.2258-.4218-5.428-28.8596,82.1177.3886ZM607.1631,1651.6406c1.9722.0105,3.3033.8954,4.155,2.7285l11.3598,26.1788-78.6235-.3741-5.428-28.8747,68.5367.3415ZM450.0079,1650.8802l74.1881.3502,5.428,28.8776-85.3175-.4026,5.7014-28.8253ZM441.5047,1693.8776l90.8024.4294,5.4268,28.8596-101.9295-.4829,5.7002-28.8061ZM362.859,1653.18c.7796-1.7692,2.2224-2.7018,4.1748-2.6948l68.539.3252-5.7014,28.827-78.6224-.3729,11.6099-26.0845ZM344.9531,1693.4191l82.1212.3886-5.7026,28.8072-89.2293-.4212,12.8107-28.7746ZM325.8406,1736.3519l92.7142.4369-5.7014,28.8241-62.8725-.2985c-9.2002-4.6269-19.8479-8.6562-31.6986-11.9945l7.5584-16.9681ZM382.8093,1864.1029c-9.7692-21.9673-25.8786-45.3221-44.1277-63.7475-3.2277-3.2422-7.5561-2.4109-9.9961.0081-2.4365,2.4196-3.2963,6.7445-.0838,9.9856,20.5832,20.7799,37.4035,46.8184,45.5775,70.3844-28.5035-3.3958-50.1375-14.0615-64.3351-31.7277-16.5259-20.5669-22.78-49.9554-18.6052-87.3868,43.3912,7.9517,71.0628,22.1628,84.5495,43.4162,9.8355,15.4985,12.1905,35.3417,7.0209,59.0677ZM371.9638,1779.6075l30.7946.146c-5.7724,5.8911-10.4464,12.3627-13.9603,19.3278-4.3226-7.1244-9.9588-13.6426-16.8343-19.4738ZM472.9403,1823.0411c-11.2201,32.733-39.5084,53.1132-79.879,57.6761,1.6115-5.2721,2.9496-10.4359,3.9852-15.3996,5.9295-10.2113,13.1586-22.0464,21.8899-32.7837,8.8232-10.8443,18.2957-19.5901,29.8032-27.5291,2.1386-1.4765,3.2533-3.7344,3.0567-6.1948-.2071-2.6075-1.8687-5.0172-4.2295-6.1395-2.2294-1.0553-4.7357-.818-6.8684.6568-15.9884,11.0206-28.8898,23.9692-41.1118,41.3823-.3654-5.8922-1.2787-11.543-2.732-16.8796,3.6489-14.8475,13.2156-27.9584,27.6995-37.9533,14.2989-9.8355,32.5608-16.2164,51.6501-18.0746.64,3.906,1.1461,7.7685,1.4998,11.4464,1.3288,23.3414,1.0972,29.165-4.7636,49.7925ZM428.1517,1761.26l4.8311-24.416,107.4191.5079,5.4303,28.8747-54.7288-.2595c-.5527-4.2155-1.252-8.4794-2.0665-12.6088-.4875-3.6227-3.6629-6.2157-7.3153-6.1168-18.8193.8372-37.6269,5.7829-53.5699,14.0185ZM517.9931,1839.8615l-36.667-.1728c1.195-2.4051,2.3155-4.9131,3.3499-7.5032,0,0,3.0846-7.6178,4.468-14.1779,2.817-11.6506,3.9037-24.3531,3.2428-37.8445l25.7727.0419-.1664,59.6565ZM1120.6944,1174.5645l186.3324,141.759h-186.3324v-141.759ZM1120.6886,1346.6434l184.5545,131.9491h-184.5545v-131.9491ZM1109.0961,1492.8483l48.1478,151.5689-149.7852-90.9409,100.7462-60.628h.8913ZM994.0906,1254.8065l85.5932,61.517h-172.0707l86.4775-61.517ZM993.1994,1236.0827l-97.1787-69.5409h193.4673l-96.2886,69.5409ZM1089.488,1332.3747l-97.1775,62.4094-98.07-62.4094h195.2475ZM1106.4281,1339.5073v127.4904l-98.9671-63.3019,98.9671-64.1885ZM978.9365,1403.6982l-98.0677,63.303-.0023-125.7102,98.07,62.4071ZM992.3104,1412.6133l101.6339,65.0856h-202.3801l100.7462-65.0856ZM1078.7868,1492.8542l-85.5874,51.7106-85.5862-51.7106h171.1736ZM1153.6765,1658.683l-160.4794,73.1089-160.4794-73.1089,160.4794-97.1787,160.4794,97.1787ZM1106.4281,1317.2171l-99.856-71.3269,99.856-71.3257v142.6526ZM993.197,1038.159l103.4223,114.12-206.8412-.0035,103.4188-114.1165ZM879.9706,1174.5645l99.8572,71.3257-98.9671,71.3246h-.8901v-142.6503ZM681.1522,1316.3235l184.5533-141.759v141.759h-184.5533ZM682.0446,1478.5925l182.7661-131.059v131.059h-182.7661ZM876.4055,1493.7489l1.7814-.0035-.0023-.8913,100.745,60.6269-149.7782,90.9421,47.2542-150.6742ZM821.1251,1670.2726l154.2428,69.5414-205.951,93.6113,51.7083-163.1527ZM791.7036,1839.6741l201.4935-90.9426,201.4935,90.9426h-402.9869ZM1011.9221,1740.7082l154.2405-69.5443,50.8193,162.2672-205.0598-92.7229ZM1488.6561,1645.4174c17.8838-.5573,41.9181,2.7954,67.6268,17.327,39.1279,22.9162,53.0999,56.4521,57.5714,71.5422v.5591h-.5608c-15.6509,3.9119-51.4197,8.384-91.105-13.9725-20.6798-11.7385-34.0932-26.8298-43.0363-40.2432,6.147-6.7061,10.0624-16.2094,10.0624-26.2684.5573-3.3545,0-6.1488-.5585-8.9442ZM1450.0879,1481.6526c11.7379,11.7356,33.5359,40.2403,33.5359,86.0732,0,21.7991-5.0312,39.6847-11.7379,53.6572-6.147-3.9119-13.4146-6.7061-21.2395-6.7061-8.3846,0-15.6509,2.796-22.3577,6.7061-6.7067-13.9725-11.7379-32.4201-11.7379-54.2157,0-45.2732,22.3577-74.3388,33.5371-85.5147ZM1380.7797,1720.8731c-39.1244,22.9167-75.4552,17.8855-91.105,13.9737,1.1182,0,.5597,0,.5597-.5585v-.0017c4.4715-15.0884,18.4446-49.1845,57.5702-71.541,24.0343-13.9737,46.9493-17.3282,64.2758-17.3282-.5585,2.7954-1.1158,5.5914-1.1158,8.9425,0,11.18,4.4704,21.2406,11.7356,27.9462-8.9419,12.8561-22.3565,27.3889-41.9205,38.5671ZM1428.2887,1653.8013c0-12.2958,10.0612-22.3577,22.3577-22.3577s22.3565,10.0618,22.3565,22.3577-10.0612,22.3565-22.3565,22.3565-22.3577-10.0607-22.3577-22.3565ZM1425.1622,1840.5607l21.0114-147.6367h3.9119c2.2375,0,4.4739,0,6.7079-.5591l21.0126,148.1958h-52.6437ZM2234.9665,1177.9295l177.5755,139.8694-177.5755-.4794v-139.39ZM2234.9665,1350.1969l176.0838,127.1099h-176.0838v-127.1099ZM2268.8538,1642.1018l-146.5657-86.5403,100.7962-59.4121,45.7695,145.9525ZM2189.2494,1317.1939l-165.9702-.4491,83.3185-59.2132,82.6518,59.6623ZM2011.0037,1169.9382h192.8285l-97.1647,69.058-95.6638-69.058ZM2202.5011,1332.9239l-94.9354,63.1436-94.9354-63.1436h189.8708ZM2219.8985,1339.4526v131.3278l-98.7286-65.6627,98.7286-65.6651ZM2202.5011,1477.3068h-189.8708l94.9354-63.1425,94.9354,63.1425ZM2199.8133,1492.3725l-92.35,54.4339-92.1882-54.4339h184.5382ZM2265.661,1657.7132l-159.2507,72.9058-158.2128-72.4468,159.26-93.869,158.2035,93.41ZM2219.8985,1317.2776l-4.8078-.014-95.5206-68.9544,100.3284-71.3048v140.2732ZM2106.2416,1044.37l103.7458,110.1511h-204.336l100.5902-110.1511ZM1995.2318,1177.136l98.4621,71.0779-96.3247,68.4611-2.1374-.0058v-139.5332ZM1995.2318,1339.4526l98.7297,65.6651-98.7297,65.6651v-131.3301ZM1803.0677,1316.149l177.0961-138.301v138.7803l-177.0961-.4794ZM1797.3674,1477.3068l182.7964-129.9187v129.9187h-182.7964ZM1991.9948,1496.1249l100.6379,59.4243-147.4965,86.9365,46.8586-146.3609ZM1936.5201,1669.3976l151.7923,69.5089-203.9358,93.3593,52.1434-162.8682ZM1902.4653,1840.559l203.9427-93.3669,203.895,93.3669h-407.8378ZM2124.5059,1738.9064l152.7732-69.9405,51.2277,163.3581-204.0009-93.4175ZM2469.6666,1824.6195c-15.4299-31.4153-45.702-64.7127-47.2414-66.3969-2.81-3.0683-7.5724-3.2783-10.643-.4724-3.0706,2.8094-3.2824,7.5736-.4747,10.6459.4003.4352,37.35,41.0815,48.9099,72.1629h-14.9365c-39.7167-6.4141-70.1482-40.9274-70.1482-82.4243v-36.8695h11.0305c46.0452,0,83.5035,37.4611,83.5035,83.5058v19.8485ZM2492.1185,1840.559h-7.3129c-.3304-2.1206-.071-6.8876-.071-9.9519v-10.7611c15.3961-25.6749,37.9993-50.5284,38.31-50.8699,2.8077-3.0729,2.5959-7.8371-.4736-10.6459-3.0729-2.8111-7.8354-2.5959-10.643.4724-1.0111,1.1054-14.4059,15.8441-27.8543,34.7204-1.1961-10.4749-4.0422-20.4488-8.2694-29.6688,14.4292-25.0658,41.4469-42.0095,72.3846-42.0095h11.0328v36.8666c0,40.4282-28.8898,74.2026-67.1032,81.8477ZM2894.1781,1660.4598l10.522,25.8698h-73.1886l-5.1464-25.8698h67.813ZM2832.7484,1767.1819h-112.6621l5.2558-25.8675h102.2599l5.1464,25.8675ZM2741.7772,1660.4598h69.7398l5.1452,25.8698h-80.1443l5.2593-25.8698ZM2733.5602,1700.8891h85.9993l5.1464,25.8646h-96.4038l5.2581-25.8646ZM2660.0377,1660.4598h66.8786l-5.2581,25.8698h-73.4201l11.7996-25.8698ZM2705.2243,1767.1819h-93.8661l11.7996-25.8675h87.3246l-5.2581,25.8675ZM2629.7982,1726.7537l11.7984-25.8646h77.1028l-5.2581,25.8646h-83.6431ZM2834.339,1840.559h-115.8816v-58.8158h115.8816v58.8158ZM2834.4076,1700.8891h76.2138l10.522,25.8646h-81.5883l-5.1476-25.8646ZM2842.4513,1741.3144h84.6147l10.5214,25.8675h-89.9909l-5.1452-25.8675ZM3418.5759,1177.9295l177.5738,139.8694-177.5738-.4794v-139.39ZM3418.5759,1350.1969l176.0821,127.1099h-176.0821v-127.1099ZM3452.4626,1642.1018l-146.5663-86.5403,100.7962-59.4121,45.7701,145.9525ZM3372.8588,1317.1939l-165.9708-.4491,83.3179-59.2132,82.6529,59.6623ZM3194.6119,1169.9382h192.8268l-97.1642,69.058-95.6626-69.058ZM3386.1105,1332.9239l-94.9354,63.1436-94.9371-63.1436h189.8725ZM3403.5079,1339.4526v131.3278l-98.7297-65.6627,98.7297-65.6651ZM3386.1105,1477.3068h-189.8725l94.9371-63.1425,94.9354,63.1425ZM3383.4221,1492.3725l-92.3505,54.4339-92.1876-54.4339h184.5382ZM3449.2692,1657.7132l-159.2513,72.9058-158.2128-72.4468,159.2606-93.869,158.2035,93.41ZM3403.5079,1317.2776l-4.809-.014-95.5212-68.9544,100.3302-71.3048v140.2732ZM3289.8498,1044.37l103.7458,110.1511h-204.3354l100.5897-110.1511ZM3178.8405,1177.136l98.4627,71.0779-96.3264,68.4611-2.1363-.0058v-139.5332ZM3178.8405,1339.4526l98.7291,65.6651-98.7291,65.6651v-131.3301ZM2986.6759,1316.149l177.0973-138.301v138.7803l-177.0973-.4794ZM2980.9756,1477.3068l182.7975-129.9187v129.9187h-182.7975ZM3175.603,1496.1249l100.6379,59.4243-147.4953,86.9365,46.8574-146.3609ZM3120.1283,1669.3976l151.7923,69.5089-203.9346,93.3593,52.1423-162.8682ZM3086.2585,1840.4741l203.7577-93.282,203.7106,93.282h-407.4684ZM3308.1141,1738.9064l152.7732-69.9405,51.2277,163.3581-204.0009-93.4175Z"/>
      <path class="cls-3" d="M3850.9123,956.7957l-295.4926,118.279c-3.8619,1.5483-5.7396,5.9326-4.1942,9.7967,1.1788,2.9432,4.008,4.7344,6.9973,4.7344.9314,0,1.8799-.1758,2.7979-.541l289.8916-116.0377v-16.2315Z"/>
      <path class="cls-3" d="M3850.9123,1158.858l-146.3086,54.1592c-4.0229,1.0625-6.4236,5.183-5.3633,9.2066.8912,3.3813,3.9424,5.6152,7.2805,5.6152.6356,0,1.2808-.0805,1.9261-.2489l142.4653-52.7375v-15.9946Z"/>
      <path class="cls-3" d="M3850.9123,1392.5279l-102.7322,11.658c-4.1339.4679-7.1054,4.2009-6.6367,8.3348.4366,3.8463,3.6958,6.6836,7.4764,6.6836.2846,0,.5693-.0164.8584-.0492l101.0341-11.4658v-15.1615Z"/>
      <path class="cls-3" d="M1274.8214,1242.6419c72.2296,34.406,166.5006,49.1538,261,49.1538,97.7864,0,195.8131-15.8017,269.8094-41.9632.2434-.0856.4807-.1833.7151-.2929l15.2301-7.1726c3.8428-1.8102,5.4893-6.393,3.6806-10.2358-1.8057-3.8428-6.3877-5.4946-10.2365-3.6813l-14.8786,7.0074c-142.5904,50.2911-375.4497,61.5349-518.704-6.7039-3.8308-1.8275-8.4248-.1983-10.2516,3.6363-1.8268,3.8353-.1983,8.4255,3.6355,10.2523Z"/>
      <path class="cls-3" d="M1758.2338,1329.1214l-15.2301,7.1726c-121.7327,57.3262-261.5408,57.6943-383.577,1.0163-3.8548-1.79-8.4248-.1164-10.2155,3.7362-1.7877,3.8526-.1172,8.4263,3.7377,10.2155,62.7142,29.1277,129.9472,43.6818,197.1892,43.6818,68.0503,0,136.1095-14.9184,199.4216-44.7326l15.2301-7.1726c3.8428-1.8102,5.4893-6.393,3.6806-10.2358-1.8057-3.8421-6.3817-5.4923-10.2365-3.6813Z"/>
      <path class="cls-3" d="M2414.9252,1264.6631c71.2471,25.2007,180.0692,40.3828,287.9389,40.3828,88.4542,0,176.2805-10.2178,242.1314-33.4993.2434-.0856.4807-.1833.7151-.2929l15.2301-7.1719c3.8428-1.8095,5.4893-6.3922,3.6806-10.2358-1.8087-3.8406-6.3847-5.4938-10.2365-3.6813l-14.8786,7.0066c-143.2784,50.4841-392.3083,37.9603-519.4492-7.0111-4.0171-1.4166-8.4038.682-9.8159,4.6864-1.4182,4.0051.679,8.4,4.6841,9.8166Z"/>
      <path class="cls-3" d="M2689.4999,1416.6577c68.0503,0,136.1125-14.9184,199.4246-44.7326l15.2301-7.1726c3.8428-1.8102,5.4893-6.393,3.6806-10.2358-1.8087-3.8421-6.3847-5.4931-10.2365-3.6813l-15.2301,7.1726c-121.7327,57.3255-261.5378,57.6958-383.577,1.0163-3.8548-1.7907-8.4248-.1164-10.2155,3.7354-1.7877,3.8533-.1172,8.427,3.7377,10.2163,62.7112,29.1277,129.9442,43.6818,197.1862,43.6818Z"/>
      <path class="cls-3" d="M2448.3389,1445.4324c-1.7877,3.8533-.1172,8.427,3.7377,10.2163,61.4583,28.5463,143.0801,44.8348,229.8247,45.8646,2.8754.0346,5.7417.0511,8.6021.0511,84.7616,0,163.0394-14.9507,221.2167-42.347l15.2301-7.1726c3.8428-1.8102,5.4893-6.393,3.6806-10.2358-1.8087-3.8413-6.3847-5.4938-10.2365-3.6813l-15.2301,7.1726c-118.1212,55.6241-322.6385,53.9746-446.6096-3.6032-3.8548-1.7922-8.4248-.1164-10.2155,3.7354Z"/>
      <path class="cls-3" d="M145.4498,1242.7711c78.6353,33.5767,173.8318,47.5719,266.5855,47.5719,98.2791,0,193.8121-15.7183,263.9355-40.5105.2434-.0856.4807-.1833.7151-.2929l15.2331-7.1726c3.8428-1.8095,5.4893-6.3922,3.6806-10.235-1.8087-3.8421-6.3847-5.4953-10.2365-3.6821l-14.8816,7.0074c-133.6157,47.116-360.7604,60.7281-518.9925-6.8331-3.9029-1.6668-8.4248.1442-10.0923,4.0531-1.6705,3.9067.1442,8.4263,4.0531,10.0938Z"/>
      <path class="cls-3" d="M420.4781,1394.9438c68.0503,0,136.1095-14.9184,199.4216-44.7326l15.2331-7.1726c3.8428-1.8095,5.4893-6.3922,3.6806-10.235-1.8087-3.8421-6.3847-5.4931-10.2365-3.6821l-15.2331,7.1726c-121.7327,57.3262-261.5438,57.6943-383.577,1.0163-3.8548-1.79-8.4248-.1164-10.2155,3.7362-1.7877,3.8526-.1172,8.4263,3.7377,10.2155,62.7142,29.1277,129.9472,43.6818,197.1892,43.6818Z"/>
      <path class="cls-3" d="M179.3141,1423.7192c-1.7877,3.8526-.1172,8.4263,3.7377,10.2155,61.4613,28.5463,143.0801,44.8348,229.8277,45.8646,2.8754.0346,5.7387.0511,8.599.0511,84.7616,0,163.0394-14.9507,221.2167-42.347l15.2301-7.1726c3.8428-1.8102,5.4893-6.393,3.6806-10.2358-1.8057-3.8421-6.3817-5.4931-10.2365-3.6813l-15.2301,7.1726c-118.1182,55.6257-322.6415,53.9731-446.6096-3.6032-3.8518-1.7892-8.4248-.1164-10.2155,3.7362Z"/>
    </g>
    <g>
      <polygon class="cls-3" points="1824.4104 263.4371 1803.456 263.4371 1803.456 331.8331 1854.6647 331.8331 1854.6647 314.2927 1824.4104 314.2927 1824.4104 263.4371"/>
      <polygon class="cls-3" points="1863.6115 331.8331 1884.9191 331.8331 1884.9191 305.8168 1912.2304 305.8168 1912.2304 289.6889 1884.9191 289.6889 1884.9191 280.9776 1916.4684 280.9776 1916.4684 263.4371 1863.6115 263.4371 1863.6115 331.8331"/>
      <polygon class="cls-3" points="1932.5962 332.4217 1970.7378 332.4217 1970.7378 327.8306 1937.6582 327.8306 1937.6582 298.518 1969.0898 298.518 1969.0898 293.9269 1937.6582 293.9269 1937.6582 267.9105 1970.7378 267.9105 1970.7378 263.4371 1932.5962 263.4371 1932.5962 332.4217"/>
      <path class="cls-3" d="M2032.8947,308.4066c0,5.062.2355,10.4772.5886,16.1278h-.5886l-41.5556-60.9796h-4.8265v68.6315h4.4734v-44.7341c0-3.6494-.2355-9.0645-.5886-16.3633h.2355l41.5556,61.3328h5.2975v-68.9846h-4.8265v44.9695h.2354Z"/>
      <polygon class="cls-3" points="2057.2629 332.4217 2095.4046 332.4217 2095.4046 327.8306 2062.325 327.8306 2062.325 298.518 2093.6388 298.518 2093.6388 293.9269 2062.325 293.9269 2062.325 267.9105 2095.4046 267.9105 2095.4046 263.4371 2057.2629 263.4371 2057.2629 332.4217"/>
      <path class="cls-3" d="M2149.6741,294.2801c2.5899-3.0607,3.6493-7.0633,3.6493-11.8898,0-6.4747-2.2367-11.0658-6.2392-14.362-4.2379-3.0607-10.7126-4.8266-19.1885-4.8266h-16.7164v69.2201h4.8265v-30.2543l17.1873.2354,18.3645,29.9012h5.8861l-18.8353-31.3138c4.8265-1.0595,8.4759-3.6494,11.0658-6.7101ZM2129.3083,298.1649h-13.5379v-30.2543h11.3012c7.2987,0,12.4784,1.1772,15.7747,3.6494,3.0607,2.2367,4.8265,6.2392,4.8265,11.3012s-1.6481,8.7114-4.8265,11.3012c-2.8253,2.943-7.6519,4.0025-13.5379,4.0025Z"/>
      <path class="cls-3" d="M2196.5272,301.3434h20.3658v23.4265c-4.4734,1.6481-9.8886,2.5899-16.1278,2.5899-9.8886,0-17.1873-2.5899-22.0139-7.6519-5.062-5.062-7.6519-12.7139-7.6519-22.8379,0-9.3,2.5899-16.7164,7.8873-22.0139,5.062-5.6506,12.4784-8.2405,21.4253-8.2405,6.2392,0,12.4784,1.4127,18.3645,4.238l2.0013-4.238c-5.8861-2.5899-12.7139-4.238-20.0126-4.238-7.0633,0-12.9493,1.4127-18.3645,4.238s-9.3,7.0633-12.4784,12.4785c-2.8253,5.4152-4.2379,11.3012-4.2379,18.1291,0,11.0658,2.8253,19.5417,8.4759,25.4278s14.1265,9.0645,24.8391,9.0645c8.2405,0,15.7747-1.1772,22.367-4.238v-30.7252h-25.1924l.3531,4.5911Z"/>
      <polygon class="cls-3" points="2275.1649 263.4371 2254.7992 300.7547 2234.4333 263.4371 2228.7827 263.4371 2251.9738 305.8168 2251.9738 331.8331 2257.0358 331.8331 2257.0358 305.2281 2280.2269 263.4371 2275.1649 263.4371"/>
      <g>
        <path class="cls-3" d="M1742.4764,495.8188v4.1202c0,19.8949,8.7114,30.0189,26.8404,30.0189,16.481,0,24.7215-11.6544,24.7215-23.7797,0-17.1873-8.7114-24.7215-23.3088-29.0771l-17.8936-6.2392c-23.7797-9.1823-34.1392-21.543-34.1392-44.8518,0-29.7835,20.1303-46.2644,50.8556-46.2644,41.9088,0,46.2644,26.1341,46.2644,43.086v3.6494h-26.1341v-3.4139c0-14.8329-6.5924-23.5442-22.9556-23.5442-11.1835,0-22.0139,6.2392-22.0139,23.5442,0,14.0088,7.0633,21.0721,24.486,27.6645l17.6582,6.3569c23.0734,8.2405,33.1974,20.8367,33.1974,43.3214,0,34.8455-21.0721,49.2075-54.034,49.2075-40.4961,0-49.6784-27.0759-49.6784-49.9138v-3.8848h26.1342Z"/>
        <path class="cls-3" d="M1841.1268,383.0419h88.4086v22.0139h-62.2745v45.3227h58.6252v22.0139h-58.6252v52.1505h64.1581v22.0139h-90.2922v-163.5148Z"/>
        <path class="cls-3" d="M1991.339,383.0419h33.4329l43.0859,163.5147h-27.1936l-10.124-40.0252h-47.9125l-10.4772,40.0252h-27.1936l46.3821-163.5147ZM2026.1845,485.5771l-18.7177-80.639h-.4709l-19.424,80.639h38.6126Z"/>
        <path class="cls-3" d="M2083.8679,383.0419h51.7973c31.3138,0,45.0872,19.6594,45.0872,47.6771,0,29.3126-17.1873,48.2657-47.9125,48.2657h-22.9556v67.572h-26.1341v-163.5148h.1178ZM2110.0021,459.2075h18.5999c14.0089,0,26.1341-7.5342,26.1341-28.1354,0-17.6582-7.0633-28.3708-27.8999-28.3708h-16.7164v56.5062h-.1177Z"/>
        <path class="cls-3" d="M2220.7777,383.0419h33.4329l43.0859,163.5147h-27.1936l-10.124-40.0252h-47.9125l-10.4772,40.0252h-27.3113l46.4999-163.5147ZM2255.6232,485.5771l-18.7177-80.639h-.4709l-19.424,80.639h38.6126Z"/>
        <path class="cls-3" d="M2322.9597,404.938h-38.9657v-22.0139h103.2415v22.0139h-38.2594v141.5009h-26.1341v-141.5009h.1177Z"/>
        <path class="cls-3" d="M2406.7772,383.0419h26.1341v65.453h48.0302v-65.453h26.1341v163.5148h-26.1341v-76.0479h-48.0302v76.0479h-26.1341v-163.5148Z"/>
      </g>
      <polygon class="cls-3" points="1729.998 290.513 1715.8714 290.513 1715.8714 331.8331 1757.427 331.8331 1757.427 318.2952 1729.998 318.2952 1729.998 290.513"/>
      <polygon class="cls-3" points="1715.8714 283.4497 1729.7625 283.4497 1729.7625 276.7396 1771.3181 276.7396 1771.3181 318.2952 1764.4903 318.2952 1764.4903 331.8331 1785.0915 331.8331 1785.0915 262.8485 1715.8714 262.8485 1715.8714 283.4497"/>
      <path class="cls-3" d="M1465.4784,376.9204c24.2506-16.5987,49.0898-32.9619,97.5909-32.9619,4.0025,0,7.7696.1177,11.419.3532,17.7759-11.7721,37.7885-22.0139,72.7517-22.0139,2.119,0,4.1202,0,6.1215.1177-28.3708-54.1518-85.1124-91.1162-150.4477-91.1162-66.5125,0-124.0782,38.2594-151.8604,93.9415,48.2657,10.124,60.8619,44.8518,114.425,51.6796Z"/>
      <path class="cls-6" d="M1465.4784,376.9204c-53.5632-6.7101-66.1593-41.4379-114.5427-51.7973-11.419,22.8379-18.0113,48.6189-18.0113,75.9302,0,2.7076.1177,5.4152.2354,8.1228,9.3,1.6481,19.7772,2.7076,31.5493,2.7076,50.6201,0,75.4593-17.6582,100.7694-34.9632Z"/>
      <path class="cls-6" d="M1574.4882,344.3116c47.9125,2.7076,70.8682,22.6025,97.2377,40.0252-2.119-22.1316-8.5936-43.086-18.4822-61.9214-2.0013-.1177-4.0025-.1177-6.1215-.1177-34.8455,0-54.7403,10.2417-72.634,22.0139Z"/>
      <path class="cls-5" d="M1563.0693,343.9584c-48.6189,0-73.3403,16.2455-97.5909,32.9619-25.3101,17.305-50.1492,35.0809-100.6516,35.0809-11.7721,0-22.2493-.9418-31.5493-2.7076.3532,8.7114,1.4127,17.1873,3.1785,25.4278,10.7126-1.7658,22.4848-2.7076,35.6695-2.7076,53.3277,0,83.6998,15.7746,110.8934,33.6683,36.2581-16.0101,52.2682-45.9113,111.8352-45.9113,35.0809,0,55.0935,10.3595,72.9871,22.2493,3.2962-13.0671,4.9443-26.8404,4.9443-40.8493,0-5.6506-.2355-11.1835-.8241-16.7164-26.3695-17.5405-49.3252-37.3176-97.2377-40.0252-3.8848-.3532-7.6519-.4709-11.6544-.4709Z"/>
      <path class="cls-6" d="M1482.9011,465.6822c35.905,23.662,66.1593,51.091,136.5566,51.091,2.7076,0,5.1797,0,7.7696-.1177,19.3063-20.7189,33.4328-46.2644,40.3784-74.6352-17.8936-11.7721-37.9062-22.2493-72.9872-22.2493-59.5669,0-75.4593,29.9012-111.7174,45.9113Z"/>
      <path class="cls-4" d="M1482.9011,465.6822c-27.1936-17.8936-57.5657-33.6683-110.8934-33.6683-13.1848,0-24.9569.9418-35.6695,2.7076,6.8278,33.786,23.5442,63.9226,47.2062,87.2314,15.5392-8.8291,33.9037-15.6569,62.3922-15.6569,66.1593,0,78.6378,36.8467,124.5491,50.6201,21.6607-9.4177,40.967-23.1911,56.7416-40.2607-2.5899.1177-5.062.1177-7.7696.1177-70.3973,0-100.7694-27.429-136.5566-51.091Z"/>
      <path class="cls-5" d="M1383.5444,521.8352c30.7252,30.2544,72.7517,48.972,119.3693,48.972,24.0151,0,46.853-5.062,67.572-14.0088-46.029-13.7734-58.5074-50.6201-124.5491-50.6201-28.4885.1177-46.9708,6.8278-62.3922,15.6569Z"/>
    </g>
  </g>
  <rect class="cls-2" y="2006.5509" width="3949.7372" height="2414.9136"/>
</svg>