<?xml version="1.0" encoding="UTF-8"?>
<svg id="Calque_1" data-name="Calque 1" xmlns="http://www.w3.org/2000/svg" xmlns:xlink="http://www.w3.org/1999/xlink" viewBox="0 0 5120 2880">
  <defs>
    <style>
      .cls-1 {
        fill: url(#Dégradé_sans_nom_144);
      }

      .cls-1, .cls-2 {
        opacity: .7;
      }

      .cls-2 {
        fill: url(#Dégradé_sans_nom_144-2);
      }

      .cls-3, .cls-4, .cls-5, .cls-6 {
        fill: #fff;
      }

      .cls-7 {
        opacity: .48;
      }

      .cls-4 {
        opacity: .7;
      }

      .cls-4, .cls-5, .cls-6 {
        isolation: isolate;
      }

      .cls-5 {
        opacity: .2;
      }

      .cls-6 {
        opacity: .5;
      }
    </style>
    <linearGradient id="Dégradé_sans_nom_144" data-name="Dégradé sans nom 144" x1="252.671" y1="25.2561" x2="5279.9657" y2="2770.9324" gradientUnits="userSpaceOnUse">
      <stop offset="0" stop-color="#1e4f77"/>
      <stop offset=".6448" stop-color="#0084c4"/>
      <stop offset="1" stop-color="#00a6dc"/>
    </linearGradient>
    <linearGradient id="Dégradé_sans_nom_144-2" data-name="Dégradé sans nom 144" x1="428.6742" y1="3020.1482" x2="5436.0439" y2="5754.9424" xlink:href="#Dégradé_sans_nom_144"/>
  </defs>
  <g>
    <path class="cls-1" d="M-17.599-362.3744c1.224,230.8135-1.3931,461.6256-5.5557,692.4088-4.1794,231.7192-9.9042,463.4159-14.7956,695.1246-4.8791,231.1589-8.9232,462.3375-9.7966,693.5359-.4336,115.0659-1.0395,230.0238-5.4911,345.0409-4.4009,113.7515-11.0329,227.4299-17.9017,341.0892-9.5675,158.3297-19.5163,316.697-24.8121,475.175h5214.4955V-362.3744H-17.599Z"/>
    <g class="cls-7">
      <path class="cls-3" d="M5071.5322,2348.4095c-4.056,3.7123-4.3366,10.0085-.6253,14.0694.4018.4392,28.8172,31.7072,49.0931,64.736v-35.65c-16.9319-23.3235-33.1262-41.1367-34.4014-42.531-3.7133-4.055-10.0065-4.3327-14.0664-.6243Z"/>
      <path class="cls-3" d="M5037.6762,2300.193c32.695,0,62.0994,14.3051,82.3238,36.969v-27.4231c-22.4548-18.3807-51.108-29.4543-82.3238-29.4543h-24.533c-5.4988,0-9.9557,4.4562-9.9557,9.955v58.678c0,45.4417,23.4043,85.4991,58.7734,108.815h-365.4499l-144.264-460.0314h180.3635v38.0946h-9.722c-5.4995,0-9.9565,4.4562-9.9565,9.955s4.457,9.9534,9.9565,9.9534h39.357c5.5003,0,9.9565-4.4547,9.9565-9.9534s-4.4562-9.955-9.9565-9.955h-9.7212v-38.0946h59.6268c4.3178,0,8.1459-2.7847,9.4737-6.8919,1.3286-4.1102-.1445-8.6049-3.6474-11.1359l-267.9069-193.3976,182.5401.4921v36.1648h-9.722c-5.4995,0-9.9565,4.4562-9.9565,9.955s4.457,9.955,9.9565,9.955h39.357c5.5003,0,9.9565-4.4547,9.9565-9.955s-4.4562-9.955-9.9565-9.955h-9.7212v-36.1094l59.5983.1599h.0284c4.2363,0,8.0106-2.6802,9.4029-6.6828,1.3954-4.0103.0946-8.4665-3.2422-11.0944l-271.8695-214.1395c-.1814-.2322-.296-.5028-.5021-.7212l-160.2728-170.1648c-1.8975-2.019-4.58-2.9954-7.3263-3.1292-2.7701.02-5.4057,1.1932-7.274,3.2399l-153.9783,168.6148c-.1522.083-.2937.1999-.4444.2891-.1961.1199-.3875.246-.5736.3813-.1076.0769-.223.1338-.3275.2137l-272.8221,213.06c-3.3452,2.611-4.6653,7.058-3.2891,11.0713,1.3755,4.0134,5.1459,6.7166,9.3899,6.7274l61.8626.1645v38.1192h-9.722c-5.4988,0-9.9557,4.4562-9.9557,9.955s4.457,9.955,9.9557,9.955h39.3578c5.498,0,9.9557-4.4547,9.9557-9.955s-4.4577-9.955-9.9557-9.955h-9.7228v-38.0608l175.9411.4736-273.3611,194.2849c-3.5313,2.5095-5.0336,7.0165-3.7189,11.1405,1.3193,4.1302,5.1543,6.9303,9.4867,6.9303h71.7391v38.0946h-9.722c-5.4988,0-9.9557,4.4562-9.9557,9.955s4.457,9.9534,9.9557,9.9534h39.3578c5.498,0,9.9557-4.4547,9.9557-9.9534s-4.4577-9.955-9.9557-9.955h-9.7228v-38.0946h177.4334l-69.5187,217.1318c-.0115.0354-.0215.0715-.0331.1046l-77.7307,242.795h-265.1483v-77.6154h118.6239c6.0969,0,11.7687-3.0231,15.1739-8.0805,3.4037-5.0574,4.0656-11.4504,1.7668-17.1021l-38.652-95.0197c-.0031-.01-.0062-.02-.0108-.0292l-19.4825-47.8943c-2.814-6.9265-9.4644-11.3965-16.9407-11.3965h-310.6845c-7.1472,0-13.6808,4.1963-16.6424,10.6954l-65.207,142.9485c-2.5925,5.6856-2.1235,12.22,1.2578,17.4781,3.3814,5.2566,9.1308,8.4004,15.383,8.4004h123.7805v77.7276h-229.0396c34.8086-23.4105,57.76-63.155,57.76-108.1653v-58.6742c0-5.498-4.4562-9.955-9.9565-9.955h-24.5353c-44.1515,0-83.2164,22.1004-106.7876,55.801-23.5112-34.1335-62.8452-56.5668-107.3365-56.5668h-24.5322c-5.5003,0-9.958,4.4562-9.958,9.955v58.678c0,45.5147,23.482,85.6275,58.9487,108.9273h-76.3706l-144.3009-460.1436h180.3642v38.0946h-9.7228c-5.4988,0-9.9565,4.4562-9.9565,9.955s4.4577,9.9534,9.9565,9.9534h39.357c5.4988,0,9.9565-4.4547,9.9565-9.9534s-4.4577-9.955-9.9565-9.955h-9.7228v-38.0946h59.6283c4.3178,0,8.1451-2.7847,9.4737-6.8919,1.3286-4.1102-.1445-8.6049-3.6458-11.1359l-267.9092-193.3976,182.5416.4921v36.1648h-9.7228c-5.4988,0-9.9565,4.4562-9.9565,9.955s4.4577,9.955,9.9565,9.955h39.357c5.4988,0,9.9565-4.4547,9.9565-9.955s-4.4577-9.955-9.9565-9.955h-9.7228v-36.1094l59.6006.1599h.0277c4.2363,0,8.0113-2.6802,9.4029-6.6828,1.3947-4.0103.0953-8.4665-3.243-11.0944l-271.8688-214.1395c-.1814-.2322-.2952-.5028-.5028-.7212l-160.2728-170.1648c-1.896-2.019-4.5792-2.9954-7.3271-3.1292-2.7678.02-5.405,1.1932-7.2717,3.2399l-153.9776,168.6148c-.1538.083-.2952.1999-.4444.2891-.1953.1199-.389.246-.5751.3813-.1076.0769-.223.1338-.3275.2137l-272.8221,213.06c-3.346,2.611-4.6653,7.058-3.2891,11.0713,1.3747,4.0134,5.1451,6.7166,9.3906,6.7274l61.8626.1645v38.1192h-9.7228c-5.4988,0-9.9565,4.4562-9.9565,9.955s4.4577,9.955,9.9565,9.955h39.357c5.4988,0,9.9565-4.4547,9.9565-9.955s-4.4577-9.955-9.9565-9.955h-9.7212v-38.0608l175.9403.4736-273.3618,194.2849c-3.5305,2.5095-5.0328,7.0165-3.7181,11.1405,1.3178,4.1302,5.1543,6.9303,9.4844,6.9303h71.7422v38.0946h-9.7228c-5.4988,0-9.9565,4.4562-9.9565,9.955s4.4577,9.9534,9.9565,9.9534h39.357c5.4988,0,9.9565-4.4547,9.9565-9.9534s-4.4577-9.955-9.9565-9.955h-9.7212v-38.0946h177.4334l-69.5187,217.1318c-.0123.0354-.0215.0715-.0338.1046l-77.7653,242.9072h-423.9565c-.0031,0-.0077.0023-.0092.0023h-67.0938c-.0431-.2799-.0384-.5597-.1092-.8396l-25.8531-181.7082c12.5552,15.5114,29.5451,30.2855,51.7062,42.8422,58.352,33.9805,113.0137,26.5912,136.6494,21.4215,12.5567-2.9547,20.6849-16.2479,16.2487-28.8062-6.6489-22.8984-28.0689-73.8642-86.4225-107.844-38.4067-22.1596-75.3419-26.5912-102.6727-25.8508,9.6044-21.423,17.731-48.0157,17.731-80.5147,0-60.6301-26.4328-101.7939-44.2054-122.0452,32.5912,3.9226,66.3019,6.1753,100.6445,6.5813,3.7996.0477,7.5869.0692,11.3681.0692,112.0157,0,215.4634-19.7562,292.3476-55.964l20.1268-9.4783c5.079-2.3926,7.2548-8.4465,4.8652-13.5285-2.3911-5.0774-8.4388-7.2594-13.5285-4.8622l-20.1268,9.4767c-156.098,73.509-426.3784,71.3301-590.2156-4.7591-5.0897-2.3665-11.1328-.1538-13.4993,4.936-2.3619,5.0913-.1553,11.1359,4.939,13.5009,46.7933,21.7336,102.4605,38.0531,163.1391,48.2771-17.1713,18.1447-49.555,61.4243-49.555,127.7962,0,32.5013,7.3886,59.8305,17.7295,80.5147-26.5927,0-61.309,5.1682-96.7634,25.8508-57.6109,33.9721-78.2897,84.9401-85.6782,107.8363-3.6935,12.5567,3.6935,25.8539,16.9899,28.8077v.0038c23.6342,5.9124,77.5577,12.5567,136.6494-21.4207,21.4215-12.5552,38.4083-27.3293,50.9681-42.0995l-26.5896,180.967c-.0369.2799-.0154.5574-.0277.8396h-229.8208l-144.9206-459.5155h182.0911v37.704h-5.8924c-5.8924,0-9.4214,4.713-9.4214,9.426s4.7099,9.4214,9.4214,9.4214h31.8116c5.8939,0,9.4245-4.7084,9.4245-9.4214.0062-4.713-3.5305-9.426-9.4245-9.426h-7.0703v-36.5215l68.8729-.0046c1.1779,0,2.3573,0,4.713-1.1779,0,0,1.1779,0,1.1779-1.1779,1.1779,0,1.1779-1.1779,2.3573-2.3573v-1.1748s1.1779-1.1779,1.1779-2.3603v-1.1779l.0031.0123v-4.7161q0-1.1779-1.1748-1.1779l-2.3557-2.3557-273.348-195.5842,179.3447.0123v35.3437h-5.8909c-5.8939,0-9.4229,4.713-9.4229,10.6054s4.7115,10.6054,9.4229,10.6054h31.8116c5.8924,0,9.4245-4.7115,9.4245-10.6054s-4.7115-10.6054-9.4245-10.6054h-7.0718v-35.3437l69.2696-.0123c1.1763,0,2.3573,0,4.713-1.1763,0,0,1.1763,0,1.1763-1.1779,1.1779,0,1.1779-1.1763,2.3573-2.3542v-1.1809c0-1.1779,1.1779-1.1779,1.1779-2.3573v-8.2451l-2.3542-2.3542-285.1405-216.8058-159.0642-175.562s-1.1748,0-1.1748-1.1763l-1.1809-1.1794h-8.2466c-1.1809,0-1.1809,1.1794-1.1809,1.1794,0,0-1.1748,0-1.1748,1.1763l-160.2421,175.562-281.6008,216.7951-2.3542,2.3527v8.2466q0,1.1779,1.1779,2.3588v1.1779q1.1763,1.1748,2.3573,2.3573s1.1748,0,1.1748,1.1763c1.1779,0,2.3603,1.1794,3.5367,1.1794h70.3337v35.3437h-5.8939c-5.8924,0-10.6039,4.713-10.6039,10.6054s4.7115,10.6054,10.6039,10.6054h31.8132c5.8924,0,10.6054-4.7115,10.6054-10.6054s-4.713-10.6054-10.6054-10.6054l-5.8939.0046v-35.3468h175.9203l-272.1717,194.4094-2.3542,2.3527s0,1.1779-1.1779,1.1779v7.0718q0,1.1763,1.1779,2.3573v1.1763l2.3557,2.3573s1.1794,0,1.1794,1.1779c1.1748,1.1779,2.3573,1.1779,4.7115,1.1779l70.2999-1.2163-.0046,36.5246h-5.8909c-5.8939,0-10.6054,4.7145-10.6054,9.426s4.7115,9.4229,10.6054,9.4229h31.8101c5.8924,0,10.6069-4.7099,10.6069-9.4229.0015-4.7115-5.8893-9.426-11.7817-9.426h-4.7145v-36.5215l177.1289,1.2163-144.9206,458.3299-289.9242-.8411.1984-78.8017,159.5132.8626c8.2358.0377,15.9227-3.9818,20.565-10.7623,4.6976-6.8642,5.5879-15.3891,2.3942-23.4989l-60.9446-140.4852c-3.9826-9.1423-12.6305-14.8471-22.5686-14.8948l-317.3335-1.5008c-9.9765-.0492-18.6875,5.5795-22.7347,14.6841l-60.2526,135.3293c-7.3993-1.6369-15.4122-3.1569-23.8541-4.5223-2.4972-.3913-4.9944.2068-7.0288,1.7137-1.2071.8903-2.1651,2.0344-2.8124,3.336l-.4951-.0015-.409,2.8616c-6.5844,46.0913-2.3973,84.8925,12.3522,115.597h-244.8132L21.938,1997.7013h180.3627v38.0946h-9.7228c-5.4988,0-9.955,4.4562-9.955,9.955s4.4562,9.9534,9.955,9.9534h39.357c5.5003,0,9.9565-4.4547,9.9565-9.9534s-4.4562-9.955-9.9565-9.955h-9.7212v-38.0946h59.6268c4.3194,0,8.1451-2.7847,9.4752-6.8919,1.327-4.1102-.1461-8.6049-3.6474-11.1359L19.7591,1786.2758l182.5416.4921v36.1648h-9.7228c-5.4988,0-9.955,4.4562-9.955,9.955s4.4562,9.955,9.955,9.955h39.357c5.5003,0,9.9565-4.4547,9.9565-9.955s-4.4562-9.955-9.9565-9.955h-9.7212v-36.1094l59.5991.1599h.0277c4.2363,0,8.0098-2.6802,9.4029-6.6828,1.3962-4.0103.0953-8.4665-3.243-11.0944L16.1317,1555.0665c-.183-.2322-.2968-.5028-.5013-.7212l-63.1988-67.0984c-.0415,9.6336-.1015,19.2672-.1353,28.9008l33.031,35.0684h-33.1648c-.0246,6.792-.0461,13.5839-.0723,20.3743h25.0996l-25.178,17.894c-.0369,8.1713-.0738,16.3425-.1169,24.5138l46.5303-33.0694v185.3771l-6.3552-.0185-41.1869-29.7327c-.0984,8.1097-.2107,16.218-.326,24.3262l7.364,5.3142-7.4347-.02c-.0999,6.9365-.2091,13.8715-.3245,20.8079h25.2703l-25.5763,17.0114c-.1461,8.0698-.2722,16.1411-.4398,24.2108l49.0091-32.5943v173.5554l-51.8999-34.5164c-.2614,7.7899-.5443,15.5783-.8211,23.3682l29.7281,19.7731h-30.4246c-.2476,6.6366-.5197,13.2733-.7765,19.9099h27.6506l-28.2995,16.6808c-.3137,7.8929-.6305,15.7874-.9564,23.6803l60.0081-35.3698,60.4879,192.8825-124.1757-73.3199c-.346,7.5016-.7027,15.0016-1.0549,22.5025l121.0081,71.4485-127.4002,58.3251c-.3829,7.4762-.7704,14.9524-1.1548,22.4287l143.9103-65.8829,67.6996,215.8847-214.2917-98.1296c-.3706,7.1302-.7396,14.2613-1.1102,21.3915l189.3335,86.6993H-77.9269c-.3183,6.2015-.6397,12.4014-.9549,18.6029h500.6039c20.8049,29.2022,53.2239,47.1654,96.7634,53.3884l19.6501,1.7038.243-.0138c52.8364-3.0884,92.2288-21.6637,117.1131-55.2159l10.7084.0531,360.2487,1.2548h1179.8745c.246,0,.4628-.0554.6981-.073h1047.3199c8.3158,1.6699,16.9099,2.5602,25.707,2.5602,3.5874,0,18.2246.7619,22.5717.7619,10.0119,0,19.7469-1.1733,29.1176-3.3222h448.764c.0569.0023.1092.0177.1661.0177h1327.1747c3.9895.7996,8.0475,1.4085,12.1577,1.8352v-20.7434h-4.8206c-52.1798-8.7364-92.0796-54.1918-92.0796-108.815v-48.7246h14.5765ZM18.3383,1582.1513l234.6706,184.8435-234.6706-.6335v-184.21ZM18.3383,1809.8101l232.6993,167.9813H18.3383v-167.9813ZM899.5391,2351.9446c.8242,1.8337.6443,3.9565-.4721,5.6717-1.1194,1.7191-2.9739,2.6986-5.0867,2.6886l-122.718-.5812-7.1764-38.163,122.5242.6028,12.9289,29.7811ZM861.9135,2265.1707l16.567,38.183-117.9158-.5574-7.1733-38.1392,108.5221.5136ZM833.2449,2208.1811c2.6064.0138,4.3655,1.1832,5.4911,3.6059l15.0124,34.5964-103.9044-.4944-7.1733-38.1592,90.5742.4513ZM625.5575,2207.1762l98.0428.4628,7.1733,38.163-112.7507-.532,7.5347-38.0938ZM614.3201,2263.999l119.9994.5674,7.1718,38.1392-134.7042-.6381,7.5331-38.0685ZM510.3865,2210.2154c1.0302-2.338,2.937-3.5705,5.5172-3.5613l90.5773.4298-7.5347,38.0961-103.9029-.4928,15.343-34.4718ZM486.7231,2263.3932l108.5267.5136-7.5362,38.07-117.9204-.5566,16.9299-38.0269ZM461.4651,2320.1306l122.5258.5774-7.5347,38.0923-83.0888-.3944c-12.1585-6.1146-26.2298-11.4396-41.8911-15.8512l9.9888-22.4241ZM536.7517,2488.9592c-12.9104-29.0307-34.1996-59.8951-58.3167-84.2451-4.2655-4.2848-9.9857-3.1861-13.2102.0108-3.2199,3.1976-4.3563,8.9132-.1107,13.1964,27.2016,27.4615,49.4304,61.8726,60.2326,93.0161-37.6687-4.4877-66.2588-18.5829-85.0216-41.9296-21.8397-27.1801-30.1048-66.0182-24.5876-115.4855,57.3433,10.5085,93.9125,29.289,111.7358,57.3764,12.998,20.482,16.1103,46.7056,9.2784,78.0605ZM522.4189,2377.2948l40.6964.193c-7.6285,7.7853-13.8053,16.3379-18.4491,25.5425-5.7125-9.4152-13.161-18.0293-22.2472-25.7355ZM655.8638,2434.6943c-14.8279,43.2581-52.2121,70.1914-105.5636,76.2215,2.1297-6.9672,3.898-13.7915,5.2666-20.3513,7.836-13.4947,17.3897-29.1353,28.9285-43.325,11.6603-14.3312,24.1785-25.8892,39.3862-36.3808,2.8263-1.9513,4.2994-4.9352,4.0395-8.1866-.2737-3.446-2.4695-6.6305-5.5895-8.1136-2.9462-1.3947-6.2584-1.081-9.077.868-21.1293,14.5642-38.1792,31.6763-54.331,54.6885-.4828-7.7868-1.6899-15.2546-3.6105-22.3072,4.8222-19.6216,17.465-36.9483,36.6061-50.157,18.8966-12.998,43.0306-21.4307,68.2578-23.8864.8457,5.162,1.5146,10.2664,1.9821,15.127,1.756,30.8467,1.45,38.5428-6.2953,65.8029ZM596.6737,2353.0479l6.3845-32.2668,141.959.6712,7.1764,38.1592-72.3265-.3429c-.7304-5.571-1.6545-11.2059-2.7309-16.6631-.6443-4.7876-4.8406-8.2143-9.6674-8.0836-24.8705,1.1064-49.7256,7.6423-70.795,18.526ZM715.4029,2456.923l-48.457-.2283c1.5792-3.1784,3.06-6.4929,4.427-9.9158,0,0,4.0764-10.0672,5.9047-18.7367,3.7227-15.3968,5.1589-32.1837,4.2855-50.0132l34.0597.0554-.2199,78.8386ZM1511.8988,1577.7043l246.2463,187.3407h-246.2463v-187.3407ZM1511.8911,1805.114l243.8967,174.3765h-243.8967v-174.3765ZM1496.5712,1998.3302l63.6294,200.3049-197.9477-120.1823,133.1404-80.1226h1.1779ZM1344.5865,1683.7476l113.1151,81.2974h-227.3989l114.2838-81.2974ZM1343.4086,1659.0032l-128.4259-91.9012h255.6754l-127.2495,91.9012ZM1470.6581,1786.2574l-128.4243,82.4768-129.6037-82.4768h258.0281ZM1493.0453,1795.6834v168.4841l-130.7893-83.6562,130.7893-84.8279ZM1324.5597,1880.5144l-129.6007,83.6577-.0031-166.1314,129.6037,82.4737ZM1342.2338,1892.2961l134.3137,86.0135h-267.4541l133.1404-86.0135ZM1456.516,1998.3379l-113.1075,68.3378-113.1059-68.3378h226.2134ZM1555.486,2217.4879l-212.0805,96.6166-212.0805-96.6166,212.0805-128.4259,212.0805,128.4259ZM1493.0453,1766.226l-131.9641-94.2616,131.9641-94.2601v188.5216ZM1343.4055,1397.4385l136.6771,150.8146-273.3495-.0046,136.6725-150.8099ZM1193.7719,1577.7043l131.9656,94.2601-130.7893,94.2585h-1.1763v-188.5186ZM931.0247,1765.045l243.8952-187.3407v187.3407h-243.8952ZM932.2041,1979.4905l241.5333-173.2002v173.2002h-241.5333ZM1189.0604,1999.5204l2.3542-.0046-.0031-1.1779,133.1389,80.121-197.9384,120.1839,62.4484-199.1224ZM1116.0051,2232.804l203.8385,91.902-272.1732,123.7113,68.3347-215.6133ZM1077.1232,2456.6755l266.2823-120.1846,266.2823,120.1846h-532.5647ZM1368.1515,2325.8877l203.8354-91.9059,67.1599,214.4432-270.9954-122.5373ZM1998.1762,2199.9568c23.6342-.7366,55.3966,3.6943,89.3718,22.8984,51.7093,30.2847,70.1738,74.6038,76.0831,94.5461v.7389h-.7412c-20.6834,5.1697-67.9533,11.0798-120.3992-18.4653-27.3293-15.5129-45.0557-35.4567-56.8743-53.1831,8.1236-8.8624,13.2979-21.4215,13.2979-34.7148.7366-4.4331,0-8.1259-.7381-11.8202ZM1947.2065,1983.5346c15.5122,15.5091,44.3191,53.1793,44.3191,113.7494,0,28.8085-6.6489,52.445-15.5122,70.9103-8.1236-5.1697-17.728-8.8624-28.0689-8.8624-11.0806,0-20.6834,3.6951-29.5466,8.8624-8.8632-18.4653-15.5122-42.8445-15.5122-71.6484,0-59.8305,29.5466-98.2419,44.3207-113.0113ZM1855.6128,2299.6748c-51.7046,30.2855-99.7173,23.6365-120.3992,18.4668,1.4777,0,.7396,0,.7396-.7381v-.0023c5.9093-19.9399,24.3754-64.9995,76.0815-94.5445,31.7624-18.4668,62.0456-22.9,84.9432-22.9-.7381,3.6943-1.4746,7.3893-1.4746,11.8179,0,14.7748,5.9078,28.0704,15.5091,36.9321-11.8171,16.9899-29.5451,36.1956-55.3997,50.9681ZM1918.398,2211.0365c0-16.2495,13.2964-29.5466,29.5466-29.5466s29.5451,13.2971,29.5451,29.5466-13.2964,29.5451-29.5451,29.5451-29.5466-13.2956-29.5466-29.5451ZM1914.2662,2457.8472l27.7675-195.1083h5.1697c2.957,0,5.9124,0,8.8648-.7389l27.769,195.8472h-69.571ZM2984.4577,1582.1513l234.6737,184.8435-234.6737-.6335v-184.21ZM2984.4577,1809.8101l232.7024,167.9813h-232.7024v-167.9813ZM3029.2412,2195.5751l-193.6929-114.3668,133.2065-78.5157,60.4864,192.8825ZM2924.0405,1766.1952l-219.3368-.5935,110.109-78.2528,109.2279,78.8463ZM2688.4811,1571.5905h254.8312l-128.4074,91.2631-126.4238-91.2631ZM2941.5532,1786.9832l-125.4612,83.4471-125.4612-83.4471h250.9224ZM2964.5447,1795.6111v173.5554l-130.4741-86.7761,130.4741-86.7792ZM2941.5532,1977.7913h-250.9224l125.4612-83.4455,125.4612,83.4455ZM2938.0012,1997.7013l-122.0445,71.9367-121.8307-71.9367h243.8752ZM3025.0218,2216.2062l-210.4567,96.3482-209.0851-95.7416,210.469-124.0519,209.0728,123.4453ZM2964.5447,1766.3059l-6.3537-.0185-126.2347-91.1263,132.5884-94.2324v185.3771ZM2814.3421,1405.6466l137.1046,145.5695h-270.0389l132.9344-145.5695ZM2667.6378,1581.1026l130.1219,93.9325-127.2972,90.4743-2.8247-.0077v-184.3991ZM2667.6378,1795.6111l130.4756,86.7792-130.4756,86.7792v-173.5584ZM2413.6846,1764.8144l234.0402-182.7707v183.4042l-234.0402-.6335ZM2406.1515,1977.7913l241.5733-171.6932v171.6932h-241.5733ZM2663.36,2002.6603l132.9974,78.5318-194.923,114.8904,61.9256-193.4222ZM2590.0478,2231.6477l200.6002,91.859-269.5099,123.3784,68.9098-215.2374ZM2545.0429,2457.8449l269.5192-123.3884,269.4561,123.3884h-538.9753ZM2838.4792,2323.5066l201.8964-92.4294,67.6996,215.8847-269.5961-123.4553ZM3294.624,2436.7801c-20.3912-41.5167-60.3972-85.5206-62.4315-87.7464-3.7135-4.0549-10.0073-4.3324-14.0652-.6243-4.0579,3.7127-4.3378,10.0088-.6274,14.069.529.5751,49.3597,54.291,64.6366,95.3664h-19.7393c-52.4873-8.4765-92.7039-54.0873-92.7039-108.9273v-48.7246h14.5772c60.8508,0,110.3535,49.5065,110.3535,110.3565v26.2306ZM3324.2952,2457.8449h-9.6643c-.4367-2.8024-.0938-9.1023-.0938-13.1518v-14.2213c20.3466-33.9305,50.2177-66.7755,50.6283-67.2268,3.7104-4.061,3.4306-10.3571-.6258-14.069-4.061-3.715-10.3548-3.4306-14.0652.6243-1.3362,1.4608-19.0381,20.9386-36.8106,45.8845-1.5807-13.843-5.3419-27.024-10.9283-39.2086,19.0688-33.1256,54.7739-55.5173,95.6593-55.5173h14.5803v48.7208c0,53.4276-38.1792,98.062-88.6798,108.1653ZM3855.6343,2219.8359l13.9053,34.1881h-96.7219l-6.8012-34.1881h89.6178ZM3774.4523,2360.8739h-148.8878l6.9457-34.185h135.1409l6.8012,34.185ZM3654.23,2219.8359h92.1642l6.7996,34.1881h-105.9142l6.9503-34.1881ZM3643.3709,2273.2651h113.6518l6.8012,34.1812h-127.4018l6.9488-34.1812ZM3546.2077,2219.8359h88.383l-6.9488,34.1881h-97.0279l15.5937-34.1881ZM3605.9236,2360.8739h-124.0481l15.5937-34.185h115.4032l-6.9488,34.185ZM3506.2448,2307.4463l15.5921-34.1812h101.8947l-6.9488,34.1812h-110.538ZM3776.5543,2457.8449h-153.1426v-77.7276h153.1426v77.7276ZM3776.645,2273.2651h100.7199l13.9053,34.1812h-107.8224l-6.8027-34.1812ZM3787.2751,2326.6889h111.8219l13.9045,34.185h-118.9268l-6.7996-34.185ZM4548.6487,1582.1513l234.6714,184.8435-234.6714-.6335v-184.21ZM4548.6487,1809.8101l232.7001,167.9813h-232.7001v-167.9813ZM4593.4315,2195.5751l-193.6936-114.3668,133.2065-78.5157,60.4871,192.8825ZM4488.2316,1766.1952l-219.3376-.5935,110.1082-78.2528,109.2294,78.8463ZM4252.6706,1571.5905h254.8289l-128.4066,91.2631-126.4223-91.2631ZM4505.7443,1786.9832l-125.4612,83.4471-125.4635-83.4471h250.9247ZM4528.7357,1795.6111v173.5554l-130.4756-86.7761,130.4756-86.7792ZM4505.7443,1977.7913h-250.9247l125.4635-83.4455,125.4612,83.4455ZM4502.1914,1997.7013l-122.0452,71.9367-121.83-71.9367h243.8752ZM4589.2113,2216.2062l-210.4575,96.3482-209.0851-95.7416,210.4698-124.0519,209.0728,123.4453ZM4528.7357,1766.3059l-6.3552-.0185-126.2354-91.1263,132.5907-94.2324v185.3771ZM4378.5316,1405.6466l137.1046,145.5695h-270.0381l132.9336-145.5695ZM4231.8281,1581.1026l130.1227,93.9325-127.2995,90.4743-2.8232-.0077v-184.3991ZM4231.8281,1795.6111l130.4748,86.7792-130.4748,86.7792v-173.5584ZM3977.8741,1764.8144l234.0417-182.7707v183.4042l-234.0417-.6335ZM3970.341,1977.7913l241.5748-171.6932v171.6932h-241.5748ZM4227.5495,2002.6603l132.9974,78.5318-194.9215,114.8904,61.9241-193.4222ZM4154.2373,2231.6477l200.6002,91.859-269.5084,123.3784,68.9083-215.2374ZM4109.4768,2457.7326l269.2747-123.2762,269.2124,123.2762h-538.4871ZM4402.6687,2323.5066l201.8964-92.4294,67.6996,215.8847-269.5961-123.4553Z"/>
      <path class="cls-3" d="M5120,1289.9134l-390.5062,156.3108c-5.1037,2.0462-7.5851,7.8402-5.5429,12.9468,1.5578,3.8896,5.2967,6.2568,9.2473,6.2568,1.2309,0,2.4844-.2324,3.6975-.7149l383.1043-153.3488v-21.4506Z"/>
      <path class="cls-3" d="M5120,1556.9475l-193.3531,71.5737c-5.3164,1.4042-8.4891,6.8496-7.0878,12.1669,1.1777,4.4686,5.21,7.4207,9.6215,7.4207.8399,0,1.6927-.1063,2.5454-.3289l188.2741-69.6949v-21.1375Z"/>
      <path class="cls-3" d="M5120,1865.7524l-135.7651,15.4066c-5.4631.6184-9.3901,5.5517-8.7707,11.0148.577,5.083,4.8841,8.8327,9.8805,8.8327.3762,0,.7523-.0217,1.1344-.065l133.521-15.1525v-20.0366Z"/>
      <path class="cls-3" d="M1715.5843,1667.6716c95.4545,45.469,220.0378,64.9589,344.9228,64.9589,129.2289,0,258.7755-20.8827,356.5648-55.4561.3216-.1132.6353-.2422.945-.3871l20.1272-9.4789c5.0785-2.3923,7.2544-8.4486,4.8641-13.527-2.3864-5.0785-8.4416-7.2613-13.528-4.865l-19.6627,9.2606c-188.4393,66.4618-496.173,81.321-685.4898-8.8595-5.0626-2.4152-11.1337-.2621-13.5479,4.8055-2.4142,5.0685-.2621,11.1347,4.8045,13.5489Z"/>
      <path class="cls-3" d="M2354.4348,1781.9579l-20.1272,9.4789c-160.875,75.7591-345.6375,76.2455-506.9136,1.3431-5.0943-2.3655-11.1337-.1539-13.5002,4.9375-2.3625,5.0914-.1549,11.1357,4.9395,13.5002,82.8795,38.4935,171.7308,57.7274,260.5941,57.7274,89.9314,0,179.8746-19.7153,263.5443-59.1161l20.1272-9.4789c5.0785-2.3923,7.2544-8.4486,4.8641-13.527-2.3864-5.0775-8.4337-7.2584-13.528-4.865Z"/>
      <path class="cls-3" d="M3222.2809,1696.7735c94.1561,33.3039,237.9693,53.3676,380.5237,53.3676,116.8961,0,232.9623-13.5032,319.9871-44.2708.3216-.1132.6353-.2422.945-.3871l20.1272-9.478c5.0785-2.3913,7.2544-8.4476,4.8641-13.527-2.3903-5.0755-8.4376-7.2603-13.528-4.865l-19.6627,9.2596c-189.3486,66.7169-518.4523,50.1662-686.4746-9.2655-5.3088-1.8722-11.1059.9013-12.9721,6.1932-1.8741,5.2929.8974,11.101,6.1903,12.9731Z"/>
      <path class="cls-3" d="M3585.1432,1897.641c89.9314,0,179.8786-19.7153,263.5482-59.1161l20.1272-9.4789c5.0785-2.3923,7.2544-8.4486,4.8641-13.527-2.3903-5.0775-8.4376-7.2593-13.528-4.865l-20.1272,9.4789c-160.875,75.7581-345.6336,76.2475-506.9136,1.3431-5.0943-2.3665-11.1337-.1539-13.5002,4.9365-2.3625,5.0924-.1549,11.1367,4.9395,13.5012,82.8755,38.4935,171.7268,57.7274,260.5901,57.7274Z"/>
      <path class="cls-3" d="M3266.4386,1935.6679c-2.3625,5.0924-.1549,11.1367,4.9395,13.5012,81.2197,37.7252,189.0865,59.2511,303.7233,60.612,3.7999.0457,7.5879.0675,11.368.0675,112.0161,0,215.4636-19.758,292.3474-55.9634l20.1272-9.4789c5.0785-2.3923,7.2544-8.4486,4.8641-13.527-2.3903-5.0765-8.4376-7.2603-13.528-4.865l-20.1272,9.4789c-156.1023,73.5097-426.3808,71.3298-590.214-4.7618-5.0943-2.3685-11.1337-.1539-13.5002,4.9365Z"/>
      <path class="cls-3" d="M223.0708,1667.8423c103.92,44.3731,229.7262,62.8684,352.3043,62.8684,129.8801,0,256.131-20.7725,348.8022-53.5363.3216-.1132.6353-.2422.945-.3871l20.1312-9.4789c5.0785-2.3913,7.2544-8.4476,4.8641-13.526-2.3903-5.0775-8.4376-7.2623-13.528-4.866l-19.6667,9.2606c-176.579,62.2658-476.7605,80.2549-685.871-9.0303-5.1579-2.2027-11.1337.1906-13.3374,5.3564-2.2077,5.1628.1906,11.1357,5.3564,13.3394Z"/>
      <path class="cls-3" d="M586.5326,1868.945c89.9314,0,179.8746-19.7153,263.5443-59.1161l20.1312-9.4789c5.0785-2.3913,7.2544-8.4476,4.8641-13.526-2.3903-5.0775-8.4376-7.2593-13.528-4.866l-20.1312,9.4789c-160.875,75.7591-345.6415,76.2455-506.9136,1.3431-5.0943-2.3655-11.1337-.1539-13.5002,4.9375-2.3625,5.0914-.1549,11.1357,4.9395,13.5002,82.8795,38.4935,171.7308,57.7274,260.5941,57.7274Z"/>
      <path class="cls-3" d="M267.824,1906.973c-2.3625,5.0914-.1549,11.1357,4.9395,13.5002,81.2237,37.7252,189.0865,59.2511,303.7273,60.612,3.7999.0457,7.584.0675,11.364.0675,112.0161,0,215.4636-19.758,292.3474-55.9634l20.1272-9.4789c5.0785-2.3923,7.2544-8.4486,4.8641-13.527-2.3864-5.0775-8.4337-7.2593-13.528-4.865l-20.1272,9.4789c-156.0983,73.5117-426.3848,71.3278-590.214-4.7618-5.0904-2.3645-11.1337-.1539-13.5002,4.9375Z"/>
    </g>
    <g>
      <polygon class="cls-3" points="2441.8899 373.61 2414.1978 373.61 2414.1978 463.9983 2481.8724 463.9983 2481.8724 440.8178 2441.8899 440.8178 2441.8899 373.61"/>
      <polygon class="cls-3" points="2493.696 463.9983 2521.8548 463.9983 2521.8548 429.6165 2557.9479 429.6165 2557.9479 408.3029 2521.8548 408.3029 2521.8548 396.7905 2563.5486 396.7905 2563.5486 373.61 2493.696 373.61 2493.696 463.9983"/>
      <polygon class="cls-3" points="2584.8622 464.7762 2635.268 464.7762 2635.268 458.7088 2591.5518 458.7088 2591.5518 419.971 2633.09 419.971 2633.09 413.9036 2591.5518 413.9036 2591.5518 379.5218 2635.268 379.5218 2635.268 373.61 2584.8622 373.61 2584.8622 464.7762"/>
      <path class="cls-3" d="M2717.411,433.0392c0,6.6897.3112,13.8461.7779,21.3136h-.7779l-54.9175-80.5872h-6.3785v90.6995h5.9118v-59.118c0-4.8228-.3112-11.9792-.7779-21.6247h.3112l54.9175,81.0539h7.0008v-91.1662h-6.3785v59.4292h.3111Z"/>
      <polygon class="cls-3" points="2749.6146 464.7762 2800.0206 464.7762 2800.0206 458.7088 2756.3044 458.7088 2756.3044 419.971 2797.6869 419.971 2797.6869 413.9036 2756.3044 413.9036 2756.3044 379.5218 2800.0206 379.5218 2800.0206 373.61 2749.6146 373.61 2749.6146 464.7762"/>
      <path class="cls-3" d="M2871.74,414.3703c3.4226-4.0449,4.8227-9.3344,4.8227-15.7129,0-8.5566-2.9559-14.6239-8.2454-18.98-5.6006-4.0449-14.1572-6.3785-25.3585-6.3785h-22.0915v91.4773h6.3785v-39.9824l22.7137.3111,24.2695,39.5157h7.7787l-24.8916-41.3826c6.3785-1.4002,11.2013-4.8228,14.6239-8.8677ZM2844.8258,419.5042h-17.891v-39.9824h14.935c9.6456,0,16.4908,1.5557,20.8469,4.8228,4.0449,2.9559,6.3785,8.2454,6.3785,14.9351s-2.1781,11.5125-6.3785,14.9351c-3.7337,3.8893-10.1123,5.2895-17.891,5.2895Z"/>
      <path class="cls-3" d="M2933.6584,423.7047h26.9142v30.9592c-5.9118,2.178-13.0682,3.4226-21.3136,3.4226-13.0682,0-22.7137-3.4226-29.0923-10.1123-6.6896-6.6897-10.1123-16.802-10.1123-30.1813,0-12.2903,3.4226-22.0915,10.4235-29.0923,6.6896-7.4675,16.4908-10.8902,28.3144-10.8902,8.2454,0,16.4908,1.8669,24.2695,5.6007l2.6448-5.6007c-7.7787-3.4226-16.8019-5.6007-26.4475-5.6007-9.3344,0-17.1131,1.8669-24.2695,5.6007-7.1564,3.7338-12.2904,9.3344-16.4908,16.4908-3.7338,7.1564-5.6006,14.9351-5.6006,23.9584,0,14.6239,3.7338,25.8252,11.2013,33.6039s18.6688,11.9792,32.826,11.9792c10.8902,0,20.8469-1.5557,29.559-5.6007v-40.6047h-33.2928l.4667,6.0674Z"/>
      <polygon class="cls-3" points="3037.5816 373.61 3010.6674 422.9269 2983.753 373.61 2976.2855 373.61 3006.9336 429.6165 3006.9336 463.9983 3013.6232 463.9983 3013.6232 428.8387 3044.2712 373.61 3037.5816 373.61"/>
      <g>
        <path class="cls-3" d="M2333.6107,680.7125v5.4451c0,26.2919,11.5124,39.6713,35.4708,39.6713,21.7803,0,32.6705-15.4018,32.6705-31.4259,0-22.7138-11.5124-32.6705-30.8036-38.4267l-23.6472-8.2454c-31.4259-12.1348-45.1164-28.47-45.1164-59.2736,0-39.3601,26.6031-61.1405,67.2079-61.1405,55.3842,0,61.1404,34.5374,61.1404,56.94v4.8228h-34.5374v-4.5116c0-19.6023-8.7121-31.1147-30.3369-31.1147-14.7795,0-29.0923,8.2454-29.0923,31.1147,0,18.5133,9.3344,27.8477,32.3593,36.5598l23.3361,8.401c30.4925,10.8902,43.8718,27.5365,43.8718,57.2511,0,46.0498-27.8477,65.0298-71.4083,65.0298-53.5173,0-65.6521-35.7819-65.6521-65.9632v-5.1339h34.5374Z"/>
        <path class="cls-3" d="M2463.9814,531.6729h116.8358v29.0923h-82.2985v59.8959h77.4757v29.0923h-77.4757v68.9191h84.7877v29.0923h-119.325v-216.0919Z"/>
        <path class="cls-3" d="M2662.4934,531.6729h44.183l56.9399,216.0918h-35.9375l-13.3793-52.8951h-63.3185l-13.8461,52.8951h-35.9375l61.296-216.0918ZM2708.5432,667.1776l-24.7363-106.568h-.6223l-25.6697,106.568h51.0282Z"/>
        <path class="cls-3" d="M2784.7744,531.6729h68.4524c41.3826,0,59.5847,25.9808,59.5847,63.0073,0,38.7378-22.7137,63.7852-63.3185,63.7852h-30.3369v89.2993h-34.5374v-216.0919h.1556ZM2819.3117,632.329h24.5806c18.5133,0,34.5374-9.9567,34.5374-37.1821,0-23.3361-9.3344-37.4933-36.871-37.4933h-22.0915v74.6754h-.1555Z"/>
        <path class="cls-3" d="M2965.7065,531.6729h44.183l56.9399,216.0918h-35.9375l-13.3793-52.8951h-63.3185l-13.8461,52.8951h-36.0931l61.4516-216.0918ZM3011.7563,667.1776l-24.7363-106.568h-.6223l-25.6697,106.568h51.0282Z"/>
        <path class="cls-3" d="M3100.7445,560.6096h-51.4949v-29.0923h136.4381v29.0923h-50.5614v186.9996h-34.5374v-186.9996h.1555Z"/>
        <path class="cls-3" d="M3211.513,531.6729h34.5374v86.499h63.474v-86.499h34.5374v216.0918h-34.5374v-100.5006h-63.474v100.5006h-34.5374v-216.0919Z"/>
      </g>
      <polygon class="cls-3" points="2317.1198 409.392 2298.451 409.392 2298.451 463.9983 2353.3685 463.9983 2353.3685 446.1073 2317.1198 446.1073 2317.1198 409.392"/>
      <polygon class="cls-3" points="2298.451 400.0575 2316.8087 400.0575 2316.8087 391.1898 2371.7262 391.1898 2371.7262 446.1073 2362.7029 446.1073 2362.7029 463.9983 2389.9283 463.9983 2389.9283 372.8321 2298.451 372.8321 2298.451 400.0575"/>
      <path class="cls-3" d="M1967.5458,523.583c32.0482-21.9359,64.8742-43.5606,128.9706-43.5606,5.2895,0,10.2679.1556,15.0906.4667,23.4916-15.5574,49.9392-29.0923,96.1445-29.0923,2.8003,0,5.4451,0,8.0899.1556-37.4933-71.5639-112.4798-120.414-198.8232-120.414-87.8991,0-163.9747,50.5614-200.6901,124.1478,63.7852,13.3793,80.4316,59.2736,151.2176,68.2968Z"/>
      <path class="cls-6" d="M1967.5458,523.583c-70.786-8.8677-87.4324-54.7619-151.3732-68.4524-15.0906,30.1813-23.8028,64.2519-23.8028,100.345,0,3.5782.1556,7.1564.3111,10.7346,12.2903,2.178,26.1364,3.5782,41.6937,3.5782,66.8967,0,99.7227-23.3361,133.1711-46.2054Z"/>
      <path class="cls-6" d="M2111.607,480.4891c63.3185,3.5782,93.6554,29.8701,128.5039,52.8951-2.8003-29.2479-11.3569-56.94-24.4251-81.8318-2.6448-.1556-5.2895-.1556-8.0899-.1556-46.0498,0-72.3417,13.5349-95.9889,29.0923Z"/>
      <path class="cls-5" d="M2096.5163,480.0224c-64.2519,0-96.9224,21.4692-128.9706,43.5606-33.4483,22.8693-66.2744,46.361-133.0155,46.361-15.5574,0-29.4034-1.2446-41.6937-3.5782.4667,11.5124,1.8669,22.7138,4.2005,33.6039,14.1572-2.3336,29.7146-3.5782,47.1388-3.5782,70.4749,0,110.6129,20.8469,146.5504,44.4941,47.9167-21.158,69.0747-60.6737,147.795-60.6737,46.361,0,72.8085,13.6905,96.4557,29.4034,4.356-17.2687,6.5341-35.4708,6.5341-53.9841,0-7.4675-.3112-14.7795-1.089-22.0915-34.8485-23.1805-65.1854-49.3169-128.5039-52.8951-5.1339-.4667-10.1123-.6223-15.4018-.6223Z"/>
      <path class="cls-6" d="M1990.5707,640.8856c47.45,31.2703,87.4324,67.519,180.4655,67.519,3.5782,0,6.8452,0,10.2679-.1556,25.5141-27.381,44.1829-61.1405,53.3618-98.6337-23.6472-15.5574-50.0947-29.4034-96.4557-29.4034-78.7203,0-99.7227,39.5157-147.6394,60.6737Z"/>
      <path class="cls-4" d="M1990.5707,640.8856c-35.9375-23.6472-76.0755-44.4941-146.5504-44.4941-17.4243,0-32.9816,1.2446-47.1388,3.5782,9.0233,44.6496,31.1147,84.4765,62.385,115.2801,20.5357-11.668,44.8052-20.6913,82.4541-20.6913,87.4324,0,103.9232,48.6946,164.597,66.8967,28.6255-12.4459,54.1396-30.648,74.9865-53.2062-3.4226.1556-6.6897.1556-10.2679.1556-93.0331,0-133.1711-36.2486-180.4655-67.5189Z"/>
      <path class="cls-5" d="M1859.2665,715.0943c40.6047,39.9825,96.1445,64.7187,157.7517,64.7187,31.737,0,61.9183-6.6896,89.2993-18.5133-60.8293-18.2021-77.3201-66.8967-164.597-66.8967-37.6488.1555-62.0739,9.0233-82.4541,20.6913Z"/>
    </g>
  </g>
  <rect class="cls-2" y="2613.572" width="5285.3546" height="3231.5251"/>
</svg>